<svg xmlns="http://www.w3.org/2000/svg" width="337.402" height="64.601" viewBox="0 0 337.402 64.601">
  <g id="Strain_Activities" data-name="Strain Activities" transform="translate(-3990.921 -1158.088)">
    <g id="Group_101" data-name="Group 101">
      <text id="TV_Movies" data-name="TV / Movies" transform="translate(4232.323 1216.98)" fill="#2d64ba" font-size="17.501" font-family="AktivGrotesk-Medium, Aktiv Grotesk" font-weight="500"><tspan x="0" y="0">TV / Movies</tspan></text>
    </g>
    <g id="Group_102" data-name="Group 102">
      <text id="Daydream" transform="translate(4112.372 1217.689)" fill="#2d64ba" font-size="17.501" font-family="AktivGrotesk-Medium, Aktiv Grotesk" font-weight="500"><tspan x="0" y="0">Daydream</tspan></text>
    </g>
    <g id="Group_103" data-name="Group 103">
      <text id="Night_Time" data-name="Night Time" transform="translate(3990.921 1217.689)" fill="#2d64ba" font-size="17.501" font-family="AktivGrotesk-Medium, Aktiv Grotesk" font-weight="500"><tspan x="0" y="0">Night Time</tspan></text>
    </g>
    <g id="Group_104" data-name="Group 104">
      <path id="Path_59" data-name="Path 59" d="M4034.666,1190.914a17.072,17.072,0,0,1-11.782-5.183,18.2,18.2,0,0,1-5.151-13.53,17.7,17.7,0,0,1,4.945-11.476,16.666,16.666,0,0,1,2.516-2.177.9.9,0,0,1,.326-.162.6.6,0,0,1,.688.806c-.1.3-.218.593-.318.893a16.062,16.062,0,0,0-.8,6.11,16.569,16.569,0,0,0,12.787,15.154,16.105,16.105,0,0,0,4.823.4,16.438,16.438,0,0,0,8.493-3.028.762.762,0,0,1,.507-.189.607.607,0,0,1,.534.8c-.068.212-.159.418-.245.624a17.807,17.807,0,0,1-12.246,10.443A20.635,20.635,0,0,1,4034.666,1190.914Z" fill="#2d64ba"/>
      <path id="Path_60" data-name="Path 60" d="M4045.184,1169.3c-1.01,0-2.021,0-3.031,0a1.183,1.183,0,0,1-.32-.033.529.529,0,0,1-.423-.491,7.989,7.989,0,0,1,0-1.04.808.808,0,0,1,.184-.386c.715-.939,1.437-1.872,2.157-2.807l1.581-2.053a2,2,0,0,0,.122-.168.657.657,0,0,0-.541-.99c-.887.013-1.774.005-2.661,0a1.316,1.316,0,0,1-.32-.032.559.559,0,0,1-.429-.515,6.8,6.8,0,0,1,0-.74.588.588,0,0,1,.533-.549,1.287,1.287,0,0,1,.139,0q3,0,5.992,0a.915.915,0,0,1,.337.06.548.548,0,0,1,.35.5c.014.323.009.648,0,.972a.682.682,0,0,1-.179.393q-1.159,1.5-2.315,3.005-.749.972-1.5,1.943a.639.639,0,0,0-.065.774.628.628,0,0,0,.58.311c.964-.006,1.928,0,2.892,0a2.074,2.074,0,0,1,.208,0,.606.606,0,0,1,.568.662,5.92,5.92,0,0,1-.077.666.59.59,0,0,1-.573.509c-.123.009-.247,0-.37,0Z" fill="#2d64ba"/>
      <path id="Path_61" data-name="Path 61" d="M4035.967,1174.4h-2.361c-.494,0-.715-.222-.719-.722,0-.169.005-.339,0-.509a.819.819,0,0,1,.192-.552q1.248-1.609,2.487-3.225a2.206,2.206,0,0,0,.163-.224.594.594,0,0,0-.384-.889,1.5,1.5,0,0,0-.3-.026c-.471,0-.942-.016-1.412,0a.629.629,0,0,1-.674-.678c0-.131.005-.262,0-.393a.633.633,0,0,1,.675-.679c1.057.011,2.113,0,3.17,0h1.435a1.822,1.822,0,0,1,.208.007.58.58,0,0,1,.521.556c.009.208-.008.417.005.625a.873.873,0,0,1-.206.617c-.8,1.028-1.594,2.063-2.389,3.1-.071.092-.143.182-.21.277a.566.566,0,0,0-.051.632.576.576,0,0,0,.545.325q.856,0,1.713,0a1.327,1.327,0,0,1,.275.022.6.6,0,0,1,.475.647c-.014.176-.034.353-.06.528a.594.594,0,0,1-.646.557c-.479,0-.957,0-1.435,0Z" fill="#2d64ba"/>
    </g>
    <g id="Group_105" data-name="Group 105">
      <path id="Path_62" data-name="Path 62" d="M4146.332,1162.779a9.322,9.322,0,0,1,5.167-4.114,9.349,9.349,0,0,1,10.545,3.542,9.261,9.261,0,0,1,1.678,5.9,11.446,11.446,0,0,1,8.065,4.372,11.119,11.119,0,0,1,2.408,6.024,11.514,11.514,0,0,1-19.734,9.093c-.056.041-.116.083-.173.129a8.242,8.242,0,0,1-4.039,1.767,8.411,8.411,0,0,1-9.376-6.2,8.3,8.3,0,0,1-.182-.924.332.332,0,0,0-.228-.3,10.052,10.052,0,0,1-4.814-4.251,9.909,9.909,0,0,1-1.327-4.221,10.126,10.126,0,0,1,11.735-10.858C4146.14,1162.753,4146.223,1162.763,4146.332,1162.779Z" fill="#2d64ba"/>
      <path id="Path_63" data-name="Path 63" d="M4139.911,1186.109a3.24,3.24,0,1,1-3.229-3.238A3.24,3.24,0,0,1,4139.911,1186.109Z" fill="#2d64ba"/>
    </g>
    <g id="Group_106" data-name="Group 106">
      <path id="Path_64" data-name="Path 64" d="M4277.845,1164.757a2.115,2.115,0,0,1-.227-.172q-2.379-2.375-4.756-4.75a1.021,1.021,0,0,1-.341-.828.923.923,0,0,1,.563-.821.944.944,0,0,1,1.011.111,2.114,2.114,0,0,1,.209.195q2.79,2.789,5.579,5.579a2.875,2.875,0,0,1,.2.245c.1-.1.169-.159.234-.224l5.564-5.561c.073-.073.145-.147.225-.213a.983.983,0,0,1,1.4,1.366,2.412,2.412,0,0,1-.195.209l-4.7,4.7c-.065.065-.126.133-.226.239h.328q7.737,0,15.473-.007a.736.736,0,0,1,.834.834q-.017,11.654-.008,23.307c0,.079,0,.159,0,.238a.612.612,0,0,1-.549.566,2.547,2.547,0,0,1-.262.008h-36.166a1.9,1.9,0,0,1-.261-.011.607.607,0,0,1-.532-.555c-.006-.071,0-.143,0-.214q0-11.689,0-23.379c0-.063,0-.127,0-.191a.62.62,0,0,1,.576-.593c.079-.007.159,0,.238,0h15.754Zm2.238,22.067a.976.976,0,0,0,1.007-1.074,1.117,1.117,0,0,0-.375-.7q-7.485-7.477-14.966-14.958a1.61,1.61,0,0,0-.213-.19.949.949,0,0,0-1.015-.075.928.928,0,0,0-.535.863,1.029,1.029,0,0,0,.352.777q7.511,7.5,15.017,15.009c.028.028.056.057.085.084A.916.916,0,0,0,4280.083,1186.824Zm-5.1-1.26a1.052,1.052,0,0,0-.368-.8q-3.888-3.882-7.772-7.766a1.85,1.85,0,0,0-.232-.2.969.969,0,0,0-1.1-.018.984.984,0,0,0-.425,1.013,1.182,1.182,0,0,0,.375.62q3.861,3.857,7.721,7.716a1.94,1.94,0,0,0,.229.208.946.946,0,0,0,1.034.089A.932.932,0,0,0,4274.979,1185.564Z" fill="#2d64ba"/>
    </g>
  </g>
</svg>
