<svg xmlns="http://www.w3.org/2000/svg" width="334.961" height="63.189" viewBox="0 0 334.961 63.189">
  <g id="Afghan_Strain_Activties" data-name="Afghan Strain Activties" transform="translate(-3992.251 -1158.088)">
    <g id="Group_101" data-name="Group 101">
      <path id="Path_151" data-name="Path 151" d="M4.288-10.658H.333V-12.5h10.01v1.838H6.405V0H4.288ZM13.756-12.5l3.43,9.625L20.668-12.5h2.258L18.183,0h-2.03l-4.76-12.5ZM27.161,0l4.008-12.846h2L29.156,0ZM38.519-12.5h2.573l3.553,9.94L48.3-12.5h2.485V0H48.845V-9.083L45.415,0h-1.68L40.427-9.065V0H38.519ZM57.438-1.33A2.071,2.071,0,0,0,59.284-2.2a4.182,4.182,0,0,0,.586-2.371,4.1,4.1,0,0,0-.586-2.345,2.078,2.078,0,0,0-1.846-.858,2.071,2.071,0,0,0-1.846.866A4.111,4.111,0,0,0,55-4.568a4.291,4.291,0,0,0,.569,2.363A2.055,2.055,0,0,0,57.438-1.33ZM57.42.28A4.3,4.3,0,0,1,54.112-.98,5.046,5.046,0,0,1,52.94-4.55a6.063,6.063,0,0,1,.306-1.978A4.273,4.273,0,0,1,54.13-8.05a3.958,3.958,0,0,1,1.418-.98,4.921,4.921,0,0,1,1.908-.35,4.863,4.863,0,0,1,1.925.359,3.966,3.966,0,0,1,1.409.989,4.149,4.149,0,0,1,.858,1.514,6.2,6.2,0,0,1,.289,1.934A6.028,6.028,0,0,1,61.6-2.494a4.273,4.273,0,0,1-.936,1.523,3.917,3.917,0,0,1-1.426.936A5.051,5.051,0,0,1,57.42.28ZM64.77-9.1l2.363,6.86,2.4-6.86h2.205L68.113,0H66.065L62.46-9.1Zm10.273-3.4v1.978H72.978V-12.5Zm-.035,3.4V0h-2V-9.1ZM85.386-2.7A3.465,3.465,0,0,1,84.179-.5,4.3,4.3,0,0,1,81.414.28a4.215,4.215,0,0,1-3.3-1.251A5.082,5.082,0,0,1,76.986-4.5,6.2,6.2,0,0,1,77.31-6.58a4.294,4.294,0,0,1,.91-1.531,3.862,3.862,0,0,1,1.4-.945,4.812,4.812,0,0,1,1.794-.324,4.676,4.676,0,0,1,1.82.324,3.4,3.4,0,0,1,1.278.91,3.767,3.767,0,0,1,.753,1.4,6.27,6.27,0,0,1,.245,1.811v.875H78.981a3.362,3.362,0,0,0,.63,2.013,2.136,2.136,0,0,0,1.8.77,2.287,2.287,0,0,0,1.418-.368,1.786,1.786,0,0,0,.63-1.05Zm-1.82-2.748a2.728,2.728,0,0,0-.525-1.768,2.038,2.038,0,0,0-1.68-.648,2.119,2.119,0,0,0-1.68.656,2.935,2.935,0,0,0-.665,1.759Zm5.25,2.66a1.672,1.672,0,0,0,.245.744,1.52,1.52,0,0,0,.481.464,1.846,1.846,0,0,0,.674.236,5.238,5.238,0,0,0,.823.061,2.632,2.632,0,0,0,1.435-.3.99.99,0,0,0,.438-.875,1.139,1.139,0,0,0-.271-.77,1.891,1.891,0,0,0-1.111-.455q-1.085-.193-1.908-.368a5.1,5.1,0,0,1-1.383-.481,2.114,2.114,0,0,1-.84-.788,2.591,2.591,0,0,1-.28-1.3,2.365,2.365,0,0,1,.28-1.146,2.592,2.592,0,0,1,.779-.875,3.734,3.734,0,0,1,1.19-.551,5.63,5.63,0,0,1,1.514-.193,6.188,6.188,0,0,1,1.75.21,3.159,3.159,0,0,1,1.138.578,2.525,2.525,0,0,1,.665.84,4.813,4.813,0,0,1,.35,1L93-6.51a1.972,1.972,0,0,0-.639-1.015,2.364,2.364,0,0,0-1.426-.333,3.522,3.522,0,0,0-.945.105,1.9,1.9,0,0,0-.586.263.828.828,0,0,0-.3.35,1.01,1.01,0,0,0-.079.385,1.453,1.453,0,0,0,.07.49.634.634,0,0,0,.254.315,1.754,1.754,0,0,0,.5.21q.315.088.788.175l1.138.193a7.478,7.478,0,0,1,1.514.4,2.866,2.866,0,0,1,.963.6,1.94,1.94,0,0,1,.5.831,3.689,3.689,0,0,1,.14,1.05,2.448,2.448,0,0,1-.945,2,4.522,4.522,0,0,1-2.87.761A7.528,7.528,0,0,1,89.56.131a4.069,4.069,0,0,1-1.3-.5A2.765,2.765,0,0,1,87.32-1.3a3.156,3.156,0,0,1-.411-1.479Z" transform="translate(4232.323 1216.98)" fill="#2d64ba"/>
    </g>
    <g id="Group_102" data-name="Group 102">
      <path id="Path_150" data-name="Path 150" d="M5.5-1.8a5.017,5.017,0,0,0,1.881-.315,3.2,3.2,0,0,0,1.278-.91A3.716,3.716,0,0,0,9.38-4.445,6.963,6.963,0,0,0,9.608-6.3a5.27,5.27,0,0,0-.875-3.229,3.359,3.359,0,0,0-2.87-1.164H3.448V-1.8ZM5.845-12.5a7.668,7.668,0,0,1,2.485.376A4.793,4.793,0,0,1,10.2-10.973a5.079,5.079,0,0,1,1.181,1.934A8.166,8.166,0,0,1,11.8-6.318a7.866,7.866,0,0,1-.438,2.739A5.235,5.235,0,0,1,10.1-1.6a5.284,5.284,0,0,1-2,1.2A8.249,8.249,0,0,1,5.425,0H1.33V-12.5ZM17.693-4.253a7.962,7.962,0,0,0-1.444.193A2.47,2.47,0,0,0,15.4-3.7a1.044,1.044,0,0,0-.394.508,1.953,1.953,0,0,0-.1.621,1.173,1.173,0,0,0,.376.928,1.632,1.632,0,0,0,1.111.333,2.561,2.561,0,0,0,1.943-.665,2.514,2.514,0,0,0,.63-1.8v-.525ZM19.006-1.19A4.236,4.236,0,0,1,17.763-.175a3.67,3.67,0,0,1-1.785.4A4.225,4.225,0,0,1,14.771.061a2.787,2.787,0,0,1-.971-.5,2.3,2.3,0,0,1-.648-.849A2.9,2.9,0,0,1,12.916-2.5a2.571,2.571,0,0,1,.42-1.531,2.9,2.9,0,0,1,1.094-.919,5.223,5.223,0,0,1,1.514-.464,14.89,14.89,0,0,1,1.68-.166l1.348-.07v-.385a1.728,1.728,0,0,0-.5-1.426,2.043,2.043,0,0,0-1.3-.394,2.4,2.4,0,0,0-1.374.315,1.482,1.482,0,0,0-.586.91l-1.82-.193A2.765,2.765,0,0,1,14.6-8.768a4.894,4.894,0,0,1,2.643-.613,4.926,4.926,0,0,1,1.794.28,2.814,2.814,0,0,1,1.129.77,2.783,2.783,0,0,1,.586,1.164,6.169,6.169,0,0,1,.166,1.479V0H19.006Zm4.025,2.8a2.935,2.935,0,0,0,1,.158,1.228,1.228,0,0,0,.823-.254,2.356,2.356,0,0,0,.56-.954l.333-.875L21.911-9.1h2.31l2.5,6.563L29.016-9.1h2.17L27.564.088q-.315.805-.6,1.418a4.579,4.579,0,0,1-.63,1.033,2.324,2.324,0,0,1-.831.639,2.848,2.848,0,0,1-1.181.219,5.36,5.36,0,0,1-.84-.061,5.6,5.6,0,0,1-.823-.2ZM38.449-4.743a4.884,4.884,0,0,0-.184-1.444,2.344,2.344,0,0,0-.508-.928,1.872,1.872,0,0,0-.753-.49,2.73,2.73,0,0,0-.9-.149,2.025,2.025,0,0,0-1.706.788,3.921,3.921,0,0,0-.6,2.4A5.75,5.75,0,0,0,33.96-3.08a2.737,2.737,0,0,0,.473,1,1.844,1.844,0,0,0,.709.56,2.171,2.171,0,0,0,.875.175,2.316,2.316,0,0,0,1.759-.709,3.122,3.122,0,0,0,.674-2.214Zm.018,3.483A3.866,3.866,0,0,1,37.2-.105,3.412,3.412,0,0,1,35.544.28a3.834,3.834,0,0,1-1.7-.35,3.208,3.208,0,0,1-1.19-.989,4.474,4.474,0,0,1-.709-1.523,7.548,7.548,0,0,1-.236-1.951A6.823,6.823,0,0,1,31.956-6.4,4.617,4.617,0,0,1,32.674-7.9a3.628,3.628,0,0,1,1.164-1.024,3.522,3.522,0,0,1,1.6-.42,2.339,2.339,0,0,1,.35-.009q.175.009.368.026a3.7,3.7,0,0,1,1.181.341,3.319,3.319,0,0,1,1.094.9V-12.5h1.978V0H38.467ZM44.61-9.1v1.348a3.41,3.41,0,0,1,1.138-1.1,2.784,2.784,0,0,1,1.418-.385q.3,0,.5.017t.394.053L47.83-7.35a2.253,2.253,0,0,0-.42-.07q-.228-.018-.473-.018a2.428,2.428,0,0,0-.98.184,2.206,2.206,0,0,0-.709.481,2.033,2.033,0,0,0-.438.674,2.055,2.055,0,0,0-.149.761V0H42.684V-9.1ZM57.21-2.7A3.465,3.465,0,0,1,56-.5,4.3,4.3,0,0,1,53.237.28a4.215,4.215,0,0,1-3.3-1.251A5.082,5.082,0,0,1,48.81-4.5a6.2,6.2,0,0,1,.324-2.083,4.294,4.294,0,0,1,.91-1.531,3.862,3.862,0,0,1,1.4-.945,4.812,4.812,0,0,1,1.794-.324,4.676,4.676,0,0,1,1.82.324,3.4,3.4,0,0,1,1.278.91,3.767,3.767,0,0,1,.753,1.4,6.269,6.269,0,0,1,.245,1.811v.875H50.8a3.362,3.362,0,0,0,.63,2.013,2.136,2.136,0,0,0,1.8.77,2.287,2.287,0,0,0,1.418-.368,1.786,1.786,0,0,0,.63-1.05ZM55.39-5.443a2.728,2.728,0,0,0-.525-1.768,2.038,2.038,0,0,0-1.68-.648A2.119,2.119,0,0,0,51.5-7.2a2.935,2.935,0,0,0-.665,1.759Zm8.085,1.19a7.962,7.962,0,0,0-1.444.193,2.47,2.47,0,0,0-.849.359,1.044,1.044,0,0,0-.394.508,1.953,1.953,0,0,0-.1.621,1.173,1.173,0,0,0,.376.928,1.632,1.632,0,0,0,1.111.333,2.561,2.561,0,0,0,1.943-.665,2.514,2.514,0,0,0,.63-1.8v-.525ZM64.788-1.19A4.236,4.236,0,0,1,63.545-.175a3.67,3.67,0,0,1-1.785.4A4.225,4.225,0,0,1,60.553.061a2.787,2.787,0,0,1-.971-.5,2.3,2.3,0,0,1-.648-.849A2.9,2.9,0,0,1,58.7-2.5a2.571,2.571,0,0,1,.42-1.531,2.9,2.9,0,0,1,1.094-.919,5.223,5.223,0,0,1,1.514-.464,14.89,14.89,0,0,1,1.68-.166l1.348-.07v-.385a1.728,1.728,0,0,0-.5-1.426,2.043,2.043,0,0,0-1.3-.394,2.4,2.4,0,0,0-1.374.315,1.482,1.482,0,0,0-.586.91l-1.82-.193a2.765,2.765,0,0,1,1.208-1.943A4.894,4.894,0,0,1,63.02-9.38a4.926,4.926,0,0,1,1.794.28,2.814,2.814,0,0,1,1.129.77,2.783,2.783,0,0,1,.586,1.164A6.17,6.17,0,0,1,66.7-5.688V0H64.788Zm6.02-7.91v1.313a3.436,3.436,0,0,1,2.24-1.523,4.487,4.487,0,0,1,.7-.053,2.635,2.635,0,0,1,1.505.464,2.423,2.423,0,0,1,.84,1.164A3.586,3.586,0,0,1,79.069-9.38a2.647,2.647,0,0,1,2.135.805A3.946,3.946,0,0,1,81.886-6V0h-2V-5.46a5.769,5.769,0,0,0-.088-1.1,1.974,1.974,0,0,0-.254-.691.86.86,0,0,0-.429-.35,1.721,1.721,0,0,0-.6-.1,2.126,2.126,0,0,0-.928.193A2.033,2.033,0,0,0,76.925-7a2.213,2.213,0,0,0-.411.709,2.411,2.411,0,0,0-.14.814V0h-2V-5.653a2.636,2.636,0,0,0-.359-1.61,1.209,1.209,0,0,0-.989-.438,2.188,2.188,0,0,0-.63.114,2.257,2.257,0,0,0-.709.376,2.259,2.259,0,0,0-.586.7,2.156,2.156,0,0,0-.245,1.068V0H68.883V-9.1Z" transform="translate(4112.372 1217.689)" fill="#2d64ba"/>
    </g>
    <g id="Group_103" data-name="Group 103">
      <path id="Path_149" data-name="Path 149" d="M1.33-12.5H3.29l5.74,9.03V-12.5H11.1V0H9.135L3.378-9V0H1.33Zm14.281,0v1.978H13.546V-12.5Zm-.035,3.4V0h-2V-9.1ZM19.916.7a1.5,1.5,0,0,0,.621,1.024,2.983,2.983,0,0,0,1.514.289,2.365,2.365,0,0,0,1.3-.315,1.768,1.768,0,0,0,.709-.963,5.784,5.784,0,0,0,.219-1.785v-.613A3.258,3.258,0,0,1,23.049-.6a3.667,3.667,0,0,1-1.663.368,3.47,3.47,0,0,1-2.835-1.208,5.1,5.1,0,0,1-1-3.343A4.945,4.945,0,0,1,18.638-8.12a3.64,3.64,0,0,1,2.905-1.26A3.353,3.353,0,0,1,24.326-8V-9.1h1.943v7.735a5.718,5.718,0,0,1-1.015,3.789,4.034,4.034,0,0,1-3.2,1.164A5.193,5.193,0,0,1,19.085,2.9,2.934,2.934,0,0,1,17.921.7Zm4.375-5.583a3.319,3.319,0,0,0-.6-2.144,2.131,2.131,0,0,0-1.75-.726,2.058,2.058,0,0,0-1.7.761,3.432,3.432,0,0,0-.613,2.2,3.59,3.59,0,0,0,.586,2.2,1.931,1.931,0,0,0,1.636.779,2.263,2.263,0,0,0,1.794-.726A3.014,3.014,0,0,0,24.291-4.6ZM30.5-12.5V-7.84A3.7,3.7,0,0,1,31.843-9a3.605,3.605,0,0,1,1.619-.376q3.045,0,3.045,3.36V0h-2V-5.705a2.317,2.317,0,0,0-.4-1.549,1.521,1.521,0,0,0-1.19-.446,2.471,2.471,0,0,0-.989.193A2.416,2.416,0,0,0,31.169-7a2.28,2.28,0,0,0-.49.726,2.147,2.147,0,0,0-.175.849V0H28.526V-12.5Zm7.3,4.97V-9.1h1.435v-2.45h1.978V-9.1h2.258v1.575H41.214v4.76A1.476,1.476,0,0,0,41.5-1.75a1.094,1.094,0,0,0,.849.315,4.445,4.445,0,0,0,.569-.035,2.829,2.829,0,0,0,.534-.123l.3,1.488a5.722,5.722,0,0,1-1.82.28,2.491,2.491,0,0,1-2.1-.779,3.819,3.819,0,0,1-.6-2.336V-7.525Zm14.3-3.133H48.145V-12.5h10.01v1.838H54.217V0H52.1ZM61.673-12.5v1.978H59.608V-12.5Zm-.035,3.4V0h-2V-9.1Zm4.218,0v1.313A3.436,3.436,0,0,1,68.1-9.31a4.487,4.487,0,0,1,.7-.053A2.635,2.635,0,0,1,70.3-8.9a2.423,2.423,0,0,1,.84,1.164A3.586,3.586,0,0,1,74.116-9.38a2.647,2.647,0,0,1,2.135.805A3.946,3.946,0,0,1,76.933-6V0h-2V-5.46a5.768,5.768,0,0,0-.088-1.1,1.974,1.974,0,0,0-.254-.691.86.86,0,0,0-.429-.35,1.721,1.721,0,0,0-.6-.1,2.126,2.126,0,0,0-.928.193A2.033,2.033,0,0,0,71.972-7a2.213,2.213,0,0,0-.411.709,2.411,2.411,0,0,0-.14.814V0h-2V-5.653a2.636,2.636,0,0,0-.359-1.61,1.209,1.209,0,0,0-.989-.438,2.188,2.188,0,0,0-.63.114,2.257,2.257,0,0,0-.709.376,2.259,2.259,0,0,0-.586.7,2.156,2.156,0,0,0-.245,1.068V0H63.93V-9.1ZM87.206-2.7A3.465,3.465,0,0,1,86-.5,4.3,4.3,0,0,1,83.234.28a4.215,4.215,0,0,1-3.3-1.251A5.082,5.082,0,0,1,78.806-4.5,6.2,6.2,0,0,1,79.13-6.58a4.294,4.294,0,0,1,.91-1.531,3.862,3.862,0,0,1,1.4-.945,4.812,4.812,0,0,1,1.794-.324,4.676,4.676,0,0,1,1.82.324,3.4,3.4,0,0,1,1.278.91,3.767,3.767,0,0,1,.753,1.4,6.27,6.27,0,0,1,.245,1.811v.875H80.8a3.362,3.362,0,0,0,.63,2.013,2.136,2.136,0,0,0,1.8.77,2.287,2.287,0,0,0,1.418-.368,1.786,1.786,0,0,0,.63-1.05Zm-1.82-2.748a2.728,2.728,0,0,0-.525-1.768,2.038,2.038,0,0,0-1.68-.648A2.119,2.119,0,0,0,81.5-7.2a2.935,2.935,0,0,0-.665,1.759Z" transform="translate(3990.921 1217.689)" fill="#2d64ba"/>
    </g>
    <g id="Group_104" data-name="Group 104">
      <path id="Path_59" data-name="Path 59" d="M4034.666,1190.914a17.072,17.072,0,0,1-11.782-5.183,18.2,18.2,0,0,1-5.151-13.53,17.7,17.7,0,0,1,4.945-11.476,16.666,16.666,0,0,1,2.516-2.177.9.9,0,0,1,.326-.162.6.6,0,0,1,.688.806c-.1.3-.218.593-.318.893a16.062,16.062,0,0,0-.8,6.11,16.569,16.569,0,0,0,12.787,15.154,16.105,16.105,0,0,0,4.823.4,16.438,16.438,0,0,0,8.493-3.028.762.762,0,0,1,.507-.189.607.607,0,0,1,.534.8c-.068.212-.159.418-.245.624a17.807,17.807,0,0,1-12.246,10.443A20.635,20.635,0,0,1,4034.666,1190.914Z" fill="#2d64ba"/>
      <path id="Path_60" data-name="Path 60" d="M4045.184,1169.3c-1.01,0-2.021,0-3.031,0a1.183,1.183,0,0,1-.32-.033.529.529,0,0,1-.423-.491,7.989,7.989,0,0,1,0-1.04.808.808,0,0,1,.184-.386c.715-.939,1.437-1.872,2.157-2.807l1.581-2.053a2,2,0,0,0,.122-.168.657.657,0,0,0-.541-.99c-.887.013-1.774.005-2.661,0a1.316,1.316,0,0,1-.32-.032.559.559,0,0,1-.429-.515,6.8,6.8,0,0,1,0-.74.588.588,0,0,1,.533-.549,1.287,1.287,0,0,1,.139,0q3,0,5.992,0a.915.915,0,0,1,.337.06.548.548,0,0,1,.35.5c.014.323.009.648,0,.972a.682.682,0,0,1-.179.393q-1.159,1.5-2.315,3.005-.749.972-1.5,1.943a.639.639,0,0,0-.065.774.628.628,0,0,0,.58.311c.964-.006,1.928,0,2.892,0a2.074,2.074,0,0,1,.208,0,.606.606,0,0,1,.568.662,5.92,5.92,0,0,1-.077.666.59.59,0,0,1-.573.509c-.123.009-.247,0-.37,0Z" fill="#2d64ba"/>
      <path id="Path_61" data-name="Path 61" d="M4035.967,1174.4h-2.361c-.494,0-.715-.222-.719-.722,0-.169.005-.339,0-.509a.819.819,0,0,1,.192-.552q1.248-1.609,2.487-3.225a2.206,2.206,0,0,0,.163-.224.594.594,0,0,0-.384-.889,1.5,1.5,0,0,0-.3-.026c-.471,0-.942-.016-1.412,0a.629.629,0,0,1-.674-.678c0-.131.005-.262,0-.393a.633.633,0,0,1,.675-.679c1.057.011,2.113,0,3.17,0h1.435a1.822,1.822,0,0,1,.208.007.58.58,0,0,1,.521.556c.009.208-.008.417.005.625a.873.873,0,0,1-.206.617c-.8,1.028-1.594,2.063-2.389,3.1-.071.092-.143.182-.21.277a.566.566,0,0,0-.051.632.576.576,0,0,0,.545.325q.856,0,1.713,0a1.327,1.327,0,0,1,.275.022.6.6,0,0,1,.475.647c-.014.176-.034.353-.06.528a.594.594,0,0,1-.646.557c-.479,0-.957,0-1.435,0Z" fill="#2d64ba"/>
    </g>
    <g id="Group_105" data-name="Group 105">
      <path id="Path_62" data-name="Path 62" d="M4146.332,1162.779a9.322,9.322,0,0,1,5.167-4.114,9.349,9.349,0,0,1,10.545,3.542,9.261,9.261,0,0,1,1.678,5.9,11.446,11.446,0,0,1,8.065,4.372,11.119,11.119,0,0,1,2.408,6.024,11.514,11.514,0,0,1-19.734,9.093c-.056.041-.116.083-.173.129a8.242,8.242,0,0,1-4.039,1.767,8.411,8.411,0,0,1-9.376-6.2,8.3,8.3,0,0,1-.182-.924.332.332,0,0,0-.228-.3,10.052,10.052,0,0,1-4.814-4.251,9.909,9.909,0,0,1-1.327-4.221,10.126,10.126,0,0,1,11.735-10.858C4146.14,1162.753,4146.223,1162.763,4146.332,1162.779Z" fill="#2d64ba"/>
      <path id="Path_63" data-name="Path 63" d="M4139.911,1186.109a3.24,3.24,0,1,1-3.229-3.238A3.24,3.24,0,0,1,4139.911,1186.109Z" fill="#2d64ba"/>
    </g>
    <g id="Group_106" data-name="Group 106">
      <path id="Path_64" data-name="Path 64" d="M4277.845,1164.757a2.115,2.115,0,0,1-.227-.172q-2.379-2.375-4.756-4.75a1.021,1.021,0,0,1-.341-.828.923.923,0,0,1,.563-.821.944.944,0,0,1,1.011.111,2.114,2.114,0,0,1,.209.195q2.79,2.789,5.579,5.579a2.875,2.875,0,0,1,.2.245c.1-.1.169-.159.234-.224l5.564-5.561c.073-.073.145-.147.225-.213a.983.983,0,0,1,1.4,1.366,2.412,2.412,0,0,1-.195.209l-4.7,4.7c-.065.065-.126.133-.226.239h.328q7.737,0,15.473-.007a.736.736,0,0,1,.834.834q-.017,11.654-.008,23.307c0,.079,0,.159,0,.238a.612.612,0,0,1-.549.566,2.547,2.547,0,0,1-.262.008h-36.166a1.9,1.9,0,0,1-.261-.011.607.607,0,0,1-.532-.555c-.006-.071,0-.143,0-.214q0-11.689,0-23.379c0-.063,0-.127,0-.191a.62.62,0,0,1,.576-.593c.079-.007.159,0,.238,0h15.754Zm2.238,22.067a.976.976,0,0,0,1.007-1.074,1.117,1.117,0,0,0-.375-.7q-7.485-7.477-14.966-14.958a1.61,1.61,0,0,0-.213-.19.949.949,0,0,0-1.015-.075.928.928,0,0,0-.535.863,1.029,1.029,0,0,0,.352.777q7.511,7.5,15.017,15.009c.028.028.056.057.085.084A.916.916,0,0,0,4280.083,1186.824Zm-5.1-1.26a1.052,1.052,0,0,0-.368-.8q-3.888-3.882-7.772-7.766a1.85,1.85,0,0,0-.232-.2.969.969,0,0,0-1.1-.018.984.984,0,0,0-.425,1.013,1.182,1.182,0,0,0,.375.62q3.861,3.857,7.721,7.716a1.94,1.94,0,0,0,.229.208.946.946,0,0,0,1.034.089A.932.932,0,0,0,4274.979,1185.564Z" fill="#2d64ba"/>
    </g>
  </g>
</svg>
