<svg xmlns="http://www.w3.org/2000/svg" width="115.326" height="137.631" viewBox="0 0 115.326 137.631">
  <g id="Afghan_Undecided_Icon" data-name="Afghan Undecided Icon" transform="translate(-310.139 -801.665)">
    <path id="Path_113" data-name="Path 113" d="M6829.46,880.31a16.3,16.3,0,0,0-5.492-3.43,61.835,61.835,0,0,0-11.021-3.32c-.686-.152-.615-.357-.244-.788,1.469-1.7,2.919-3.417,4.272-5.216,4.471-5.943,8.316-12.215,10.251-19.487a17.253,17.253,0,0,0,.4-8.667,7.784,7.784,0,0,0-4.258-5.488c-2.922-1.4-5.979-1.27-9.032-.677a38.217,38.217,0,0,0-9.7,3.461,76.755,76.755,0,0,0-13.347,8.69c-.163.128-.3.407-.56.255-.214-.125-.2-.391-.205-.615-.011-2.026-.175-4.043-.333-6.061-.213-2.714-.564-5.413-.993-8.1-.357-2.24-.824-4.462-1.36-6.67a57.121,57.121,0,0,0-3.769-11.114c-1.619-3.409-3.483-6.657-6.68-8.868a7.008,7.008,0,0,0-7.434-.72,14.659,14.659,0,0,0-5.868,5.74,41.578,41.578,0,0,0-4.33,9.6,78.91,78.91,0,0,0-2.6,10.6c-.408,2.287-.751,4.579-1.006,6.884-.323,2.929-.569,5.866-.628,8.815,0,.2.034.44-.174.54s-.354-.113-.507-.231c-1.128-.869-2.233-1.769-3.389-2.6a65.583,65.583,0,0,0-12.527-7.3,30.238,30.238,0,0,0-11.558-2.73,8.77,8.77,0,0,0-2.685.384,8.318,8.318,0,0,0-3.762,1.922c-2.386,2.25-2.988,5.142-2.839,8.222a29.245,29.245,0,0,0,2.533,9.959,65.581,65.581,0,0,0,8.079,13.715c1.482,1.982,3.023,3.914,4.692,5.742.356.391.416.658-.238.794-1,.208-1.988.487-2.982.732a41.606,41.606,0,0,0-10.918,4.026,11.056,11.056,0,0,0-2.727,2.083,3.429,3.429,0,0,0-.347,4.754,6.608,6.608,0,0,0,1.578,1.588c3.768,2.714,8.158,3.908,12.553,5.068,2.487.657,5.018,1.117,7.55,1.571,2.114.379,4.233.712,6.361.983,2.5.318,5,.593,7.51.849.678.069.631.27.353.774a45.078,45.078,0,0,0-3.307,7.205,14.379,14.379,0,0,0-.883,4.835c.033,2.255,1.008,3.613,2.857,4.042a8.306,8.306,0,0,0,3.646-.039,35.409,35.409,0,0,0,9.465-3.848,97.826,97.826,0,0,0,8.984-5.692.954.954,0,0,1,1.276.018c.849.612,1.733,1.177,2.61,1.751a57.369,57.369,0,0,0,13.276,6.83,12.263,12.263,0,0,0,5.593.731,3.653,3.653,0,0,0,3.176-3.352,15.114,15.114,0,0,0-1.386-6.965,49.27,49.27,0,0,0-2.754-5.657c-.279-.516-.138-.665.376-.7.821-.063,1.645-.11,2.461-.22,3.832-.518,7.671-.976,11.48-1.67a77.185,77.185,0,0,0,14.092-3.708,16.93,16.93,0,0,0,6.433-3.855A3.545,3.545,0,0,0,6829.46,880.31Z" transform="translate(-6405.232 -1.081)" fill="#2d64ba"/>
    <g id="Group_178" data-name="Group 178" transform="translate(-6405.232 -1.081)">
      <g id="Group_176" data-name="Group 176">
        <path id="Path_122" data-name="Path 122" d="M6768.86,863.771a2.948,2.948,0,1,0-2.955,2.942h.007A2.948,2.948,0,0,0,6768.86,863.771Z" fill="#00bcbc"/>
        <path id="Path_123" data-name="Path 123" d="M6784.3,863.771a2.948,2.948,0,1,0-2.955,2.942h.007a2.942,2.942,0,0,0,2.948-2.936Z" fill="#00bcbc"/>
      </g>
      <g id="Group_177" data-name="Group 177">
        <path id="Path_124" data-name="Path 124" d="M6782.2,880.6h-16.885a1.317,1.317,0,0,1,0-2.634H6782.2a1.317,1.317,0,1,1,0,2.634Z" fill="#00bcbc"/>
      </g>
    </g>
    <path id="Path_157" data-name="Path 157" d="M-42.255-12.426v7.449a4.412,4.412,0,0,0,.635,2.619A2.5,2.5,0,0,0-39.47-1.5a2.426,2.426,0,0,0,2.114-.861,4.508,4.508,0,0,0,.618-2.619v-7.449h2.106v7.449a7.5,7.5,0,0,1-.348,2.445A4.184,4.184,0,0,1-35.972-.9,3.823,3.823,0,0,1-37.5.026a6.425,6.425,0,0,1-1.984.287,4.806,4.806,0,0,1-3.62-1.279A5.686,5.686,0,0,1-44.343-5.03v-7.4ZM-30.107-9.05v1.323a3.885,3.885,0,0,1,1.366-1.218,3.555,3.555,0,0,1,1.627-.383q3.028,0,3.028,3.341V0H-26.07V-5.673a2.3,2.3,0,0,0-.4-1.54,1.513,1.513,0,0,0-1.183-.444,2.512,2.512,0,0,0-.966.183,2.288,2.288,0,0,0-.757.5,2.393,2.393,0,0,0-.5.722,2.088,2.088,0,0,0-.183.861V0h-1.967V-9.05Zm14.932,4.333a4.857,4.857,0,0,0-.183-1.436,2.331,2.331,0,0,0-.5-.922,1.861,1.861,0,0,0-.748-.487,2.715,2.715,0,0,0-.9-.148,2.013,2.013,0,0,0-1.7.783,3.9,3.9,0,0,0-.6,2.384,5.718,5.718,0,0,0,.165,1.479,2.722,2.722,0,0,0,.47.992,1.834,1.834,0,0,0,.7.557,2.159,2.159,0,0,0,.87.174,2.3,2.3,0,0,0,1.749-.7,3.1,3.1,0,0,0,.67-2.2Zm.017,3.463A3.844,3.844,0,0,1-16.42-.1a3.393,3.393,0,0,1-1.645.383A3.812,3.812,0,0,1-19.753-.07a3.19,3.19,0,0,1-1.183-.983,4.449,4.449,0,0,1-.7-1.514,7.506,7.506,0,0,1-.235-1.94,6.785,6.785,0,0,1,.244-1.853,4.591,4.591,0,0,1,.714-1.5,3.607,3.607,0,0,1,1.157-1.018,3.5,3.5,0,0,1,1.592-.418,2.326,2.326,0,0,1,.348-.009q.174.009.365.026a3.684,3.684,0,0,1,1.175.339,3.3,3.3,0,0,1,1.088.9v-4.386h1.967V0h-1.932ZM-2.576-2.68A3.446,3.446,0,0,1-3.776-.5a4.277,4.277,0,0,1-2.75.774A4.192,4.192,0,0,1-9.807-.966a5.053,5.053,0,0,1-1.123-3.507,6.161,6.161,0,0,1,.322-2.071,4.27,4.27,0,0,1,.9-1.523,3.841,3.841,0,0,1,1.392-.94,4.785,4.785,0,0,1,1.784-.322,4.65,4.65,0,0,1,1.81.322,3.386,3.386,0,0,1,1.27.9A3.746,3.746,0,0,1-2.7-6.709a6.235,6.235,0,0,1,.244,1.8v.87H-8.945a3.343,3.343,0,0,0,.627,2,2.124,2.124,0,0,0,1.793.766,2.274,2.274,0,0,0,1.41-.365A1.776,1.776,0,0,0-4.49-2.68Zm-1.81-2.732A2.713,2.713,0,0,0-4.908-7.17a2.027,2.027,0,0,0-1.671-.644,2.107,2.107,0,0,0-1.671.653A2.918,2.918,0,0,0-8.91-5.412ZM7.8-3.167A3.884,3.884,0,0,1,6.639-.635,3.979,3.979,0,0,1,3.829.278,4.9,4.9,0,0,1,1.923-.061,3.572,3.572,0,0,1,.574-1.027a4.032,4.032,0,0,1-.8-1.505A6.863,6.863,0,0,1-.487-4.49a6.272,6.272,0,0,1,.3-1.975A4.294,4.294,0,0,1,.67-8,3.835,3.835,0,0,1,2.054-8.98a4.716,4.716,0,0,1,1.862-.348,4.559,4.559,0,0,1,1.618.252,3.142,3.142,0,0,1,1.1.679,3.11,3.11,0,0,1,.679.983,5.009,5.009,0,0,1,.348,1.166l-1.967.3a2.877,2.877,0,0,0-.531-1.27,1.564,1.564,0,0,0-1.314-.5,2,2,0,0,0-1.1.278,2.126,2.126,0,0,0-.7.722,3.219,3.219,0,0,0-.374,1.018,6.019,6.019,0,0,0-.113,1.166,6.3,6.3,0,0,0,.122,1.27,3.154,3.154,0,0,0,.383,1.018,1.951,1.951,0,0,0,.7.679,2.084,2.084,0,0,0,1.062.252A1.843,1.843,0,0,0,5.2-1.8,2.346,2.346,0,0,0,5.8-3.167Zm4.229-9.258v1.967H9.972v-1.967ZM11.991-9.05V0H10.007V-9.05Zm9.015,4.333a4.857,4.857,0,0,0-.183-1.436,2.331,2.331,0,0,0-.5-.922,1.861,1.861,0,0,0-.748-.487,2.715,2.715,0,0,0-.9-.148,2.013,2.013,0,0,0-1.7.783,3.9,3.9,0,0,0-.6,2.384,5.718,5.718,0,0,0,.165,1.479,2.722,2.722,0,0,0,.47.992,1.834,1.834,0,0,0,.7.557,2.159,2.159,0,0,0,.87.174,2.3,2.3,0,0,0,1.749-.7,3.1,3.1,0,0,0,.67-2.2Zm.017,3.463A3.844,3.844,0,0,1,19.761-.1a3.393,3.393,0,0,1-1.645.383A3.812,3.812,0,0,1,16.429-.07a3.19,3.19,0,0,1-1.183-.983,4.45,4.45,0,0,1-.7-1.514,7.506,7.506,0,0,1-.235-1.94,6.785,6.785,0,0,1,.244-1.853,4.591,4.591,0,0,1,.714-1.5A3.607,3.607,0,0,1,16.42-8.876a3.5,3.5,0,0,1,1.592-.418A2.326,2.326,0,0,1,18.36-9.3q.174.009.365.026a3.684,3.684,0,0,1,1.175.339,3.3,3.3,0,0,1,1.088.9v-4.386h1.967V0H21.023ZM33.605-2.68A3.446,3.446,0,0,1,32.4-.5a4.277,4.277,0,0,1-2.75.774,4.192,4.192,0,0,1-3.28-1.244,5.053,5.053,0,0,1-1.123-3.507,6.161,6.161,0,0,1,.322-2.071,4.27,4.27,0,0,1,.9-1.523,3.841,3.841,0,0,1,1.392-.94,4.785,4.785,0,0,1,1.784-.322,4.65,4.65,0,0,1,1.81.322,3.386,3.386,0,0,1,1.27.9,3.746,3.746,0,0,1,.748,1.392,6.235,6.235,0,0,1,.244,1.8v.87H27.236a3.343,3.343,0,0,0,.627,2,2.124,2.124,0,0,0,1.793.766,2.274,2.274,0,0,0,1.41-.365,1.776,1.776,0,0,0,.627-1.044ZM31.8-5.412a2.713,2.713,0,0,0-.522-1.758A2.027,2.027,0,0,0,29.6-7.814a2.107,2.107,0,0,0-1.671.653,2.918,2.918,0,0,0-.661,1.749Zm10.6.7a4.857,4.857,0,0,0-.183-1.436,2.331,2.331,0,0,0-.5-.922,1.861,1.861,0,0,0-.748-.487,2.715,2.715,0,0,0-.9-.148,2.013,2.013,0,0,0-1.7.783,3.9,3.9,0,0,0-.6,2.384,5.718,5.718,0,0,0,.165,1.479,2.722,2.722,0,0,0,.47.992,1.834,1.834,0,0,0,.7.557,2.159,2.159,0,0,0,.87.174,2.3,2.3,0,0,0,1.749-.7,3.1,3.1,0,0,0,.67-2.2Zm.017,3.463A3.844,3.844,0,0,1,41.15-.1a3.393,3.393,0,0,1-1.645.383A3.812,3.812,0,0,1,37.817-.07a3.19,3.19,0,0,1-1.183-.983,4.449,4.449,0,0,1-.7-1.514,7.506,7.506,0,0,1-.235-1.94,6.785,6.785,0,0,1,.244-1.853,4.591,4.591,0,0,1,.714-1.5,3.607,3.607,0,0,1,1.157-1.018A3.5,3.5,0,0,1,39.4-9.293a2.326,2.326,0,0,1,.348-.009q.174.009.365.026a3.684,3.684,0,0,1,1.175.339,3.3,3.3,0,0,1,1.088.9v-4.386h1.967V0H42.411Z" transform="translate(365.757 938.983)" fill="#2d64ba"/>
  </g>
</svg>
