<svg xmlns="http://www.w3.org/2000/svg" width="206.475" height="112.542" viewBox="0 0 206.475 112.542">
  <g id="Afghan_Lineage" data-name="Afghan Lineage" transform="translate(-258.072 -725.206)">
    <g id="Group_151" data-name="Group 151" transform="translate(-4645.998 -1.056)">
      <path id="Path_97" data-name="Path 97" d="M5110.545,726.262H4904.07v46.59h206.475Z" fill="#fff"/>
      <rect id="Rectangle_69" data-name="Rectangle 69" width="157.22" height="42.571" transform="translate(4931.114 796.233)" fill="#2d64ba"/>
      <line id="Line_36" data-name="Line 36" y2="24.32" transform="translate(5009.723 771.913)" fill="none" stroke="#fff" stroke-miterlimit="10" stroke-width="2.664"/>
    </g>
    <path id="Path_153" data-name="Path 153" d="M5.645-14.242H8.039L13.464,0H10.891L9.555-3.63H4.029L2.713,0H.219ZM8.9-5.645,6.782-11.509,4.688-5.645Zm6.423-2.932H13.7v-1.8h1.616v-.6a3.426,3.426,0,0,1,.9-2.533,3.37,3.37,0,0,1,2.493-.9,6.552,6.552,0,0,1,1.955.279l-.339,1.7a4.147,4.147,0,0,0-1.2-.18,1.538,1.538,0,0,0-1.137.4,1.6,1.6,0,0,0-.4,1.177v.658h2.513v1.8H17.593V0H15.319ZM23.916.8a1.714,1.714,0,0,0,.708,1.167,3.4,3.4,0,0,0,1.725.329,2.7,2.7,0,0,0,1.476-.359,2.015,2.015,0,0,0,.808-1.1A6.592,6.592,0,0,0,28.883-1.2v-.7a3.714,3.714,0,0,1-1.4,1.217,4.179,4.179,0,0,1-1.895.419,3.955,3.955,0,0,1-3.231-1.376,5.813,5.813,0,0,1-1.137-3.81,5.636,5.636,0,0,1,1.237-3.81,4.149,4.149,0,0,1,3.311-1.436,3.822,3.822,0,0,1,3.172,1.576v-1.257h2.214v8.817A6.517,6.517,0,0,1,30,2.763a4.6,4.6,0,0,1-3.65,1.326A5.919,5.919,0,0,1,22.969,3.3,3.344,3.344,0,0,1,21.642.8ZM28.9-5.565a3.783,3.783,0,0,0-.678-2.444,2.429,2.429,0,0,0-1.995-.828,2.346,2.346,0,0,0-1.935.868,3.912,3.912,0,0,0-.7,2.5,4.092,4.092,0,0,0,.668,2.5,2.2,2.2,0,0,0,1.865.888A2.579,2.579,0,0,0,28.175-2.9,3.436,3.436,0,0,0,28.9-5.246Zm7.181-8.677v5.306a4.217,4.217,0,0,1,1.526-1.326,4.109,4.109,0,0,1,1.845-.429q3.471,0,3.471,3.83V0H40.652V-6.5a2.641,2.641,0,0,0-.459-1.765,1.734,1.734,0,0,0-1.356-.509,2.816,2.816,0,0,0-1.127.219,2.754,2.754,0,0,0-.868.578,2.6,2.6,0,0,0-.559.828,2.447,2.447,0,0,0-.2.967V0H33.83V-14.242Zm14.222,9.4a9.075,9.075,0,0,0-1.646.219,2.815,2.815,0,0,0-.967.409,1.19,1.19,0,0,0-.449.578,2.226,2.226,0,0,0-.11.708,1.337,1.337,0,0,0,.429,1.057A1.86,1.86,0,0,0,48.83-1.5a2.918,2.918,0,0,0,2.214-.758,2.865,2.865,0,0,0,.718-2.055v-.6Zm1.5,3.491A4.828,4.828,0,0,1,50.386-.2a4.182,4.182,0,0,1-2.035.459A4.816,4.816,0,0,1,46.975.07,3.176,3.176,0,0,1,45.868-.5a2.627,2.627,0,0,1-.738-.967,3.306,3.306,0,0,1-.269-1.386A2.93,2.93,0,0,1,45.339-4.6a3.3,3.3,0,0,1,1.247-1.047,5.953,5.953,0,0,1,1.725-.529,16.972,16.972,0,0,1,1.915-.189l1.536-.08v-.439a1.97,1.97,0,0,0-.568-1.626,2.328,2.328,0,0,0-1.486-.449,2.737,2.737,0,0,0-1.566.359,1.689,1.689,0,0,0-.668,1.037L45.4-7.779a3.151,3.151,0,0,1,1.376-2.214,5.578,5.578,0,0,1,3.012-.7,5.615,5.615,0,0,1,2.045.319,3.207,3.207,0,0,1,1.287.878,3.172,3.172,0,0,1,.668,1.326,7.032,7.032,0,0,1,.189,1.686V0H51.8Zm6.961-9.016v1.516a4.453,4.453,0,0,1,1.566-1.4,4.075,4.075,0,0,1,1.865-.439q3.471,0,3.471,3.83V0H63.391V-6.5a2.641,2.641,0,0,0-.459-1.765,1.734,1.734,0,0,0-1.356-.509,2.879,2.879,0,0,0-1.107.209A2.622,2.622,0,0,0,59.6-8a2.742,2.742,0,0,0-.568.828,2.394,2.394,0,0,0-.209.987V0H56.57V-10.372Zm11.829-3.87v2.254H68.239v-2.254Zm-.04,3.87V0H68.278V-10.372Zm9.894-3.87V-2.094h7.061L87.208,0H78.033V-14.242Zm13.883,9.4a9.075,9.075,0,0,0-1.646.219,2.815,2.815,0,0,0-.967.409,1.19,1.19,0,0,0-.449.578,2.226,2.226,0,0,0-.11.708,1.337,1.337,0,0,0,.429,1.057,1.86,1.86,0,0,0,1.267.379,2.918,2.918,0,0,0,2.214-.758,2.865,2.865,0,0,0,.718-2.055v-.6Zm1.5,3.491A4.828,4.828,0,0,1,94.409-.2a4.182,4.182,0,0,1-2.035.459A4.816,4.816,0,0,1,91,.07,3.176,3.176,0,0,1,89.891-.5a2.627,2.627,0,0,1-.738-.967,3.306,3.306,0,0,1-.269-1.386A2.93,2.93,0,0,1,89.362-4.6a3.3,3.3,0,0,1,1.247-1.047,5.953,5.953,0,0,1,1.725-.529,16.972,16.972,0,0,1,1.915-.189l1.536-.08v-.439a1.97,1.97,0,0,0-.568-1.626,2.328,2.328,0,0,0-1.486-.449,2.737,2.737,0,0,0-1.566.359A1.689,1.689,0,0,0,91.5-7.56l-2.074-.219A3.151,3.151,0,0,1,90.8-9.993a5.579,5.579,0,0,1,3.012-.7,5.615,5.615,0,0,1,2.045.319,3.207,3.207,0,0,1,1.287.878,3.172,3.172,0,0,1,.668,1.326A7.032,7.032,0,0,1,98-6.483V0H95.825Zm6.961-9.016v1.516a4.453,4.453,0,0,1,1.566-1.4,4.074,4.074,0,0,1,1.865-.439q3.471,0,3.471,3.83V0h-2.274V-6.5a2.641,2.641,0,0,0-.459-1.765,1.734,1.734,0,0,0-1.356-.509,2.879,2.879,0,0,0-1.107.209,2.622,2.622,0,0,0-.868.568,2.742,2.742,0,0,0-.568.828,2.394,2.394,0,0,0-.209.987V0h-2.254V-10.372ZM119.6-5.406a5.567,5.567,0,0,0-.209-1.646,2.672,2.672,0,0,0-.578-1.057,2.133,2.133,0,0,0-.858-.559,3.112,3.112,0,0,0-1.027-.17,2.308,2.308,0,0,0-1.945.9,4.47,4.47,0,0,0-.688,2.733,6.553,6.553,0,0,0,.189,1.7,3.119,3.119,0,0,0,.539,1.137,2.1,2.1,0,0,0,.808.638,2.474,2.474,0,0,0,1,.2,2.64,2.64,0,0,0,2-.808,3.559,3.559,0,0,0,.768-2.523Zm.02,3.969A4.406,4.406,0,0,1,118.176-.12a3.889,3.889,0,0,1-1.885.439,4.37,4.37,0,0,1-1.935-.4A3.657,3.657,0,0,1,113-1.207a5.1,5.1,0,0,1-.808-1.735,8.6,8.6,0,0,1-.269-2.224,7.777,7.777,0,0,1,.279-2.124,5.262,5.262,0,0,1,.818-1.715,4.135,4.135,0,0,1,1.326-1.167,4.014,4.014,0,0,1,1.825-.479,2.666,2.666,0,0,1,.4-.01q.2.01.419.03a4.222,4.222,0,0,1,1.346.389,3.783,3.783,0,0,1,1.247,1.027v-5.027h2.254V0h-2.214Zm7.1-8.936v1.536a3.887,3.887,0,0,1,1.3-1.257,3.173,3.173,0,0,1,1.616-.439q.339,0,.568.02t.449.06l-.259,2.074a2.569,2.569,0,0,0-.479-.08q-.259-.02-.539-.02a2.767,2.767,0,0,0-1.117.209,2.514,2.514,0,0,0-.808.549,2.317,2.317,0,0,0-.5.768,2.343,2.343,0,0,0-.17.868V0h-2.254V-10.372Zm10.033,5.525a9.075,9.075,0,0,0-1.646.219,2.815,2.815,0,0,0-.967.409,1.19,1.19,0,0,0-.449.578,2.226,2.226,0,0,0-.11.708,1.337,1.337,0,0,0,.429,1.057,1.86,1.86,0,0,0,1.267.379,2.918,2.918,0,0,0,2.214-.758,2.865,2.865,0,0,0,.718-2.055v-.6Zm1.5,3.491A4.828,4.828,0,0,1,136.836-.2,4.182,4.182,0,0,1,134.8.259,4.816,4.816,0,0,1,133.425.07,3.176,3.176,0,0,1,132.318-.5a2.627,2.627,0,0,1-.738-.967,3.306,3.306,0,0,1-.269-1.386A2.93,2.93,0,0,1,131.79-4.6a3.3,3.3,0,0,1,1.247-1.047,5.953,5.953,0,0,1,1.725-.529,16.972,16.972,0,0,1,1.915-.189l1.536-.08v-.439a1.97,1.97,0,0,0-.568-1.626,2.328,2.328,0,0,0-1.486-.449,2.737,2.737,0,0,0-1.566.359,1.689,1.689,0,0,0-.668,1.037l-2.074-.219a3.151,3.151,0,0,1,1.376-2.214,5.579,5.579,0,0,1,3.012-.7,5.615,5.615,0,0,1,2.045.319,3.207,3.207,0,0,1,1.287.878,3.172,3.172,0,0,1,.668,1.326,7.032,7.032,0,0,1,.189,1.686V0h-2.174Zm13.9-2.274a4.452,4.452,0,0,1-1.326,2.9A4.56,4.56,0,0,1,147.607.319a5.622,5.622,0,0,1-2.184-.389,4.094,4.094,0,0,1-1.546-1.107A4.622,4.622,0,0,1,142.96-2.9a7.866,7.866,0,0,1-.3-2.244A7.189,7.189,0,0,1,143-7.41a4.922,4.922,0,0,1,.987-1.755,4.4,4.4,0,0,1,1.586-1.127,5.406,5.406,0,0,1,2.134-.4,5.226,5.226,0,0,1,1.855.289,3.6,3.6,0,0,1,1.257.778A3.564,3.564,0,0,1,151.6-8.5a5.742,5.742,0,0,1,.4,1.336l-2.254.339a3.3,3.3,0,0,0-.608-1.456,1.792,1.792,0,0,0-1.506-.578,2.289,2.289,0,0,0-1.257.319,2.437,2.437,0,0,0-.8.828,3.689,3.689,0,0,0-.429,1.167,6.9,6.9,0,0,0-.13,1.336,7.216,7.216,0,0,0,.14,1.456,3.616,3.616,0,0,0,.439,1.167,2.237,2.237,0,0,0,.8.778,2.388,2.388,0,0,0,1.217.289,2.112,2.112,0,0,0,1.576-.549,2.689,2.689,0,0,0,.678-1.566Zm11.13.559a3.95,3.95,0,0,1-1.376,2.5,4.9,4.9,0,0,1-3.152.888A4.8,4.8,0,0,1,155-1.107a5.792,5.792,0,0,1-1.287-4.019A7.061,7.061,0,0,1,154.08-7.5a4.894,4.894,0,0,1,1.037-1.745,4.4,4.4,0,0,1,1.6-1.077,5.484,5.484,0,0,1,2.045-.369,5.33,5.33,0,0,1,2.074.369,3.88,3.88,0,0,1,1.456,1.037,4.294,4.294,0,0,1,.858,1.6,7.146,7.146,0,0,1,.279,2.065v1h-7.44a3.832,3.832,0,0,0,.718,2.294,2.434,2.434,0,0,0,2.055.878,2.606,2.606,0,0,0,1.616-.419,2.035,2.035,0,0,0,.718-1.2ZM161.211-6.2a3.109,3.109,0,0,0-.6-2.015,2.323,2.323,0,0,0-1.915-.738,2.415,2.415,0,0,0-1.915.748,3.345,3.345,0,0,0-.758,2Z" transform="translate(283.243 754.532)" fill="#3966aa"/>
    <path id="Path_152" data-name="Path 152" d="M5.067-13.014H7.655L12.54,0H9.624L8.585-3.007H4.028L2.989,0H.182ZM7.874-5.249,6.288-9.915,4.721-5.249Zm6.252-7.765h8.548v2.333H16.841v3.062h5.486v2.333H16.841V0H14.126Zm16.4,5.887h4.994v5.5a7.05,7.05,0,0,1-2.388,1.44,8.214,8.214,0,0,1-2.862.51,6.877,6.877,0,0,1-2.707-.492,5.133,5.133,0,0,1-1.923-1.385A5.887,5.887,0,0,1,24.5-3.709a9.645,9.645,0,0,1-.383-2.8,8.968,8.968,0,0,1,.419-2.843A6.259,6.259,0,0,1,25.727-11.5a5.118,5.118,0,0,1,1.886-1.367,6.261,6.261,0,0,1,2.479-.474,6.677,6.677,0,0,1,2.16.31,4.56,4.56,0,0,1,1.531.857,4.241,4.241,0,0,1,1,1.276,5.9,5.9,0,0,1,.538,1.567l-2.7.346a5.235,5.235,0,0,0-.264-.866,1.757,1.757,0,0,0-.447-.638,1.921,1.921,0,0,0-.729-.4,3.721,3.721,0,0,0-1.094-.137,2.649,2.649,0,0,0-2.369,1.185,6.018,6.018,0,0,0-.784,3.335,5.955,5.955,0,0,0,.793,3.345,2.883,2.883,0,0,0,2.579,1.176A5.636,5.636,0,0,0,31.8-2.16,4.568,4.568,0,0,0,33.008-2.7V-4.866H30.53Zm7.327-5.887h2.716v5.031H45.73v-5.031h2.716V0H45.73V-5.468H40.572V0H37.857Zm17.06,0H57.5L62.39,0H59.473L58.434-3.007H53.878L52.839,0H50.032Zm2.807,7.765L56.138-9.915,54.57-5.249Zm6.27-7.765h2.442l5.359,8.53v-8.53h2.643V0H72.013L66.636-8.457V0H63.994Zm16.459,0h2.734V-7.8l4.794-5.213h2.971l-4.32,4.885L91.425,0H88.4L84.735-6.361,83.186-4.775V0H80.452Zm11.428,0H94.6v7.746a4.2,4.2,0,0,0,.583,2.461,2.249,2.249,0,0,0,1.95.8,2.224,2.224,0,0,0,1.941-.8,4.25,4.25,0,0,0,.574-2.461v-7.746h2.716v7.746A7.8,7.8,0,0,1,102-2.734a4.54,4.54,0,0,1-1.039,1.741,4.04,4.04,0,0,1-1.65,1,7.046,7.046,0,0,1-2.2.319A6.928,6.928,0,0,1,94.9,0a4.124,4.124,0,0,1-1.65-1.012A4.356,4.356,0,0,1,92.226-2.77a8.361,8.361,0,0,1-.346-2.552ZM106.79-4.247a2.35,2.35,0,0,0,.775,1.75,3.171,3.171,0,0,0,2.014.547,3.647,3.647,0,0,0,1.075-.137,2.057,2.057,0,0,0,.711-.365,1.3,1.3,0,0,0,.392-.538,1.873,1.873,0,0,0,.118-.674,1.446,1.446,0,0,0-.383-.957,2.441,2.441,0,0,0-1.4-.647l-1.7-.31a10.023,10.023,0,0,1-1.768-.474,4.084,4.084,0,0,1-1.285-.756,3.034,3.034,0,0,1-.793-1.139,4.26,4.26,0,0,1-.273-1.6,3.474,3.474,0,0,1,.374-1.64,3.353,3.353,0,0,1,1.039-1.185,4.87,4.87,0,0,1,1.595-.72,7.966,7.966,0,0,1,2.041-.246,7.328,7.328,0,0,1,2.369.328,4.3,4.3,0,0,1,1.531.866,3.381,3.381,0,0,1,.866,1.249,5.853,5.853,0,0,1,.374,1.476l-2.57.328a2.536,2.536,0,0,0-.775-1.549,2.693,2.693,0,0,0-1.741-.474,4.548,4.548,0,0,0-1.139.118,2.27,2.27,0,0,0-.72.31,1.06,1.06,0,0,0-.383.447,1.329,1.329,0,0,0-.109.529,1.388,1.388,0,0,0,.41,1.094,3.051,3.051,0,0,0,1.394.565l1.786.346a6.185,6.185,0,0,1,3.1,1.358,3.565,3.565,0,0,1,.984,2.707,3.849,3.849,0,0,1-.319,1.577,3.516,3.516,0,0,1-.948,1.258,4.476,4.476,0,0,1-1.577.838,7.375,7.375,0,0,1-2.224.3,6.355,6.355,0,0,1-4.074-1.139,4.441,4.441,0,0,1-1.522-3.436Zm9.933-8.767h2.716v5.031H124.6v-5.031h2.716V0H124.6V-5.468h-5.158V0h-2.716Z" transform="translate(296.862 822.549)" fill="#03bbbb"/>
  </g>
</svg>
