<svg xmlns="http://www.w3.org/2000/svg" width="115.326" height="137.631" viewBox="0 0 115.326 137.631">
  <g id="Afghan_Good_Icon" data-name="Afghan Good Icon" transform="translate(-455.446 -801.665)">
    <path id="Path_114" data-name="Path 114" d="M6974.767,880.31a16.3,16.3,0,0,0-5.492-3.43,61.823,61.823,0,0,0-11.021-3.32c-.686-.152-.615-.357-.243-.788,1.469-1.7,2.918-3.417,4.271-5.216,4.471-5.943,8.316-12.215,10.251-19.487a17.264,17.264,0,0,0,.4-8.667,7.785,7.785,0,0,0-4.259-5.488c-2.921-1.4-5.979-1.27-9.031-.677a38.224,38.224,0,0,0-9.7,3.461,76.788,76.788,0,0,0-13.346,8.69c-.163.128-.3.407-.561.255-.214-.125-.2-.391-.2-.615-.011-2.026-.175-4.043-.334-6.061-.212-2.714-.564-5.413-.992-8.1-.357-2.24-.825-4.462-1.361-6.67a57.053,57.053,0,0,0-3.768-11.114c-1.619-3.409-3.484-6.657-6.681-8.868a7.007,7.007,0,0,0-7.433-.72,14.652,14.652,0,0,0-5.868,5.74,41.561,41.561,0,0,0-4.331,9.6,79.207,79.207,0,0,0-2.6,10.6c-.407,2.287-.751,4.579-1,6.884-.323,2.929-.57,5.866-.629,8.815,0,.2.035.44-.174.54s-.354-.113-.507-.231c-1.128-.869-2.233-1.769-3.388-2.6a65.59,65.59,0,0,0-12.528-7.3,30.234,30.234,0,0,0-11.558-2.73,8.768,8.768,0,0,0-2.684.384,8.314,8.314,0,0,0-3.762,1.922c-2.387,2.25-2.989,5.142-2.84,8.222a29.225,29.225,0,0,0,2.534,9.959A65.56,65.56,0,0,0,6874,867.019c1.481,1.982,3.023,3.914,4.691,5.742.357.391.417.658-.238.794-1,.208-1.988.487-2.982.732a41.638,41.638,0,0,0-10.918,4.026,11.069,11.069,0,0,0-2.726,2.083,3.428,3.428,0,0,0-.347,4.754,6.6,6.6,0,0,0,1.577,1.588c3.769,2.714,8.159,3.908,12.553,5.068,2.487.657,5.018,1.117,7.551,1.571,2.113.379,4.232.712,6.36.983,2.5.318,5,.593,7.511.849.677.069.63.27.353.774a45.085,45.085,0,0,0-3.308,7.205,14.39,14.39,0,0,0-.882,4.835c.032,2.255,1.007,3.613,2.856,4.042a8.306,8.306,0,0,0,3.646-.039,35.4,35.4,0,0,0,9.465-3.848,97.694,97.694,0,0,0,8.984-5.692.954.954,0,0,1,1.276.018c.85.612,1.734,1.177,2.61,1.751a57.379,57.379,0,0,0,13.277,6.83,12.258,12.258,0,0,0,5.592.731,3.652,3.652,0,0,0,3.176-3.352,15.113,15.113,0,0,0-1.386-6.965,49.344,49.344,0,0,0-2.753-5.657c-.28-.516-.138-.665.375-.7.822-.063,1.646-.11,2.461-.22,3.832-.518,7.671-.976,11.48-1.67a77.128,77.128,0,0,0,14.092-3.708,16.939,16.939,0,0,0,6.434-3.855A3.545,3.545,0,0,0,6974.767,880.31Z" transform="translate(-6405.232 -1.081)" fill="#2d64ba"/>
    <g id="Group_174" data-name="Group 174" transform="translate(-6405.232 -1.081)">
      <path id="Path_116" data-name="Path 116" d="M6927.131,877.129a1.437,1.437,0,1,0-2.489-1.437h0a7.273,7.273,0,0,1-12.589,0,1.437,1.437,0,0,0-2.485,1.437,10.146,10.146,0,0,0,17.563,0Z" fill="#00bcbc"/>
      <path id="Path_117" data-name="Path 117" d="M6913.568,863.171a2.948,2.948,0,1,0-2.955,2.942h.007A2.947,2.947,0,0,0,6913.568,863.171Z" fill="#00bcbc"/>
      <path id="Path_118" data-name="Path 118" d="M6929.011,863.171a2.949,2.949,0,1,0-2.955,2.942h.007a2.941,2.941,0,0,0,2.948-2.935Z" fill="#00bcbc"/>
    </g>
    <path id="Path_158" data-name="Path 158" d="M-10.912-6.6v5.117a6.334,6.334,0,0,1-2.262,1.34A7.975,7.975,0,0,1-15.8.313a6.446,6.446,0,0,1-2.532-.461,4.891,4.891,0,0,1-1.819-1.305,5.542,5.542,0,0,1-1.1-2.045,9.251,9.251,0,0,1-.365-2.7,8.644,8.644,0,0,1,.4-2.724,6.046,6.046,0,0,1,1.131-2.062,4.841,4.841,0,0,1,1.775-1.305,5.807,5.807,0,0,1,2.332-.452A6.139,6.139,0,0,1-14-12.452a4.237,4.237,0,0,1,1.427.792,4.077,4.077,0,0,1,.94,1.175,5.3,5.3,0,0,1,.513,1.436l-2.071.3a5.119,5.119,0,0,0-.339-.931,2.139,2.139,0,0,0-.522-.687,2.205,2.205,0,0,0-.792-.426,3.8,3.8,0,0,0-1.131-.148,3.256,3.256,0,0,0-1.523.339,2.99,2.99,0,0,0-1.088.966,4.4,4.4,0,0,0-.644,1.5,8.285,8.285,0,0,0-.209,1.932,8.452,8.452,0,0,0,.209,1.967,4.112,4.112,0,0,0,.661,1.488,3.01,3.01,0,0,0,1.14.948,3.807,3.807,0,0,0,1.662.331A6.176,6.176,0,0,0-14.2-1.662a4.163,4.163,0,0,0,1.34-.635V-4.821h-2.75V-6.6Zm6.578,5.273A2.059,2.059,0,0,0-2.5-2.184a4.159,4.159,0,0,0,.583-2.358A4.08,4.08,0,0,0-2.5-6.874a2.067,2.067,0,0,0-1.836-.853,2.059,2.059,0,0,0-1.836.861,4.088,4.088,0,0,0-.583,2.323,4.267,4.267,0,0,0,.566,2.349A2.044,2.044,0,0,0-4.333-1.323Zm-.017,1.6A4.271,4.271,0,0,1-7.64-.975a5.017,5.017,0,0,1-1.166-3.55,6.029,6.029,0,0,1,.3-1.967,4.249,4.249,0,0,1,.879-1.514,3.936,3.936,0,0,1,1.41-.975,4.893,4.893,0,0,1,1.9-.348A4.836,4.836,0,0,1-2.4-8.971,3.944,3.944,0,0,1-1-7.988,4.126,4.126,0,0,1-.148-6.483,6.162,6.162,0,0,1,.139-4.56,6,6,0,0,1-.191-2.48,4.249,4.249,0,0,1-1.123-.966a3.9,3.9,0,0,1-1.418.931A5.023,5.023,0,0,1-4.351.278Zm10.79-1.6a2.059,2.059,0,0,0,1.836-.861,4.159,4.159,0,0,0,.583-2.358,4.08,4.08,0,0,0-.583-2.332,2.067,2.067,0,0,0-1.836-.853A2.059,2.059,0,0,0,4.6-6.866,4.088,4.088,0,0,0,4.02-4.542a4.267,4.267,0,0,0,.566,2.349A2.044,2.044,0,0,0,6.439-1.323ZM6.422.278A4.271,4.271,0,0,1,3.133-.975a5.017,5.017,0,0,1-1.166-3.55,6.029,6.029,0,0,1,.3-1.967A4.249,4.249,0,0,1,3.15-8.005,3.936,3.936,0,0,1,4.56-8.98a4.893,4.893,0,0,1,1.9-.348,4.836,4.836,0,0,1,1.914.357,3.944,3.944,0,0,1,1.4.983,4.126,4.126,0,0,1,.853,1.505,6.162,6.162,0,0,1,.287,1.923,6,6,0,0,1-.331,2.08A4.249,4.249,0,0,1,9.65-.966a3.9,3.9,0,0,1-1.418.931A5.023,5.023,0,0,1,6.422.278ZM19.439-4.716a4.857,4.857,0,0,0-.183-1.436,2.331,2.331,0,0,0-.5-.922A1.861,1.861,0,0,0,18-7.562a2.715,2.715,0,0,0-.9-.148,2.013,2.013,0,0,0-1.7.783,3.9,3.9,0,0,0-.6,2.384,5.718,5.718,0,0,0,.165,1.479,2.722,2.722,0,0,0,.47.992,1.834,1.834,0,0,0,.7.557,2.159,2.159,0,0,0,.87.174,2.3,2.3,0,0,0,1.749-.7,3.1,3.1,0,0,0,.67-2.2Zm.017,3.463A3.844,3.844,0,0,1,18.195-.1,3.393,3.393,0,0,1,16.55.278,3.812,3.812,0,0,1,14.862-.07a3.19,3.19,0,0,1-1.183-.983,4.45,4.45,0,0,1-.7-1.514,7.506,7.506,0,0,1-.235-1.94,6.785,6.785,0,0,1,.244-1.853,4.591,4.591,0,0,1,.714-1.5,3.607,3.607,0,0,1,1.157-1.018,3.5,3.5,0,0,1,1.592-.418,2.326,2.326,0,0,1,.348-.009q.174.009.365.026a3.684,3.684,0,0,1,1.175.339,3.3,3.3,0,0,1,1.088.9v-4.386h1.967V0H19.457Z" transform="translate(512.73 938.983)" fill="#2d64ba"/>
  </g>
</svg>
