<svg xmlns="http://www.w3.org/2000/svg" width="115.326" height="137.596" viewBox="0 0 115.326 137.596">
  <g id="Afghan_Bad_Icon" data-name="Afghan Bad Icon" transform="translate(-164.832 -801.665)">
    <path id="Path_112" data-name="Path 112" d="M6684.152,880.31a16.289,16.289,0,0,0-5.492-3.43,61.835,61.835,0,0,0-11.021-3.32c-.686-.152-.615-.357-.243-.788,1.469-1.7,2.918-3.417,4.271-5.216,4.472-5.943,8.316-12.215,10.251-19.487a17.259,17.259,0,0,0,.4-8.667,7.784,7.784,0,0,0-4.259-5.488c-2.921-1.4-5.979-1.27-9.031-.677a38.224,38.224,0,0,0-9.7,3.461,76.8,76.8,0,0,0-13.346,8.69c-.163.128-.3.407-.561.255-.214-.125-.2-.391-.2-.615-.011-2.026-.175-4.043-.334-6.061-.212-2.714-.564-5.413-.992-8.1-.357-2.24-.825-4.462-1.36-6.67a57.089,57.089,0,0,0-3.769-11.114c-1.619-3.409-3.484-6.657-6.681-8.868a7.007,7.007,0,0,0-7.433-.72,14.653,14.653,0,0,0-5.868,5.74,41.6,41.6,0,0,0-4.331,9.6,79.207,79.207,0,0,0-2.6,10.6c-.407,2.287-.751,4.579-1,6.884-.323,2.929-.57,5.866-.628,8.815,0,.2.034.44-.175.54s-.354-.113-.507-.231c-1.128-.869-2.233-1.769-3.388-2.6a65.609,65.609,0,0,0-12.528-7.3,30.231,30.231,0,0,0-11.558-2.73,8.768,8.768,0,0,0-2.684.384,8.315,8.315,0,0,0-3.762,1.922c-2.387,2.25-2.989,5.142-2.84,8.222a29.235,29.235,0,0,0,2.534,9.959,65.581,65.581,0,0,0,8.079,13.715c1.481,1.982,3.023,3.914,4.691,5.742.357.391.417.658-.237.794-1,.208-1.989.487-2.983.732a41.632,41.632,0,0,0-10.918,4.026,11.06,11.06,0,0,0-2.726,2.083,3.428,3.428,0,0,0-.347,4.754,6.613,6.613,0,0,0,1.577,1.588c3.769,2.714,8.159,3.908,12.553,5.068,2.487.657,5.018,1.117,7.551,1.571,2.113.379,4.233.712,6.36.983,2.5.318,5,.593,7.511.849.677.069.63.27.353.774a45.037,45.037,0,0,0-3.307,7.205,14.343,14.343,0,0,0-.883,4.835c.033,2.255,1.007,3.613,2.856,4.042a8.306,8.306,0,0,0,3.646-.039,35.4,35.4,0,0,0,9.466-3.848,97.547,97.547,0,0,0,8.983-5.692.954.954,0,0,1,1.276.018c.85.612,1.734,1.177,2.61,1.751a57.386,57.386,0,0,0,13.277,6.83,12.258,12.258,0,0,0,5.592.731,3.652,3.652,0,0,0,3.176-3.352,15.114,15.114,0,0,0-1.386-6.965,49.1,49.1,0,0,0-2.753-5.657c-.28-.516-.138-.665.376-.7.821-.063,1.645-.11,2.46-.22,3.832-.518,7.671-.976,11.481-1.67a77.144,77.144,0,0,0,14.091-3.708,16.943,16.943,0,0,0,6.434-3.855A3.545,3.545,0,0,0,6684.152,880.31Z" transform="translate(-6405.232 -1.081)" fill="#2d64ba"/>
    <g id="Group_175" data-name="Group 175" transform="translate(-6405.232 -1.081)">
      <path id="Path_119" data-name="Path 119" d="M6618.982,880.039a1.437,1.437,0,1,0,2.49,1.436h0a7.273,7.273,0,0,1,12.588,0,1.436,1.436,0,0,0,2.485-1.436,10.145,10.145,0,0,0-17.563,0Z" fill="#00bcbc"/>
      <path id="Path_120" data-name="Path 120" d="M6622.953,863.171a2.948,2.948,0,1,0-2.955,2.942H6620A2.948,2.948,0,0,0,6622.953,863.171Z" fill="#00bcbc"/>
      <path id="Path_121" data-name="Path 121" d="M6638.4,863.171a2.948,2.948,0,1,0-2.955,2.942h.007a2.941,2.941,0,0,0,2.948-2.935Z" fill="#00bcbc"/>
    </g>
    <path id="Path_156" data-name="Path 156" d="M-14.671-12.426h4.3a8.177,8.177,0,0,1,2.228.252,3.641,3.641,0,0,1,1.384.7,2.282,2.282,0,0,1,.7,1.044,4.187,4.187,0,0,1,.191,1.279A3.105,3.105,0,0,1-6.213-7.7,2.611,2.611,0,0,1-7.483-6.6,3.877,3.877,0,0,1-6.509-6a2.967,2.967,0,0,1,.609.7,2.519,2.519,0,0,1,.313.783,3.961,3.961,0,0,1,.087.827,4.385,4.385,0,0,1-.235,1.444A2.834,2.834,0,0,1-6.509-1.07a3.82,3.82,0,0,1-1.41.783A6.9,6.9,0,0,1-10.059,0h-4.612Zm4.542,5.1a2.537,2.537,0,0,0,1.723-.452,1.694,1.694,0,0,0,.487-1.305,1.444,1.444,0,0,0-.566-1.279,3.6,3.6,0,0,0-1.958-.392h-2.193v3.428Zm0,5.639a4.69,4.69,0,0,0,1.244-.139,1.916,1.916,0,0,0,.783-.4,1.456,1.456,0,0,0,.409-.627,2.577,2.577,0,0,0,.122-.818A1.87,1.87,0,0,0-8.1-5.108a2.676,2.676,0,0,0-1.836-.5h-2.7v3.916ZM.8-4.229a7.918,7.918,0,0,0-1.436.191,2.456,2.456,0,0,0-.844.357,1.038,1.038,0,0,0-.392.5,1.942,1.942,0,0,0-.1.618,1.167,1.167,0,0,0,.374.922,1.623,1.623,0,0,0,1.105.331,2.546,2.546,0,0,0,1.932-.661,2.5,2.5,0,0,0,.627-1.793v-.522ZM2.106-1.183A4.212,4.212,0,0,1,.87-.174,3.649,3.649,0,0,1-.9.226a4.2,4.2,0,0,1-1.2-.165,2.771,2.771,0,0,1-.966-.5,2.292,2.292,0,0,1-.644-.844,2.884,2.884,0,0,1-.235-1.21,2.557,2.557,0,0,1,.418-1.523,2.882,2.882,0,0,1,1.088-.914A5.194,5.194,0,0,1-.94-5.386,14.807,14.807,0,0,1,.731-5.552l1.34-.07V-6a1.718,1.718,0,0,0-.5-1.418,2.031,2.031,0,0,0-1.3-.392A2.388,2.388,0,0,0-1.088-7.5a1.474,1.474,0,0,0-.583.9l-1.81-.191a2.749,2.749,0,0,1,1.2-1.932A4.867,4.867,0,0,1,.348-9.328a4.9,4.9,0,0,1,1.784.278,2.8,2.8,0,0,1,1.123.766,2.767,2.767,0,0,1,.583,1.157A6.135,6.135,0,0,1,4-5.656V0h-1.9ZM12.913-4.716a4.857,4.857,0,0,0-.183-1.436,2.331,2.331,0,0,0-.5-.922,1.861,1.861,0,0,0-.748-.487,2.715,2.715,0,0,0-.9-.148,2.013,2.013,0,0,0-1.7.783,3.9,3.9,0,0,0-.6,2.384,5.718,5.718,0,0,0,.165,1.479,2.722,2.722,0,0,0,.47.992,1.834,1.834,0,0,0,.7.557,2.159,2.159,0,0,0,.87.174,2.3,2.3,0,0,0,1.749-.7,3.1,3.1,0,0,0,.67-2.2Zm.017,3.463A3.844,3.844,0,0,1,11.669-.1a3.393,3.393,0,0,1-1.645.383A3.812,3.812,0,0,1,8.336-.07a3.19,3.19,0,0,1-1.183-.983,4.45,4.45,0,0,1-.7-1.514,7.506,7.506,0,0,1-.235-1.94,6.785,6.785,0,0,1,.244-1.853,4.591,4.591,0,0,1,.714-1.5A3.607,3.607,0,0,1,8.327-8.876,3.5,3.5,0,0,1,9.92-9.293a2.326,2.326,0,0,1,.348-.009q.174.009.365.026a3.684,3.684,0,0,1,1.175.339,3.3,3.3,0,0,1,1.088.9v-4.386h1.967V0H12.931Z" transform="translate(222.517 938.983)" fill="#2d64ba"/>
  </g>
</svg>
