<svg xmlns="http://www.w3.org/2000/svg" xmlns:xlink="http://www.w3.org/1999/xlink" width="314" height="95" viewBox="0 0 314 95">
  <defs>
    <clipPath id="clip-Artboard_1">
      <rect width="314" height="95"/>
    </clipPath>
  </defs>
  <g id="Artboard_1" data-name="Artboard – 1" clip-path="url(#clip-Artboard_1)">
    <g id="Woody" transform="translate(-5748 -1121)">
      <path id="Path_145" data-name="Path 145" d="M2.9-14.067,5.5-3.389l2.679-10.6h2.541l2.719,10.58,2.522-10.659H18.5L14.619,0H12.235L9.378-11.072,6.561,0H4.256L.217-14.067ZM23.819-1.5A2.331,2.331,0,0,0,25.9-2.473a4.708,4.708,0,0,0,.66-2.67,4.619,4.619,0,0,0-.66-2.64,2.34,2.34,0,0,0-2.079-.965,2.331,2.331,0,0,0-2.079.975,4.628,4.628,0,0,0-.66,2.63,4.83,4.83,0,0,0,.64,2.66A2.314,2.314,0,0,0,23.819-1.5ZM23.8.315A4.836,4.836,0,0,1,20.076-1.1a5.68,5.68,0,0,1-1.32-4.019A6.825,6.825,0,0,1,19.1-7.349,4.81,4.81,0,0,1,20.1-9.063a4.456,4.456,0,0,1,1.6-1.1,5.54,5.54,0,0,1,2.147-.394,5.474,5.474,0,0,1,2.167.4,4.464,4.464,0,0,1,1.586,1.113,4.67,4.67,0,0,1,.965,1.7,6.975,6.975,0,0,1,.325,2.177,6.786,6.786,0,0,1-.374,2.354,4.81,4.81,0,0,1-1.054,1.714A4.41,4.41,0,0,1,25.848-.039,5.687,5.687,0,0,1,23.8.315ZM35.62-1.5A2.331,2.331,0,0,0,37.7-2.473a4.708,4.708,0,0,0,.66-2.67,4.619,4.619,0,0,0-.66-2.64,2.34,2.34,0,0,0-2.079-.965,2.331,2.331,0,0,0-2.079.975,4.628,4.628,0,0,0-.66,2.63,4.83,4.83,0,0,0,.64,2.66A2.314,2.314,0,0,0,35.62-1.5ZM35.6.315A4.836,4.836,0,0,1,31.877-1.1a5.68,5.68,0,0,1-1.32-4.019A6.825,6.825,0,0,1,30.9-7.349,4.81,4.81,0,0,1,31.9-9.063a4.456,4.456,0,0,1,1.6-1.1,5.54,5.54,0,0,1,2.147-.394,5.474,5.474,0,0,1,2.167.4,4.465,4.465,0,0,1,1.586,1.113,4.67,4.67,0,0,1,.965,1.7,6.975,6.975,0,0,1,.325,2.177,6.786,6.786,0,0,1-.374,2.354,4.81,4.81,0,0,1-1.054,1.714A4.41,4.41,0,0,1,37.65-.039,5.687,5.687,0,0,1,35.6.315ZM49.943-5.339a5.5,5.5,0,0,0-.207-1.625,2.639,2.639,0,0,0-.571-1.044,2.107,2.107,0,0,0-.847-.552A3.073,3.073,0,0,0,47.3-8.728a2.279,2.279,0,0,0-1.921.887,4.415,4.415,0,0,0-.68,2.7,6.473,6.473,0,0,0,.187,1.675,3.081,3.081,0,0,0,.532,1.123,2.076,2.076,0,0,0,.8.63,2.444,2.444,0,0,0,.985.2,2.607,2.607,0,0,0,1.98-.8,3.515,3.515,0,0,0,.759-2.492Zm.02,3.921a4.352,4.352,0,0,1-1.428,1.3,3.841,3.841,0,0,1-1.862.433,4.316,4.316,0,0,1-1.911-.394,3.612,3.612,0,0,1-1.34-1.113,5.037,5.037,0,0,1-.8-1.714,8.5,8.5,0,0,1-.266-2.2,7.681,7.681,0,0,1,.276-2.1A5.2,5.2,0,0,1,43.442-8.9a4.084,4.084,0,0,1,1.31-1.153,3.965,3.965,0,0,1,1.8-.473,2.633,2.633,0,0,1,.394-.01q.2.01.414.03a4.17,4.17,0,0,1,1.33.384A3.736,3.736,0,0,1,49.924-9.1v-4.965H52.15V0H49.963Zm4.866,3.231a3.3,3.3,0,0,0,1.123.177,1.382,1.382,0,0,0,.926-.286A2.652,2.652,0,0,0,57.509.63l.374-.985-4.315-9.89h2.6l2.817,7.388,2.581-7.388H64.01L59.932.1q-.355.906-.67,1.6a5.155,5.155,0,0,1-.709,1.162,2.616,2.616,0,0,1-.936.719,3.206,3.206,0,0,1-1.33.246,6.034,6.034,0,0,1-.946-.069,6.3,6.3,0,0,1-.926-.227Z" transform="translate(5875.646 1203.555)" fill="#2d64ba"/>
      <g id="Icon">
        <path id="Path_128" data-name="Path 128" d="M5922.183,1144.1c.045-.057.093-.111.132-.171.91-1.383,1.822-2.764,2.724-4.151a1.481,1.481,0,0,1,1.294-.66,3.722,3.722,0,0,1,1.552.31,9.033,9.033,0,0,1,4.442,3.872,4.025,4.025,0,0,1,.492,1.311,1.749,1.749,0,0,1-.424,1.575,39.827,39.827,0,0,0-6.73,10.8,45.522,45.522,0,0,0-3.052,10.612,34.143,34.143,0,0,0-.5,5.379,1.8,1.8,0,0,1-.434,1.154,4.584,4.584,0,0,1-1.352,1.08,13.5,13.5,0,0,1-2.875,1.17,33.022,33.022,0,0,1-5.185,1.047,49.463,49.463,0,0,1-6.469.4,45.911,45.911,0,0,1-10.082-1,18.46,18.46,0,0,1-4.035-1.329,6.2,6.2,0,0,1-1.658-1.1,2.141,2.141,0,0,1-.682-1.618q.011-19.9,0-39.8a3.328,3.328,0,0,1,.835-2.236,7.1,7.1,0,0,1,1.74-1.428,16.035,16.035,0,0,1,3.733-1.6,31.262,31.262,0,0,1,5.918-1.142,40.532,40.532,0,0,1,6.737-.133,30.883,30.883,0,0,1,8.768,1.7,13.1,13.1,0,0,1,2.968,1.5,6.173,6.173,0,0,1,1.339,1.218,3.223,3.223,0,0,1,.734,2.083c-.014,3.583-.006,7.165-.006,10.748v.4Zm-15.958-7.9c.413-.013,1.08-.03,1.746-.056a34.472,34.472,0,0,0,6.455-.823,14.289,14.289,0,0,0,3.247-1.113,4.42,4.42,0,0,0,1.292-.917,1.352,1.352,0,0,0,.013-2.014,2.556,2.556,0,0,0-.41-.374,7.322,7.322,0,0,0-.746-.479,12.7,12.7,0,0,0-3.016-1.1,35.343,35.343,0,0,0-7.554-.948,42.38,42.38,0,0,0-7.058.363,24.066,24.066,0,0,0-4.331.955,8.376,8.376,0,0,0-2.117.959,4.421,4.421,0,0,0-.889.771,1.244,1.244,0,0,0-.016,1.693,2.2,2.2,0,0,0,.525.516,11.761,11.761,0,0,0,1.41.805,15.631,15.631,0,0,0,3.428,1.035A41.018,41.018,0,0,0,5906.225,1136.2Zm-13.419,25.218v3.963c0,2.2,0,4.4,0,6.593a1.5,1.5,0,0,0,1.338,1.519,1.524,1.524,0,0,0,1.681-1.234,2.932,2.932,0,0,0,.031-.553q0-10.277,0-20.555a3.423,3.423,0,0,0-.009-.407,1.53,1.53,0,0,0-2.658-.892,1.536,1.536,0,0,0-.389,1.122Q5892.811,1156.2,5892.806,1161.419Zm3.133-18.981c0-.468,0-.937,0-1.406a1.983,1.983,0,0,0-.046-.476,1.524,1.524,0,0,0-1.613-1.136,1.5,1.5,0,0,0-1.382,1.445q-.033,1.536,0,3.072a1.522,1.522,0,0,0,3.044-.055C5895.943,1143.4,5895.939,1142.92,5895.939,1142.438Z" fill="#2d64ba"/>
      </g>
    </g>
    <g id="Mushroom" transform="translate(-5748 -1121)">
      <text id="Earthy" transform="translate(5751.335 1202.64)" fill="#2d64ba" font-size="19.701" font-family="AktivGrotesk-Medium, Aktiv Grotesk" font-weight="500"><tspan x="0" y="0">Earthy</tspan></text>
      <g id="Group_206" data-name="Group 206">
        <path id="Path_127" data-name="Path 127" d="M5785.54,1152.463c.086.633.166,1.231.25,1.828q.469,3.346.941,6.693c.285,2.017.581,4.033.853,6.051a16.792,16.792,0,0,1,.2,2.173,7.465,7.465,0,0,1-6.321,7.317,1.237,1.237,0,0,1-.16.026,26.143,26.143,0,0,1-5.893-.126,7.431,7.431,0,0,1-5.793-6.2,8.9,8.9,0,0,1,.042-2.58q.441-3.106.876-6.212.424-3.006.853-6.011.174-1.222.342-2.445c.018-.13.02-.263.032-.437-.561.061-1.093.11-1.624.177a74.84,74.84,0,0,0-9.491,1.811,2.992,2.992,0,0,1-1.481-.094,5.258,5.258,0,0,1-4.016-5.271,22.517,22.517,0,0,1,3.951-12.723,22.744,22.744,0,0,1,14.743-9.732,21.831,21.831,0,0,1,4.306-.407c1.107,0,2.215,0,3.32.051a21.648,21.648,0,0,1,9.329,2.552,22.765,22.765,0,0,1,11.856,15.46,20.775,20.775,0,0,1,.531,4.981,5.251,5.251,0,0,1-4.5,5.188,2.962,2.962,0,0,1-1.2-.052,65.789,65.789,0,0,0-6.932-1.425c-1.574-.231-3.158-.4-4.738-.594A2.621,2.621,0,0,0,5785.54,1152.463Zm-5.653-20.966c-.513,0-1.026,0-1.539,0a2.772,2.772,0,0,0-.483.036,1.558,1.558,0,0,0-1.265,1.067,1.605,1.605,0,0,0,.28,1.636,1.672,1.672,0,0,0,1.355.61c.675,0,1.351-.025,2.024.008a16.478,16.478,0,0,1,2.374.208,14.037,14.037,0,0,1,10.53,8.288,13.608,13.608,0,0,1,1.1,4,1.663,1.663,0,0,0,1.571,1.435,1.684,1.684,0,0,0,1.69-1.242,2.315,2.315,0,0,0,0-1,17.567,17.567,0,0,0-17.63-15.051Z" fill="#2d64ba"/>
      </g>
    </g>
    <g id="Spicy" transform="translate(-5748 -1121)">
      <g id="icon-2" data-name="icon">
        <path id="Path_125" data-name="Path 125" d="M6056.189,1128.435A11.278,11.278,0,0,1,6054,1132.8c-.839,1.007-1.726,1.977-2.638,2.919a.917.917,0,0,0-.181,1.182c.369.8.724,1.609,1.031,2.434a3.35,3.35,0,0,1-.146,2.495,13.861,13.861,0,0,1-.638,1.32,2.007,2.007,0,0,1-.372.389,3.456,3.456,0,0,1-.359-.394c-.617-.933-1.172-1.911-1.846-2.8a10.369,10.369,0,0,0-6.249-3.737,2.481,2.481,0,0,1-.319-.088c-.382-.14-.41-.275-.129-.567a4,4,0,0,1,2.74-1.238c1.119-.065,2.242-.056,3.361-.122a1.161,1.161,0,0,0,.782-.315,13.608,13.608,0,0,0,2.943-5.71,15.856,15.856,0,0,1,.449-1.977,1.333,1.333,0,0,1,1.534-.991,2.307,2.307,0,0,1,2.223,1.8Z" fill="#2d64ba"/>
        <path id="Path_126" data-name="Path 126" d="M6036.689,1137.4a16.826,16.826,0,0,1,7.374,1.568,11.8,11.8,0,0,1,6.254,11.792,8.078,8.078,0,0,1-3.152,5.379,85.692,85.692,0,0,1-10.234,6.593c-5.505,3.167-11.117,6.129-16.9,8.753a13.836,13.836,0,0,1-6.612,1.37,10.156,10.156,0,0,1-4.915-1.546,1.526,1.526,0,0,1-.492-2.484,31.779,31.779,0,0,1,2.15-2.463c2.881-3.088,5.869-6.082,8.641-9.264a61.063,61.063,0,0,0,9.272-13.93,18.8,18.8,0,0,0,.728-1.8,5.181,5.181,0,0,1,3.015-3.034A12.612,12.612,0,0,1,6036.689,1137.4Zm-19.729,26.942.061.076c.313-.2.623-.4.941-.589a61.492,61.492,0,0,0,11.784-9.125,30.175,30.175,0,0,0,5.022-6.038,7.489,7.489,0,0,0,1.122-5.7,1.8,1.8,0,0,0-2.3-1.38,2.943,2.943,0,0,0-1.892,1.848c-.661,1.416-1.251,2.873-2.027,4.223a79.59,79.59,0,0,1-11.907,15.847C6017.49,1163.782,6017.226,1164.065,6016.96,1164.345Z" fill="#2d64ba"/>
      </g>
      <text id="Spicy-2" data-name="Spicy" transform="translate(6006.286 1203.14)" fill="#2d64ba" font-size="19.701" font-family="AktivGrotesk-Medium, Aktiv Grotesk" font-weight="500"><tspan x="0" y="0">Spicy</tspan></text>
    </g>
  </g>
</svg>
