<svg xmlns="http://www.w3.org/2000/svg" width="115.326" height="109.503" viewBox="0 0 115.326 109.503">
  <g id="Afghan_Yes_Icon" data-name="Afghan Yes Icon" transform="translate(-239.263 -1042.796)">
    <path id="Path_115" data-name="Path 115" d="M6758.583,1121.441a16.29,16.29,0,0,0-5.492-3.431,61.883,61.883,0,0,0-11.021-3.319c-.686-.152-.615-.358-.243-.788,1.469-1.7,2.918-3.417,4.271-5.216,4.471-5.943,8.316-12.215,10.251-19.488a17.261,17.261,0,0,0,.4-8.666,7.785,7.785,0,0,0-4.259-5.488c-2.921-1.4-5.979-1.27-9.031-.677a38.219,38.219,0,0,0-9.7,3.46,76.848,76.848,0,0,0-13.346,8.69c-.163.129-.3.408-.561.256-.214-.126-.2-.391-.2-.615-.011-2.026-.175-4.043-.334-6.061-.212-2.714-.564-5.413-.992-8.1-.357-2.24-.825-4.462-1.361-6.67a57.086,57.086,0,0,0-3.768-11.115c-1.619-3.408-3.484-6.656-6.681-8.867a7.006,7.006,0,0,0-7.433-.72,14.646,14.646,0,0,0-5.868,5.74,41.541,41.541,0,0,0-4.331,9.6,79.169,79.169,0,0,0-2.6,10.6c-.407,2.286-.751,4.578-1,6.883-.323,2.93-.57,5.867-.629,8.816,0,.2.035.44-.174.54s-.354-.113-.507-.231c-1.128-.869-2.233-1.769-3.388-2.6a65.536,65.536,0,0,0-12.528-7.3,30.251,30.251,0,0,0-11.558-2.731,8.8,8.8,0,0,0-2.684.385,8.3,8.3,0,0,0-3.762,1.922c-2.387,2.25-2.989,5.141-2.84,8.221a29.224,29.224,0,0,0,2.534,9.96,65.563,65.563,0,0,0,8.079,13.715c1.481,1.982,3.023,3.914,4.691,5.742.357.391.417.658-.238.794-1,.208-1.988.487-2.982.732a41.607,41.607,0,0,0-10.918,4.026,11.076,11.076,0,0,0-2.726,2.082,3.428,3.428,0,0,0-.347,4.754,6.57,6.57,0,0,0,1.577,1.588c3.769,2.715,8.159,3.909,12.553,5.069,2.487.657,5.018,1.117,7.551,1.571,2.113.379,4.232.712,6.36.983,2.5.318,5,.593,7.511.848.677.069.63.271.353.775a45.123,45.123,0,0,0-3.308,7.2,14.377,14.377,0,0,0-.882,4.834c.032,2.256,1.007,3.613,2.856,4.043a8.3,8.3,0,0,0,3.646-.039,35.4,35.4,0,0,0,9.465-3.848,97.483,97.483,0,0,0,8.984-5.693.955.955,0,0,1,1.276.019c.85.612,1.734,1.177,2.61,1.751a57.45,57.45,0,0,0,13.277,6.83,12.259,12.259,0,0,0,5.592.731,3.652,3.652,0,0,0,3.176-3.352,15.118,15.118,0,0,0-1.386-6.966,49.415,49.415,0,0,0-2.753-5.657c-.28-.515-.138-.664.375-.7.822-.063,1.646-.11,2.461-.22,3.832-.518,7.671-.976,11.48-1.67a77.148,77.148,0,0,0,14.092-3.708,16.929,16.929,0,0,0,6.434-3.856A3.543,3.543,0,0,0,6758.583,1121.441Z" transform="translate(-6405.232 -1.081)" fill="#2d64ba"/>
    <path id="Path_159" data-name="Path 159" d="M-12.8,0V-5.847l-5.066-9.225h4.391l2.723,5.763,2.765-5.763h4.264l-5,9.225V0ZM5.562-3.567A4.392,4.392,0,0,1,3.895-.644,5.954,5.954,0,0,1,.285.338a5.613,5.613,0,0,1-4.18-1.457A5.8,5.8,0,0,1-5.33-5.362a6.271,6.271,0,0,1,1.5-4.454,5.412,5.412,0,0,1,4.159-1.6A5.163,5.163,0,0,1,4.243-9.953a5.7,5.7,0,0,1,1.4,4.106v1.2h-7.3a3,3,0,0,0,.528,1.71,1.692,1.692,0,0,0,1.372.528A1.586,1.586,0,0,0,1.995-3.567ZM2.121-6.818a2.183,2.183,0,0,0-.475-1.446A1.744,1.744,0,0,0,.327-8.718a1.844,1.844,0,0,0-1.984,1.9Zm11.758-.865a1.419,1.419,0,0,0-.528-.876,1.916,1.916,0,0,0-1.1-.264A1.924,1.924,0,0,0,11.23-8.6a.7.7,0,0,0-.348.623.607.607,0,0,0,.274.528,2.7,2.7,0,0,0,.992.317l1.267.232a6.9,6.9,0,0,1,3.166,1.2,2.844,2.844,0,0,1,.95,2.3q0,3.736-5.045,3.736A6.677,6.677,0,0,1,8.549-.644a3.668,3.668,0,0,1-1.488-2.9h3.61q.211,1.14,1.773,1.14a2.073,2.073,0,0,0,1.045-.2.719.719,0,0,0,.327-.665.673.673,0,0,0-.253-.559,1.917,1.917,0,0,0-.823-.306l-1.288-.211A6.466,6.466,0,0,1,8.3-5.531a2.826,2.826,0,0,1-1-2.28,3.109,3.109,0,0,1,1.288-2.67,6.158,6.158,0,0,1,3.673-.939,6.419,6.419,0,0,1,3.546.855,3.621,3.621,0,0,1,1.6,2.523Z" transform="translate(299.422 1115.577)" fill="#00bcbc"/>
  </g>
</svg>
