<?xml version="1.0" encoding="utf-8"?>
<!-- Generator: Adobe Illustrator 25.3.1, SVG Export Plug-In . SVG Version: 6.00 Build 0)  -->
<svg version="1.1" id="Layer_1" xmlns="http://www.w3.org/2000/svg" xmlns:xlink="http://www.w3.org/1999/xlink" x="0px" y="0px"
	 viewBox="0 0 400 149.68" style="enable-background:new 0 0 400 149.68;" xml:space="preserve">
<style type="text/css">
	.st0{fill:#FFFFFF;}
</style>
<g>
	<g>
		<path class="st0" d="M-0.29,19.03V5.98h23.9v59.28H8.2V19.03H-0.29z"/>
		<path class="st0" d="M123.76,68.95l-4.72-5.58c-4.56,2.75-9.91,3.85-16.27,3.85c-19.03,0-32.79-13.52-32.79-32.71
			c0-17.93,15.72-30.5,32.79-30.5c18.48,0,32.78,12.5,32.78,31.76c0,7.86-2.67,14.7-7.63,20.83l9.98,10.14L123.76,68.95z
			 M116.77,44.58c1.81-2.52,2.75-5.74,2.75-8.73c0-8.88-7.39-16.9-16.67-16.9c-9.2,0-16.82,7.47-16.82,15.65
			c0,10.22,7.63,17.69,16.82,17.69c1.57,0,3.14-0.24,4.72-0.79l-9.51-9.43l14.54-1.81L116.77,44.58z"/>
		<path class="st0" d="M156.47,24.92v21.54c0,5.11,1.26,8.73,7.15,8.73c5.9,0,7.15-3.62,7.15-8.73V24.92h14.31v24.29
			c0,13.29-9.36,17.38-21.46,17.38c-12.11,0-21.46-4.09-21.46-17.38V24.92H156.47z"/>
		<path class="st0" d="M209.38,9.43c0,4.4-3.62,8.02-8.02,8.02s-8.02-3.62-8.02-8.02c0-4.4,3.62-8.02,8.02-8.02
			S209.38,5.03,209.38,9.43z M208.51,65.26H194.2V24.92h14.31V65.26z"/>
		<path class="st0" d="M247.03,38.05c-2.12-1.57-4.64-2.83-7.39-2.83c-5.5,0-9.83,4.25-9.83,9.83c0,5.82,4.17,9.91,10.06,9.91
			c2.52,0,5.27-1.02,7.15-2.75v12.11c-3.14,1.57-6.6,2.28-10.06,2.28c-11.95,0-21.93-8.88-21.93-21.07
			c0-12.97,9.91-21.94,22.56-21.94c3.3,0,6.6,0.79,9.43,2.36V38.05z"/>
		<path class="st0" d="M270.22,39.47l14.86-14.55h19.58l-20.21,18.63l21.46,21.7h-20.05l-15.65-16.43v16.43h-14.31V0h14.31V39.47z"
			/>
		<path class="st0" d="M325.18,9.43c0,4.4-3.62,8.02-8.02,8.02c-4.4,0-8.02-3.62-8.02-8.02c0-4.4,3.62-8.02,8.02-8.02
			C321.56,1.42,325.18,5.03,325.18,9.43z M324.31,65.26H310V24.92h14.31V65.26z"/>
		<path class="st0" d="M375.18,47.49h-30.11c0,5.82,3.07,8.96,8.96,8.96c3.07,0,5.27-1.02,6.84-3.7h13.76
			c-1.1,4.72-3.93,8.18-7.63,10.46c-3.7,2.28-8.26,3.38-12.89,3.38c-13.37,0-23.35-7.55-23.35-21.46c0-13.44,9.2-21.54,22.33-21.54
			c13.99,0,22.09,8.65,22.09,22.41V47.49z M361.89,39.23c-0.71-3.85-4.24-6.37-8.1-6.37c-4.17,0-7.63,2.2-8.49,6.37H361.89z"/>
		<path class="st0" d="M399.71,57.63c0,5.03-4.09,9.2-9.2,9.2c-5.11,0-9.2-4.17-9.2-9.2c0-5.11,4.09-9.2,9.2-9.2
			C395.62,48.43,399.71,52.52,399.71,57.63z"/>
	</g>
</g>
<g>
	<path class="st0" d="M17.54,126.06c0-7.84,4.7-13.67,11.23-13.67S40,118.27,40,126.06c0,7.89-4.7,13.72-11.23,13.72
		S17.54,133.9,17.54,126.06z M35.82,126.06c0-5.67-2.87-9.9-7.05-9.9s-7.05,4.18-7.05,9.9c0,5.78,2.87,9.9,7.05,9.9
		S35.82,131.84,35.82,126.06z"/>
	<path class="st0" d="M44.15,136.12c0-2.01,1.46-3.66,3.29-3.66s3.29,1.65,3.29,3.66c0,2.01-1.46,3.66-3.29,3.66
		S44.15,138.13,44.15,136.12z"/>
	<path class="st0" d="M57.89,135.19c1.41,0,2.54,1.29,2.54,2.79c0,0.83-0.33,1.65-0.94,2.17c1.17,1.29,3.2,1.96,5.5,1.96
		c3.62,0,6.2-2.37,6.2-5.67c0-2.22-1.08-4.08-3.29-5.16c-1.32-0.62-3.05-0.98-5.12-0.98h-1.22v-3.66h1.36
		c1.97,0,3.85-0.46,5.26-1.34c1.64-1.03,2.73-2.52,2.73-4.44c0-3.04-2.44-4.64-5.64-4.64c-2.35,0-3.85,0.67-4.7,1.65
		c0.61,0.46,1.03,1.34,1.03,2.11c0,1.6-1.22,2.79-2.63,2.79c-1.46,0-2.77-1.39-2.77-3.51c0-0.88,0.28-1.91,0.89-2.89
		c1.32-2.12,4.13-3.97,8.36-3.97c5.64,0,9.54,3.66,9.54,8.3c0,2.68-1.55,5.05-3.81,6.45c-0.89,0.57-1.93,0.98-3.01,1.13
		c0.99,0.21,1.97,0.62,2.82,1.13c2.44,1.39,4.28,3.82,4.28,7.17c0,5.62-4.46,9.28-10.34,9.28c-4.04,0-7.42-1.75-8.97-4.18
		c-0.56-0.93-0.89-1.96-0.89-3.04C55.07,136.74,56.29,135.19,57.89,135.19z"/>
	<path class="st0" d="M82.29,136.43c1.46,0,2.63,1.24,2.63,2.84c0,0.62-0.28,1.34-0.7,1.8c0.99,0.62,2.44,0.93,4.23,0.93
		c3.99,0,6.53-2.99,6.53-6.81c0-3.71-2.3-6.45-6.58-6.45c-2.11,0-4.32,0.57-6.06,1.5l-1.83-1.13l1.79-16.3h15.18v4.18H85.39
		l-0.94,8.61c1.22-0.41,2.82-0.67,4.46-0.67c5.83,0,10.15,3.87,10.15,10.26c0,6.24-4.46,10.68-10.38,10.68
		c-3.57,0-6.25-1.08-7.75-2.63c-0.94-0.98-1.46-2.22-1.46-3.4C79.47,137.92,80.69,136.43,82.29,136.43z"/>
	<path class="st0" d="M122.28,139.83c0,2.73-0.66,4.95-1.88,6.55c-1.69,2.27-4.46,3.3-7.66,3.3c-3.34,0-6.01-1.13-7.33-2.58
		c-0.75-0.83-1.08-1.7-1.08-2.68c0-1.55,1.03-2.89,2.54-2.89c1.36,0,2.35,1.08,2.35,2.53c0,0.41-0.09,0.88-0.28,1.24
		c0.7,0.31,1.88,0.72,3.57,0.72c1.93,0,3.62-0.62,4.7-2.11c0.66-0.93,1.03-2.27,1.03-4.07v-3.87c-1.6,1.8-3.43,3.14-6.34,3.14
		c-5.22,0-9.44-4.49-9.44-11.04c0-6.14,4.09-11.35,9.77-11.35c2.68,0,4.7,1.13,6.2,2.63v-2.22h7v3.82h-3.15V139.83z M106.58,128.02
		c0,4.44,2.58,7.27,6.16,7.27c2.21,0,4.04-1.13,5.5-2.79v-9.75c-1.36-1.24-3.1-2.17-5.4-2.17
		C109.17,120.6,106.58,123.59,106.58,128.02z"/>
	<path class="st0" d="M138.59,145.76h3.15v-24.81h-3.15v-3.82h7v2.89c1.69-1.91,3.57-3.3,6.48-3.3c5.31,0,9.44,4.64,9.44,11.4
		c0,6.39-4.09,11.65-9.82,11.65c-2.3,0-4.32-0.93-5.92-2.37v8.36h3.62v3.71h-10.81V145.76z M157.34,128.18
		c0-4.64-2.58-7.58-6.01-7.58c-2.3,0-4.04,1.18-5.54,2.84v10.37c1.41,1.24,3.2,2.11,5.45,2.11
		C154.66,135.91,157.34,132.87,157.34,128.18z"/>
	<path class="st0" d="M169.26,129.67c0.56,4.23,3.38,6.29,7.33,6.29c2.58,0,4.79-0.88,7.19-2.37l-0.33,4.07
		c-2.11,1.44-4.7,2.11-7.47,2.11c-6.53,0-10.95-4.64-10.95-11.45c0-6.24,3.9-11.6,10.06-11.6c6.25,0,9.54,4.9,9.54,10.57
		c0,0.83-0.09,1.7-0.19,2.37H169.26z M169.26,126.37h11.32c-0.19-3.56-2.16-5.98-5.59-5.98
		C172.26,120.39,169.77,122.35,169.26,126.37z"/>
	<path class="st0" d="M204.31,119.98c0,1.6-1.17,2.99-2.58,2.99c-1.36,0-2.3-0.93-2.68-1.91c-1.5,0.51-3.24,2.37-4.23,4.49v10.11
		h3.71v3.72h-10.85v-3.72h3.15v-14.7h-3.15v-3.82h7v5.06c1.6-3.04,3.95-5.47,6.3-5.47C203.18,116.73,204.31,118.22,204.31,119.98z"
		/>
	<path class="st0" d="M235.66,141.59c-1.32-0.93-2.82-1.5-4.37-1.8c-3.48-0.62-6.39-2.17-8.79-4.64c-2.82-2.89-4.65-7.48-4.65-12.74
		c0-9.95,6.58-17.59,15.83-17.59c9.12,0,15.6,7.69,15.6,17.59c0,8.56-4.7,14.65-10.9,16.4c0.7,0.26,1.55,0.72,2.26,1.18
		c1.88,1.29,3.05,2.06,4.84,2.06c1.22,0,2.3-0.26,3.99-1.55l2.07,3.71c-1.93,1.96-3.99,2.27-5.78,2.27
		C241.48,146.48,238.24,143.39,235.66,141.59z M244.91,122.4c0-7.58-4.75-13.26-11.32-13.26c-6.63,0-11.37,5.62-11.37,13.26
		c0,3.97,1.36,7.48,3.57,9.9c1.97,2.11,4.65,3.35,7.8,3.35C240.17,135.65,244.91,130.03,244.91,122.4z"/>
	<path class="st0" d="M256.99,136.84c-0.61-1.24-0.94-2.73-0.94-4.54v-11.35h-3.15v-3.82h7.14v14.18c0,1.13,0.19,2.01,0.52,2.68
		c0.56,1.18,1.5,1.7,2.96,1.7c2.21,0,4.28-1.5,6.06-3.35v-11.4h-3.24v-3.82h7.28v18.51h3.15v3.72h-7.05v-3.87
		c-1.93,2.27-4.46,4.28-7.38,4.28C259.77,139.78,258.03,138.65,256.99,136.84z"/>
	<path class="st0" d="M279.91,135.65h3.29v-14.7h-3.29v-3.82h7.33v18.51h3.24v3.72h-10.57V135.65z M281.83,109.2
		c0-1.75,1.36-3.2,2.96-3.2c1.55,0,2.91,1.44,2.91,3.2c0,1.8-1.41,3.25-2.96,3.25C283.15,112.45,281.83,111,281.83,109.2z"/>
	<path class="st0" d="M292.79,128.18c0-5.98,4.37-11.45,10.15-11.45c5.03,0,8.69,3.61,8.69,7.01c0,1.96-1.22,3.3-2.87,3.3
		c-1.32,0-2.54-1.13-2.54-2.78c0-0.72,0.33-1.45,0.85-1.86c-0.47-1.03-2.16-2.01-4.13-2.01c-2.73,0-6.06,2.52-6.06,7.89
		c0,4.59,3.05,7.69,7.24,7.69c2.35,0,4.46-0.78,6.95-2.37l-0.38,4.07c-2.07,1.44-4.46,2.11-6.95,2.11
		C297.44,139.78,292.79,135.04,292.79,128.18z"/>
	<path class="st0" d="M314.55,135.65h3.15v-30.22h-3.15v-3.82h7.19v26.15l7.33-7.02h-3.43v-3.61h11.65v3.82h-3.66l-5.64,5.31
		l5.78,9.28h3.52v3.82h-5.92l-6.34-10.63l-3.29,3.09v3.87h2.96v3.66h-10.15V135.65z"/>
	<path class="st0" d="M340.31,135.65h3.29v-14.7h-3.29v-3.82h7.33v18.51h3.24v3.72h-10.57V135.65z M342.24,109.2
		c0-1.75,1.36-3.2,2.96-3.2c1.55,0,2.91,1.44,2.91,3.2c0,1.8-1.41,3.25-2.96,3.25C343.56,112.45,342.24,111,342.24,109.2z"/>
	<path class="st0" d="M357.55,129.67c0.56,4.23,3.38,6.29,7.33,6.29c2.58,0,4.79-0.88,7.19-2.37l-0.33,4.07
		c-2.11,1.44-4.7,2.11-7.47,2.11c-6.53,0-10.95-4.64-10.95-11.45c0-6.24,3.9-11.6,10.06-11.6c6.25,0,9.54,4.9,9.54,10.57
		c0,0.83-0.09,1.7-0.19,2.37H357.55z M357.55,126.37h11.32c-0.19-3.56-2.16-5.98-5.59-5.98
		C360.55,120.39,358.06,122.35,357.55,126.37z"/>
</g>
</svg>
