<?xml version="1.0" encoding="utf-8"?>
<!-- Generator: Adobe Illustrator 25.3.1, SVG Export Plug-In . SVG Version: 6.00 Build 0)  -->
<svg version="1.1" id="Layer_1" xmlns="http://www.w3.org/2000/svg" xmlns:xlink="http://www.w3.org/1999/xlink" x="0px" y="0px"
	 viewBox="0 0 400 39.31" style="enable-background:new 0 0 400 39.31;" xml:space="preserve">
<style type="text/css">
	.st0{fill:#FFFFFF;}
</style>
<g>
	<path class="st0" d="M12.66,31.71l-2.53,6.38H0l14.12-36.7h10.42l13.82,36.7H28.19l-2.39-6.38H12.66z M19.33,12.72h-0.1
		l-3.94,11.68h7.93L19.33,12.72z"/>
	<path class="st0" d="M51.02,9.46v6.13h10.47v8.08H51.02v14.41h-9.54V1.38h21.08v8.08H51.02z"/>
	<path class="st0" d="M103.83,17.59c-0.1,5.35-0.49,9.93-3.75,14.51c-3.6,5.02-9.01,7.21-15.14,7.21
		c-11.54,0-19.57-7.84-19.57-19.38C65.37,8,73.45,0.17,85.28,0.17c7.55,0,13.39,3.41,16.55,10.27l-9.05,3.8
		c-1.31-3.51-4.09-5.84-7.94-5.84c-6.28,0-9.54,5.99-9.54,11.59c0,5.69,3.41,11.49,9.69,11.49c4.14,0,7.3-2.14,7.69-6.38h-7.79v-7.5
		H103.83z"/>
	<path class="st0" d="M131.8,15.55V1.38h9.54v36.7h-9.54V23.04h-13.78v15.04h-9.54V1.38h9.54v14.16H131.8z"/>
	<path class="st0" d="M157.12,31.71l-2.53,6.38h-10.13l14.12-36.7h10.42l13.82,36.7h-10.17l-2.39-6.38H157.12z M163.78,12.72h-0.1
		l-3.94,11.68h7.93L163.78,12.72z"/>
	<path class="st0" d="M185.94,1.38h9.54l17.48,22.44h0.1V1.38h9.54v36.7h-9.54L195.58,15.6h-0.1v22.49h-9.54V1.38z"/>
	<path class="st0" d="M266.71,1.38h11.83l-14.61,17.38l15.92,19.33h-12.36l-12.31-15.92h-0.1v15.92h-9.55V1.38h9.55v15.14h0.1
		L266.71,1.38z"/>
	<path class="st0" d="M313.69,1.38v20.64c0,4.72-0.19,9.39-3.84,12.95c-3.07,3.02-7.89,4.09-12.18,4.09c-4.28,0-9.1-1.07-12.17-4.09
		c-3.65-3.55-3.85-8.23-3.85-12.95V1.38h9.55v19.33c0,4.77,0.34,9.98,6.47,9.98c6.14,0,6.48-5.21,6.48-9.98V1.38H313.69z"/>
	<path class="st0" d="M339.61,10.83c-1.75-1.46-3.99-2.43-6.33-2.43c-1.75,0-4.09,1.02-4.09,3.07c0,2.14,2.58,2.97,4.23,3.5
		l2.43,0.73c5.12,1.51,9.06,4.09,9.06,10.03c0,3.65-0.88,7.4-3.8,9.88c-2.87,2.43-6.72,3.45-10.41,3.45c-4.63,0-9.16-1.55-12.9-4.18
		l4.09-7.69c2.38,2.09,5.21,3.8,8.47,3.8c2.24,0,4.63-1.12,4.63-3.7c0-2.68-3.75-3.6-5.79-4.19c-5.99-1.7-9.93-3.26-9.93-10.37
		c0-7.45,5.31-12.32,12.66-12.32c3.7,0,8.23,1.17,11.49,3.02L339.61,10.83z"/>
	<path class="st0" d="M372.94,15.55V1.38h9.54v36.7h-9.54V23.04h-13.78v15.04h-9.54V1.38h9.54v14.16H372.94z"/>
	<path class="st0" d="M400,33.37c0,3.12-2.52,5.69-5.69,5.69c-3.16,0-5.69-2.58-5.69-5.69c0-3.17,2.53-5.7,5.69-5.7
		C397.48,27.67,400,30.2,400,33.37z"/>
</g>
</svg>
