<?xml version="1.0" encoding="utf-8"?>
<!-- Generator: Adobe Illustrator 25.3.1, SVG Export Plug-In . SVG Version: 6.00 Build 0)  -->
<svg version="1.1" id="Layer_1" xmlns="http://www.w3.org/2000/svg" xmlns:xlink="http://www.w3.org/1999/xlink" x="0px" y="0px"
	 viewBox="0 0 400 182.15" style="enable-background:new 0 0 400 182.15;" xml:space="preserve">
<style type="text/css">
	.st0{fill:#FFFFFF;}
</style>
<g>
	<g>
		<path class="st0" d="M47.9,21.71c-0.12,6.67-0.61,12.37-4.67,18.07c-4.49,6.25-11.22,8.97-18.86,8.97C10,48.75,0,38.99,0,24.62
			C0,9.76,10.07,0,24.8,0c9.4,0,16.67,4.24,20.61,12.79l-11.28,4.73c-1.64-4.37-5.09-7.27-9.88-7.27c-7.82,0-11.88,7.46-11.88,14.43
			c0,7.09,4.24,14.31,12.06,14.31c5.15,0,9.1-2.67,9.58-7.94h-9.7v-9.34H47.9z"/>
		<path class="st0" d="M90.93,47.23H76.14L64.92,29.65H64.8v17.58H52.92V1.52h17.76c9.03,0,15.89,4.31,15.89,14.07
			c0,6.31-3.52,11.76-10,12.92L90.93,47.23z M64.8,22.01h1.15c3.88,0,8.25-0.73,8.25-5.7c0-4.97-4.37-5.7-8.25-5.7H64.8V22.01z"/>
		<path class="st0" d="M105.65,11.58v7.64h13.4v10.07h-13.4v7.88h14.13v10.07H93.76V1.52h26.01v10.07H105.65z"/>
		<path class="st0" d="M138.65,11.58v7.64h13.4v10.07h-13.4v7.88h14.13v10.07h-26.01V1.52h26.01v10.07H138.65z"/>
		<path class="st0" d="M159.77,1.52h11.88l21.77,27.95h0.12V1.52h11.88v45.72h-11.88l-21.77-28.01h-0.12v28.01h-11.88V1.52z"/>
		<path class="st0" d="M266.65,16.85c-2.43-3.27-6.37-5.03-10.43-5.03c-7.28,0-12.19,5.58-12.19,12.67
			c0,7.22,4.97,12.43,12.37,12.43c3.88,0,7.76-1.88,10.25-4.85v14.25c-3.94,1.21-6.79,2.12-10.49,2.12
			c-6.37,0-12.43-2.42-17.16-6.73c-5.03-4.55-7.34-10.49-7.34-17.28c0-6.24,2.37-12.25,6.73-16.73c4.49-4.61,10.97-7.4,17.4-7.4
			c3.82,0,7.34,0.85,10.85,2.3V16.85z"/>
		<path class="st0" d="M313.09,1.52v25.71c0,5.88-0.24,11.7-4.79,16.13c-3.82,3.76-9.82,5.09-15.16,5.09
			c-5.33,0-11.34-1.33-15.16-5.09c-4.55-4.43-4.79-10.25-4.79-16.13V1.52h11.88v24.07c0,5.94,0.43,12.43,8.06,12.43
			c7.64,0,8.07-6.49,8.07-12.43V1.52H313.09z"/>
		<path class="st0" d="M344.54,13.28c-2.18-1.82-4.97-3.03-7.88-3.03c-2.18,0-5.09,1.27-5.09,3.82c0,2.67,3.21,3.7,5.27,4.37
			l3.03,0.91c6.37,1.88,11.28,5.09,11.28,12.49c0,4.55-1.09,9.22-4.73,12.31c-3.58,3.03-8.37,4.3-12.97,4.3
			c-5.76,0-11.4-1.94-16.07-5.21l5.09-9.58c2.97,2.61,6.49,4.73,10.55,4.73c2.79,0,5.76-1.39,5.76-4.61c0-3.33-4.67-4.49-7.22-5.21
			c-7.46-2.12-12.37-4.06-12.37-12.92c0-9.28,6.61-15.34,15.77-15.34c4.61,0,10.25,1.46,14.31,3.76L344.54,13.28z"/>
		<path class="st0" d="M385.27,19.16V1.52h11.88v45.72h-11.88V28.5h-17.16v18.74h-11.88V1.52h11.88v17.64H385.27z"/>
		<path class="st0" d="M168.93,109.91v10.07h-36.74l18.68-20.31c2.67-2.91,5.21-7.03,5.21-11.22c0-2.91-2.06-5.94-5.21-5.94
			c-3.21,0-4.97,2.49-4.97,5.58c0,0.61,0.06,1.27,0.18,1.94h-13.1c0.36-10.49,7.03-17.58,17.83-17.58c9.58,0,17.64,6.31,17.64,16.25
			c0,6.55-2.73,10.37-7.4,14.61l-7.09,6.61H168.93z"/>
		<path class="st0" d="M175.83,84.33V74.26h18.43v45.72h-11.88V84.33H175.83z"/>
		<path class="st0" d="M227.53,84.75c0,7.4-5.52,11.28-12.49,11.28c-6.97,0-12.49-3.88-12.49-11.28c0-7.28,5.7-11.1,12.49-11.1
			C221.83,73.66,227.53,77.48,227.53,84.75z M209.89,84.87c0,2.85,2.3,5.09,5.15,5.09c2.85,0,5.15-2.24,5.15-5.09
			c0-2.85-2.3-5.15-5.15-5.15C212.19,79.72,209.89,82.02,209.89,84.87z M247.18,74.26l-26.56,45.72h-5.94l26.56-45.72H247.18z
			 M259.36,109.31c0,7.4-5.52,11.28-12.49,11.28c-6.97,0-12.49-3.88-12.49-11.28c0-7.28,5.7-11.1,12.49-11.1
			C253.66,98.21,259.36,102.03,259.36,109.31z M241.72,109.43c0,2.85,2.3,5.09,5.15,5.09s5.15-2.24,5.15-5.09
			c0-2.85-2.3-5.15-5.15-5.15S241.72,106.58,241.72,109.43z"/>
		<path class="st0" d="M303.37,119.98h-11.88V84.33h-9.82V74.26h31.53v10.07h-9.82V119.98z"/>
		<path class="st0" d="M345.56,91.91V74.26h11.88v45.72h-11.88v-18.74H328.4v18.74h-11.88V74.26h11.88v17.64H345.56z"/>
		<path class="st0" d="M397.58,89.6c-2.43-3.27-6.37-5.03-10.43-5.03c-7.28,0-12.19,5.58-12.19,12.67c0,7.22,4.97,12.43,12.37,12.43
			c3.88,0,7.76-1.88,10.25-4.85v14.25c-3.94,1.21-6.79,2.12-10.49,2.12c-6.37,0-12.43-2.42-17.16-6.73
			c-5.03-4.55-7.34-10.49-7.34-17.28c0-6.24,2.37-12.25,6.73-16.73c4.49-4.61,10.97-7.4,17.4-7.4c3.82,0,7.34,0.85,10.85,2.3V89.6z"
			/>
		<path class="st0" d="M291.23,175.36c0-2,1.15-3.35,2.66-3.35c1.31,0,2.3,1.18,2.3,2.48c0,0.83-0.32,1.65-0.99,2.18
			c0.83,1.13,2.78,2.05,5.48,2.05c2.9,0,5.2-1.66,5.2-4.4c0-2.27-1.67-3.66-4.44-5.36c-3.17-2-6.19-4.31-6.19-8.62
			c0-4.14,3.41-7.88,8.85-7.88c4.88,0,8.29,3.14,8.29,6.05c0,1.96-1.07,3.35-2.58,3.35c-1.31,0-2.3-1.13-2.3-2.53
			c0-0.65,0.24-1.39,0.87-2c-0.51-0.7-2.06-1.44-4.29-1.44c-3.14,0-5.08,1.87-5.08,4.09c0,2.48,1.9,3.92,4.76,5.7
			c3.06,1.87,5.91,4.22,5.91,8.27c0,4.62-3.61,8.19-9.21,8.19C295.24,182.15,291.23,178.75,291.23,175.36z"/>
		<path class="st0" d="M313.46,174.48c0-6.4,4.05-11.98,9.01-11.98c2.58,0,4.52,2.05,5.12,4.44l1.11-4.18h3.25l-3.02,13.37
			c-0.2,0.78-0.32,1.48-0.32,1.92c0,0.83,0.36,1.31,1.03,1.31c0.63,0,1.43-0.65,2.22-3.05l1.55,0.61c-1.03,3.74-2.82,5.01-4.72,5.01
			c-2.03,0-3.3-1.52-3.3-3.79v-0.22c-1.47,2.22-3.53,4.05-6.11,4.05C315.88,181.97,313.46,179.06,313.46,174.48z M326.79,170.48
			c0-2.79-1.27-4.62-3.89-4.62c-3.33,0-5.83,3.96-5.83,8.19c0,2.74,1.23,4.66,3.61,4.66C324.17,178.71,326.79,174.57,326.79,170.48z
			"/>
		<path class="st0" d="M342.63,166.08l-2.18,9.62c-0.16,0.65-0.24,1.26-0.24,1.66c0,1.04,0.56,1.61,1.35,1.61
			c0.91,0,1.75-0.43,3.41-1.65l1.23,1.83c-2.22,2.13-4.09,2.79-5.75,2.79c-2.1,0-3.77-1.31-3.77-3.96c0-0.65,0.12-1.39,0.28-2.27
			l2.18-9.62h-3.1l0.68-3.22h3.13l0.99-4.27l3.81-1.44l-1.31,5.71h5.24l-0.76,3.22H342.63z"/>
		<path class="st0" d="M350.96,178.14c0-0.57,0.12-1.39,0.28-2.05l2.38-10.01h-3.21l0.75-3.22h6.71l-3.17,13.28
			c-0.2,0.74-0.28,1.48-0.28,1.92c0,0.83,0.4,1.31,1.03,1.31c0.79,0,1.51-0.65,2.34-3.05l1.55,0.61c-1.03,3.74-2.7,5.01-4.8,5.01
			C352.23,181.93,350.96,180.41,350.96,178.14z M354.29,157.15c0-1.39,1.03-2.53,2.3-2.53c1.23,0,2.3,1.13,2.3,2.53
			c0,1.39-1.07,2.53-2.3,2.53C355.32,159.68,354.29,158.55,354.29,157.15z"/>
		<path class="st0" d="M363.72,166.08h-2.98l0.75-3.22h5.24l1.98,14.94c3.06-3.61,5.28-7.32,5.95-10.19
			c-0.87-0.35-1.67-1.18-1.67-2.48c0-1.44,1.03-2.61,2.38-2.61c1.51,0,2.62,1.26,2.62,3.35c0,3.96-3.73,10.23-9.29,16.28h-2.26
			L363.72,166.08z"/>
		<path class="st0" d="M380.04,174.48c0-6.4,4.05-11.98,9.01-11.98c2.58,0,4.52,2.05,5.12,4.44l1.11-4.18h3.25l-3.02,13.37
			c-0.2,0.78-0.32,1.48-0.32,1.92c0,0.83,0.36,1.31,1.03,1.31c0.63,0,1.43-0.65,2.22-3.05l1.55,0.61c-1.03,3.74-2.82,5.01-4.72,5.01
			c-2.03,0-3.3-1.52-3.3-3.79v-0.22c-1.47,2.22-3.53,4.05-6.11,4.05C382.46,181.97,380.04,179.06,380.04,174.48z M393.37,170.48
			c0-2.79-1.27-4.62-3.89-4.62c-3.33,0-5.83,3.96-5.83,8.19c0,2.74,1.23,4.66,3.61,4.66C390.75,178.71,393.37,174.57,393.37,170.48z
			"/>
	</g>
</g>
</svg>
