<?xml version="1.0" encoding="utf-8"?>
<!-- Generator: Adobe Illustrator 25.3.1, SVG Export Plug-In . SVG Version: 6.00 Build 0)  -->
<svg version="1.1" id="Layer_1" xmlns="http://www.w3.org/2000/svg" xmlns:xlink="http://www.w3.org/1999/xlink" x="0px" y="0px"
	 viewBox="0 0 400 121.27" style="enable-background:new 0 0 400 121.27;" xml:space="preserve">
<style type="text/css">
	.st0{fill:#FFFFFF;}
</style>
<g>
	<g>
		<path class="st0" d="M0,15.53V4.97h19.34v47.97H6.87V15.53H0z"/>
		<path class="st0" d="M75.59,28.96c0,12.47-6.04,25.9-20.36,25.9s-20.36-13.42-20.36-25.9s6.11-25.9,20.36-25.9
			S75.59,16.49,75.59,28.96z M47.27,28.9c0,4.64,1.53,14.95,7.95,14.95c6.43,0,7.95-10.31,7.95-14.95s-1.53-14.82-7.95-14.82
			C48.8,14.07,47.27,24.25,47.27,28.9z"/>
		<path class="st0" d="M144.05,55.94l-3.82-4.52c-3.69,2.23-8.02,3.12-13.17,3.12c-15.4,0-26.53-10.94-26.53-26.47
			c0-14.51,12.73-24.69,26.53-24.69c14.95,0,26.53,10.12,26.53,25.71c0,6.36-2.16,11.9-6.17,16.86l8.08,8.21L144.05,55.94z
			 M138.38,36.21c1.46-2.04,2.23-4.64,2.23-7.06c0-7.19-5.98-13.68-13.49-13.68c-7.44,0-13.62,6.04-13.62,12.66
			c0,8.27,6.17,14.32,13.62,14.32c1.27,0,2.54-0.19,3.82-0.64l-7.7-7.63l11.77-1.46L138.38,36.21z"/>
		<path class="st0" d="M170.51,20.31v17.43c0,4.14,1.02,7.06,5.79,7.06c4.77,0,5.79-2.93,5.79-7.06V20.31h11.58v19.66
			c0,10.75-7.57,14.06-17.37,14.06c-9.8,0-17.37-3.31-17.37-14.06V20.31H170.51z"/>
		<path class="st0" d="M213.33,7.77c0,3.56-2.93,6.49-6.49,6.49c-3.56,0-6.49-2.93-6.49-6.49c0-3.56,2.93-6.49,6.49-6.49
			C210.4,1.28,213.33,4.21,213.33,7.77z M212.63,52.95h-11.58V20.31h11.58V52.95z"/>
		<path class="st0" d="M243.81,30.93c-1.72-1.27-3.75-2.29-5.98-2.29c-4.45,0-7.95,3.44-7.95,7.95c0,4.71,3.37,8.02,8.14,8.02
			c2.04,0,4.26-0.83,5.79-2.23v9.8c-2.54,1.27-5.34,1.85-8.14,1.85c-9.67,0-17.75-7.19-17.75-17.05c0-10.5,8.02-17.75,18.26-17.75
			c2.67,0,5.34,0.64,7.63,1.91V30.93z"/>
		<path class="st0" d="M262.57,32.08l12.03-11.77h15.84l-16.35,15.08l17.37,17.56h-16.22l-12.66-13.3v13.3H251V0.14h11.58V32.08z"/>
		<path class="st0" d="M307.05,7.77c0,3.56-2.93,6.49-6.49,6.49c-3.56,0-6.49-2.93-6.49-6.49c0-3.56,2.93-6.49,6.49-6.49
			C304.12,1.28,307.05,4.21,307.05,7.77z M306.35,52.95h-11.58V20.31h11.58V52.95z"/>
		<path class="st0" d="M347.51,38.57h-24.37c0,4.71,2.48,7.25,7.25,7.25c2.48,0,4.26-0.83,5.53-2.99h11.14
			c-0.89,3.82-3.18,6.62-6.17,8.46s-6.68,2.74-10.44,2.74c-10.82,0-18.9-6.11-18.9-17.37c0-10.88,7.44-17.43,18.07-17.43
			c11.33,0,17.88,7,17.88,18.13V38.57z M336.76,31.89c-0.57-3.12-3.44-5.15-6.55-5.15c-3.37,0-6.17,1.78-6.87,5.15H336.76z"/>
		<path class="st0" d="M374.36,28.71c-1.78-0.96-4.26-1.59-6.23-1.59c-1.34,0-3.63,0.57-3.63,2.23c0,2.23,3.63,2.55,5.22,2.86
			c5.41,1.08,9.48,3.63,9.48,9.67c0,8.59-7.83,12.15-15.4,12.15c-4.64,0-9.23-1.34-13.17-3.75l4.2-8.08
			c2.35,1.65,6.3,3.31,9.16,3.31c1.46,0,3.63-0.7,3.63-2.48c0-2.55-3.63-2.67-7.25-3.63c-3.63-0.96-7.25-2.74-7.25-8.59
			c0-8.02,7.25-11.58,14.38-11.58c3.69,0,7.38,0.57,10.75,2.1L374.36,28.71z"/>
		<path class="st0" d="M400,46.77c0,4.07-3.31,7.44-7.44,7.44c-4.14,0-7.44-3.37-7.44-7.44c0-4.14,3.31-7.44,7.44-7.44
			C396.69,39.33,400,42.64,400,46.77z"/>
	</g>
</g>
<g>
	<path class="st0" d="M52.58,102.16c0-6.34,3.8-11.06,9.09-11.06s9.09,4.76,9.09,11.06c0,6.39-3.8,11.1-9.09,11.1
		S52.58,108.5,52.58,102.16z M67.37,102.16c0-4.59-2.32-8.01-5.7-8.01s-5.7,3.38-5.7,8.01c0,4.67,2.32,8.01,5.7,8.01
		S67.37,106.83,67.37,102.16z"/>
	<path class="st0" d="M74.11,110.3c0-1.63,1.18-2.96,2.66-2.96s2.66,1.34,2.66,2.96c0,1.63-1.18,2.96-2.66,2.96
		S74.11,111.92,74.11,110.3z"/>
	<path class="st0" d="M85.23,109.54c1.14,0,2.05,1.04,2.05,2.25c0,0.67-0.27,1.34-0.76,1.75c0.95,1.04,2.59,1.59,4.45,1.59
		c2.93,0,5.02-1.92,5.02-4.59c0-1.79-0.87-3.3-2.66-4.17c-1.07-0.5-2.47-0.79-4.15-0.79H88.2v-2.96h1.1c1.6,0,3.12-0.38,4.26-1.09
		c1.33-0.83,2.21-2.04,2.21-3.59c0-2.46-1.98-3.76-4.56-3.76c-1.9,0-3.12,0.54-3.8,1.34c0.49,0.38,0.84,1.08,0.84,1.71
		c0,1.29-0.99,2.25-2.13,2.25c-1.18,0-2.24-1.13-2.24-2.84c0-0.71,0.23-1.54,0.72-2.34c1.07-1.71,3.35-3.21,6.77-3.21
		c4.56,0,7.72,2.96,7.72,6.72c0,2.17-1.25,4.09-3.08,5.22c-0.72,0.46-1.56,0.79-2.43,0.92c0.8,0.17,1.6,0.5,2.28,0.92
		c1.98,1.13,3.46,3.09,3.46,5.8c0,4.55-3.61,7.51-8.37,7.51c-3.27,0-6.01-1.42-7.26-3.38c-0.46-0.75-0.72-1.59-0.72-2.46
		C82.95,110.8,83.94,109.54,85.23,109.54z"/>
	<path class="st0" d="M104.97,110.55c1.18,0,2.13,1,2.13,2.3c0,0.5-0.23,1.08-0.57,1.46c0.8,0.5,1.98,0.75,3.42,0.75
		c3.23,0,5.29-2.42,5.29-5.51c0-3-1.86-5.22-5.32-5.22c-1.71,0-3.5,0.46-4.91,1.21l-1.48-0.92l1.45-13.19h12.28v3.38h-9.77
		l-0.76,6.97c0.99-0.33,2.28-0.54,3.61-0.54c4.72,0,8.21,3.13,8.21,8.31c0,5.05-3.61,8.64-8.4,8.64c-2.89,0-5.06-0.88-6.27-2.13
		c-0.76-0.79-1.18-1.79-1.18-2.75C102.69,111.76,103.68,110.55,104.97,110.55z"/>
	<path class="st0" d="M137.34,113.3c0,2.21-0.53,4.01-1.52,5.3c-1.37,1.84-3.61,2.67-6.2,2.67c-2.7,0-4.87-0.92-5.93-2.09
		c-0.61-0.67-0.87-1.38-0.87-2.17c0-1.25,0.84-2.34,2.05-2.34c1.1,0,1.9,0.88,1.9,2.05c0,0.33-0.08,0.71-0.23,1
		c0.57,0.25,1.52,0.58,2.89,0.58c1.56,0,2.93-0.5,3.8-1.71c0.53-0.75,0.84-1.84,0.84-3.3v-3.13c-1.29,1.46-2.78,2.55-5.13,2.55
		c-4.22,0-7.64-3.63-7.64-8.93c0-4.97,3.31-9.18,7.91-9.18c2.17,0,3.8,0.92,5.02,2.13v-1.79h5.67v3.09h-2.55V113.3z M124.64,103.74
		c0,3.59,2.09,5.89,4.98,5.89c1.79,0,3.27-0.92,4.45-2.25v-7.89c-1.1-1-2.51-1.75-4.37-1.75
		C126.73,97.73,124.64,100.15,124.64,103.74z"/>
	<path class="st0" d="M150.54,118.1h2.55V98.03h-2.55v-3.09h5.67v2.34c1.37-1.54,2.89-2.67,5.25-2.67c4.3,0,7.64,3.76,7.64,9.22
		c0,5.17-3.31,9.43-7.95,9.43c-1.86,0-3.5-0.75-4.79-1.92v6.76h2.93v3h-8.75V118.1z M165.71,103.87c0-3.76-2.09-6.14-4.87-6.14
		c-1.86,0-3.27,0.96-4.49,2.3v8.39c1.14,1,2.59,1.71,4.41,1.71C163.54,110.13,165.71,107.67,165.71,103.87z"/>
	<path class="st0" d="M175.36,105.08c0.46,3.42,2.74,5.09,5.93,5.09c2.09,0,3.88-0.71,5.82-1.92l-0.27,3.3
		c-1.71,1.17-3.8,1.71-6.05,1.71c-5.29,0-8.86-3.76-8.86-9.27c0-5.05,3.16-9.39,8.14-9.39c5.06,0,7.72,3.97,7.72,8.56
		c0,0.67-0.08,1.38-0.15,1.92H175.36z M175.36,102.41h9.16c-0.15-2.88-1.75-4.84-4.53-4.84C177.79,97.57,175.78,99.15,175.36,102.41
		z"/>
	<path class="st0" d="M203.73,97.23c0,1.29-0.95,2.42-2.09,2.42c-1.1,0-1.86-0.75-2.17-1.54c-1.22,0.42-2.62,1.92-3.42,3.63v8.18h3
		v3.01h-8.78v-3.01h2.55V98.03h-2.55v-3.09h5.67v4.09c1.29-2.46,3.19-4.42,5.1-4.42C202.81,94.6,203.73,95.81,203.73,97.23z"/>
	<path class="st0" d="M229.09,114.72c-1.06-0.75-2.28-1.21-3.54-1.46c-2.81-0.5-5.17-1.75-7.11-3.76
		c-2.28-2.34-3.76-6.05-3.76-10.31c0-8.06,5.32-14.23,12.82-14.23c7.38,0,12.62,6.22,12.62,14.23c0,6.93-3.8,11.85-8.82,13.27
		c0.57,0.21,1.26,0.58,1.83,0.96c1.52,1.04,2.47,1.67,3.92,1.67c0.99,0,1.86-0.21,3.23-1.25l1.67,3.01
		c-1.56,1.59-3.23,1.84-4.68,1.84C233.81,118.69,231.19,116.18,229.09,114.72z M236.59,99.19c0-6.14-3.84-10.73-9.16-10.73
		c-5.36,0-9.2,4.55-9.2,10.73c0,3.21,1.1,6.05,2.89,8.01c1.6,1.71,3.76,2.71,6.31,2.71C232.75,109.92,236.59,105.37,236.59,99.19z"
		/>
	<path class="st0" d="M246.36,110.88c-0.5-1-0.76-2.21-0.76-3.67v-9.18h-2.55v-3.09h5.78v11.48c0,0.92,0.15,1.63,0.42,2.17
		c0.46,0.96,1.22,1.38,2.4,1.38c1.79,0,3.46-1.21,4.91-2.71v-9.22h-2.62v-3.09h5.89v14.98h2.55v3.01h-5.7v-3.13
		c-1.56,1.84-3.61,3.46-5.97,3.46C248.61,113.26,247.2,112.34,246.36,110.88z"/>
	<path class="st0" d="M264.91,109.92h2.66V98.03h-2.66v-3.09h5.93v14.98h2.62v3.01h-8.56V109.92z M266.46,88.51
		c0-1.42,1.1-2.59,2.4-2.59c1.26,0,2.36,1.17,2.36,2.59c0,1.46-1.14,2.63-2.4,2.63C267.53,91.14,266.46,89.97,266.46,88.51z"/>
	<path class="st0" d="M275.33,103.87c0-4.84,3.54-9.27,8.21-9.27c4.07,0,7.04,2.92,7.04,5.68c0,1.59-0.99,2.67-2.32,2.67
		c-1.06,0-2.05-0.92-2.05-2.25c0-0.59,0.27-1.17,0.69-1.5c-0.38-0.83-1.75-1.63-3.35-1.63c-2.21,0-4.9,2.04-4.9,6.39
		c0,3.71,2.47,6.22,5.86,6.22c1.9,0,3.61-0.63,5.63-1.92l-0.3,3.3c-1.67,1.17-3.61,1.71-5.63,1.71
		C279.1,113.26,275.33,109.42,275.33,103.87z"/>
	<path class="st0" d="M292.95,109.92h2.55V85.46h-2.55v-3.09h5.82v21.16l5.93-5.68h-2.78v-2.92h9.43v3.09h-2.97l-4.56,4.3l4.68,7.51
		h2.85v3.09h-4.79l-5.13-8.6l-2.66,2.5v3.13h2.4v2.96h-8.21V109.92z"/>
	<path class="st0" d="M313.79,109.92h2.66V98.03h-2.66v-3.09h5.93v14.98h2.62v3.01h-8.56V109.92z M315.35,88.51
		c0-1.42,1.1-2.59,2.4-2.59c1.26,0,2.36,1.17,2.36,2.59c0,1.46-1.14,2.63-2.4,2.63C316.42,91.14,315.35,89.97,315.35,88.51z"/>
	<path class="st0" d="M327.74,105.08c0.46,3.42,2.74,5.09,5.93,5.09c2.09,0,3.88-0.71,5.82-1.92l-0.27,3.3
		c-1.71,1.17-3.8,1.71-6.05,1.71c-5.29,0-8.86-3.76-8.86-9.27c0-5.05,3.16-9.39,8.14-9.39c5.06,0,7.72,3.97,7.72,8.56
		c0,0.67-0.08,1.38-0.15,1.92H327.74z M327.74,102.41h9.16c-0.15-2.88-1.75-4.84-4.53-4.84C330.17,97.57,328.16,99.15,327.74,102.41
		z"/>
</g>
</svg>
