<?xml version="1.0" encoding="utf-8"?>
<!-- Generator: Adobe Illustrator 25.3.1, SVG Export Plug-In . SVG Version: 6.00 Build 0)  -->
<svg version="1.1" id="Layer_1" xmlns="http://www.w3.org/2000/svg" xmlns:xlink="http://www.w3.org/1999/xlink" x="0px" y="0px"
	 viewBox="0 0 400 153.98" style="enable-background:new 0 0 400 153.98;" xml:space="preserve">
<style type="text/css">
	.st0{fill:#FFFFFF;}
</style>
<g>
	<g>
		<path class="st0" d="M13.34,33.24l-2.67,6.72H0L14.88,1.28h10.98l14.57,38.68H29.7l-2.51-6.72H13.34z M20.37,13.24h-0.1
			l-4.16,12.31h8.36L20.37,13.24z"/>
		<path class="st0" d="M53.1,9.8v6.46h11.03v8.52H53.1v15.19H43.05V1.28h22.21V9.8H53.1z"/>
		<path class="st0" d="M108.02,18.37c-0.1,5.64-0.51,10.47-3.95,15.29c-3.8,5.28-9.49,7.59-15.96,7.59
			c-12.16,0-20.62-8.26-20.62-20.42C67.49,8.26,76.01,0,88.48,0c7.95,0,14.11,3.59,17.44,10.82l-9.54,4
			c-1.38-3.69-4.31-6.16-8.36-6.16c-6.62,0-10.06,6.31-10.06,12.21c0,6,3.59,12.11,10.21,12.11c4.36,0,7.7-2.26,8.11-6.72h-8.21
			v-7.9H108.02z"/>
		<path class="st0" d="M136.85,16.21V1.28h10.06v38.68h-10.06V24.11h-14.52v15.85h-10.06V1.28h10.06v14.93H136.85z"/>
		<path class="st0" d="M162.86,33.24l-2.67,6.72h-10.67L164.4,1.28h10.98l14.57,38.68h-10.72l-2.51-6.72H162.86z M169.89,13.24h-0.1
			l-4.16,12.31h8.36L169.89,13.24z"/>
		<path class="st0" d="M192.57,1.28h10.06l18.42,23.65h0.1V1.28h10.05v38.68h-10.05l-18.42-23.7h-0.1v23.7h-10.06V1.28z"/>
		<path class="st0" d="M277.67,1.28h12.47L274.75,19.6l16.78,20.37h-13.03l-12.98-16.78h-0.1v16.78h-10.06V1.28h10.06v15.96h0.1
			L277.67,1.28z"/>
		<path class="st0" d="M326.46,1.28v21.75c0,4.98-0.2,9.9-4.05,13.65c-3.23,3.18-8.31,4.31-12.83,4.31c-4.51,0-9.59-1.13-12.83-4.31
			c-3.85-3.75-4.05-8.67-4.05-13.65V1.28h10.06v20.37c0,5.03,0.36,10.52,6.82,10.52c6.46,0,6.82-5.49,6.82-10.52V1.28H326.46z"/>
		<path class="st0" d="M353.07,11.23c-1.85-1.54-4.21-2.56-6.67-2.56c-1.85,0-4.31,1.08-4.31,3.23c0,2.26,2.72,3.13,4.46,3.69
			l2.57,0.77c5.39,1.59,9.54,4.31,9.54,10.57c0,3.85-0.92,7.8-4,10.42c-3.03,2.56-7.08,3.64-10.98,3.64c-4.87,0-9.65-1.64-13.6-4.41
			l4.31-8.11c2.51,2.21,5.49,4,8.93,4c2.36,0,4.87-1.18,4.87-3.9c0-2.82-3.95-3.8-6.11-4.41c-6.31-1.8-10.47-3.44-10.47-10.93
			c0-7.85,5.59-12.98,13.34-12.98c3.9,0,8.67,1.23,12.11,3.18L353.07,11.23z"/>
		<path class="st0" d="M387.53,16.21V1.28h10.06v38.68h-10.06V24.11h-14.52v15.85h-10.06V1.28h10.06v14.93H387.53z"/>
		<path class="st0" d="M204.48,93v8.52h-31.09l15.8-17.19c2.26-2.46,4.41-5.95,4.41-9.49c0-2.46-1.74-5.03-4.41-5.03
			c-2.72,0-4.21,2.1-4.21,4.72c0,0.51,0.05,1.08,0.15,1.64h-11.08c0.31-8.88,5.95-14.88,15.08-14.88c8.11,0,14.93,5.34,14.93,13.75
			c0,5.54-2.31,8.77-6.26,12.37l-6,5.59H204.48z"/>
		<path class="st0" d="M210.32,71.35v-8.52h15.6v38.68h-10.05V71.35H210.32z"/>
		<path class="st0" d="M254.07,71.71c0,6.26-4.67,9.54-10.57,9.54c-5.9,0-10.57-3.28-10.57-9.54c0-6.16,4.82-9.39,10.57-9.39
			C249.24,62.32,254.07,65.56,254.07,71.71z M239.14,71.81c0,2.41,1.95,4.31,4.36,4.31c2.41,0,4.36-1.9,4.36-4.31
			c0-2.41-1.95-4.36-4.36-4.36C241.09,67.45,239.14,69.4,239.14,71.81z M270.69,62.84l-22.47,38.68h-5.03l22.47-38.68H270.69z
			 M281,92.49c0,6.26-4.67,9.54-10.57,9.54c-5.9,0-10.57-3.28-10.57-9.54c0-6.16,4.82-9.39,10.57-9.39
			C276.18,83.1,281,86.33,281,92.49z M266.07,92.59c0,2.41,1.95,4.31,4.36,4.31c2.41,0,4.36-1.9,4.36-4.31
			c0-2.41-1.95-4.36-4.36-4.36C268.02,88.23,266.07,90.18,266.07,92.59z"/>
		<path class="st0" d="M318.23,101.52h-10.06V71.35h-8.31v-8.52h26.68v8.52h-8.31V101.52z"/>
		<path class="st0" d="M353.94,77.77V62.84h10.06v38.68h-10.06V85.67h-14.52v15.85h-10.06V62.84h10.06v14.93H353.94z"/>
		<path class="st0" d="M397.95,75.82c-2.05-2.77-5.39-4.26-8.82-4.26c-6.16,0-10.31,4.72-10.31,10.72c0,6.11,4.21,10.52,10.47,10.52
			c3.28,0,6.57-1.59,8.67-4.1v12.06c-3.34,1.03-5.75,1.8-8.88,1.8c-5.39,0-10.52-2.05-14.52-5.69c-4.26-3.85-6.21-8.87-6.21-14.62
			c0-5.28,2-10.36,5.69-14.16c3.8-3.9,9.29-6.26,14.72-6.26c3.23,0,6.21,0.72,9.18,1.95V75.82z"/>
		<path class="st0" d="M307.66,150.7h2.75l3.86-18.27h-2.99l0.64-2.98h8.8l-0.6,2.98h-2.79l-3.86,18.27h2.99l-0.64,2.98h-8.8
			L307.66,150.7z"/>
		<path class="st0" d="M329.3,150.77c0-0.52,0.1-1.22,0.24-1.81l1.24-4.79c0.17-0.63,0.23-1.1,0.23-1.62c0-1.4-0.87-2.32-2.18-2.32
			c-1.78,0-3.46,1.66-4.2,4.83l-1.95,8.62h-2.96l3.02-13.15h-2.69l0.64-2.73h5.17l-0.77,3.72c1.14-2.21,3.02-3.98,5-3.98
			c2.22,0,3.93,1.66,3.93,4.49c0,0.77-0.13,1.66-0.37,2.58l-1.24,4.68c-0.1,0.48-0.2,0.99-0.2,1.29c0,0.74,0.34,1.18,0.91,1.18
			s1.21-0.55,1.88-2.58l1.31,0.52c-0.77,2.87-2.15,4.24-3.93,4.24C330.41,153.94,329.3,152.61,329.3,150.77z"/>
		<path class="st0" d="M346.04,137.51c2.15,0,3.83,1.73,4.37,3.65l2.45-11.72h-2.69l0.6-2.73h5.58l-4.77,22.33
			c-0.13,0.7-0.23,1.25-0.23,1.62c0,0.7,0.27,1.1,0.84,1.1s1.21-0.55,1.91-2.58l1.31,0.52c-0.87,3.17-2.42,4.24-4,4.24
			c-1.75,0-2.82-1.29-2.82-3.24v-0.15c-1.21,1.92-2.96,3.43-5.14,3.43c-2.89,0-5-2.51-5-6.34
			C338.45,142.15,341.91,137.51,346.04,137.51z M349.8,144.29c0-2.39-1.18-3.94-3.36-3.94c-2.82,0-4.94,3.35-4.94,6.93
			c0,2.28,1.11,3.94,3.12,3.94C347.52,151.21,349.8,147.82,349.8,144.29z"/>
		<path class="st0" d="M358.1,150.74c0-0.48,0.1-1.18,0.24-1.73l2.02-8.47h-2.72l0.64-2.73h5.68l-2.69,11.24
			c-0.17,0.63-0.24,1.25-0.24,1.62c0,0.7,0.34,1.1,0.87,1.1c0.67,0,1.28-0.55,1.98-2.58l1.31,0.52c-0.87,3.17-2.28,4.24-4.06,4.24
			C359.17,153.94,358.1,152.65,358.1,150.74z M360.92,132.97c0-1.18,0.87-2.14,1.95-2.14c1.04,0,1.95,0.96,1.95,2.14
			c0,1.18-0.91,2.14-1.95,2.14C361.79,135.11,360.92,134.15,360.92,132.97z"/>
		<path class="st0" d="M367.34,146.94c0-5.05,3.83-9.43,8.43-9.43c3.19,0,5.31,2.14,5.31,4.46c0,1.36-0.77,2.51-1.98,2.51
			c-0.91,0-1.71-0.77-1.71-1.95c0-0.48,0.24-1.07,0.6-1.4c-0.47-0.59-1.24-0.88-2.28-0.88c-2.62,0-5.41,2.47-5.41,6.52
			c0,2.76,1.68,4.53,4.13,4.53c1.68,0,3.39-0.74,4.87-1.99l-0.07,2.95c-1.41,1.11-3.16,1.73-5.07,1.73
			C370.33,153.98,367.34,151.36,367.34,146.94z"/>
		<path class="st0" d="M383.11,147.64c0-5.42,3.42-10.13,7.62-10.13c2.18,0,3.83,1.73,4.33,3.76l0.94-3.54h2.75l-2.55,11.31
			c-0.17,0.66-0.27,1.25-0.27,1.62c0,0.7,0.3,1.1,0.87,1.1c0.54,0,1.21-0.55,1.88-2.58l1.31,0.52c-0.87,3.17-2.38,4.24-4,4.24
			c-1.71,0-2.79-1.29-2.79-3.2v-0.19c-1.24,1.88-2.99,3.43-5.17,3.43C385.16,153.98,383.11,151.51,383.11,147.64z M394.39,144.25
			c0-2.36-1.07-3.91-3.29-3.91c-2.82,0-4.94,3.35-4.94,6.93c0,2.32,1.04,3.94,3.06,3.94C392.18,151.21,394.39,147.71,394.39,144.25z
			"/>
	</g>
</g>
</svg>
