<?xml version="1.0" encoding="utf-8"?>
<!-- Generator: Adobe Illustrator 25.3.1, SVG Export Plug-In . SVG Version: 6.00 Build 0)  -->
<svg version="1.1" id="Layer_1" xmlns="http://www.w3.org/2000/svg" xmlns:xlink="http://www.w3.org/1999/xlink" x="0px" y="0px"
	 viewBox="0 0 400 77.16" style="enable-background:new 0 0 400 77.16;" xml:space="preserve">
<style type="text/css">
	.st0{fill:#FFFFFF;}
</style>
<g>
	<path class="st0" d="M18.81,58.83h22.55v15.93H0V2.4h18.81V58.83z"/>
	<path class="st0" d="M64.14,74.76H45.33V2.4h18.81V74.76z"/>
	<path class="st0" d="M74.87,2.4h18.81l34.45,44.24h0.19V2.4h18.81v72.36h-18.81L93.88,30.42h-0.19v44.34H74.87V2.4z"/>
	<path class="st0" d="M176.92,18.33v12.09h21.21v15.93h-21.21v12.48h22.36v15.93h-41.17V2.4h41.17v15.93H176.92z"/>
	<path class="st0" d="M227.77,62.19l-4.99,12.57h-19.96L230.65,2.4h20.54l27.25,72.36h-20.06l-4.7-12.57H227.77z M240.92,24.76
		h-0.19l-7.77,23.03h15.64L240.92,24.76z"/>
	<path class="st0" d="M351.82,34.36c-0.19,10.56-0.96,19.58-7.39,28.6c-7.1,9.88-17.75,14.2-29.85,14.2
		c-22.74,0-38.58-15.45-38.58-38.19C276.01,15.45,291.94,0,315.26,0c14.87,0,26.39,6.72,32.63,20.25l-17.85,7.48
		c-2.59-6.91-8.06-11.52-15.64-11.52c-12.38,0-18.81,11.8-18.81,22.84c0,11.23,6.72,22.65,19.1,22.65c8.16,0,14.39-4.22,15.16-12.57
		h-15.35V34.36H351.82z"/>
	<path class="st0" d="M377.64,18.33v12.09h21.21v15.93h-21.21v12.48H400v15.93h-41.17V2.4H400v15.93H377.64z"/>
</g>
</svg>
