<svg xmlns="http://www.w3.org/2000/svg" width="314.147" height="65.243" viewBox="0 0 314.147 65.243">
  <g id="Aghan_Title_Teal" transform="translate(-2079.113 -1796.381)">
    <path id="Path_195" data-name="Path 195" d="M-198.99,0V-7.614h-6.264V0h-5.184V-19.278h5.184v6.993h6.264v-6.993h5.184V0Zm8.451,0V-14.175h4.887V0Zm-.027-15.741v-3.537h4.941v3.537Zm17.145,13.473a4.986,4.986,0,0,1-4,1.7A5.145,5.145,0,0,1-181.6-2.349a7.631,7.631,0,0,1-1.485-5.022,8.106,8.106,0,0,1,1.593-5.292,5.32,5.32,0,0,1,4.347-1.944,4.51,4.51,0,0,1,3.861,1.782V-14.2h4.752V-1.755q0,3.7-1.782,5.495t-5.481,1.8q-6.264,0-6.723-5h4.779q.189,1.458,2,1.458a1.98,1.98,0,0,0,1.823-.8,5.838,5.838,0,0,0,.5-2.876Zm0-5.481a3.528,3.528,0,0,0-.567-2.187,2.141,2.141,0,0,0-1.782-.783,2.082,2.082,0,0,0-1.755.81,3.7,3.7,0,0,0-.621,2.3,3.7,3.7,0,0,0,.607,2.282,2.059,2.059,0,0,0,1.742.8,2.253,2.253,0,0,0,1.809-.837,3.156,3.156,0,0,0,.567-2.025ZM-156.816,0V-8.694a2.222,2.222,0,0,0-.378-1.444,1.51,1.51,0,0,0-1.215-.446,2.249,2.249,0,0,0-1.62.621,2.371,2.371,0,0,0-.648,1.755V0h-4.887V-19.278h4.887v6.615a5.12,5.12,0,0,1,4.158-1.944,4.327,4.327,0,0,1,3.415,1.323,5.556,5.556,0,0,1,1.174,3.807V0Zm18.225,0V-14.877h-5.562v-4.4h16.308v4.4h-5.562V0Zm24.6,0V-7.614h-6.264V0h-5.184V-19.278h5.184v6.993h6.264v-6.993h5.184V0Zm25.947-7.047a7.653,7.653,0,0,1-2.484,5.535,8.859,8.859,0,0,1-6.075,2,8.755,8.755,0,0,1-6.79-2.633q-2.417-2.632-2.417-7.385,0-4.806,2.471-7.52a8.823,8.823,0,0,1,6.871-2.714,8.317,8.317,0,0,1,5.508,1.715,8.1,8.1,0,0,1,2.619,5.089l-5.157.594a4.162,4.162,0,0,0-1.066-2.254,2.922,2.922,0,0,0-2.065-.689q-3.7,0-3.7,5.643,0,5.7,3.753,5.7a3.051,3.051,0,0,0,2.214-.783,3.842,3.842,0,0,0,1.026-2.3ZM-79.785,0V-19.278H-74.6V0Zm17.2,0V-8.694a2.222,2.222,0,0,0-.378-1.444,1.51,1.51,0,0,0-1.215-.446,2.249,2.249,0,0,0-1.62.621,2.371,2.371,0,0,0-.648,1.755V0h-4.887V-14.175h4.752V-12.5a5.1,5.1,0,0,1,4.293-2.106,4.327,4.327,0,0,1,3.416,1.323A5.556,5.556,0,0,1-57.7-9.477V0Zm17.118,0V-1.593A4.833,4.833,0,0,1-49.6.432a4.988,4.988,0,0,1-4.185-1.917,8.642,8.642,0,0,1-1.485-5.4,10.777,10.777,0,0,1,.729-4.171A5.783,5.783,0,0,1-52.474-13.7a5.477,5.477,0,0,1,3.146-.9A4.524,4.524,0,0,1-45.6-12.933v-6.345h4.887V0ZM-45.6-7.263a4.733,4.733,0,0,0-.567-2.646,2,2,0,0,0-1.755-.81q-2.4,0-2.4,3.618,0,3.591,2.376,3.591A2,2,0,0,0-46.17-4.4,4.308,4.308,0,0,0-45.6-6.858ZM-37.746,0V-14.175h4.887V0Zm-.027-15.741v-3.537h4.941v3.537ZM-16.551-5.454A6.4,6.4,0,0,1-18.522-1.08,6.782,6.782,0,0,1-23.193.432,6.93,6.93,0,0,1-28.444-1.5a7.588,7.588,0,0,1-1.85-5.468A7.832,7.832,0,0,1-28.377-12.6a7,7,0,0,1,5.319-2.012,6.64,6.64,0,0,1,4.4,1.377,5.739,5.739,0,0,1,1.944,3.915l-4.671.459A2.807,2.807,0,0,0-22-10.3a1.578,1.578,0,0,0-1.188-.446q-2.16,0-2.16,3.672,0,3.645,2.16,3.645a1.755,1.755,0,0,0,1.337-.526,2.4,2.4,0,0,0,.58-1.5ZM-5.913,0V-1.539A6.275,6.275,0,0,1-7.884-.081a5.628,5.628,0,0,1-2.322.459A5.053,5.053,0,0,1-13.7-.77a3.973,3.973,0,0,1-1.282-3.119A3.911,3.911,0,0,1-13.311-7.3,9.829,9.829,0,0,1-8.181-8.64l2.133-.108v-.567a1.623,1.623,0,0,0-1.809-1.863q-1.674,0-1.917,1.4l-4.4-.351q.729-4.482,6.534-4.482a6.789,6.789,0,0,1,4.752,1.431A5.7,5.7,0,0,1-1.35-8.8V0Zm-.162-5.994-1.566.081a4.472,4.472,0,0,0-2.012.472,1.29,1.29,0,0,0-.634,1.174q0,1.3,1.593,1.3a2.619,2.619,0,0,0,1.917-.689,2.473,2.473,0,0,0,.7-1.849Z" transform="translate(2343.276 1856.09)" fill="#00bebd"/>
    <path id="Path_194" data-name="Path 194" d="M-136.36,0l-1.7-5.687h-10L-149.726,0h-8.011l10.294-29.638h9.049L-128.1,0Zm-6.683-22.249-3.072,10.211h6.1Zm26.151,11.457V0h-7.845V-29.638h20.3V-23h-12.453v5.562h11.747v6.642Zm35.366.291h-4.732v-6.434h12.079V-3.445A18.3,18.3,0,0,1-80.01-.332,21.959,21.959,0,0,1-86.88.747q-6.974,0-10.751-4.006t-3.777-11.394a19.182,19.182,0,0,1,1.743-8.53,12.126,12.126,0,0,1,4.981-5.376A15.381,15.381,0,0,1-87-30.385a13.442,13.442,0,0,1,8.489,2.532,10.811,10.811,0,0,1,4.006,7.1l-7.97.789a4.958,4.958,0,0,0-1.557-2.8,4.715,4.715,0,0,0-3.051-.892,5.158,5.158,0,0,0-4.566,2.179q-1.494,2.179-1.494,6.621,0,4.649,1.66,6.766t5.313,2.117a9.767,9.767,0,0,0,4.649-1.079ZM-51.763,0V-11.706h-9.63V0h-7.97V-29.638h7.97v10.751h9.63V-29.638h7.97V0Zm32.71,0-1.7-5.687h-10L-32.419,0h-8.011l10.294-29.638h9.049L-10.793,0Zm-6.683-22.249-3.072,10.211h6.1ZM10.793,0,.125-16.978V0H-7.43V-29.638H-.457L10.211-12.661V-29.638h7.555V0ZM50.185,0l-7.1-12.827L40.14-9.547V0H32.17V-29.638h7.97v10.751l9.008-10.751h8.676L48.4-18.43,58.9,0ZM78-29.638h7.97v17.351Q85.967.747,73.348.747q-12.453,0-12.453-13.034V-29.638h7.97V-12a7.42,7.42,0,0,0,1.079,4.483A4.112,4.112,0,0,0,73.431-6.1a4.112,4.112,0,0,0,3.487-1.411A7.42,7.42,0,0,0,78-12Zm21.71,17.6q-5.064-.955-7.368-3.113a7.739,7.739,0,0,1-2.3-5.936,8.216,8.216,0,0,1,3.092-6.891q3.092-2.408,8.821-2.408,5.562,0,8.759,2.325a9.033,9.033,0,0,1,3.653,6.725l-7.721.789a4.435,4.435,0,0,0-1.515-2.7,5.281,5.281,0,0,0-3.217-.83,5.612,5.612,0,0,0-2.947.643,2.086,2.086,0,0,0-1.038,1.889,2.008,2.008,0,0,0,.789,1.66,5.966,5.966,0,0,0,2.532.955l4.026.789q4.94.955,7.285,3.176a7.868,7.868,0,0,1,2.345,6,8.573,8.573,0,0,1-3.238,7.2Q108.424.747,102.4.747q-6.06,0-9.34-2.636T89.454-9.755h7.928a4.342,4.342,0,0,0,1.557,3.113,6.1,6.1,0,0,0,3.757,1,5.658,5.658,0,0,0,3.155-.726,2.412,2.412,0,0,0,1.079-2.138,2.235,2.235,0,0,0-.809-1.826,5.352,5.352,0,0,0-2.47-.955ZM136.484,0V-11.706h-9.63V0h-7.97V-29.638h7.97v10.751h9.63V-29.638h7.97V0Zm12.7,0V-7.928h7.223V0Z" transform="translate(2236.85 1826.767)" fill="#00bebd"/>
  </g>
</svg>
