<svg xmlns="http://www.w3.org/2000/svg" width="100.945" height="136.848" viewBox="0 0 100.945 136.848"><g id="Group_297" data-name="Group 297" transform="translate(-783.71 -305.024)"><path id="Path_136" data-name="Path 136" d="M883.572,372.915a14.254,14.254,0,0,0-4.807-3,54.16,54.16,0,0,0-9.646-2.906c-.6-.133-.539-.313-.214-.69,1.286-1.489,2.555-2.991,3.739-4.565,3.914-5.2,7.279-10.692,8.973-17.058a15.1,15.1,0,0,0,.348-7.585,6.816,6.816,0,0,0-3.728-4.8,12.279,12.279,0,0,0-7.905-.592,33.439,33.439,0,0,0-8.494,3.028,67.349,67.349,0,0,0-11.682,7.607c-.142.112-.262.356-.49.223-.188-.109-.178-.342-.179-.538-.01-1.774-.153-3.539-.292-5.3-.186-2.376-.494-4.738-.869-7.088-.312-1.961-.722-3.906-1.191-5.838a49.969,49.969,0,0,0-3.3-9.729c-1.417-2.984-3.05-5.826-5.848-7.762a6.132,6.132,0,0,0-6.506-.63,12.826,12.826,0,0,0-5.136,5.024,36.34,36.34,0,0,0-3.791,8.4,69.183,69.183,0,0,0-2.277,9.28c-.356,2-.657,4.007-.88,6.025-.283,2.564-.5,5.135-.55,7.716,0,.172.03.385-.152.473s-.31-.1-.444-.2c-.987-.76-1.955-1.548-2.966-2.275a57.451,57.451,0,0,0-10.965-6.392,26.488,26.488,0,0,0-10.117-2.39,7.719,7.719,0,0,0-2.35.337,7.287,7.287,0,0,0-3.293,1.682c-2.089,1.97-2.616,4.5-2.485,7.2a25.6,25.6,0,0,0,2.217,8.718,57.449,57.449,0,0,0,7.072,12.005c1.3,1.734,2.646,3.426,4.107,5.026.312.342.364.576-.209.695-.876.182-1.74.426-2.61.64a36.446,36.446,0,0,0-9.556,3.524,9.711,9.711,0,0,0-2.387,1.823,3,3,0,0,0-.3,4.162,5.765,5.765,0,0,0,1.381,1.389c3.3,2.377,7.141,3.421,10.988,4.437,2.176.575,4.392.978,6.609,1.375,1.849.332,3.705.623,5.567.86,2.188.279,4.38.52,6.574.743.593.06.552.237.309.678a39.421,39.421,0,0,0-2.9,6.307,12.573,12.573,0,0,0-.772,4.231c.028,1.975.881,3.163,2.5,3.538a7.248,7.248,0,0,0,3.191-.034,30.972,30.972,0,0,0,8.285-3.368,85.407,85.407,0,0,0,7.863-4.982.835.835,0,0,1,1.117.016c.744.536,1.518,1.03,2.285,1.532a50.232,50.232,0,0,0,11.621,5.979,10.743,10.743,0,0,0,4.895.64,3.2,3.2,0,0,0,2.78-2.934,13.236,13.236,0,0,0-1.213-6.1,43.182,43.182,0,0,0-2.41-4.952c-.245-.451-.121-.581.329-.616.718-.054,1.44-.1,2.153-.192,3.355-.453,6.715-.854,10.049-1.462a67.506,67.506,0,0,0,12.335-3.246,14.813,14.813,0,0,0,5.631-3.374A3.1,3.1,0,0,0,883.572,372.915Z" fill="#fff"></path><g id="Group_283" data-name="Group 283"><path id="Path_143" data-name="Path 143" d="M826.529,372.678a1.258,1.258,0,0,0,2.179,1.257h0a6.367,6.367,0,0,1,11.019,0,1.257,1.257,0,0,0,2.175-1.257,8.881,8.881,0,0,0-15.373,0Z" fill="#00bcbc"></path><path id="Path_144" data-name="Path 144" d="M830.005,357.914a2.581,2.581,0,1,0-2.587,2.575h.006A2.581,2.581,0,0,0,830.005,357.914Z" fill="#00bcbc"></path><path id="Path_145" data-name="Path 145" d="M843.522,357.914a2.58,2.58,0,1,0-2.586,2.575h.005a2.575,2.575,0,0,0,2.581-2.57Z" fill="#00bcbc"></path></g><text id="Bad" transform="translate(834.183 436.872)" fill="#fff" font-size="19.821" font-family="Futura-Medium, Futura" font-weight="500"><tspan x="-18.142" y="0">Bad</tspan></text></g></svg>