<svg xmlns="http://www.w3.org/2000/svg" width="100.945" height="136.848" viewBox="0 0 100.945 136.848"><g id="Group_306" data-name="Group 306" transform="translate(-361.418 -305.024)"><path id="Path_150" data-name="Path 150" d="M461.28,372.915a14.263,14.263,0,0,0-4.807-3,54.193,54.193,0,0,0-9.647-2.906c-.6-.133-.538-.313-.213-.69,1.286-1.489,2.555-2.991,3.739-4.565,3.914-5.2,7.279-10.692,8.972-17.058a15.079,15.079,0,0,0,.348-7.585,6.812,6.812,0,0,0-3.727-4.8,12.279,12.279,0,0,0-7.9-.592,33.426,33.426,0,0,0-8.494,3.028,67.274,67.274,0,0,0-11.682,7.607c-.143.112-.263.356-.491.223-.187-.109-.177-.342-.178-.538-.01-1.774-.154-3.539-.292-5.3-.186-2.376-.494-4.738-.869-7.088-.313-1.961-.722-3.906-1.191-5.838a49.967,49.967,0,0,0-3.3-9.729c-1.418-2.984-3.05-5.826-5.848-7.762a6.133,6.133,0,0,0-6.507-.63,12.826,12.826,0,0,0-5.136,5.024,36.38,36.38,0,0,0-3.79,8.4,69.183,69.183,0,0,0-2.277,9.28c-.357,2-.657,4.007-.88,6.025-.283,2.564-.5,5.135-.55,7.716,0,.172.03.385-.153.473s-.31-.1-.443-.2c-.988-.76-1.955-1.548-2.966-2.275a57.458,57.458,0,0,0-10.966-6.392,26.488,26.488,0,0,0-10.117-2.39,7.713,7.713,0,0,0-2.349.337,7.277,7.277,0,0,0-3.293,1.682c-2.089,1.97-2.616,4.5-2.486,7.2A25.621,25.621,0,0,0,366,349.277a57.364,57.364,0,0,0,7.072,12.005c1.3,1.734,2.646,3.426,4.106,5.026.312.342.365.576-.208.695-.877.182-1.74.426-2.61.64a36.454,36.454,0,0,0-9.557,3.524,9.706,9.706,0,0,0-2.386,1.823,3,3,0,0,0-.3,4.162,5.765,5.765,0,0,0,1.381,1.389c3.3,2.377,7.141,3.421,10.987,4.437,2.177.575,4.393.978,6.609,1.375,1.85.332,3.7.623,5.568.86,2.187.279,4.38.52,6.574.743.593.06.551.237.309.678a39.418,39.418,0,0,0-2.895,6.307,12.575,12.575,0,0,0-.773,4.231c.029,1.975.882,3.163,2.5,3.538a7.252,7.252,0,0,0,3.192-.034,31,31,0,0,0,8.285-3.368,85.534,85.534,0,0,0,7.863-4.982.835.835,0,0,1,1.117.016c.744.536,1.517,1.03,2.285,1.532a50.232,50.232,0,0,0,11.621,5.979,10.739,10.739,0,0,0,4.894.64,3.2,3.2,0,0,0,2.78-2.934,13.235,13.235,0,0,0-1.212-6.1,43.189,43.189,0,0,0-2.411-4.952c-.244-.451-.121-.581.329-.616.719-.054,1.44-.1,2.154-.192,3.354-.453,6.715-.854,10.049-1.462a67.476,67.476,0,0,0,12.334-3.246,14.817,14.817,0,0,0,5.632-3.374A3.1,3.1,0,0,0,461.28,372.915Z" fill="#fff"></path><g id="Group_291" data-name="Group 291"><path id="Path_157" data-name="Path 157" d="M404.236,372.678a1.258,1.258,0,0,0,2.18,1.257h0a6.366,6.366,0,0,1,11.018,0,1.258,1.258,0,0,0,2.176-1.257,8.882,8.882,0,0,0-15.374,0Z" fill="#c1dc89"></path><path id="Path_158" data-name="Path 158" d="M407.712,357.914a2.581,2.581,0,1,0-2.586,2.575h.006A2.58,2.58,0,0,0,407.712,357.914Z" fill="#c1dc89"></path><path id="Path_159" data-name="Path 159" d="M421.23,357.914a2.581,2.581,0,1,0-2.587,2.575h.006a2.575,2.575,0,0,0,2.581-2.57Z" fill="#c1dc89"></path></g><text id="Bad" transform="translate(411.881 436.872)" fill="#fff" font-size="19.821" font-family="Futura-Medium, Futura" font-weight="500"><tspan x="-18.142" y="0">Bad</tspan></text></g></svg>