<svg xmlns="http://www.w3.org/2000/svg" width="334.231" height="94.726" viewBox="0 0 334.231 94.726">
  <g id="Chemdawg_Flavor_Profiles" transform="translate(-5723.183 -4864.529)">
    <g id="Group_18" data-name="Group 18">
      <path id="Path_189" data-name="Path 189" d="M9.339-3.063a8.527,8.527,0,0,0,3.2-.535,5.434,5.434,0,0,0,2.171-1.547,6.315,6.315,0,0,0,1.234-2.409,11.833,11.833,0,0,0,.387-3.153,8.955,8.955,0,0,0-1.487-5.487q-1.487-1.978-4.878-1.978h-4.1V-3.063Zm.595-18.172a13.031,13.031,0,0,1,4.223.639,8.146,8.146,0,0,1,3.182,1.948,8.632,8.632,0,0,1,2.008,3.286,13.878,13.878,0,0,1,.7,4.625A13.368,13.368,0,0,1,19.3-6.082a8.9,8.9,0,0,1-2.141,3.361A8.98,8.98,0,0,1,13.755-.684,14.018,14.018,0,0,1,9.22,0H2.26V-21.235Zm17.072,0v3.361H23.5v-3.361Zm-.059,5.77V0H23.555V-15.466ZM44.582-4.58A5.889,5.889,0,0,1,42.53-.848a7.309,7.309,0,0,1-4.7,1.323,7.164,7.164,0,0,1-5.606-2.127,8.636,8.636,0,0,1-1.918-5.993,10.528,10.528,0,0,1,.55-3.539,7.3,7.3,0,0,1,1.547-2.6,6.564,6.564,0,0,1,2.379-1.606,8.177,8.177,0,0,1,3.048-.55,7.946,7.946,0,0,1,3.093.55A5.786,5.786,0,0,1,43.1-13.845a6.4,6.4,0,0,1,1.279,2.379,10.655,10.655,0,0,1,.416,3.078V-6.9H33.7a5.713,5.713,0,0,0,1.071,3.42,3.629,3.629,0,0,0,3.063,1.309A3.886,3.886,0,0,0,40.24-2.8,3.035,3.035,0,0,0,41.311-4.58ZM41.489-9.25a4.636,4.636,0,0,0-.892-3,3.463,3.463,0,0,0-2.855-1.1,3.6,3.6,0,0,0-2.855,1.115,4.987,4.987,0,0,0-1.13,2.989Zm8.922,4.521a2.841,2.841,0,0,0,.416,1.264,2.584,2.584,0,0,0,.818.788,3.137,3.137,0,0,0,1.145.4,8.9,8.9,0,0,0,1.4.1,4.472,4.472,0,0,0,2.439-.506,1.683,1.683,0,0,0,.744-1.487,1.936,1.936,0,0,0-.461-1.309,3.213,3.213,0,0,0-1.889-.773q-1.844-.327-3.242-.625a8.664,8.664,0,0,1-2.35-.818A3.593,3.593,0,0,1,48-9.027a4.4,4.4,0,0,1-.476-2.216A4.019,4.019,0,0,1,48-13.19a4.4,4.4,0,0,1,1.323-1.487,6.346,6.346,0,0,1,2.022-.937,9.567,9.567,0,0,1,2.573-.327,10.517,10.517,0,0,1,2.974.357,5.368,5.368,0,0,1,1.933.981,4.291,4.291,0,0,1,1.13,1.428,8.179,8.179,0,0,1,.595,1.7l-3.034.416a3.351,3.351,0,0,0-1.086-1.725,4.018,4.018,0,0,0-2.424-.565,5.986,5.986,0,0,0-1.606.178,3.223,3.223,0,0,0-1,.446,1.407,1.407,0,0,0-.506.595,1.717,1.717,0,0,0-.134.654,2.47,2.47,0,0,0,.119.833,1.077,1.077,0,0,0,.431.535,2.98,2.98,0,0,0,.848.357q.535.149,1.338.3l1.933.327a12.708,12.708,0,0,1,2.573.684A4.87,4.87,0,0,1,59.646-7.42a3.3,3.3,0,0,1,.848,1.413,6.269,6.269,0,0,1,.238,1.784A4.16,4.16,0,0,1,59.126-.818,7.685,7.685,0,0,1,54.248.476,12.794,12.794,0,0,1,51.676.223,6.914,6.914,0,0,1,49.46-.625a4.7,4.7,0,0,1-1.591-1.591,5.364,5.364,0,0,1-.7-2.513ZM77.3-4.58A5.889,5.889,0,0,1,75.246-.848a7.309,7.309,0,0,1-4.7,1.323A7.164,7.164,0,0,1,64.94-1.651a8.636,8.636,0,0,1-1.918-5.993,10.528,10.528,0,0,1,.55-3.539,7.3,7.3,0,0,1,1.547-2.6A6.564,6.564,0,0,1,67.5-15.391a8.177,8.177,0,0,1,3.048-.55,7.946,7.946,0,0,1,3.093.55,5.786,5.786,0,0,1,2.171,1.547,6.4,6.4,0,0,1,1.279,2.379,10.655,10.655,0,0,1,.416,3.078V-6.9H66.413a5.713,5.713,0,0,0,1.071,3.42,3.629,3.629,0,0,0,3.063,1.309A3.886,3.886,0,0,0,72.956-2.8,3.035,3.035,0,0,0,74.026-4.58ZM74.2-9.25a4.636,4.636,0,0,0-.892-3,3.463,3.463,0,0,0-2.855-1.1A3.6,3.6,0,0,0,67.6-12.239a4.987,4.987,0,0,0-1.13,2.989ZM84.228-21.235V0H80.837V-21.235Z" transform="translate(5720.923 4952.648)" fill="#ea514b"/>
      <path id="Path_188" data-name="Path 188" d="M2.26-21.235H16.388v3.093H5.859v5.651h9.934v3.123H5.859v6.275H16.953L16.536,0H2.26ZM26.886-7.227a13.531,13.531,0,0,0-2.454.327,4.2,4.2,0,0,0-1.442.61,1.775,1.775,0,0,0-.669.863,3.318,3.318,0,0,0-.164,1.056A1.994,1.994,0,0,0,22.8-2.8a2.774,2.774,0,0,0,1.889.565,4.351,4.351,0,0,0,3.3-1.13,4.272,4.272,0,0,0,1.071-3.063v-.892Zm2.231,5.2A7.2,7.2,0,0,1,27.005-.3a6.236,6.236,0,0,1-3.034.684A7.18,7.18,0,0,1,21.919.1a4.736,4.736,0,0,1-1.651-.848,3.916,3.916,0,0,1-1.1-1.442,4.929,4.929,0,0,1-.4-2.067,4.369,4.369,0,0,1,.714-2.6,4.925,4.925,0,0,1,1.859-1.561A8.876,8.876,0,0,1,23.912-9.2a25.305,25.305,0,0,1,2.855-.283l2.29-.119v-.654a2.937,2.937,0,0,0-.848-2.424,3.471,3.471,0,0,0-2.216-.669,4.082,4.082,0,0,0-2.335.535,2.519,2.519,0,0,0-1,1.547L19.57-11.6a4.7,4.7,0,0,1,2.052-3.3,8.318,8.318,0,0,1,4.491-1.041,8.372,8.372,0,0,1,3.048.476,4.781,4.781,0,0,1,1.918,1.309,4.729,4.729,0,0,1,1,1.978,10.485,10.485,0,0,1,.283,2.513V0H29.117ZM39.348-15.466v2.29a5.8,5.8,0,0,1,1.933-1.874A4.731,4.731,0,0,1,43.69-15.7q.506,0,.848.03t.669.089l-.387,3.093a3.829,3.829,0,0,0-.714-.119q-.387-.03-.8-.03a4.126,4.126,0,0,0-1.666.312,3.749,3.749,0,0,0-1.2.818,3.455,3.455,0,0,0-.744,1.145,3.493,3.493,0,0,0-.253,1.294V0H36.076V-15.466Zm8.209,2.677v-2.677H50v-4.164h3.361v4.164h3.837v2.677H53.356V-4.7a2.508,2.508,0,0,0,.491,1.725,1.86,1.86,0,0,0,1.442.535,7.554,7.554,0,0,0,.967-.059,4.808,4.808,0,0,0,.907-.208l.506,2.528A9.725,9.725,0,0,1,54.575.3q-2.558,0-3.569-1.323A6.491,6.491,0,0,1,50-5v-7.792ZM63.23-21.235v7.911A6.288,6.288,0,0,1,65.505-15.3a6.127,6.127,0,0,1,2.751-.639q5.175,0,5.175,5.71V0H70.041V-9.7a3.938,3.938,0,0,0-.684-2.632,2.585,2.585,0,0,0-2.022-.758,4.2,4.2,0,0,0-1.68.327,4.106,4.106,0,0,0-1.294.863,3.875,3.875,0,0,0-.833,1.234,3.649,3.649,0,0,0-.3,1.442V0H59.869V-21.235ZM76.644,2.736a4.987,4.987,0,0,0,1.7.268,2.087,2.087,0,0,0,1.4-.431A4,4,0,0,0,80.688.952l.565-1.487L74.74-15.466h3.926L82.919-4.313l3.9-11.153H90.5L84.347.149q-.535,1.368-1.011,2.409a7.781,7.781,0,0,1-1.071,1.755A3.949,3.949,0,0,1,80.852,5.4a4.84,4.84,0,0,1-2.008.372,9.109,9.109,0,0,1-1.428-.1,9.515,9.515,0,0,1-1.4-.342Z" transform="translate(5851.746 4953.484)" fill="#ea514b"/>
      <g id="Group_17" data-name="Group 17">
        <path id="Path_18" data-name="Path 18" d="M6048.608,4869a12.466,12.466,0,0,1-2.406,4.8c-.923,1.1-1.9,2.174-2.9,3.206a1.009,1.009,0,0,0-.2,1.3c.408.881.8,1.771,1.132,2.676a3.676,3.676,0,0,1-.156,2.746c-.2.5-.45.976-.7,1.454a2.361,2.361,0,0,1-.412.427,3.4,3.4,0,0,1-.393-.436c-.682-1.023-1.293-2.1-2.032-3.078a11.4,11.4,0,0,0-6.875-4.111,2.228,2.228,0,0,1-.351-.094c-.417-.157-.45-.308-.142-.625a4.413,4.413,0,0,1,3.012-1.364c1.236-.071,2.467-.062,3.7-.133a1.25,1.25,0,0,0,.862-.35,14.935,14.935,0,0,0,3.234-6.28,17.733,17.733,0,0,1,.5-2.173,1.459,1.459,0,0,1,1.685-1.089,2.542,2.542,0,0,1,2.449,1.974Z" fill="#ea514b"/>
        <path id="Path_19" data-name="Path 19" d="M6027.154,4878.863a18.649,18.649,0,0,1,8.112,1.724,12.992,12.992,0,0,1,6.881,12.975,8.9,8.9,0,0,1-3.467,5.92,95.234,95.234,0,0,1-11.256,7.25c-6.061,3.48-12.232,6.743-18.6,9.627a15.211,15.211,0,0,1-7.274,1.511,11.192,11.192,0,0,1-5.408-1.705,1.674,1.674,0,0,1-.54-2.728,32.837,32.837,0,0,1,2.364-2.708c3.172-3.4,6.454-6.692,9.508-10.2a67.13,67.13,0,0,0,10.2-15.324,19.31,19.31,0,0,0,.8-1.975,5.7,5.7,0,0,1,3.32-3.338,13.946,13.946,0,0,1,5.36-1.033m-21.7,29.64.071.085c.341-.218.682-.44,1.027-.649a67.684,67.684,0,0,0,12.971-10.034,33.343,33.343,0,0,0,5.521-6.649,8.207,8.207,0,0,0,1.232-6.27,1.97,1.97,0,0,0-2.534-1.515,3.231,3.231,0,0,0-2.079,2.032c-.724,1.558-1.378,3.163-2.23,4.645a87.687,87.687,0,0,1-13.094,17.431c-.3.3-.592.621-.885.924" fill="#ea514b"/>
      </g>
      <path id="Path_187" data-name="Path 187" d="M4.61-6.484a4.185,4.185,0,0,0,1.5,3.034A6.209,6.209,0,0,0,9.874-2.5a6.781,6.781,0,0,0,2.052-.268,3.717,3.717,0,0,0,1.338-.714,2.445,2.445,0,0,0,.714-1.056,3.976,3.976,0,0,0,.208-1.294,3.418,3.418,0,0,0-.149-1,2.314,2.314,0,0,0-.535-.907,3.4,3.4,0,0,0-1.041-.729A6.554,6.554,0,0,0,10.8-8.952L8.09-9.458A18.591,18.591,0,0,1,5.234-10.2a6.566,6.566,0,0,1-2.1-1.175,4.622,4.622,0,0,1-1.279-1.784,6.81,6.81,0,0,1-.431-2.573,5.493,5.493,0,0,1,.61-2.647,5.475,5.475,0,0,1,1.68-1.889A7.552,7.552,0,0,1,6.261-21.4a13.036,13.036,0,0,1,3.2-.372,11.579,11.579,0,0,1,3.688.506,6.963,6.963,0,0,1,2.409,1.323,5.486,5.486,0,0,1,1.4,1.889,8.74,8.74,0,0,1,.654,2.231l-3.391.535a4.742,4.742,0,0,0-1.442-2.647A5.02,5.02,0,0,0,9.517-18.8a8.524,8.524,0,0,0-2.127.223,3.809,3.809,0,0,0-1.368.625,2.326,2.326,0,0,0-.744.922,2.728,2.728,0,0,0-.223,1.086,2.665,2.665,0,0,0,.758,2.082,5.785,5.785,0,0,0,2.662,1.071l2.944.565A9.614,9.614,0,0,1,16.358-10.1,5.7,5.7,0,0,1,17.934-5.77a6.238,6.238,0,0,1-.491,2.483,5.309,5.309,0,0,1-1.5,1.993A7.481,7.481,0,0,1,13.428.045,11.266,11.266,0,0,1,9.934.535a10.579,10.579,0,0,1-6.394-1.71A6.752,6.752,0,0,1,.981-6.484Zm16.447-8.982h3.3v2.141a6.738,6.738,0,0,1,2.186-1.948,5.865,5.865,0,0,1,2.84-.669,6.583,6.583,0,0,1,2.855.58,5.5,5.5,0,0,1,2.037,1.651A7.285,7.285,0,0,1,35.5-11.138a12.953,12.953,0,0,1,.4,3.346,11.446,11.446,0,0,1-.476,3.405A7.79,7.79,0,0,1,34.069-1.77,5.894,5.894,0,0,1,31.942-.1a6.633,6.633,0,0,1-2.825.58A6.512,6.512,0,0,1,26.678,0a5.636,5.636,0,0,1-2.231-1.755V5.77H21.057Zm3.361,8a8.179,8.179,0,0,0,.327,2.513,4.271,4.271,0,0,0,.877,1.591,2.986,2.986,0,0,0,1.279.833,4.9,4.9,0,0,0,1.532.238,3.981,3.981,0,0,0,1.547-.3,3.193,3.193,0,0,0,1.249-.952,4.674,4.674,0,0,0,.833-1.7,9.307,9.307,0,0,0,.3-2.528,8.854,8.854,0,0,0-.312-2.543,4.851,4.851,0,0,0-.833-1.666,2.922,2.922,0,0,0-1.2-.907,3.883,3.883,0,0,0-1.428-.268,4.022,4.022,0,0,0-2.989,1.19,5.162,5.162,0,0,0-1.175,3.747Zm18.291-13.77v3.361H39.2v-3.361Zm-.059,5.77V0H39.259V-15.466ZM60.167-5.413a6.638,6.638,0,0,1-1.978,4.327,6.8,6.8,0,0,1-4.8,1.561A8.382,8.382,0,0,1,50.129-.1a6.1,6.1,0,0,1-2.3-1.651,6.891,6.891,0,0,1-1.368-2.573,11.729,11.729,0,0,1-.446-3.346,10.719,10.719,0,0,1,.506-3.376,7.338,7.338,0,0,1,1.472-2.617,6.555,6.555,0,0,1,2.364-1.68,8.06,8.06,0,0,1,3.182-.595,7.792,7.792,0,0,1,2.766.431,5.369,5.369,0,0,1,1.874,1.16,5.314,5.314,0,0,1,1.16,1.68,8.561,8.561,0,0,1,.595,1.993l-3.361.506a4.916,4.916,0,0,0-.907-2.171,2.672,2.672,0,0,0-2.245-.863,3.414,3.414,0,0,0-1.874.476,3.633,3.633,0,0,0-1.19,1.234,5.5,5.5,0,0,0-.639,1.74,10.287,10.287,0,0,0-.193,1.993,10.76,10.76,0,0,0,.208,2.171,5.391,5.391,0,0,0,.654,1.74,3.335,3.335,0,0,0,1.19,1.16,3.561,3.561,0,0,0,1.814.431,3.149,3.149,0,0,0,2.35-.818,4.009,4.009,0,0,0,1.011-2.335Zm3.539,8.149A4.987,4.987,0,0,0,65.4,3a2.087,2.087,0,0,0,1.4-.431A4,4,0,0,0,67.751.952l.565-1.487L61.8-15.466h3.926L69.982-4.313l3.9-11.153h3.688L71.409.149Q70.874,1.517,70.4,2.558a7.781,7.781,0,0,1-1.071,1.755A3.949,3.949,0,0,1,67.914,5.4a4.84,4.84,0,0,1-2.008.372,9.109,9.109,0,0,1-1.428-.1,9.515,9.515,0,0,1-1.4-.342Z" transform="translate(5979.849 4953.485)" fill="#ea514b"/>
      <path id="Path_20" data-name="Path 20" d="M5794.228,4900.769l-4.507-12.717a1.915,1.915,0,0,0,.587-1.495l-.508-5.732a2.067,2.067,0,0,0-.967-1.514l-8.452-5.776a3.388,3.388,0,0,0-3.987.234,1.912,1.912,0,0,0,.3,3.136l7.639,5.133.424,4.817a2.33,2.33,0,0,0,1.78,1.9l4.507,12.713c1,2.407-.67,4.987-3.734,5.776a7.372,7.372,0,0,1-1.9.226c-3.374,0-6.1-2.145-6.1-4.789v-15.971c0-2.2-2.267-3.98-5.066-3.98v-13.779c0-2.442-2.521-4.42-5.633-4.42h-22.572c-3.107,0-5.633,1.978-5.633,4.42v45.964h-1.126a1.364,1.364,0,1,0,0,2.652h36.042a1.366,1.366,0,1,0,0-2.652h-1.126V4885.38a1.546,1.546,0,0,1,1.693,1.328v15.979c.008,4.111,4.258,7.437,9.494,7.433a11.788,11.788,0,0,0,4.02-.709c4.075-1.574,6.117-5.221,4.832-8.642m-50.447,14.144v-45.964a2.054,2.054,0,0,1,2.251-1.768h22.528a2.055,2.055,0,0,1,2.252,1.768v45.964Z" fill="#ea514b"/>
      <path id="Path_21" data-name="Path 21" d="M5766.219,4869.426h-17.843a1.593,1.593,0,0,0-1.78,1.237v9.371H5768v-9.363a1.585,1.585,0,0,0-1.776-1.245" fill="#ea514b"/>
    </g>
    <g id="Group_19" data-name="Group 19">
      <path id="Path_22" data-name="Path 22" d="M5901.247,4892.03c.087.633.167,1.231.25,1.829q.471,3.346.942,6.693c.285,2.017.58,4.032.853,6.051a16.761,16.761,0,0,1,.2,2.173,7.466,7.466,0,0,1-6.321,7.317,1.386,1.386,0,0,1-.16.026,26.122,26.122,0,0,1-5.893-.127,7.429,7.429,0,0,1-5.793-6.2,8.913,8.913,0,0,1,.042-2.581q.441-3.1.876-6.212.424-3,.853-6.01.172-1.223.342-2.445c.018-.131.02-.263.032-.438-.561.061-1.094.11-1.624.178a75.036,75.036,0,0,0-9.492,1.81,2.977,2.977,0,0,1-1.48-.094,5.259,5.259,0,0,1-4.017-5.271,23.059,23.059,0,0,1,18.694-22.454,21.793,21.793,0,0,1,4.307-.408c1.106,0,2.214,0,3.319.051a21.652,21.652,0,0,1,9.33,2.552,22.766,22.766,0,0,1,11.856,15.46,20.847,20.847,0,0,1,.531,4.981,5.254,5.254,0,0,1-4.5,5.189,2.965,2.965,0,0,1-1.2-.053,65.967,65.967,0,0,0-6.931-1.425c-1.575-.23-3.158-.4-4.738-.594C5901.441,4892.022,5901.363,4892.03,5901.247,4892.03Zm-5.653-20.965c-.513,0-1.025,0-1.538,0a3,3,0,0,0-.483.036,1.561,1.561,0,0,0-1.265,1.067,1.605,1.605,0,0,0,.28,1.636,1.671,1.671,0,0,0,1.355.61c.674,0,1.351-.025,2.024.008a16.636,16.636,0,0,1,2.374.208,14.037,14.037,0,0,1,10.53,8.289,13.6,13.6,0,0,1,1.1,4,1.664,1.664,0,0,0,1.571,1.436,1.684,1.684,0,0,0,1.69-1.242,2.319,2.319,0,0,0,0-1,17.565,17.565,0,0,0-17.631-15.05Z" fill="#ea514b"/>
    </g>
  </g>
</svg>
