<svg xmlns="http://www.w3.org/2000/svg" width="390.355" height="103.467" viewBox="0 0 390.355 103.467">
  <g id="Chemdawg_Tittle2" transform="translate(-6585.207 -4018.827)">
    <path id="Path_191" data-name="Path 191" d="M-152.367-17.046q-.522,8.556-6.008,13.388T-173.07,1.176q-10.58,0-16.425-6.368t-5.845-17.862q0-11.625,5.976-18.189t16.621-6.564q8.36,0,13.323,4.147t6.335,12.311l-12.474,1.437a10.067,10.067,0,0,0-2.58-5.453,7.068,7.068,0,0,0-5-1.665q-8.947,0-8.947,13.65,0,13.78,9.078,13.78a7.381,7.381,0,0,0,5.355-1.894,9.294,9.294,0,0,0,2.482-5.551ZM-118.733,0V-18.417h-15.152V0h-12.539V-46.631h12.539v16.915h15.152V-46.631h12.539V0Zm21.16,0V-46.631H-64.2v10.319h-21.16v7.445h19.854v10.319H-85.359v8.229h22.532L-63.873,0Zm77.979,0V-25.667L-27.887,0H-37.03l-8.294-25.8V0h-11.56V-46.631h14.564l9.992,31.218,10.058-31.218h14.5V0ZM.849,0V-46.631H19.2q11.56,0,17.568,5.813t6.008,16.98q0,11.494-6.3,17.666T18.483,0ZM18.678-10.58q11.1,0,11.1-12.866,0-6.4-2.58-9.5t-7.87-3.1H13.388V-10.58ZM77.457,0,74.779-8.947H59.04L56.427,0h-12.6l16.2-46.631H74.257L90.454,0ZM66.942-35.006,62.109-18.94h9.6ZM125.525,0,118.8-29.846,112.2,0H99.793L87.319-46.631h13.323L106.65-16.2,113.181-46.3h11.56L131.4-16.2l5.813-30.434h12.931L138.064,0Zm57.929-16.523h-7.445V-26.646h19.005V-5.421a28.788,28.788,0,0,1-9.176,4.9,34.55,34.55,0,0,1-10.809,1.7q-10.972,0-16.915-6.3t-5.943-17.927a30.179,30.179,0,0,1,2.743-13.421,19.078,19.078,0,0,1,7.837-8.458,24.2,24.2,0,0,1,12.082-2.874q8.229,0,13.356,3.984a17.009,17.009,0,0,1,6.3,11.168l-12.539,1.241a7.8,7.8,0,0,0-2.449-4.408,7.418,7.418,0,0,0-4.8-1.4q-4.833,0-7.184,3.429t-2.351,10.417q0,7.315,2.612,10.645T176.14-9.4a15.367,15.367,0,0,0,7.315-1.7Z" transform="translate(6780.548 4066.633)" fill="#ea514b"/>
    <path id="Path_190" data-name="Path 190" d="M-130.319,0V-10.541h-8.672V0h-7.177V-26.688h7.177v9.681h8.672v-9.681h7.177V0Zm11.7,0V-19.624h6.765V0Zm-.037-21.792v-4.9h6.84v4.9ZM-94.922-3.14a6.9,6.9,0,0,1-5.532,2.355,7.123,7.123,0,0,1-5.794-2.467Q-108.3-5.719-108.3-10.2A11.222,11.222,0,0,1-106.1-17.53a7.365,7.365,0,0,1,6.018-2.691,6.243,6.243,0,0,1,5.345,2.467v-1.906h6.579V-2.43q0,5.121-2.467,7.606t-7.588,2.486q-8.672,0-9.307-6.915h6.616q.262,2.018,2.766,2.018a2.741,2.741,0,0,0,2.523-1.1,8.081,8.081,0,0,0,.691-3.981Zm0-7.588a4.884,4.884,0,0,0-.785-3.028,2.964,2.964,0,0,0-2.467-1.084,2.883,2.883,0,0,0-2.43,1.121,5.127,5.127,0,0,0-.86,3.177,5.126,5.126,0,0,0,.841,3.158,2.851,2.851,0,0,0,2.411,1.1,3.119,3.119,0,0,0,2.5-1.159,4.369,4.369,0,0,0,.785-2.8ZM-71.935,0V-12.036a3.076,3.076,0,0,0-.523-2,2.09,2.09,0,0,0-1.682-.617,3.113,3.113,0,0,0-2.243.86,3.283,3.283,0,0,0-.9,2.43V0h-6.765V-26.688h6.765v9.158a7.088,7.088,0,0,1,5.756-2.691A5.99,5.99,0,0,1-66.8-18.39a7.691,7.691,0,0,1,1.626,5.27V0ZM-46.7,0V-20.6h-7.7v-6.093h22.576V-20.6h-7.7V0Zm34.052,0V-10.541h-8.672V0H-28.5V-26.688h7.177v9.681h8.672v-9.681h7.177V0ZM23.268-9.756a10.6,10.6,0,0,1-3.439,7.663A12.264,12.264,0,0,1,11.419.673q-6.055,0-9.4-3.644T-1.327-13.195q0-6.653,3.42-10.41t9.513-3.757a11.514,11.514,0,0,1,7.625,2.374,11.212,11.212,0,0,1,3.626,7.046l-7.139.822a5.761,5.761,0,0,0-1.476-3.121,4.045,4.045,0,0,0-2.859-.953q-5.121,0-5.121,7.812,0,7.887,5.2,7.887a4.224,4.224,0,0,0,3.065-1.084,5.319,5.319,0,0,0,1.42-3.177ZM42.48-10.84q-4.56-.86-6.635-2.8a6.968,6.968,0,0,1-2.074-5.345,7.4,7.4,0,0,1,2.785-6.2q2.785-2.168,7.943-2.168,5.009,0,7.887,2.093a8.134,8.134,0,0,1,3.289,6.055l-6.952.71a3.994,3.994,0,0,0-1.364-2.43,4.755,4.755,0,0,0-2.9-.748,5.054,5.054,0,0,0-2.654.579,1.878,1.878,0,0,0-.934,1.7,1.808,1.808,0,0,0,.71,1.5,5.372,5.372,0,0,0,2.28.86l3.626.71a13.015,13.015,0,0,1,6.56,2.859,7.085,7.085,0,0,1,2.112,5.4,7.72,7.72,0,0,1-2.916,6.485Q50.33.673,44.91.673,39.453.673,36.5-1.7T33.248-8.784h7.139a3.91,3.91,0,0,0,1.4,2.8,5.5,5.5,0,0,0,3.383.9,5.1,5.1,0,0,0,2.841-.654,2.172,2.172,0,0,0,.972-1.925,2.012,2.012,0,0,0-.729-1.645,4.819,4.819,0,0,0-2.224-.86ZM70.963,0V-2.131A8.687,8.687,0,0,1,68.234-.112,7.792,7.792,0,0,1,65.02.523a7,7,0,0,1-4.84-1.589A5.5,5.5,0,0,1,58.4-5.382a5.415,5.415,0,0,1,2.317-4.728q2.317-1.626,7.1-1.85l2.953-.15V-12.9q0-2.579-2.5-2.579-2.317,0-2.654,1.944l-6.093-.486q1.009-6.2,9.046-6.2,4.448,0,6.579,1.981t2.131,6.055V0Zm-.224-8.3-2.168.112a6.19,6.19,0,0,0-2.785.654,1.786,1.786,0,0,0-.878,1.626q0,1.794,2.205,1.794a3.626,3.626,0,0,0,2.654-.953,3.423,3.423,0,0,0,.972-2.56ZM94.548-.374a15.5,15.5,0,0,1-4.635.71q-3.738,0-5.42-1.738T82.812-7.064v-7.289h-3.14v-5.27h3.14v-5.158h6.765v5.158h4.261v5.27H89.577v6.99A2.437,2.437,0,0,0,90.1-5.625a2.313,2.313,0,0,0,1.719.542,7.983,7.983,0,0,0,1.869-.224ZM97.015,0V-19.624h6.765V0Zm-.037-21.792v-4.9h6.84v4.9ZM113.312,0l-7.1-19.624h7.326l3.439,12.484,3.439-12.484h7.064L120.377,0Zm27.137,0V-2.131A8.687,8.687,0,0,1,137.72-.112a7.792,7.792,0,0,1-3.215.635,7,7,0,0,1-4.84-1.589,5.5,5.5,0,0,1-1.775-4.317,5.415,5.415,0,0,1,2.317-4.728q2.317-1.626,7.1-1.85l2.953-.15V-12.9q0-2.579-2.5-2.579-2.317,0-2.654,1.944l-6.093-.486q1.009-6.2,9.046-6.2,4.448,0,6.579,1.981t2.131,6.055V0Zm-.224-8.3-2.168.112a6.19,6.19,0,0,0-2.785.654,1.786,1.786,0,0,0-.878,1.626q0,1.794,2.205,1.794a3.626,3.626,0,0,0,2.654-.953,3.423,3.423,0,0,0,.972-2.56Z" transform="translate(6781.974 4114.631)" fill="#ea514b"/>
  </g>
</svg>
