<svg xmlns="http://www.w3.org/2000/svg" width="225.517" height="222.882" viewBox="0 0 225.517 222.882">
  <g id="Chemdawg_Lineage" transform="translate(-261.058 -654.685)">
    <rect id="Rectangle_12" data-name="Rectangle 12" width="174.09" height="47.138" transform="translate(288.492 830.428)" fill="#ea514b"/>
    <rect id="Rectangle_13" data-name="Rectangle 13" width="165.046" height="43.878" transform="translate(288.492 735.401)" fill="#fff"/>
    <path id="Path_26" data-name="Path 26" d="M5127.89,4433.332h21.56v131.68H5040.06v22.125" transform="translate(-4664.524 -3756.708)" fill="none" stroke="#fff" stroke-miterlimit="10" stroke-width="3.298"/>
    <path id="Path_27" data-name="Path 27" d="M4957.438,4514.048h-30.208v50.963H5040.06" transform="translate(-4664.524 -3756.708)" fill="none" stroke="#fff" stroke-miterlimit="10" stroke-width="3.298"/>
    <path id="Path_186" data-name="Path 186" d="M4.305-10.7H.334v-1.845H10.385V-10.7H6.431V0H4.305Zm9.489-1.845v4.674a3.715,3.715,0,0,1,1.344-1.169,3.62,3.62,0,0,1,1.625-.378q3.058,0,3.058,3.374V0h-2V-5.729a2.327,2.327,0,0,0-.4-1.555,1.527,1.527,0,0,0-1.195-.448,2.481,2.481,0,0,0-.993.193,2.426,2.426,0,0,0-.764.51,2.29,2.29,0,0,0-.492.729,2.156,2.156,0,0,0-.176.852V0H11.809V-12.547ZM26.183-4.27a8,8,0,0,0-1.45.193,2.48,2.48,0,0,0-.852.36,1.049,1.049,0,0,0-.4.51,1.961,1.961,0,0,0-.1.624,1.178,1.178,0,0,0,.378.931,1.639,1.639,0,0,0,1.116.334,2.571,2.571,0,0,0,1.951-.668,2.524,2.524,0,0,0,.633-1.81v-.527ZM27.5-1.195A4.253,4.253,0,0,1,26.253-.176a3.685,3.685,0,0,1-1.792.4A4.242,4.242,0,0,1,23.248.062a2.8,2.8,0,0,1-.975-.5,2.314,2.314,0,0,1-.65-.852,2.912,2.912,0,0,1-.237-1.221,2.581,2.581,0,0,1,.422-1.538,2.91,2.91,0,0,1,1.1-.923,5.244,5.244,0,0,1,1.52-.466,14.951,14.951,0,0,1,1.687-.167l1.353-.07v-.387a1.735,1.735,0,0,0-.5-1.432,2.051,2.051,0,0,0-1.309-.4,2.412,2.412,0,0,0-1.379.316,1.488,1.488,0,0,0-.589.914L21.86-6.853A2.776,2.776,0,0,1,23.072-8.8a4.914,4.914,0,0,1,2.653-.615,4.947,4.947,0,0,1,1.8.281,2.825,2.825,0,0,1,1.133.773A2.794,2.794,0,0,1,29.249-7.2a6.2,6.2,0,0,1,.167,1.485V0H27.5Zm6.115-11.352v1.986H31.542v-1.986Zm-.035,3.409V0h-2V-9.138Zm8.136-3.409V0h-2V-12.547ZM48.183-4.27a8,8,0,0,0-1.45.193,2.48,2.48,0,0,0-.852.36,1.049,1.049,0,0,0-.4.51,1.961,1.961,0,0,0-.1.624,1.178,1.178,0,0,0,.378.931,1.639,1.639,0,0,0,1.116.334,2.571,2.571,0,0,0,1.951-.668,2.524,2.524,0,0,0,.633-1.81v-.527ZM49.5-1.195A4.253,4.253,0,0,1,48.254-.176a3.685,3.685,0,0,1-1.792.4A4.242,4.242,0,0,1,45.249.062a2.8,2.8,0,0,1-.975-.5,2.314,2.314,0,0,1-.65-.852,2.912,2.912,0,0,1-.237-1.221,2.581,2.581,0,0,1,.422-1.538,2.91,2.91,0,0,1,1.1-.923,5.244,5.244,0,0,1,1.52-.466,14.951,14.951,0,0,1,1.687-.167l1.353-.07v-.387a1.735,1.735,0,0,0-.5-1.432,2.051,2.051,0,0,0-1.309-.4,2.412,2.412,0,0,0-1.379.316,1.488,1.488,0,0,0-.589.914l-1.828-.193A2.776,2.776,0,0,1,45.073-8.8a4.914,4.914,0,0,1,2.653-.615,4.947,4.947,0,0,1,1.8.281,2.825,2.825,0,0,1,1.133.773A2.794,2.794,0,0,1,51.25-7.2a6.2,6.2,0,0,1,.167,1.485V0H49.5Zm5.992-7.943V-7.8a3.923,3.923,0,0,1,1.379-1.23,3.589,3.589,0,0,1,1.643-.387q3.058,0,3.058,3.374V0h-2V-5.729a2.327,2.327,0,0,0-.4-1.555,1.527,1.527,0,0,0-1.195-.448A2.537,2.537,0,0,0,57-7.547a2.31,2.31,0,0,0-.764.5,2.416,2.416,0,0,0-.5.729,2.109,2.109,0,0,0-.185.87V0H53.56V-9.138ZM70.166-4.762a4.9,4.9,0,0,0-.185-1.45,2.353,2.353,0,0,0-.51-.931,1.879,1.879,0,0,0-.756-.492,2.741,2.741,0,0,0-.9-.149,2.033,2.033,0,0,0-1.713.791,3.937,3.937,0,0,0-.606,2.407,5.773,5.773,0,0,0,.167,1.494,2.748,2.748,0,0,0,.474,1,1.852,1.852,0,0,0,.712.562,2.18,2.18,0,0,0,.879.176,2.326,2.326,0,0,0,1.766-.712,3.135,3.135,0,0,0,.677-2.223Zm.018,3.5A3.882,3.882,0,0,1,68.91-.105a3.426,3.426,0,0,1-1.661.387,3.849,3.849,0,0,1-1.7-.351,3.221,3.221,0,0,1-1.195-.993,4.493,4.493,0,0,1-.712-1.529A7.579,7.579,0,0,1,63.4-4.551a6.851,6.851,0,0,1,.246-1.871,4.635,4.635,0,0,1,.72-1.511,3.642,3.642,0,0,1,1.169-1.028,3.536,3.536,0,0,1,1.608-.422,2.349,2.349,0,0,1,.351-.009q.176.009.369.026a3.719,3.719,0,0,1,1.186.343,3.333,3.333,0,0,1,1.1.9v-4.428h1.986V0H70.184ZM76.3-9.138v1.353a3.424,3.424,0,0,1,1.142-1.107,2.8,2.8,0,0,1,1.423-.387q.3,0,.5.018t.4.053L79.532-7.38a2.262,2.262,0,0,0-.422-.07q-.228-.018-.474-.018a2.438,2.438,0,0,0-.984.185,2.215,2.215,0,0,0-.712.483,2.041,2.041,0,0,0-.439.677,2.064,2.064,0,0,0-.149.764V0H74.366V-9.138ZM85-4.27a8,8,0,0,0-1.45.193,2.48,2.48,0,0,0-.852.36,1.049,1.049,0,0,0-.4.51,1.961,1.961,0,0,0-.1.624,1.178,1.178,0,0,0,.378.931,1.639,1.639,0,0,0,1.116.334,2.571,2.571,0,0,0,1.951-.668A2.524,2.524,0,0,0,86.28-3.8v-.527Zm1.318,3.075A4.253,4.253,0,0,1,85.068-.176a3.685,3.685,0,0,1-1.792.4A4.242,4.242,0,0,1,82.063.062a2.8,2.8,0,0,1-.975-.5,2.314,2.314,0,0,1-.65-.852A2.912,2.912,0,0,1,80.2-2.513a2.581,2.581,0,0,1,.422-1.538,2.91,2.91,0,0,1,1.1-.923,5.244,5.244,0,0,1,1.52-.466,14.951,14.951,0,0,1,1.687-.167l1.353-.07v-.387a1.735,1.735,0,0,0-.5-1.432,2.051,2.051,0,0,0-1.309-.4,2.412,2.412,0,0,0-1.379.316,1.488,1.488,0,0,0-.589.914l-1.828-.193A2.776,2.776,0,0,1,81.887-8.8a4.914,4.914,0,0,1,2.653-.615,4.947,4.947,0,0,1,1.8.281,2.825,2.825,0,0,1,1.133.773A2.794,2.794,0,0,1,88.064-7.2a6.2,6.2,0,0,1,.167,1.485V0H86.315Zm12.107-2A3.922,3.922,0,0,1,97.254-.641a4.017,4.017,0,0,1-2.838.923,4.953,4.953,0,0,1-1.924-.343,3.606,3.606,0,0,1-1.362-.975,4.072,4.072,0,0,1-.808-1.52,6.93,6.93,0,0,1-.264-1.977,6.334,6.334,0,0,1,.3-1.994,4.336,4.336,0,0,1,.87-1.546,3.873,3.873,0,0,1,1.4-.993,4.762,4.762,0,0,1,1.88-.351,4.6,4.6,0,0,1,1.634.255,3.172,3.172,0,0,1,1.107.685,3.14,3.14,0,0,1,.685.993,5.058,5.058,0,0,1,.351,1.177l-1.986.3a2.9,2.9,0,0,0-.536-1.283,1.579,1.579,0,0,0-1.327-.51,2.017,2.017,0,0,0-1.107.281,2.147,2.147,0,0,0-.7.729,3.25,3.25,0,0,0-.378,1.028,6.077,6.077,0,0,0-.114,1.177A6.358,6.358,0,0,0,92.255-3.3a3.185,3.185,0,0,0,.387,1.028,1.97,1.97,0,0,0,.7.685,2.1,2.1,0,0,0,1.072.255A1.861,1.861,0,0,0,95.8-1.819,2.369,2.369,0,0,0,96.4-3.2Zm9.665.492A3.48,3.48,0,0,1,106.875-.5,4.319,4.319,0,0,1,104.1.281a4.233,4.233,0,0,1-3.312-1.256,5.1,5.1,0,0,1-1.133-3.541,6.22,6.22,0,0,1,.325-2.091,4.311,4.311,0,0,1,.914-1.538,3.878,3.878,0,0,1,1.406-.949,4.831,4.831,0,0,1,1.8-.325,4.7,4.7,0,0,1,1.828.325,3.418,3.418,0,0,1,1.283.914,3.783,3.783,0,0,1,.756,1.406,6.3,6.3,0,0,1,.246,1.819v.879h-6.554a3.375,3.375,0,0,0,.633,2.021,2.144,2.144,0,0,0,1.81.773,2.3,2.3,0,0,0,1.423-.369,1.793,1.793,0,0,0,.633-1.054ZM106.26-5.465a2.739,2.739,0,0,0-.527-1.775,2.046,2.046,0,0,0-1.687-.65,2.128,2.128,0,0,0-1.687.659,2.947,2.947,0,0,0-.668,1.766Z" transform="translate(314.247 764.326)" fill="#db504d"/>
    <rect id="Rectangle_14" data-name="Rectangle 14" width="175.349" height="43.878" transform="translate(289.164 654.685)" fill="#fff"/>
    <path id="Path_185" data-name="Path 185" d="M15.409-5.573a7.433,7.433,0,0,1-.6,2.38A5.837,5.837,0,0,1,13.48-1.3,5.962,5.962,0,0,1,11.4-.045,8.267,8.267,0,0,1,8.551.406,7.935,7.935,0,0,1,5.336-.2,6.332,6.332,0,0,1,3.012-1.918,7.381,7.381,0,0,1,1.6-4.591a11.938,11.938,0,0,1-.474-3.463,11.1,11.1,0,0,1,.519-3.519,7.647,7.647,0,0,1,1.489-2.662,6.437,6.437,0,0,1,2.346-1.692A7.871,7.871,0,0,1,8.6-16.515a8.393,8.393,0,0,1,2.673.384,5.228,5.228,0,0,1,1.918,1.105,5.529,5.529,0,0,1,1.252,1.737,9.19,9.19,0,0,1,.7,2.279l-3.339.429a4.5,4.5,0,0,0-.959-2.234A2.833,2.833,0,0,0,8.6-13.627a3.349,3.349,0,0,0-2.944,1.455,7.2,7.2,0,0,0-1,4.117A6.836,6.836,0,0,0,5.719-3.926,3.4,3.4,0,0,0,8.6-2.482a2.962,2.962,0,0,0,2.29-.8,4.022,4.022,0,0,0,.914-2.29ZM17.62-16.108h3.362v6.227h6.385v-6.227h3.362V0H27.366V-6.768H20.982V0H17.62Zm16.289,0H44.9v2.865H37.271v3.519h7.174v2.888H37.271v3.971h8.1L45.031,0H33.909Zm13.74,0h4.038L55.7-4.084l4.129-12.025h3.926V0H60.666V-10.739L56.989,0H54.372l-3.7-10.716V0H47.648Zm19.29,0h6.024A7.92,7.92,0,0,1,78.726-14.1q2.064,2.008,2.064,5.956a9.867,9.867,0,0,1-.575,3.519,6.845,6.845,0,0,1-1.658,2.549,6.911,6.911,0,0,1-2.64,1.557A11.1,11.1,0,0,1,72.4,0h-5.46ZM72.465-2.865A5.984,5.984,0,0,0,74.7-3.237a3.677,3.677,0,0,0,1.5-1.072,4.5,4.5,0,0,0,.846-1.658,7.928,7.928,0,0,0,.271-2.155,8.9,8.9,0,0,0-.237-2.132,4.166,4.166,0,0,0-.756-1.613,3.442,3.442,0,0,0-1.342-1.015,5.025,5.025,0,0,0-2.019-.361H70.3V-2.865Zm14.71-13.243h3.2L96.425,0h-3.61L91.529-3.723h-5.64L84.6,0H81.129ZM90.649-6.5l-1.963-5.776L86.746-6.5ZM95.3-16.108h3.79l2.594,11.19,2.64-11.1h3.565l2.752,11.1,2.437-11.19h3.61L112.308,0h-3.271l-3-11.912L103.126,0H99.945Zm30.119,7.287H131.6v6.813a8.727,8.727,0,0,1-2.955,1.782A10.167,10.167,0,0,1,125.1.406,8.512,8.512,0,0,1,121.75-.2a6.354,6.354,0,0,1-2.38-1.715,7.286,7.286,0,0,1-1.421-2.673,11.939,11.939,0,0,1-.474-3.463,11.1,11.1,0,0,1,.519-3.519,7.748,7.748,0,0,1,1.478-2.662,6.334,6.334,0,0,1,2.335-1.692,7.75,7.75,0,0,1,3.068-.587,8.264,8.264,0,0,1,2.673.384,5.644,5.644,0,0,1,1.9,1.06,5.25,5.25,0,0,1,1.241,1.579,7.306,7.306,0,0,1,.666,1.94l-3.339.429a6.479,6.479,0,0,0-.327-1.072,2.175,2.175,0,0,0-.553-.79,2.378,2.378,0,0,0-.9-.5,4.606,4.606,0,0,0-1.354-.169,3.279,3.279,0,0,0-2.933,1.466,7.449,7.449,0,0,0-.97,4.129,7.372,7.372,0,0,0,.981,4.14,3.569,3.569,0,0,0,3.192,1.455,6.976,6.976,0,0,0,1.839-.214,5.655,5.655,0,0,0,1.5-.666V-6.024h-3.068Z" transform="translate(307.423 861.648)" fill="#f2e66a"/>
    <path id="Path_184" data-name="Path 184" d="M1.335-12.547H3.3L9.067-3.479v-9.067h2.074V0H9.173L3.391-9.032V0H1.335ZM21.684-2.706A3.48,3.48,0,0,1,20.472-.5,4.319,4.319,0,0,1,17.7.281,4.233,4.233,0,0,1,14.383-.975,5.1,5.1,0,0,1,13.25-4.516a6.221,6.221,0,0,1,.325-2.091,4.311,4.311,0,0,1,.914-1.538,3.878,3.878,0,0,1,1.406-.949,4.831,4.831,0,0,1,1.8-.325,4.7,4.7,0,0,1,1.828.325,3.418,3.418,0,0,1,1.283.914,3.783,3.783,0,0,1,.756,1.406,6.3,6.3,0,0,1,.246,1.819v.879H15.253a3.375,3.375,0,0,0,.633,2.021,2.144,2.144,0,0,0,1.81.773,2.3,2.3,0,0,0,1.423-.369,1.793,1.793,0,0,0,.633-1.054ZM19.857-5.465A2.739,2.739,0,0,0,19.33-7.24a2.046,2.046,0,0,0-1.687-.65,2.128,2.128,0,0,0-1.687.659,2.947,2.947,0,0,0-.668,1.766Zm3.831-3.673h1.951v1.265A3.981,3.981,0,0,1,26.93-9.023a3.465,3.465,0,0,1,1.678-.4,3.889,3.889,0,0,1,1.687.343,3.25,3.25,0,0,1,1.2.975,4.3,4.3,0,0,1,.72,1.52A7.653,7.653,0,0,1,32.456-4.6a6.763,6.763,0,0,1-.281,2.012,4.6,4.6,0,0,1-.8,1.546,3.482,3.482,0,0,1-1.256.984A3.919,3.919,0,0,1,28.45.281,3.847,3.847,0,0,1,27.009,0a3.33,3.33,0,0,1-1.318-1.037V3.409h-2Zm1.986,4.727a4.832,4.832,0,0,0,.193,1.485,2.524,2.524,0,0,0,.518.94,1.764,1.764,0,0,0,.756.492,2.9,2.9,0,0,0,.9.141,2.352,2.352,0,0,0,.914-.176,1.886,1.886,0,0,0,.738-.562,2.762,2.762,0,0,0,.492-1,5.5,5.5,0,0,0,.176-1.494,5.231,5.231,0,0,0-.185-1.5,2.866,2.866,0,0,0-.492-.984,1.727,1.727,0,0,0-.712-.536,2.294,2.294,0,0,0-.843-.158,2.377,2.377,0,0,0-1.766.7,3.05,3.05,0,0,0-.694,2.214Zm12.916.141a8,8,0,0,0-1.45.193,2.48,2.48,0,0,0-.852.36,1.049,1.049,0,0,0-.4.51,1.961,1.961,0,0,0-.1.624,1.178,1.178,0,0,0,.378.931,1.639,1.639,0,0,0,1.116.334,2.571,2.571,0,0,0,1.951-.668,2.524,2.524,0,0,0,.633-1.81v-.527Zm1.318,3.075A4.253,4.253,0,0,1,38.659-.176a3.685,3.685,0,0,1-1.792.4A4.242,4.242,0,0,1,35.654.062a2.8,2.8,0,0,1-.975-.5,2.314,2.314,0,0,1-.65-.852,2.912,2.912,0,0,1-.237-1.221,2.581,2.581,0,0,1,.422-1.538,2.91,2.91,0,0,1,1.1-.923,5.244,5.244,0,0,1,1.52-.466,14.951,14.951,0,0,1,1.687-.167l1.353-.07v-.387a1.735,1.735,0,0,0-.5-1.432,2.051,2.051,0,0,0-1.309-.4,2.412,2.412,0,0,0-1.379.316,1.488,1.488,0,0,0-.589.914l-1.828-.193A2.776,2.776,0,0,1,35.479-8.8a4.914,4.914,0,0,1,2.653-.615,4.947,4.947,0,0,1,1.8.281,2.825,2.825,0,0,1,1.133.773A2.794,2.794,0,0,1,41.655-7.2a6.2,6.2,0,0,1,.167,1.485V0H39.907Zm6.08-11.352V0h-2V-12.547Zm4.305,0v1.986H48.218v-1.986Zm-.035,3.409V0h-2V-9.138Zm8.136-3.409V0h-2V-12.547ZM64.859-4.27a8,8,0,0,0-1.45.193,2.48,2.48,0,0,0-.852.36,1.049,1.049,0,0,0-.4.51,1.961,1.961,0,0,0-.1.624,1.178,1.178,0,0,0,.378.931,1.639,1.639,0,0,0,1.116.334,2.571,2.571,0,0,0,1.951-.668,2.524,2.524,0,0,0,.633-1.81v-.527Zm1.318,3.075A4.253,4.253,0,0,1,64.93-.176a3.685,3.685,0,0,1-1.792.4A4.242,4.242,0,0,1,61.925.062a2.8,2.8,0,0,1-.975-.5,2.314,2.314,0,0,1-.65-.852,2.912,2.912,0,0,1-.237-1.221,2.581,2.581,0,0,1,.422-1.538,2.91,2.91,0,0,1,1.1-.923,5.244,5.244,0,0,1,1.52-.466,14.951,14.951,0,0,1,1.687-.167l1.353-.07v-.387a1.735,1.735,0,0,0-.5-1.432,2.051,2.051,0,0,0-1.309-.4,2.412,2.412,0,0,0-1.379.316,1.488,1.488,0,0,0-.589.914l-1.828-.193A2.776,2.776,0,0,1,61.749-8.8,4.914,4.914,0,0,1,64.4-9.419a4.947,4.947,0,0,1,1.8.281,2.825,2.825,0,0,1,1.133.773A2.794,2.794,0,0,1,67.926-7.2a6.2,6.2,0,0,1,.167,1.485V0H66.177ZM72.17-9.138V-7.8a3.923,3.923,0,0,1,1.379-1.23,3.589,3.589,0,0,1,1.643-.387q3.058,0,3.058,3.374V0h-2V-5.729a2.327,2.327,0,0,0-.4-1.555,1.527,1.527,0,0,0-1.195-.448,2.537,2.537,0,0,0-.975.185,2.31,2.31,0,0,0-.764.5,2.416,2.416,0,0,0-.5.729,2.109,2.109,0,0,0-.185.87V0H70.237V-9.138ZM86.842-4.762a4.9,4.9,0,0,0-.185-1.45,2.353,2.353,0,0,0-.51-.931,1.879,1.879,0,0,0-.756-.492,2.741,2.741,0,0,0-.9-.149,2.033,2.033,0,0,0-1.713.791,3.937,3.937,0,0,0-.606,2.407,5.773,5.773,0,0,0,.167,1.494,2.748,2.748,0,0,0,.474,1,1.852,1.852,0,0,0,.712.562,2.18,2.18,0,0,0,.879.176,2.326,2.326,0,0,0,1.766-.712,3.135,3.135,0,0,0,.677-2.223Zm.018,3.5a3.882,3.882,0,0,1-1.274,1.16,3.426,3.426,0,0,1-1.661.387,3.849,3.849,0,0,1-1.7-.351,3.221,3.221,0,0,1-1.195-.993,4.493,4.493,0,0,1-.712-1.529,7.579,7.579,0,0,1-.237-1.959,6.851,6.851,0,0,1,.246-1.871,4.635,4.635,0,0,1,.72-1.511,3.642,3.642,0,0,1,1.169-1.028,3.536,3.536,0,0,1,1.608-.422,2.349,2.349,0,0,1,.351-.009q.176.009.369.026a3.719,3.719,0,0,1,1.186.343,3.333,3.333,0,0,1,1.1.9v-4.428h1.986V0H86.86Zm6.115-7.872v1.353a3.424,3.424,0,0,1,1.142-1.107,2.8,2.8,0,0,1,1.423-.387q.3,0,.5.018t.4.053L96.209-7.38a2.262,2.262,0,0,0-.422-.07q-.228-.018-.474-.018a2.438,2.438,0,0,0-.984.185,2.215,2.215,0,0,0-.712.483,2.041,2.041,0,0,0-.439.677,2.064,2.064,0,0,0-.149.764V0H91.042V-9.138Zm8.7,4.868a8,8,0,0,0-1.45.193,2.48,2.48,0,0,0-.852.36,1.049,1.049,0,0,0-.4.51,1.961,1.961,0,0,0-.1.624,1.178,1.178,0,0,0,.378.931,1.639,1.639,0,0,0,1.116.334,2.571,2.571,0,0,0,1.951-.668,2.524,2.524,0,0,0,.633-1.81v-.527Zm1.318,3.075a4.253,4.253,0,0,1-1.248,1.019,3.685,3.685,0,0,1-1.792.4A4.242,4.242,0,0,1,98.739.062a2.8,2.8,0,0,1-.975-.5,2.314,2.314,0,0,1-.65-.852,2.912,2.912,0,0,1-.237-1.221A2.581,2.581,0,0,1,97.3-4.05a2.91,2.91,0,0,1,1.1-.923,5.244,5.244,0,0,1,1.52-.466,14.951,14.951,0,0,1,1.687-.167l1.353-.07v-.387a1.735,1.735,0,0,0-.5-1.432,2.051,2.051,0,0,0-1.309-.4,2.412,2.412,0,0,0-1.379.316,1.488,1.488,0,0,0-.589.914l-1.828-.193A2.776,2.776,0,0,1,98.563-8.8a4.914,4.914,0,0,1,2.653-.615,4.947,4.947,0,0,1,1.8.281,2.825,2.825,0,0,1,1.133.773A2.794,2.794,0,0,1,104.74-7.2a6.2,6.2,0,0,1,.167,1.485V0h-1.915Zm12.107-2A3.922,3.922,0,0,1,113.93-.641a4.017,4.017,0,0,1-2.838.923,4.953,4.953,0,0,1-1.924-.343,3.606,3.606,0,0,1-1.362-.975A4.072,4.072,0,0,1,107-2.557a6.93,6.93,0,0,1-.264-1.977,6.334,6.334,0,0,1,.3-1.994,4.336,4.336,0,0,1,.87-1.546,3.873,3.873,0,0,1,1.4-.993,4.762,4.762,0,0,1,1.88-.351,4.6,4.6,0,0,1,1.634.255,3.172,3.172,0,0,1,1.107.685,3.14,3.14,0,0,1,.685.993,5.058,5.058,0,0,1,.351,1.177l-1.986.3a2.9,2.9,0,0,0-.536-1.283,1.579,1.579,0,0,0-1.327-.51A2.017,2.017,0,0,0,110-7.521a2.147,2.147,0,0,0-.7.729,3.25,3.25,0,0,0-.378,1.028,6.077,6.077,0,0,0-.114,1.177,6.358,6.358,0,0,0,.123,1.283,3.185,3.185,0,0,0,.387,1.028,1.97,1.97,0,0,0,.7.685,2.1,2.1,0,0,0,1.072.255,1.861,1.861,0,0,0,1.388-.483,2.369,2.369,0,0,0,.6-1.379Zm9.665.492A3.48,3.48,0,0,1,123.551-.5a4.319,4.319,0,0,1-2.776.782,4.233,4.233,0,0,1-3.312-1.256,5.1,5.1,0,0,1-1.133-3.541,6.22,6.22,0,0,1,.325-2.091,4.311,4.311,0,0,1,.914-1.538,3.878,3.878,0,0,1,1.406-.949,4.831,4.831,0,0,1,1.8-.325,4.7,4.7,0,0,1,1.828.325,3.418,3.418,0,0,1,1.283.914,3.783,3.783,0,0,1,.756,1.406,6.3,6.3,0,0,1,.246,1.819v.879h-6.554a3.375,3.375,0,0,0,.633,2.021,2.144,2.144,0,0,0,1.81.773,2.3,2.3,0,0,0,1.423-.369,1.793,1.793,0,0,0,.633-1.054Zm-1.828-2.759a2.739,2.739,0,0,0-.527-1.775,2.046,2.046,0,0,0-1.687-.65,2.128,2.128,0,0,0-1.687.659,2.947,2.947,0,0,0-.668,1.766Z" transform="translate(313.664 683.608)" fill="#db504d"/>
  </g>
</svg>
