<?xml version="1.0" encoding="utf-8"?>
<!-- Generator: Adobe Illustrator 25.3.1, SVG Export Plug-In . SVG Version: 6.00 Build 0)  -->
<svg version="1.1" id="Layer_1" xmlns="http://www.w3.org/2000/svg" xmlns:xlink="http://www.w3.org/1999/xlink" x="0px" y="0px"
	 viewBox="0 0 400 147.33" style="enable-background:new 0 0 400 147.33;" xml:space="preserve">
<style type="text/css">
	.st0{fill:#FFFFFF;}
</style>
<g>
	<path class="st0" d="M16.1,15.69v10.35h17.67v13.64H16.1V64H0V2.05h35.58v13.64H16.1z"/>
	<path class="st0" d="M60.56,50.36h19.31V64H44.46V2.05h16.1V50.36z"/>
	<path class="st0" d="M104.23,53.24L99.96,64H82.87l23.82-61.95h17.59L147.62,64h-17.17l-4.03-10.76H104.23z M115.49,21.2h-0.17
		l-6.66,19.72h13.39L115.49,21.2z"/>
	<path class="st0" d="M174.34,39.68l15.03-37.63h17.5L180.43,64h-12.49L141.89,2.05h17.5L174.34,39.68z"/>
	<path class="st0" d="M274.73,31.88c0,20.05-14.38,34.18-34.26,34.18S206.2,51.92,206.2,31.88C206.2,13.15,222.64,0,240.47,0
		S274.73,13.15,274.73,31.88z M222.97,31.96c0,10.68,7.89,18.48,17.5,18.48s17.49-7.8,17.49-18.48c0-8.55-7.88-16.35-17.49-16.35
		S222.97,23.41,222.97,31.96z"/>
	<path class="st0" d="M337.01,2.05v34.83c0,7.97-0.33,15.86-6.49,21.86c-5.18,5.09-13.31,6.9-20.55,6.9
		c-7.22,0-15.36-1.81-20.54-6.9c-6.16-6-6.49-13.88-6.49-21.86V2.05h16.1v32.62c0,8.05,0.58,16.84,10.92,16.84
		c10.36,0,10.93-8.79,10.93-16.84V2.05H337.01z"/>
	<path class="st0" d="M400,64h-20.04l-15.2-23.83h-0.17V64h-16.1V2.05h24.07c12.24,0,21.53,5.83,21.53,19.06
		c0,8.55-4.76,15.94-13.55,17.5L400,64z M364.59,29.82h1.56c5.26,0,11.18-0.99,11.18-7.72s-5.92-7.72-11.18-7.72h-1.56V29.82z"/>
	<path class="st0" d="M30.67,83.33h24.64c13.31,0,22.51,6.16,22.51,20.38c0,14.62-7.89,21.03-21.94,21.03h-9.12v20.54h-16.1V83.33z
		 M46.77,111.75h2.71c5.83,0,11.59,0,11.59-7.55c0-7.81-5.34-7.89-11.59-7.89h-2.71V111.75z"/>
	<path class="st0" d="M136.73,145.28h-20.04l-15.2-23.82h-0.17v23.82h-16.1V83.33h24.07c12.24,0,21.53,5.83,21.53,19.06
		c0,8.55-4.76,15.94-13.55,17.5L136.73,145.28z M101.32,111.1h1.56c5.26,0,11.18-0.98,11.18-7.72s-5.92-7.73-11.18-7.73h-1.56V111.1
		z"/>
	<path class="st0" d="M206.26,113.15c0,20.05-14.38,34.18-34.26,34.18s-34.27-14.13-34.27-34.18c0-18.73,16.44-31.88,34.27-31.88
		S206.26,94.42,206.26,113.15z M154.5,113.24c0,10.68,7.89,18.48,17.5,18.48c9.6,0,17.5-7.81,17.5-18.48
		c0-8.55-7.9-16.35-17.5-16.35C162.39,96.89,154.5,104.69,154.5,113.24z"/>
	<path class="st0" d="M231.08,96.97v10.35h17.67v13.64h-17.67v24.32h-16.1V83.33h35.58v13.64H231.08z"/>
	<path class="st0" d="M275.51,145.28h-16.1V83.33h16.1V145.28z"/>
	<path class="st0" d="M303.26,131.64h19.31v13.63h-35.41V83.33h16.1V131.64z"/>
	<path class="st0" d="M344.61,96.97v10.35h18.16v13.64h-18.16v10.69h19.15v13.63h-35.25V83.33h35.25v13.64H344.61z"/>
</g>
</svg>
