<svg xmlns="http://www.w3.org/2000/svg" width="100.945" height="136.848" viewBox="0 0 100.945 136.848"><g id="Group_299" data-name="Group 299" transform="translate(-1038.086 -305.024)"><path id="Path_138" data-name="Path 138" d="M1137.948,372.915a14.263,14.263,0,0,0-4.807-3,54.192,54.192,0,0,0-9.647-2.906c-.6-.133-.538-.313-.213-.69,1.286-1.489,2.555-2.991,3.739-4.565,3.914-5.2,7.279-10.692,8.973-17.058a15.1,15.1,0,0,0,.348-7.585,6.815,6.815,0,0,0-3.728-4.8,12.279,12.279,0,0,0-7.905-.592,33.426,33.426,0,0,0-8.494,3.028,67.312,67.312,0,0,0-11.682,7.607c-.143.112-.263.356-.491.223-.187-.109-.177-.342-.178-.538-.01-1.774-.154-3.539-.292-5.3-.186-2.376-.494-4.738-.869-7.088-.313-1.961-.722-3.906-1.191-5.838a49.969,49.969,0,0,0-3.3-9.729c-1.418-2.984-3.05-5.826-5.848-7.762a6.132,6.132,0,0,0-6.506-.63,12.821,12.821,0,0,0-5.137,5.024,36.376,36.376,0,0,0-3.79,8.4,69.165,69.165,0,0,0-2.277,9.28c-.357,2-.657,4.007-.88,6.025-.283,2.564-.5,5.135-.55,7.716,0,.172.03.385-.153.473s-.309-.1-.443-.2c-.988-.76-1.955-1.548-2.966-2.275a57.427,57.427,0,0,0-10.966-6.392,26.487,26.487,0,0,0-10.116-2.39,7.716,7.716,0,0,0-2.35.337,7.283,7.283,0,0,0-3.293,1.682c-2.089,1.97-2.616,4.5-2.485,7.2a25.6,25.6,0,0,0,2.217,8.718,57.408,57.408,0,0,0,7.072,12.005c1.3,1.734,2.646,3.426,4.106,5.026.312.342.365.576-.208.695-.876.182-1.74.426-2.61.64a36.467,36.467,0,0,0-9.557,3.524,9.706,9.706,0,0,0-2.386,1.823,3,3,0,0,0-.3,4.162,5.767,5.767,0,0,0,1.381,1.389c3.3,2.377,7.141,3.421,10.988,4.437,2.176.575,4.392.978,6.608,1.375,1.85.332,3.7.623,5.568.86,2.187.279,4.38.52,6.574.743.593.06.552.237.309.678a39.41,39.41,0,0,0-2.9,6.307,12.574,12.574,0,0,0-.773,4.231c.029,1.975.882,3.163,2.5,3.538a7.252,7.252,0,0,0,3.192-.034,31,31,0,0,0,8.285-3.368,85.547,85.547,0,0,0,7.863-4.982.835.835,0,0,1,1.117.016c.744.536,1.517,1.03,2.285,1.532a50.231,50.231,0,0,0,11.621,5.979,10.742,10.742,0,0,0,4.9.64,3.2,3.2,0,0,0,2.78-2.934,13.238,13.238,0,0,0-1.213-6.1,43.2,43.2,0,0,0-2.411-4.952c-.244-.451-.12-.581.329-.616.719-.054,1.441-.1,2.154-.192,3.355-.453,6.715-.854,10.049-1.462a67.474,67.474,0,0,0,12.334-3.246,14.817,14.817,0,0,0,5.632-3.374A3.1,3.1,0,0,0,1137.948,372.915Z" fill="#fff"></path><g id="Group_282" data-name="Group 282"><path id="Path_140" data-name="Path 140" d="M1096.252,370.131a1.258,1.258,0,1,0-2.179-1.257h0a6.366,6.366,0,0,1-11.018,0,1.258,1.258,0,0,0-2.176,1.257,8.881,8.881,0,0,0,15.373,0Z" fill="#00bcbc"></path><path id="Path_141" data-name="Path 141" d="M1084.38,357.914a2.581,2.581,0,1,0-2.586,2.575h.006A2.58,2.58,0,0,0,1084.38,357.914Z" fill="#00bcbc"></path><path id="Path_142" data-name="Path 142" d="M1097.9,357.914a2.581,2.581,0,1,0-2.587,2.575h.006a2.575,2.575,0,0,0,2.581-2.57Z" fill="#00bcbc"></path></g><text id="Good" transform="translate(1088.578 436.872)" fill="#fff" font-size="19.821" font-family="Futura-Medium, Futura" font-weight="500"><tspan x="-26.799" y="0">Good</tspan></text></g></svg>