<svg xmlns="http://www.w3.org/2000/svg" width="454.946" height="106.537" viewBox="0 0 454.946 106.537">
  <g id="Greencush_Title2" transform="translate(-6552.161 -2106.512)">
    <g id="Group_124" data-name="Group 124">
      <path id="Path_176" data-name="Path 176" d="M-202.2-27.5v10.058h10.45c-.522,5.682-4.768,8.556-10.319,8.556-8.425,0-13-7.772-13-15.413,0-7.511,4.376-15.544,12.8-15.544,5.159,0,8.882,3.135,10.645,7.837L-179.47-37.1c-4.245-9.209-12.082-13.78-22.205-13.78-15.87,0-26.712,10.515-26.712,26.516,0,15.478,10.776,25.993,26.254,25.993,8.229,0,15.478-2.939,20.311-9.666,4.376-6.139,4.9-12.278,5.029-19.462Zm56.754,7.315c6.988-1.241,10.776-7.119,10.776-13.911,0-10.515-7.38-15.152-17.111-15.152h-19.136V0h12.8V-18.94h.131L-145.9,0h15.936Zm-12.67-19.266h1.241c4.18,0,8.882.784,8.882,6.139s-4.7,6.139-8.882,6.139h-1.241ZM-98.487-38.4V-49.243H-126.5V0h28.018V-10.841H-113.7v-8.49H-99.27V-30.173H-113.7V-38.4Zm35.92,0V-49.243H-90.584V0h28.018V-10.841H-77.784v-8.49H-63.35V-30.173H-77.784V-38.4Zm7.9,38.4h12.8V-30.173h.131L-18.287,0h12.8V-49.243h-12.8v30.108h-.131L-41.863-49.243h-12.8ZM60.477-48.068a30.035,30.035,0,0,0-11.69-2.482,26.685,26.685,0,0,0-18.744,7.968,25.771,25.771,0,0,0-7.249,18.025c0,7.315,2.482,13.715,7.9,18.613A27.416,27.416,0,0,0,49.178,1.306c3.984,0,7.053-.98,11.3-2.286V-16.327A14.724,14.724,0,0,1,49.439-11.1c-7.968,0-13.323-5.617-13.323-13.388,0-7.641,5.29-13.65,13.127-13.65A13.892,13.892,0,0,1,60.477-32.72Zm37.814-1.176v25.928c0,6.4-.457,13.388-8.686,13.388s-8.686-6.988-8.686-13.388V-49.243h-12.8v27.691c0,6.335.261,12.6,5.159,17.372C77.392-.131,83.857,1.306,89.6,1.306S101.817-.131,105.932-4.18c4.9-4.768,5.159-11.037,5.159-17.372V-49.243ZM151.322-46.5a33.679,33.679,0,0,0-15.413-4.049c-9.862,0-16.98,6.531-16.98,16.523,0,9.535,5.29,11.625,13.323,13.911,2.743.784,7.772,2.025,7.772,5.617,0,3.461-3.2,4.964-6.2,4.964-4.376,0-8.164-2.286-11.364-5.094L116.969-4.31a30.385,30.385,0,0,0,17.307,5.617c4.964,0,10.123-1.371,13.976-4.637,3.919-3.331,5.094-8.36,5.094-13.258,0-7.968-5.29-11.429-12.148-13.454l-3.265-.98c-2.221-.718-5.682-1.829-5.682-4.7,0-2.743,3.135-4.114,5.486-4.114a13.468,13.468,0,0,1,8.49,3.265Zm20.9,16.262V-49.243h-12.8V0h12.8V-20.181H190.7V0h12.8V-49.243H190.7v19.005Zm46.7,16.262a7.609,7.609,0,0,0-7.641,7.641,7.651,7.651,0,0,0,7.641,7.641,7.651,7.651,0,0,0,7.641-7.641A7.609,7.609,0,0,0,218.917-13.976Z" transform="translate(6780.548 2157.388)" fill="#ea514b"/>
    </g>
    <path id="Path_177" data-name="Path 177" d="M-130.319,0V-10.541h-8.672V0h-7.177V-26.688h7.177v9.681h8.672v-9.681h7.177V0Zm11.7,0V-19.624h6.765V0Zm-.037-21.792v-4.9h6.84v4.9ZM-94.922-3.14a6.9,6.9,0,0,1-5.532,2.355,7.123,7.123,0,0,1-5.794-2.467Q-108.3-5.719-108.3-10.2A11.222,11.222,0,0,1-106.1-17.53a7.365,7.365,0,0,1,6.018-2.691,6.243,6.243,0,0,1,5.345,2.467v-1.906h6.579V-2.43q0,5.121-2.467,7.606t-7.588,2.486q-8.672,0-9.307-6.915h6.616q.262,2.018,2.766,2.018a2.741,2.741,0,0,0,2.523-1.1,8.081,8.081,0,0,0,.691-3.981Zm0-7.588a4.884,4.884,0,0,0-.785-3.028,2.964,2.964,0,0,0-2.467-1.084,2.883,2.883,0,0,0-2.43,1.121,5.127,5.127,0,0,0-.86,3.177,5.126,5.126,0,0,0,.841,3.158,2.851,2.851,0,0,0,2.411,1.1,3.119,3.119,0,0,0,2.5-1.159,4.369,4.369,0,0,0,.785-2.8ZM-71.935,0V-12.036a3.076,3.076,0,0,0-.523-2,2.09,2.09,0,0,0-1.682-.617,3.113,3.113,0,0,0-2.243.86,3.283,3.283,0,0,0-.9,2.43V0h-6.765V-26.688h6.765v9.158a7.088,7.088,0,0,1,5.756-2.691A5.99,5.99,0,0,1-66.8-18.39a7.691,7.691,0,0,1,1.626,5.27V0ZM-46.7,0V-20.6h-7.7v-6.093h22.576V-20.6h-7.7V0Zm34.052,0V-10.541h-8.672V0H-28.5V-26.688h7.177v9.681h8.672v-9.681h7.177V0ZM23.268-9.756a10.6,10.6,0,0,1-3.439,7.663A12.264,12.264,0,0,1,11.419.673q-6.055,0-9.4-3.644T-1.327-13.195q0-6.653,3.42-10.41t9.513-3.757a11.514,11.514,0,0,1,7.625,2.374,11.212,11.212,0,0,1,3.626,7.046l-7.139.822a5.761,5.761,0,0,0-1.476-3.121,4.045,4.045,0,0,0-2.859-.953q-5.121,0-5.121,7.812,0,7.887,5.2,7.887a4.224,4.224,0,0,0,3.065-1.084,5.319,5.319,0,0,0,1.42-3.177ZM42.48-10.84q-4.56-.86-6.635-2.8a6.968,6.968,0,0,1-2.074-5.345,7.4,7.4,0,0,1,2.785-6.2q2.785-2.168,7.943-2.168,5.009,0,7.887,2.093a8.134,8.134,0,0,1,3.289,6.055l-6.952.71a3.994,3.994,0,0,0-1.364-2.43,4.755,4.755,0,0,0-2.9-.748,5.054,5.054,0,0,0-2.654.579,1.878,1.878,0,0,0-.934,1.7,1.808,1.808,0,0,0,.71,1.5,5.372,5.372,0,0,0,2.28.86l3.626.71a13.015,13.015,0,0,1,6.56,2.859,7.085,7.085,0,0,1,2.112,5.4,7.72,7.72,0,0,1-2.916,6.485Q50.33.673,44.91.673,39.453.673,36.5-1.7T33.248-8.784h7.139a3.91,3.91,0,0,0,1.4,2.8,5.5,5.5,0,0,0,3.383.9,5.1,5.1,0,0,0,2.841-.654,2.172,2.172,0,0,0,.972-1.925,2.012,2.012,0,0,0-.729-1.645,4.819,4.819,0,0,0-2.224-.86ZM70.963,0V-2.131A8.687,8.687,0,0,1,68.234-.112,7.792,7.792,0,0,1,65.02.523a7,7,0,0,1-4.84-1.589A5.5,5.5,0,0,1,58.4-5.382a5.415,5.415,0,0,1,2.317-4.728q2.317-1.626,7.1-1.85l2.953-.15V-12.9q0-2.579-2.5-2.579-2.317,0-2.654,1.944l-6.093-.486q1.009-6.2,9.046-6.2,4.448,0,6.579,1.981t2.131,6.055V0Zm-.224-8.3-2.168.112a6.19,6.19,0,0,0-2.785.654,1.786,1.786,0,0,0-.878,1.626q0,1.794,2.205,1.794a3.626,3.626,0,0,0,2.654-.953,3.423,3.423,0,0,0,.972-2.56ZM94.548-.374a15.5,15.5,0,0,1-4.635.71q-3.738,0-5.42-1.738T82.812-7.064v-7.289h-3.14v-5.27h3.14v-5.158h6.765v5.158h4.261v5.27H89.577v6.99A2.437,2.437,0,0,0,90.1-5.625a2.313,2.313,0,0,0,1.719.542,7.983,7.983,0,0,0,1.869-.224ZM97.015,0V-19.624h6.765V0Zm-.037-21.792v-4.9h6.84v4.9ZM113.312,0l-7.1-19.624h7.326l3.439,12.484,3.439-12.484h7.064L120.377,0Zm27.137,0V-2.131A8.687,8.687,0,0,1,137.72-.112a7.792,7.792,0,0,1-3.215.635,7,7,0,0,1-4.84-1.589,5.5,5.5,0,0,1-1.775-4.317,5.415,5.415,0,0,1,2.317-4.728q2.317-1.626,7.1-1.85l2.953-.15V-12.9q0-2.579-2.5-2.579-2.317,0-2.654,1.944l-6.093-.486q1.009-6.2,9.046-6.2,4.448,0,6.579,1.981t2.131,6.055V0Zm-.224-8.3-2.168.112a6.19,6.19,0,0,0-2.785.654,1.786,1.786,0,0,0-.878,1.626q0,1.794,2.205,1.794a3.626,3.626,0,0,0,2.654-.953,3.423,3.423,0,0,0,.972-2.56Z" transform="translate(6780.29 2205.386)" fill="#ea514b"/>
  </g>
</svg>
