<svg xmlns="http://www.w3.org/2000/svg" width="100.945" height="95.848" viewBox="0 0 100.945 95.848"><g id="Group_301" data-name="Group 301" transform="translate(-972.951 -498.616)"><path id="Path_146" data-name="Path 146" d="M1072.813,566.507a14.251,14.251,0,0,0-4.807-3,54.156,54.156,0,0,0-9.646-2.906c-.6-.133-.539-.313-.213-.69,1.285-1.489,2.554-2.991,3.738-4.565,3.914-5.2,7.279-10.692,8.973-17.058a15.107,15.107,0,0,0,.348-7.586,6.815,6.815,0,0,0-3.727-4.8,12.283,12.283,0,0,0-7.906-.592,33.42,33.42,0,0,0-8.493,3.028,67.16,67.16,0,0,0-11.682,7.607c-.143.112-.263.356-.491.223-.188-.11-.178-.342-.179-.538-.01-1.774-.153-3.539-.292-5.3-.186-2.376-.494-4.738-.869-7.088-.312-1.961-.722-3.906-1.19-5.839a50.051,50.051,0,0,0-3.3-9.728c-1.417-2.984-3.05-5.827-5.848-7.762a6.131,6.131,0,0,0-6.506-.63,12.826,12.826,0,0,0-5.136,5.024,36.34,36.34,0,0,0-3.791,8.405,69.145,69.145,0,0,0-2.277,9.28c-.356,2-.657,4.007-.88,6.025-.283,2.564-.5,5.135-.55,7.716,0,.172.03.385-.152.473s-.31-.1-.444-.2c-.987-.76-1.955-1.548-2.966-2.275a57.367,57.367,0,0,0-10.965-6.392,26.489,26.489,0,0,0-10.117-2.39,7.688,7.688,0,0,0-2.35.337,7.277,7.277,0,0,0-3.293,1.682c-2.088,1.97-2.616,4.5-2.485,7.2a25.6,25.6,0,0,0,2.217,8.718,57.454,57.454,0,0,0,7.072,12.005c1.3,1.734,2.646,3.425,4.107,5.026.312.342.364.575-.209.695-.876.182-1.74.426-2.61.64a36.413,36.413,0,0,0-9.556,3.524,9.711,9.711,0,0,0-2.387,1.823,3,3,0,0,0-.3,4.161,5.768,5.768,0,0,0,1.381,1.39c3.3,2.376,7.141,3.421,10.988,4.437,2.176.575,4.392.978,6.609,1.375,1.849.332,3.705.623,5.567.86,2.188.279,4.38.519,6.574.743.593.06.552.237.309.678a39.415,39.415,0,0,0-2.895,6.307,12.574,12.574,0,0,0-.772,4.231c.028,1.975.881,3.162,2.5,3.538a7.263,7.263,0,0,0,3.191-.034,30.972,30.972,0,0,0,8.285-3.368,85.56,85.56,0,0,0,7.864-4.982.834.834,0,0,1,1.116.016c.744.536,1.518,1.03,2.285,1.532a50.231,50.231,0,0,0,11.621,5.979,10.744,10.744,0,0,0,4.9.64,3.2,3.2,0,0,0,2.78-2.935,13.236,13.236,0,0,0-1.213-6.1,43.19,43.19,0,0,0-2.41-4.952c-.245-.451-.121-.581.329-.616.718-.055,1.44-.1,2.153-.193,3.355-.452,6.715-.853,10.049-1.461a67.586,67.586,0,0,0,12.335-3.246,14.826,14.826,0,0,0,5.631-3.374A3.1,3.1,0,0,0,1072.813,566.507Z" fill="#fff"></path><text id="No" transform="translate(1023.424 562.321)" fill="#00bcbc" font-size="18.477" font-family="FuturaStd-Bold, Futura Std" font-weight="700"><tspan x="-14.255" y="0">No</tspan></text></g></svg>