<svg xmlns="http://www.w3.org/2000/svg" width="100.945" height="95.848" viewBox="0 0 100.945 95.848"><g id="Group_299" data-name="Group 299" transform="translate(-550.659 -498.616)"><path id="Path_160" data-name="Path 160" d="M650.521,566.507a14.261,14.261,0,0,0-4.807-3,54.191,54.191,0,0,0-9.647-2.906c-.6-.133-.538-.313-.213-.69,1.286-1.489,2.555-2.991,3.739-4.565,3.914-5.2,7.279-10.692,8.972-17.058a15.084,15.084,0,0,0,.348-7.586,6.81,6.81,0,0,0-3.727-4.8,12.28,12.28,0,0,0-7.9-.592,33.427,33.427,0,0,0-8.494,3.028A67.2,67.2,0,0,0,617.1,535.94c-.143.112-.263.356-.491.223-.187-.11-.177-.342-.178-.538-.01-1.774-.154-3.539-.292-5.3-.186-2.376-.494-4.738-.869-7.088-.313-1.961-.722-3.906-1.191-5.839a49.982,49.982,0,0,0-3.3-9.728c-1.418-2.984-3.05-5.827-5.848-7.762a6.133,6.133,0,0,0-6.507-.63,12.826,12.826,0,0,0-5.136,5.024,36.38,36.38,0,0,0-3.79,8.405,69.145,69.145,0,0,0-2.277,9.28c-.357,2-.657,4.007-.88,6.025-.283,2.564-.5,5.135-.55,7.716,0,.172.03.385-.153.473s-.309-.1-.443-.2c-.988-.76-1.955-1.548-2.966-2.275a57.377,57.377,0,0,0-10.966-6.392,26.488,26.488,0,0,0-10.116-2.39,7.685,7.685,0,0,0-2.35.337,7.272,7.272,0,0,0-3.293,1.682c-2.089,1.97-2.616,4.5-2.486,7.2a25.62,25.62,0,0,0,2.218,8.718,57.409,57.409,0,0,0,7.072,12.005c1.3,1.734,2.646,3.425,4.106,5.026.312.342.365.575-.208.695-.877.182-1.74.426-2.61.64a36.418,36.418,0,0,0-9.557,3.524,9.707,9.707,0,0,0-2.386,1.823,3,3,0,0,0-.3,4.161,5.75,5.75,0,0,0,1.381,1.39c3.3,2.376,7.141,3.421,10.988,4.437,2.176.575,4.392.978,6.608,1.375,1.85.332,3.705.623,5.568.86,2.187.279,4.38.519,6.574.743.593.06.552.237.309.678a39.421,39.421,0,0,0-2.9,6.307,12.573,12.573,0,0,0-.773,4.231c.029,1.975.882,3.162,2.5,3.538a7.267,7.267,0,0,0,3.192-.034,31,31,0,0,0,8.285-3.368,85.544,85.544,0,0,0,7.863-4.982.835.835,0,0,1,1.117.016c.744.536,1.517,1.03,2.285,1.532a50.233,50.233,0,0,0,11.621,5.979,10.743,10.743,0,0,0,4.9.64,3.2,3.2,0,0,0,2.78-2.935,13.234,13.234,0,0,0-1.213-6.1,43.186,43.186,0,0,0-2.411-4.952c-.244-.451-.12-.581.329-.616.719-.055,1.441-.1,2.154-.193,3.354-.452,6.715-.853,10.049-1.461a67.557,67.557,0,0,0,12.334-3.246,14.83,14.83,0,0,0,5.632-3.374A3.1,3.1,0,0,0,650.521,566.507Z" fill="#fff"></path><text id="No" transform="translate(601.131 562.321)" fill="#c1dc89" font-size="18.477" font-family="FuturaStd-Bold, Futura Std" font-weight="700"><tspan x="-14.255" y="0">No</tspan></text></g></svg>