<svg xmlns="http://www.w3.org/2000/svg" width="115.326" height="109.503" viewBox="0 0 115.326 109.503">
  <g id="Greencush_Yes" transform="translate(-239.263 -1042.796)">
    <path id="Path_79" data-name="Path 79" d="M6761.509,2967.822a16.292,16.292,0,0,0-5.492-3.431,61.9,61.9,0,0,0-11.021-3.319c-.686-.152-.615-.358-.243-.788,1.469-1.7,2.918-3.418,4.271-5.216,4.472-5.944,8.316-12.215,10.251-19.488a17.25,17.25,0,0,0,.4-8.666,7.784,7.784,0,0,0-4.259-5.488c-2.921-1.4-5.979-1.27-9.031-.677a38.2,38.2,0,0,0-9.7,3.46,76.859,76.859,0,0,0-13.346,8.69c-.163.129-.3.408-.561.255-.214-.125-.2-.39-.2-.615-.011-2.025-.175-4.043-.334-6.06-.212-2.715-.564-5.413-.992-8.1-.357-2.24-.825-4.462-1.361-6.67a57.059,57.059,0,0,0-3.768-11.115c-1.619-3.408-3.484-6.656-6.681-8.867a7.007,7.007,0,0,0-7.433-.72,14.646,14.646,0,0,0-5.868,5.74,41.583,41.583,0,0,0-4.331,9.6,79.09,79.09,0,0,0-2.6,10.6c-.407,2.286-.751,4.578-1.005,6.883-.323,2.929-.57,5.867-.628,8.816,0,.2.034.439-.175.54s-.354-.113-.507-.231c-1.128-.869-2.233-1.769-3.388-2.6a65.525,65.525,0,0,0-12.528-7.3,30.248,30.248,0,0,0-11.558-2.731,8.813,8.813,0,0,0-2.684.385,8.308,8.308,0,0,0-3.762,1.922c-2.387,2.25-2.989,5.141-2.84,8.221a29.222,29.222,0,0,0,2.534,9.96,65.574,65.574,0,0,0,8.079,13.715c1.481,1.982,3.023,3.914,4.691,5.742.357.391.417.658-.237.794-1,.208-1.989.487-2.983.732a41.6,41.6,0,0,0-10.918,4.026,11.085,11.085,0,0,0-2.726,2.082,3.428,3.428,0,0,0-.347,4.754,6.575,6.575,0,0,0,1.577,1.588c3.769,2.715,8.159,3.909,12.553,5.069,2.487.657,5.018,1.117,7.551,1.571,2.113.379,4.232.712,6.36.983,2.5.318,5.005.593,7.511.848.677.069.63.271.353.775a45.124,45.124,0,0,0-3.308,7.2,14.389,14.389,0,0,0-.882,4.834c.033,2.256,1.007,3.613,2.856,4.043a8.308,8.308,0,0,0,3.646-.039,35.393,35.393,0,0,0,9.465-3.848,97.4,97.4,0,0,0,8.984-5.693.954.954,0,0,1,1.276.019c.85.612,1.734,1.177,2.61,1.751a57.461,57.461,0,0,0,13.277,6.83,12.258,12.258,0,0,0,5.592.731,3.653,3.653,0,0,0,3.176-3.352,15.121,15.121,0,0,0-1.386-6.966,49.269,49.269,0,0,0-2.753-5.657c-.28-.515-.138-.664.376-.7.821-.063,1.645-.11,2.46-.221,3.832-.517,7.671-.975,11.481-1.669a77.157,77.157,0,0,0,14.091-3.709,16.933,16.933,0,0,0,6.434-3.855A3.544,3.544,0,0,0,6761.509,2967.822Z" transform="translate(-6408.158 -1847.462)" fill="#fd4042"/>
    <text id="Yes" transform="translate(299.423 1115.577)" fill="#c0f3f4" font-size="21.109" font-family="AktivGrotesk-XBold, Aktiv Grotesk XBold" font-weight="700"><tspan x="-18.08" y="0">Yes</tspan></text>
  </g>
</svg>
