<?xml version="1.0" encoding="utf-8"?>
<!-- Generator: Adobe Illustrator 25.3.1, SVG Export Plug-In . SVG Version: 6.00 Build 0)  -->
<svg version="1.1" id="Layer_1" xmlns="http://www.w3.org/2000/svg" xmlns:xlink="http://www.w3.org/1999/xlink" x="0px" y="0px"
	 viewBox="0 0 800 600" style="enable-background:new 0 0 800 600;" xml:space="preserve">
<style type="text/css">
	.st0{fill:#FFFFFF;}
</style>
<g>
	<g>
		<g>
			<path class="st0" d="M337.27,412.26l-2.24-2.65c-2.17,1.31-4.7,1.83-7.73,1.83c-9.04,0-15.57-6.42-15.57-15.53
				c0-8.51,7.47-14.49,15.57-14.49c8.77,0,15.57,5.94,15.57,15.08c0,3.73-1.27,6.98-3.62,9.89l4.74,4.82L337.27,412.26z
				 M333.95,400.69c0.86-1.19,1.31-2.73,1.31-4.14c0-4.22-3.51-8.03-7.92-8.03c-4.37,0-7.99,3.55-7.99,7.43
				c0,4.85,3.62,8.4,7.99,8.4c0.75,0,1.49-0.11,2.24-0.37l-4.52-4.48l6.91-0.86L333.95,400.69z"/>
			<path class="st0" d="M369.79,382.35v15.83c0,3.62-0.15,7.21-2.95,9.93c-2.35,2.32-6.05,3.14-9.33,3.14
				c-3.29,0-6.98-0.82-9.33-3.14c-2.8-2.73-2.95-6.31-2.95-9.93v-15.83h7.32v14.82c0,3.66,0.26,7.65,4.97,7.65s4.97-4,4.97-7.65
				v-14.82H369.79z"/>
			<path class="st0" d="M380.8,410.51h-7.32v-28.15h7.32V410.51z"/>
			<path class="st0" d="M404.8,391.8c-1.49-2.02-3.92-3.1-6.42-3.1c-4.48,0-7.5,3.44-7.5,7.8c0,4.44,3.06,7.65,7.62,7.65
				c2.39,0,4.78-1.16,6.31-2.99v8.77c-2.43,0.75-4.18,1.31-6.46,1.31c-3.92,0-7.65-1.49-10.57-4.14c-3.1-2.8-4.52-6.46-4.52-10.64
				c0-3.85,1.46-7.54,4.14-10.31c2.76-2.84,6.76-4.55,10.72-4.55c2.35,0,4.52,0.52,6.68,1.42V391.8z"/>
			<path class="st0" d="M424.66,382.35h9.07l-11.2,13.33l12.21,14.82h-9.48l-9.45-12.21h-0.07v12.21h-7.32v-28.15h7.32v11.61h0.07
				L424.66,382.35z"/>
			<path class="st0" d="M443.14,410.51h-7.32v-28.15h7.32V410.51z"/>
			<path class="st0" d="M454.34,388.55v4.71h8.25v6.2h-8.25v4.85h8.7v6.2h-16.02v-28.15h16.02v6.2H454.34z"/>
			<path class="st0" d="M482.12,389.6c-1.34-1.12-3.06-1.87-4.85-1.87c-1.34,0-3.14,0.78-3.14,2.35c0,1.64,1.98,2.28,3.25,2.69
				l1.87,0.56c3.92,1.16,6.95,3.14,6.95,7.69c0,2.8-0.67,5.68-2.91,7.58c-2.2,1.87-5.15,2.65-7.99,2.65c-3.55,0-7.02-1.2-9.89-3.21
				l3.14-5.9c1.83,1.61,4,2.91,6.5,2.91c1.72,0,3.55-0.86,3.55-2.84c0-2.05-2.88-2.76-4.44-3.21c-4.59-1.31-7.62-2.5-7.62-7.95
				c0-5.71,4.07-9.45,9.71-9.45c2.84,0,6.31,0.9,8.81,2.31L482.12,389.6z"/>
		</g>
		<g>
			<path class="st0" d="M517.77,366.66h-2.43v-7.28h-2v-2.05h6.43v2.05h-2V366.66z"/>
			<path class="st0" d="M521.38,357.32h2.39l1.89,4.99l2-4.99h2.41l1.41,9.33h-2.43l-0.68-5.37h-0.02l-2.24,5.37h-0.96l-2.14-5.37
				h-0.02l-0.78,5.37h-2.41L521.38,357.32z"/>
		</g>
		<g>
			<path class="st0" d="M322.14,345.71c-4.43,7.99-6.01,11.42-8.09,16.1c-0.03,0.07-0.01,0.16,0.06,0.2l0.09,0.03l0.11-0.04
				c5.61-5.4,12.96-8.77,20.7-9.51l0.13-0.09l-0.02-0.16c-3.09-4.21-0.62-12.65,2.73-19.17c0.82-1.59,1.52-2.96,1.95-3.93
				l14.64-32.29c0.07-0.16,0.05-0.36-0.06-0.51c-0.09-0.12-0.23-0.19-0.39-0.19l-0.09,0.01l-10.92,2.96
				c-0.23,0.04-0.39,0.24-0.4,0.47c-0.01,0.23,0.16,0.44,0.38,0.49c0.08,0.02,0.13,0.07,0.19,0.15c0.1,0.17,0.21,0.31,0.29,0.43
				c0.38,0.5,0.64,0.83,0.05,2.64l-0.02,0.12c-3.13,6.74-5.49,11.45-8.23,16.9l-0.03,0.06c-1.68,3.34-3.76,7.5-6.25,12.61
				c-1.98,3.98-3.04,5.9-6.2,11.59L322.14,345.71z M420,278.97c0.15-0.16,0.17-0.41,0.06-0.59c-0.09-0.16-0.25-0.24-0.41-0.24
				c-0.04,0-0.09,0.01-0.14,0.02c-3.24,1-6.83,1.84-10.99,2.58c-12.11,2.13-26.24,2.87-41.22,3.65c-3.73,0.19-7.58,0.39-11.39,0.62
				c-7.18,0.43-15.32,0.93-23.27,2.33c-8.79,1.55-15.94,3.99-21.87,7.46c-5.72,3.35-12.28,9.91-13.16,16.37
				c-0.42,3.09,0.47,5.84,2.55,7.94c2.31,2.32,5.89,3.6,10.1,3.6h0.17c1.09-0.01,2.22-0.11,3.34-0.29l0.38-0.07
				c9.33-1.65,20.25-8.88,22.36-18.13c0.04-0.17-0.02-0.34-0.14-0.47c-0.09-0.09-0.23-0.14-0.35-0.14c-0.04,0-0.08,0.01-0.11,0.02
				c-3.87,1.07-6.92,1.8-9.87,2.5c-1.52,0.37-3.05,0.73-4.67,1.14c-0.22,0.06-0.37,0.27-0.36,0.5c0.2,4.36-3.92,7.72-8.02,8.45
				c-0.53,0.09-1.04,0.14-1.54,0.14c-1.4,0-2.64-0.37-3.54-1.08c-2-1.62-2.44-4.8-1.1-8.12c1.97-4.75,6.82-8.57,13.65-10.74
				c2.49-0.81,5.28-1.49,8.31-2.02c6.13-1.08,13.2-1.62,22.24-1.69c0.71-0.01,1.43-0.01,2.14-0.01c6.45,0,13.09,0.22,19.53,0.43
				c6.23,0.21,12.15,0.4,17.71,0.4c0.59,0,1.19,0,1.78-0.01c5.31-0.04,9.68-0.29,13.34-0.75c0.11-0.01,0.21-0.07,0.26-0.11
				C408.2,290.71,414.23,285.25,420,278.97 M507.23,267.06c-0.58,4.13-5.92,9.39-10.7,12.08c2.19-4.64,7.25-12.9,9.66-13.61
				l0.08-0.02c0.07-0.01,0.13-0.02,0.19-0.02h0.01c0.21,0,0.36,0.06,0.49,0.18C507.22,265.93,507.32,266.47,507.23,267.06
				 M476.15,304.22l-0.12,0.35c-1.84,3.94-3.7,8.02-5.42,11.83c-0.03,0.04-0.08,0.12-0.1,0.21c-1.98,2.27-4.09,3.69-5.95,4.02
				c-0.28,0.05-0.56,0.07-0.82,0.07c-0.97,0-1.78-0.36-2.35-1.05c-1.33-1.62-1.38-4.79-0.11-8.49c2.03-6.06,7-11.4,11.29-12.16
				c0.29-0.06,0.57-0.08,0.82-0.08h0.03c0.78,0,1.4,0.23,1.85,0.68C476.13,300.44,476.43,302.06,476.15,304.22 M430.5,314.76
				c1.26-4.38,4.77-9.31,9.16-10.44c0.22-0.04,0.47-0.08,0.67-0.08h0.11c0.49,0.02,0.77,0.27,0.91,0.47
				c0.19,0.28,0.23,0.58,0.18,0.74C440.03,310.79,433.78,314.07,430.5,314.76 M401.61,323.28c0.72-2.3,2.35-5.39,4.23-7.96
				c2.34-3.21,4.76-5.27,6.81-5.8c0.22-0.04,0.47-0.08,0.66-0.08l0.11,0.01c0.34,0.01,0.61,0.13,0.79,0.36
				c0.24,0.28,0.31,0.68,0.28,0.97C414.29,315.89,405.39,322.15,401.61,323.28 M513.2,262.21c-0.97-1.1-2.46-1.69-4.29-1.69h-0.07
				c-0.63,0.01-1.3,0.08-1.99,0.22c-9.43,1.95-15.12,10.75-19.84,19.99l-0.67-0.02c-0.8-0.02-1.63-0.03-2.48-0.09
				c-2.2-0.08-4.35-0.13-6.38-0.13c-0.37,0-0.73,0.01-1.09,0.01c-5.98,0.05-11.19,0.48-15.93,1.32c-9.08,1.6-17.58,6.27-22.1,9.78
				c-0.19,0.14-0.24,0.41-0.13,0.62c0.08,0.16,0.24,0.26,0.42,0.26c0.06,0,0.11-0.01,0.17-0.03c1.19-0.44,2.35-0.75,3.54-0.94
				c0.35-0.06,0.77-0.08,1.24-0.08c2.76,0,7.15,1.04,8.18,3.93c0.06,0.16,0.19,0.28,0.36,0.32c0.03,0.01,0.07,0.01,0.09,0.01
				c0.14,0,0.27-0.06,0.36-0.16c3.3-3.66,9.85-8.01,15.07-8.93c3.66-0.65,7.72-0.99,11.69-0.99c0.21,0,0.42,0,0.64,0
				c0.54,0.01,1.07,0.01,1.6,0.01c0.62,0,1.23-0.01,1.85-0.01c0.38-0.01,0.76-0.01,1.13-0.01c-1.63,3.68-3.02,6.8-4.37,9.75
				c-1.57-2.52-4.09-3.89-7.12-3.89H473c-0.61,0.01-1.23,0.07-1.87,0.18c-7.89,1.39-16.3,10.65-18.72,20.64
				c-0.17,0.69-0.31,1.4-0.42,2.12c-2.11,4.02-9.23,10.77-15.2,11.82c-0.62,0.11-1.22,0.16-1.79,0.16c-1.26,0-2.38-0.26-3.33-0.79
				c-0.98-0.57-1.68-2.24-2-3.57c8.86-2.03,15.33-8.03,18.45-13.01c2.07-3.3,1.85-5.27,1.37-7.51c-0.64-3.04-2.89-4.7-6.37-4.7
				h-0.09c-0.63,0.01-1.3,0.07-2.01,0.18c-4.26,0.62-8.68,3.16-12.43,7.17c-3.47,3.7-6.07,8.34-7.15,12.71
				c-0.69,2.86-0.83,5.45-0.4,7.7c-2.85,2.98-7.86,6.73-12.7,7.58c-0.63,0.11-1.23,0.17-1.8,0.17c-1.25,0-2.38-0.27-3.33-0.79
				c-1-0.59-1.64-1.47-1.95-2.68c8.86-2.03,15.33-8.04,18.45-13.01c2.04-3.25,2.92-6.42,2.42-8.7c-0.64-3.03-2.9-4.7-6.37-4.7
				c-0.03,0-0.06,0-0.09,0c-0.63,0.01-1.3,0.07-2.01,0.18c-0.13,0.02-0.26,0.04-0.39,0.06c-3.57,0.63-7.35,2.74-10.91,6.07
				c-2.28,1.66-4.73,3.29-7.49,4.96c-0.04-3.45-1.14-5.17-2.08-6.02c-0.81-0.72-1.82-1.1-2.92-1.1c-0.28,0-0.57,0.03-0.86,0.08
				c-2.25,0.4-4.28,2.2-5.16,4.6c-0.61,1.63-1.17,4.96,1.78,8.98c-5,9.24-13.64,16.98-16.4,18.65c-0.13,0.07-0.26,0.11-0.38,0.13
				c-0.07,0.01-0.14,0.02-0.21,0.02c-0.39,0-0.77-0.19-1.01-0.52c-0.34-0.47-0.36-1.1-0.06-1.74l0.99-2.37
				c3.35-7.98,6.8-16.23,10.57-25.12c0.07-0.17,0.04-0.36-0.06-0.5c-0.09-0.12-0.22-0.19-0.37-0.19c-0.03,0-0.07,0-0.1,0.01
				l-10.59,2.28l-0.11,0.09l0.01,0.14c0.28,0.55,0.37,2.7,0.06,3.61c-1.09,2.58-2.19,5.18-3.3,7.8c-1.93,4.55-3.92,9.24-5.82,13.83
				c-2.96,2.04-4.16,2.81-7.43,4.69c-0.19,0.11-0.37,0.17-0.53,0.2l-0.16,0.02c-0.15,0-0.25-0.04-0.31-0.12
				c-0.13-0.18-0.14-0.63,0.22-1.38l1.07-2.55c3.51-8.39,6.83-16.32,10.49-24.95c0.07-0.17,0.04-0.36-0.07-0.5
				c-0.09-0.12-0.24-0.19-0.39-0.19c-0.02,0-0.05,0-0.08,0.01l-11.66,2.06c-0.22,0.04-0.39,0.24-0.4,0.47
				c-0.01,0.23,0.15,0.43,0.37,0.49c0.53,0.14,0.9,0.42,1.12,0.84c0.29,0.58,0.27,1.41-0.06,2.27c-1.21,2.89-2.43,5.75-3.64,8.62
				l-0.3,0.71c-1.79,4.23-3.65,8.61-5.47,12.99c-1.19,3.25-1.04,6.15,0.41,7.94c0.89,1.09,2.22,1.68,3.7,1.68
				c0.33,0,0.67-0.03,1.02-0.09c1.02-0.18,2.06-0.61,3.08-1.29c3.02-2.02,6.01-4.19,8.45-6.15c0.31,1.13,0.95,2.1,1.87,2.8
				c1.01,0.77,2.32,1.17,3.75,1.17c0.47,0,0.94-0.04,1.42-0.13c0.89-0.16,1.79-0.44,2.67-0.86c4.7-1.68,16.42-11.28,25.34-24.25
				c0.28-0.18,0.57-0.38,0.86-0.58c-0.51,1.2-0.9,2.34-1.15,3.4c-1.3,5.38-0.67,9.69,1.84,12.46c1.79,1.97,4.45,3.01,7.71,3.01h0.13
				c0.94-0.01,1.93-0.11,2.94-0.28c0.86-0.15,1.74-0.37,2.65-0.63c5.32-1.62,11.1-5.43,14.47-9.53c0.15,0.21,0.31,0.43,0.49,0.62
				c2.22,2.44,5.56,3.89,8.97,3.89h0.09c0.68-0.01,1.37-0.07,2.04-0.19c0.86-0.15,1.75-0.37,2.65-0.63
				c5.87-1.78,11.91-7.13,15-11.62c0.41,2.07,1.22,3.78,2.41,5.09c1.56,1.72,3.7,2.63,6.18,2.63h0.08c0.59-0.01,1.21-0.06,1.84-0.17
				c2.61-0.46,5.44-1.86,8.16-4.05c0.92,1.19,2.33,1.84,4,1.84h0.05c0.37,0,0.76-0.04,1.14-0.11c1.09-0.19,2.19-0.63,3.28-1.3
				c0.74-0.47,1.36-0.86,1.9-1.19c2.25-1.41,3-1.88,4.44-3.21c0.41-0.23,0.82-0.34,1.21-0.34c0.55,0,1.04,0.22,1.4,0.66
				c0.73,0.88,0.82,2.38,0.24,4.03c-1.99,7.41-10.39,10.22-25.2,12.84c-0.93,0.17-1.85,0.32-2.73,0.45
				c-10.49,1.67-21.57,2.76-32.28,3.81l-0.07,0.01c-5.66,0.56-11.51,1.13-17.2,1.78c-12.66,1.43-25.76,2.92-36.75,4.86
				c-10.22,1.8-17.79,3.4-23.95,5.77c-0.06,0.02-0.11,0.08-0.11,0.15c0,0.07,0.04,0.13,0.11,0.15c6.61,2.43,12.27,6.76,16.36,12.54
				l0.12,0.07h0.02l0.12-0.05c7.45-7.71,43.28-14.72,58.34-17.38c3.93-0.69,7.82-1.36,12.14-2.1l0.42-0.07
				c3.66-0.63,7.24-1.24,10.67-1.85c9.54-1.68,15.62-2.9,20.34-4.08c5.95-1.48,12.15-3.31,17.15-6.71
				c0.11-0.08,11.48-8.33,7.22-17.08c-0.81-1.65-2.94-2.37-3.58-2.55c-0.52-0.14-1.09-0.22-1.7-0.22c-0.51,0-1.04,0.05-1.59,0.15
				c-2.67,0.47-3.98,1.23-5.2,2.28c-0.28,0.15-0.57,0.23-0.79,0.23c-0.16,0-0.28-0.04-0.34-0.12c-0.12-0.16-0.12-0.61,0.27-1.34
				c1.7-3.72,3.41-7.43,5.13-11.14l0.49-1.06c2.71-5.85,5.77-12.48,8.72-19c7.76-2.96,17.99-11.23,19.62-17.51
				C514.65,265.4,514.33,263.49,513.2,262.21"/>
		</g>
	</g>
</g>
<g>
	<path class="st0" d="M172.88,242.15h-7.84v-23.52h-6.48V212h20.8v6.64h-6.48V242.15z"/>
	<path class="st0" d="M188.61,208.96v15.28h0.08c1.68-2.24,3.72-3.28,6.56-3.28c5.2,0,7.72,3.44,7.72,8.64v12.56h-7.28v-10.52
		c0-2.4-0.36-4.88-3.28-4.88c-2.88,0-3.8,2.48-3.8,4.88v10.52h-7.28v-33.19H188.61z"/>
	<path class="st0" d="M229.75,242.15h-7.28v-2.28h-0.08c-1.28,2.04-3.8,2.96-6.2,2.96c-6.08,0-10.36-5.08-10.36-10.96
		s4.2-10.92,10.28-10.92c2.36,0,4.84,0.88,6.36,2.68v-2h7.28V242.15z M213.35,231.92c0,2.6,1.72,4.6,4.68,4.6s4.68-2,4.68-4.6
		c0-2.52-1.72-4.64-4.68-4.64S213.35,229.4,213.35,231.92z"/>
	<path class="st0" d="M241.3,224.28h0.08c1.68-2.48,3.72-3.32,6.56-3.32c5.52,0,7.72,3.48,7.72,8.52v12.68h-7.28v-10
		c0-1.96,0.32-5.4-3.28-5.4c-2.96,0-3.8,2.2-3.8,4.76v10.64h-7.28v-20.52h7.28V224.28z"/>
	<path class="st0" d="M267.15,229.04l7.56-7.4h9.96l-10.28,9.48l10.92,11.04h-10.2l-7.96-8.36v8.36h-7.28v-33.19h7.28V229.04z"/>
	<path class="st0" d="M298.11,221.64h8.4l5.48,10.52l5.36-10.52h8.28l-16.44,30.75h-8.16l7-13.04L298.11,221.64z"/>
	<path class="st0" d="M349.18,231.92c0,6.96-5.76,10.92-12.36,10.92c-6.56,0-12.36-3.92-12.36-10.92s5.76-10.96,12.36-10.96
		C343.42,220.96,349.18,224.92,349.18,231.92z M332.15,231.92c0,2.6,1.72,4.6,4.68,4.6s4.68-2,4.68-4.6c0-2.52-1.72-4.64-4.68-4.64
		S332.15,229.4,332.15,231.92z"/>
	<path class="st0" d="M359.17,221.64v10.96c0,2.6,0.64,4.44,3.64,4.44s3.64-1.84,3.64-4.44v-10.96h7.28V234
		c0,6.76-4.76,8.84-10.92,8.84s-10.92-2.08-10.92-8.84v-12.36H359.17z"/>
	<path class="st0" d="M400.09,242.15h-7.28v-14.52h-2.56v-6h2.56v-2.6c0-2.84,0.08-4.92,2.08-7.2c1.8-2.12,4.4-3.28,7.16-3.28
		c1.12,0,2.12,0.2,3.12,0.72v6.28c-0.84-0.36-1.6-0.68-2.56-0.68c-1.88,0-2.52,1.12-2.52,3.44v3.32h5.08v6h-5.08V242.15z"/>
	<path class="st0" d="M430.62,231.92c0,6.96-5.76,10.92-12.36,10.92c-6.56,0-12.36-3.92-12.36-10.92s5.76-10.96,12.36-10.96
		C424.86,220.96,430.62,224.92,430.62,231.92z M413.58,231.92c0,2.6,1.72,4.6,4.68,4.6c2.96,0,4.68-2,4.68-4.6
		c0-2.52-1.72-4.64-4.68-4.64C415.3,227.28,413.58,229.4,413.58,231.92z"/>
	<path class="st0" d="M440.82,225h0.08c1.4-2.52,3.8-3.64,6.64-3.64h1.4v7c-1-0.56-1.96-0.68-3.08-0.68c-4.04,0-5.04,2.68-5.04,6.2
		v8.28h-7.28v-20.52h7.28V225z"/>
	<path class="st0" d="M480.17,228.32c-1.08-0.8-2.36-1.44-3.76-1.44c-2.8,0-5,2.16-5,5c0,2.96,2.12,5.04,5.12,5.04
		c1.28,0,2.68-0.52,3.64-1.4v6.16c-1.6,0.8-3.36,1.16-5.12,1.16c-6.08,0-11.16-4.52-11.16-10.72c0-6.6,5.04-11.16,11.48-11.16
		c1.68,0,3.36,0.4,4.8,1.2V228.32z"/>
	<path class="st0" d="M491.47,208.96v15.28h0.08c1.68-2.24,3.72-3.28,6.56-3.28c5.2,0,7.72,3.44,7.72,8.64v12.56h-7.28v-10.52
		c0-2.4-0.36-4.88-3.28-4.88c-2.88,0-3.8,2.48-3.8,4.88v10.52h-7.28v-33.19H491.47z"/>
	<path class="st0" d="M533.31,231.92c0,6.96-5.76,10.92-12.36,10.92c-6.56,0-12.36-3.92-12.36-10.92s5.76-10.96,12.36-10.96
		C527.55,220.96,533.31,224.92,533.31,231.92z M516.27,231.92c0,2.6,1.72,4.6,4.68,4.6c2.96,0,4.68-2,4.68-4.6
		c0-2.52-1.72-4.64-4.68-4.64C517.99,227.28,516.27,229.4,516.27,231.92z"/>
	<path class="st0" d="M559.52,231.92c0,6.96-5.76,10.92-12.36,10.92c-6.56,0-12.36-3.92-12.36-10.92s5.76-10.96,12.36-10.96
		C553.76,220.96,559.52,224.92,559.52,231.92z M542.48,231.92c0,2.6,1.72,4.6,4.68,4.6c2.96,0,4.68-2,4.68-4.6
		c0-2.52-1.72-4.64-4.68-4.64C544.2,227.28,542.48,229.4,542.48,231.92z"/>
	<path class="st0" d="M575.42,226.92c-1.12-0.6-2.68-1-3.92-1c-0.84,0-2.28,0.36-2.28,1.4c0,1.4,2.28,1.6,3.28,1.8
		c3.4,0.68,5.96,2.28,5.96,6.08c0,5.4-4.92,7.64-9.68,7.64c-2.92,0-5.8-0.84-8.28-2.36l2.64-5.08c1.48,1.04,3.96,2.08,5.76,2.08
		c0.92,0,2.28-0.44,2.28-1.56c0-1.6-2.28-1.68-4.56-2.28s-4.56-1.72-4.56-5.4c0-5.04,4.56-7.28,9.04-7.28
		c2.32,0,4.64,0.36,6.76,1.32L575.42,226.92z"/>
	<path class="st0" d="M589.29,213.76c0,2.24-1.84,4.08-4.08,4.08c-2.24,0-4.08-1.84-4.08-4.08c0-2.24,1.84-4.08,4.08-4.08
		C587.45,209.68,589.29,211.52,589.29,213.76z M588.85,242.15h-7.28v-20.52h7.28V242.15z"/>
	<path class="st0" d="M600.34,224.28h0.08c1.68-2.48,3.72-3.32,6.56-3.32c5.52,0,7.72,3.48,7.72,8.52v12.68h-7.28v-10
		c0-1.96,0.32-5.4-3.28-5.4c-2.96,0-3.8,2.2-3.8,4.76v10.64h-7.28v-20.52h7.28V224.28z"/>
	<path class="st0" d="M641.51,240.15c0,8.72-4.32,12.24-11.88,12.24c-4.72,0-11.04-2.44-11.68-7.84h8.16
		c0.2,0.72,0.72,1.24,1.36,1.56c0.64,0.32,1.4,0.48,2.08,0.48c3.92,0,4.68-2.56,4.68-5.88v-0.96c-1.88,1.88-3.8,2.8-6.52,2.8
		c-6,0-10.12-4.56-10.12-10.48c0-6,4.24-11.12,10.52-11.12c2.4,0,4.6,0.8,6.04,2.84h0.08v-2.16h7.28V240.15z M625.12,231.76
		c0,2.6,1.72,4.6,4.68,4.6c2.96,0,4.68-2,4.68-4.6c0-2.52-1.72-4.64-4.68-4.64C626.84,227.12,625.12,229.24,625.12,231.76z"/>
</g>
</svg>
