<svg xmlns="http://www.w3.org/2000/svg" width="207.07" height="140.014" viewBox="0 0 207.07 140.014"><g id="Group_297" data-name="Group 297" transform="translate(-647.995 -1215.817)"><g id="Group_242" data-name="Group 242"><g id="Group_241" data-name="Group 241"><path id="Path_129" data-name="Path 129" d="M662.61,1270.086c8.2-1.448,17.778-7.8,19.625-15.916a.423.423,0,0,0-.119-.405.434.434,0,0,0-.406-.109c-3.4.934-6.073,1.576-8.662,2.2-1.34.324-2.675.644-4.1,1a.425.425,0,0,0-.32.435c.178,3.834-3.437,6.782-7.035,7.417a5.6,5.6,0,0,1-4.453-.825c-1.759-1.418-2.141-4.216-.973-7.125,1.734-4.169,5.989-7.518,11.986-9.433a54.8,54.8,0,0,1,7.294-1.77,117.611,117.611,0,0,1,19.52-1.486c6.242-.052,12.738.162,19.021.371,6.054.2,11.77.386,17.1.343a101.734,101.734,0,0,0,11.713-.659.4.4,0,0,0,.22-.089,136.392,136.392,0,0,0,12.5-12.024.444.444,0,0,0,.051-.525.419.419,0,0,0-.486-.185,80.293,80.293,0,0,1-9.65,2.256c-10.627,1.877-23.039,2.523-36.18,3.2-3.27.171-6.652.346-10,.544a180.54,180.54,0,0,0-20.427,2.047c-7.711,1.363-13.99,3.5-19.193,6.548-5.025,2.943-10.783,8.694-11.557,14.369a8.019,8.019,0,0,0,2.243,6.97c2.054,2.064,5.255,3.184,9.015,3.156a19.512,19.512,0,0,0,2.937-.254Z"></path><path id="Path_130" data-name="Path 130" d="M697.928,1247.268a.419.419,0,0,0-.341-.17.449.449,0,0,0-.081.008l-9.58,2.6a.425.425,0,0,0-.35.414.436.436,0,0,0,.329.43.25.25,0,0,1,.164.132,4.291,4.291,0,0,0,.262.374c.335.439.557.729.045,2.314l-.019.1c-2.74,5.918-4.818,10.051-7.221,14.837l-.028.053c-1.471,2.932-3.3,6.579-5.489,11.066-1.734,3.5-2.668,5.178-5.439,10.173l-.554,1a151.4,151.4,0,0,0-7.106,14.133.146.146,0,0,0,.049.173.145.145,0,0,0,.081.025.141.141,0,0,0,.1-.038,30.429,30.429,0,0,1,18.166-8.345.138.138,0,0,0,.115-.083.134.134,0,0,0-.015-.141c-2.71-3.694-.546-11.1,2.4-16.822.717-1.4,1.338-2.6,1.715-3.446l12.849-28.343a.431.431,0,0,0-.047-.442"></path><path id="Path_131" data-name="Path 131" d="M739.379,1270.909a26.511,26.511,0,0,1,3.713-6.984c2.053-2.817,4.182-4.628,5.977-5.091a3.684,3.684,0,0,1,.583-.074.633.633,0,0,1,.1,0,.923.923,0,0,1,.7.315,1.187,1.187,0,0,1,.243.845c-.183,4.495-7.993,9.993-11.311,10.987m25.359-7.481c1.105-3.841,4.184-8.168,8.04-9.162a4.145,4.145,0,0,1,.589-.075c.029,0,.057,0,.089.005a.978.978,0,0,1,.8.407.841.841,0,0,1,.162.653c-1.312,4.681-6.8,7.566-9.678,8.172m40.072-9.247-.113.3c-1.616,3.461-3.241,7.033-4.76,10.379a.719.719,0,0,0-.089.188,9.952,9.952,0,0,1-5.221,3.523,2.765,2.765,0,0,1-2.779-.853c-1.171-1.416-1.207-4.2-.094-7.458,1.789-5.321,6.142-10.01,9.908-10.674a4.227,4.227,0,0,1,.723-.072,2.225,2.225,0,0,1,1.655.595c.751.744,1.015,2.162.77,4.067m27.275-32.627c-.508,3.627-5.2,8.24-9.393,10.6,1.92-4.071,6.36-11.322,8.478-11.945l.074-.017a1.177,1.177,0,0,1,.175-.015.574.574,0,0,1,.433.164,1.469,1.469,0,0,1,.233,1.214m5.246-4.253a4.856,4.856,0,0,0-3.83-1.484,9.329,9.329,0,0,0-1.751.194c-8.277,1.708-13.267,9.432-17.42,17.547l-.582-.013c-.7-.017-1.429-.029-2.177-.076-2.282-.092-4.494-.128-6.565-.113a84.561,84.561,0,0,0-13.988,1.153,47.757,47.757,0,0,0-19.394,8.58.431.431,0,0,0-.111.548.411.411,0,0,0,.521.2,15.8,15.8,0,0,1,3.107-.821c2.135-.339,7.213.41,8.27,3.374a.432.432,0,0,0,.316.28.423.423,0,0,0,.4-.131c2.9-3.22,8.643-7.031,13.23-7.841a60.072,60.072,0,0,1,10.824-.866c1.028.013,2.017.008,3.026,0l.992-.006c-1.429,3.235-2.653,5.969-3.837,8.566a7.113,7.113,0,0,0-6.321-3.416,9.887,9.887,0,0,0-1.636.153c-6.931,1.227-14.3,9.354-16.434,18.121-.149.606-.273,1.231-.371,1.86-1.849,3.53-8.1,9.45-13.338,10.375a6.754,6.754,0,0,1-4.5-.552,5.383,5.383,0,0,1-1.756-3.135,26.79,26.79,0,0,0,16.2-11.42,7.557,7.557,0,0,0,1.2-6.588c-.56-2.687-2.574-4.152-5.666-4.129a12.594,12.594,0,0,0-1.766.156c-3.74.542-7.615,2.775-10.908,6.291a26.008,26.008,0,0,0-6.272,11.158,16.119,16.119,0,0,0-.356,6.759c-2.5,2.616-6.891,5.909-11.144,6.658a6.718,6.718,0,0,1-4.495-.551,3.63,3.63,0,0,1-1.713-2.356,26.813,26.813,0,0,0,16.2-11.422c1.787-2.85,2.563-5.635,2.122-7.637-.561-2.685-2.574-4.151-5.665-4.125a12.117,12.117,0,0,0-1.766.151l-.347.058a19.507,19.507,0,0,0-9.571,5.327c-2,1.455-4.157,2.882-6.577,4.357-.035-3.03-1.007-4.546-1.83-5.289a3.856,3.856,0,0,0-3.312-.9,6.207,6.207,0,0,0-4.528,4.039c-.529,1.434-1.026,4.357,1.561,7.881-4.393,8.116-11.972,14.909-14.4,16.376a1.2,1.2,0,0,1-.335.111,1.074,1.074,0,0,1-1.071-.444,1.458,1.458,0,0,1-.049-1.529l.873-2.077c2.934-7.006,5.969-14.25,9.272-22.056a.437.437,0,0,0-.055-.437.406.406,0,0,0-.414-.158l-9.292,2a.142.142,0,0,0-.1.081.136.136,0,0,0,0,.124,6.427,6.427,0,0,1,.056,3.173q-1.434,3.4-2.9,6.843c-1.693,3.989-3.444,8.111-5.105,12.137a74.454,74.454,0,0,1-6.526,4.114,1.458,1.458,0,0,1-.465.177.737.737,0,0,1-.134.013.313.313,0,0,1-.271-.1c-.113-.154-.122-.551.2-1.21l.936-2.235c3.084-7.364,6-14.32,9.2-21.9a.433.433,0,0,0-.463-.6L694.1,1262.43a.425.425,0,0,0-.349.409.435.435,0,0,0,.317.433,1.454,1.454,0,0,1,.979.734,2.562,2.562,0,0,1-.047,2q-1.593,3.793-3.194,7.558l-.265.627c-1.578,3.711-3.205,7.552-4.8,11.4-1.048,2.852-.915,5.394.362,6.972a4.246,4.246,0,0,0,4.142,1.4,7.211,7.211,0,0,0,2.71-1.132c2.647-1.768,5.27-3.679,7.413-5.4a4.571,4.571,0,0,0,1.642,2.455,5.788,5.788,0,0,0,4.541.917,9.487,9.487,0,0,0,2.342-.757c4.124-1.474,14.414-9.9,22.245-21.28.243-.162.493-.332.747-.507a19.528,19.528,0,0,0-1.013,2.983c-1.148,4.722-.589,8.5,1.618,10.932a8.866,8.866,0,0,0,6.88,2.64,15.7,15.7,0,0,0,2.585-.245,20.519,20.519,0,0,0,2.322-.559,28.477,28.477,0,0,0,12.707-8.362,5.759,5.759,0,0,0,.43.55,10.754,10.754,0,0,0,7.955,3.415,11,11,0,0,0,1.787-.164,21.346,21.346,0,0,0,2.321-.559c5.15-1.566,10.458-6.257,13.169-10.2a9.206,9.206,0,0,0,2.113,4.463,7.124,7.124,0,0,0,5.5,2.308,9.771,9.771,0,0,0,1.61-.152,16.4,16.4,0,0,0,7.168-3.553,4.28,4.28,0,0,0,3.551,1.617,6.22,6.22,0,0,0,1-.094,8.21,8.21,0,0,0,2.877-1.145c.651-.414,1.2-.757,1.672-1.051a21.079,21.079,0,0,0,3.9-2.818,1.739,1.739,0,0,1,2.293.278,3.723,3.723,0,0,1,.213,3.531c-1.749,6.5-9.124,8.974-22.122,11.269-.819.143-1.627.277-2.4.4-9.211,1.463-18.934,2.418-28.334,3.344l-.056.006c-4.969.486-10.106.99-15.1,1.565-11.115,1.261-22.61,2.562-32.26,4.266-8.972,1.584-15.622,2.981-21.026,5.06a.143.143,0,0,0-.092.133.146.146,0,0,0,.094.132,30.332,30.332,0,0,1,14.361,11.006.122.122,0,0,0,.1.058h.012a.137.137,0,0,0,.1-.041c6.545-6.764,37.99-12.921,51.206-15.25,3.447-.612,6.863-1.2,10.651-1.847l.367-.062c3.214-.55,6.353-1.09,9.364-1.621,8.373-1.478,13.713-2.548,17.852-3.576,5.23-1.3,10.67-2.909,15.055-5.893.1-.068,10.072-7.317,6.336-15a5.163,5.163,0,0,0-3.142-2.24,6.6,6.6,0,0,0-2.9-.061,8.483,8.483,0,0,0-4.568,2c-.418.224-.87.26-.989.094-.1-.143-.1-.539.236-1.183q2.242-4.895,4.5-9.779l.431-.929c2.374-5.136,5.065-10.956,7.652-16.68,6.8-2.6,15.79-9.857,17.219-15.363a4.865,4.865,0,0,0-.774-4.592"></path><text id="QUICKIES" transform="translate(659.502 1347.83)" font-size="31.681" font-family="Futura-Bold, Futura" font-weight="700"><tspan x="0" y="0">QUICKIES</tspan></text></g><text id="TM" transform="translate(846.065 1308.813)" font-size="10.835" font-family="FuturaStd-Bold, Futura Std" font-weight="700"><tspan x="-8.213" y="0">TM</tspan></text></g></g></svg>