<svg xmlns="http://www.w3.org/2000/svg" width="147.96" height="96.887" viewBox="0 0 147.96 96.887">
  <g id="Tweed_Logo_Blue" data-name="Tweed Logo Blue" transform="translate(-3016.683 -86.533)">
    <g id="Group_111" data-name="Group 111">
      <path id="Path_68" data-name="Path 68" d="M3027.2,125.575c5.9-1.042,12.789-5.61,14.118-11.45a.3.3,0,0,0-.086-.292.311.311,0,0,0-.292-.078c-2.442.672-4.369,1.134-6.232,1.58-.963.233-1.924.463-2.951.721a.307.307,0,0,0-.231.313c.128,2.759-2.473,4.879-5.061,5.336a4.025,4.025,0,0,1-3.2-.594c-1.266-1.02-1.541-3.033-.7-5.125,1.247-3,4.308-5.409,8.622-6.786a39.549,39.549,0,0,1,5.247-1.274,84.633,84.633,0,0,1,14.043-1.069c4.491-.037,9.164.117,13.684.267,4.356.143,8.467.278,12.3.247a73.4,73.4,0,0,0,8.426-.474.283.283,0,0,0,.158-.065,97.941,97.941,0,0,0,8.994-8.65.318.318,0,0,0,.037-.377.3.3,0,0,0-.35-.133,57.854,57.854,0,0,1-6.942,1.623c-7.645,1.35-16.575,1.815-26.029,2.306-2.352.122-4.785.248-7.19.391a129.757,129.757,0,0,0-14.7,1.473,41.176,41.176,0,0,0-13.808,4.71c-3.615,2.117-7.757,6.255-8.314,10.337a5.763,5.763,0,0,0,1.614,5.014,8.917,8.917,0,0,0,6.485,2.271,14.083,14.083,0,0,0,2.113-.183Z" fill="#2d64ba"/>
      <path id="Path_69" data-name="Path 69" d="M3052.6,109.159a.3.3,0,0,0-.246-.122.264.264,0,0,0-.058.006l-6.892,1.869a.3.3,0,0,0-.252.3.313.313,0,0,0,.237.31.178.178,0,0,1,.118.1,2.752,2.752,0,0,0,.189.269c.24.316.4.524.032,1.664l-.014.074c-1.972,4.258-3.466,7.231-5.2,10.674l-.02.038c-1.058,2.11-2.376,4.733-3.949,7.961-1.247,2.515-1.919,3.725-3.912,7.318l-.4.718a108.644,108.644,0,0,0-5.112,10.168.1.1,0,0,0,.035.124.107.107,0,0,0,.058.018.1.1,0,0,0,.071-.027,21.9,21.9,0,0,1,13.069-6,.1.1,0,0,0,.082-.06.1.1,0,0,0-.01-.1c-1.95-2.657-.393-7.985,1.724-12.1.516-1,.962-1.872,1.234-2.479l9.243-20.39a.31.31,0,0,0-.033-.318" fill="#2d64ba"/>
      <path id="Path_70" data-name="Path 70" d="M3082.424,126.167a19.1,19.1,0,0,1,2.671-5.025c1.478-2.026,3.009-3.329,4.3-3.662a2.69,2.69,0,0,1,.418-.054.553.553,0,0,1,.069,0,.662.662,0,0,1,.5.227.857.857,0,0,1,.175.608c-.132,3.234-5.751,7.189-8.138,7.9m18.244-5.382c.794-2.763,3.01-5.876,5.784-6.591a2.869,2.869,0,0,1,.423-.054c.022,0,.041,0,.064,0a.7.7,0,0,1,.574.293.6.6,0,0,1,.117.47c-.944,3.367-4.891,5.443-6.962,5.879m28.828-6.653-.082.22c-1.163,2.49-2.332,5.06-3.424,7.467a.519.519,0,0,0-.064.135,7.153,7.153,0,0,1-3.756,2.534,1.987,1.987,0,0,1-2-.613c-.843-1.019-.869-3.024-.068-5.365,1.287-3.828,4.419-7.2,7.128-7.679a2.983,2.983,0,0,1,.52-.052,1.6,1.6,0,0,1,1.191.428,3.507,3.507,0,0,1,.554,2.925m19.621-23.472c-.365,2.61-3.738,5.929-6.757,7.625,1.381-2.928,4.575-8.145,6.1-8.593l.053-.012a.919.919,0,0,1,.126-.011.415.415,0,0,1,.312.118,1.056,1.056,0,0,1,.167.873m3.774-3.059a3.5,3.5,0,0,0-2.755-1.068,6.8,6.8,0,0,0-1.26.14c-5.954,1.229-9.544,6.786-12.532,12.623l-.418-.009c-.505-.012-1.028-.021-1.567-.055-1.641-.066-3.232-.092-4.722-.081a60.691,60.691,0,0,0-10.063.83,34.334,34.334,0,0,0-13.952,6.172.308.308,0,0,0-.08.394.3.3,0,0,0,.374.143,11.408,11.408,0,0,1,2.236-.591c1.535-.244,5.188.295,5.949,2.427a.309.309,0,0,0,.227.2.3.3,0,0,0,.286-.093c2.088-2.317,6.218-5.059,9.518-5.642a43.26,43.26,0,0,1,7.786-.623c.74.01,1.452.007,2.177,0l.714-.005c-1.028,2.328-1.909,4.3-2.76,6.163a5.117,5.117,0,0,0-4.548-2.457,7.075,7.075,0,0,0-1.177.11c-4.986.882-10.29,6.729-11.822,13.036-.108.436-.2.886-.267,1.338-1.33,2.539-5.826,6.8-9.6,7.464a4.868,4.868,0,0,1-3.236-.4,3.875,3.875,0,0,1-1.263-2.255,19.28,19.28,0,0,0,11.653-8.216,5.442,5.442,0,0,0,.864-4.739c-.4-1.934-1.852-2.988-4.077-2.971a9.047,9.047,0,0,0-1.27.112,13.9,13.9,0,0,0-7.848,4.526,18.717,18.717,0,0,0-4.512,8.027,11.592,11.592,0,0,0-.256,4.862c-1.8,1.883-4.957,4.252-8.017,4.79a4.832,4.832,0,0,1-3.234-.4,2.616,2.616,0,0,1-1.232-1.7,19.289,19.289,0,0,0,11.651-8.217c1.286-2.05,1.844-4.054,1.527-5.494-.4-1.932-1.852-2.986-4.075-2.968a8.742,8.742,0,0,0-1.27.109l-.25.042a14.038,14.038,0,0,0-6.886,3.832c-1.441,1.047-2.99,2.073-4.732,3.135-.024-2.18-.724-3.271-1.316-3.805a2.771,2.771,0,0,0-2.383-.649,4.466,4.466,0,0,0-3.257,2.906,5.883,5.883,0,0,0,1.123,5.669,37.755,37.755,0,0,1-10.357,11.781.9.9,0,0,1-.241.08.774.774,0,0,1-.77-.319,1.047,1.047,0,0,1-.036-1.1l.628-1.495c2.111-5.04,4.294-10.251,6.671-15.867a.315.315,0,0,0-.04-.314.291.291,0,0,0-.3-.114l-6.685,1.439a.105.105,0,0,0-.07.059.1.1,0,0,0,0,.089,4.606,4.606,0,0,1,.04,2.283q-1.031,2.445-2.085,4.923c-1.218,2.869-2.477,5.835-3.673,8.731a53.683,53.683,0,0,1-4.694,2.96,1.09,1.09,0,0,1-.335.127.528.528,0,0,1-.1.009.226.226,0,0,1-.2-.073c-.082-.111-.088-.4.142-.87l.674-1.608c2.218-5.3,4.316-10.3,6.622-15.752a.311.311,0,0,0-.333-.431l-7.366,1.3a.307.307,0,0,0-.252.294.317.317,0,0,0,.229.312,1.046,1.046,0,0,1,.7.528,1.844,1.844,0,0,1-.034,1.437q-1.146,2.73-2.3,5.437l-.19.452c-1.136,2.669-2.306,5.432-3.454,8.2-.753,2.051-.658,3.88.261,5.015a3.052,3.052,0,0,0,2.98,1.008,5.191,5.191,0,0,0,1.95-.814c1.9-1.272,3.791-2.647,5.333-3.883a3.278,3.278,0,0,0,1.181,1.765,4.157,4.157,0,0,0,3.266.66,6.8,6.8,0,0,0,1.685-.544c2.967-1.061,10.37-7.124,16-15.309.175-.117.355-.239.537-.365a14.038,14.038,0,0,0-.728,2.146c-.826,3.4-.424,6.116,1.164,7.865a6.38,6.38,0,0,0,4.949,1.9,11.4,11.4,0,0,0,1.86-.176,14.951,14.951,0,0,0,1.671-.4,20.493,20.493,0,0,0,9.141-6.016,4.108,4.108,0,0,0,.31.4,7.732,7.732,0,0,0,5.722,2.456,7.879,7.879,0,0,0,1.286-.118,15.411,15.411,0,0,0,1.669-.4c3.705-1.126,7.524-4.5,9.474-7.335a6.636,6.636,0,0,0,1.52,3.211,5.126,5.126,0,0,0,3.957,1.66,7.035,7.035,0,0,0,1.158-.109,11.8,11.8,0,0,0,5.157-2.556,3.079,3.079,0,0,0,2.554,1.163,4.63,4.63,0,0,0,.723-.067,5.934,5.934,0,0,0,2.07-.824c.468-.3.862-.545,1.2-.757a15.213,15.213,0,0,0,2.806-2.026,1.251,1.251,0,0,1,1.649.2,2.677,2.677,0,0,1,.153,2.541c-1.258,4.674-6.563,6.456-15.914,8.107-.589.1-1.171.2-1.725.283-6.626,1.053-13.62,1.74-20.383,2.406l-.04,0c-3.575.349-7.271.712-10.863,1.126-8,.906-16.265,1.842-23.208,3.068-6.454,1.14-11.238,2.145-15.126,3.641a.1.1,0,0,0-.066.1.1.1,0,0,0,.068.1,21.818,21.818,0,0,1,10.331,7.918.09.09,0,0,0,.074.042h.009a.1.1,0,0,0,.072-.029c4.709-4.867,27.331-9.3,36.839-10.972,2.479-.44,4.937-.86,7.662-1.328l.263-.045c2.312-.4,4.571-.784,6.737-1.166,6.024-1.063,9.865-1.833,12.843-2.573,3.762-.933,7.676-2.092,10.83-4.239.074-.049,7.246-5.264,4.558-10.788a3.707,3.707,0,0,0-2.259-1.611,4.748,4.748,0,0,0-2.084-.045,6.1,6.1,0,0,0-3.286,1.442c-.3.161-.626.187-.712.068-.072-.1-.074-.388.17-.852q1.614-3.521,3.239-7.034l.31-.669c1.707-3.694,3.644-7.881,5.505-12,4.9-1.869,11.359-7.091,12.387-11.053a3.5,3.5,0,0,0-.557-3.3" fill="#2d64ba"/>
      <path id="Path_144" data-name="Path 144" d="M12.442-6.5l.846,1.124a3.525,3.525,0,0,0,.545-1.235A5.583,5.583,0,0,0,14.022-8a5.234,5.234,0,0,0-1.191-3.528A3.92,3.92,0,0,0,9.76-12.92a3.885,3.885,0,0,0-3.038,1.391A4.91,4.91,0,0,0,5.5-8.113,5.054,5.054,0,0,0,6.7-4.652,3.981,3.981,0,0,0,9.782-3.283a2.769,2.769,0,0,0,.545-.067,2.128,2.128,0,0,0,.568-.178L8.591-6.5Zm6.366,8.413H15.023L13.287-.367A6.247,6.247,0,0,1,11.718.2,9.088,9.088,0,0,1,9.826.389,9.188,9.188,0,0,1,7.156.022,8.888,8.888,0,0,1,4.79-1.068a8.309,8.309,0,0,1-2.733-3.06,8.5,8.5,0,0,1-1-4.006,8.317,8.317,0,0,1,.667-3.277,8.387,8.387,0,0,1,1.891-2.765,8.566,8.566,0,0,1,2.791-1.847,8.927,8.927,0,0,1,3.359-.634,8.9,8.9,0,0,1,3.348.634,8.856,8.856,0,0,1,2.8,1.847,8.419,8.419,0,0,1,1.88,2.76,8.357,8.357,0,0,1,.667,3.283,8.79,8.79,0,0,1-.668,3.394,7.885,7.885,0,0,1-1.959,2.715Zm1.87-18.206h4.44v7.923a23.494,23.494,0,0,0,.089,2.515,4.974,4.974,0,0,0,.3,1.269,1.623,1.623,0,0,0,.879.935,3.265,3.265,0,0,0,1.558.345,3.24,3.24,0,0,0,1.547-.345,1.887,1.887,0,0,0,.89-.935,5.587,5.587,0,0,0,.289-1.269,20.394,20.394,0,0,0,.1-2.515v-7.923h4.418v8.613a17.61,17.61,0,0,1-.323,3.939,5.053,5.053,0,0,1-1.091,2.192,4.987,4.987,0,0,1-2.3,1.48,10.73,10.73,0,0,1-3.527.5,10.588,10.588,0,0,1-3.538-.5,5.13,5.13,0,0,1-2.3-1.48,5.222,5.222,0,0,1-1.088-2.192,16.72,16.72,0,0,1-.344-3.939v-8.613ZM38.216,0V-16.292H42.7V0Zm19.42-15.658v4.852a7.526,7.526,0,0,0-1.8-1.5,4.458,4.458,0,0,0-1.959-.456,4.033,4.033,0,0,0-3.1,1.3,4.647,4.647,0,0,0-.668.974,4.476,4.476,0,0,0-.384,1.146,6.6,6.6,0,0,0-.128,1.3,4.623,4.623,0,0,0,1.2,3.261,4.063,4.063,0,0,0,3.083,1.28,4.334,4.334,0,0,0,1.959-.479,6.668,6.668,0,0,0,1.8-1.491V-.612a10.357,10.357,0,0,1-2.1.768,9.141,9.141,0,0,1-2.114.256,9.309,9.309,0,0,1-2.47-.317,6.545,6.545,0,0,1-2.069-.963A8.44,8.44,0,0,1,46.1-3.939a9.179,9.179,0,0,1-.955-4.2,9.008,9.008,0,0,1,.623-3.394,7.244,7.244,0,0,1,.706-1.408,9.511,9.511,0,0,1,1.106-1.374,7.5,7.5,0,0,1,2.624-1.781,8.432,8.432,0,0,1,3.213-.59,9.73,9.73,0,0,1,2.113.245A11.716,11.716,0,0,1,57.636-15.658ZM59.684,0V-16.292h4.4v7.4l5.152-7.4h5.175L68.386-8.346,74.93,0H69.388L64.08-7.311V0ZM75.865,0V-16.292H80.35V0Zm7.612,0V-16.292H93.46v3.583H87.807v2.816h5.331v3.505H87.807V-3.65H93.46V0ZM96.663-5.264a8.522,8.522,0,0,0,1.956,1.68,3.853,3.853,0,0,0,1.911.556,2.206,2.206,0,0,0,1.456-.479,1.508,1.508,0,0,0,.578-1.213,1.656,1.656,0,0,0-.478-1.258,6.58,6.58,0,0,0-2.255-.9,7.359,7.359,0,0,1-3.367-1.669,3.952,3.952,0,0,1-1-2.849A4.979,4.979,0,0,1,97.031-15.2a5.607,5.607,0,0,1,4.047-1.48,8.347,8.347,0,0,1,2.557.367,8.627,8.627,0,0,1,2.287,1.091l-1.395,3.194a5.818,5.818,0,0,0-1.556-.979,4.173,4.173,0,0,0-1.567-.323,2.115,2.115,0,0,0-1.3.389,1.155,1.155,0,0,0-.5.979,1.26,1.26,0,0,0,.434.979,4.975,4.975,0,0,0,1.714.7q.045.011.078.017a.734.734,0,0,1,.1.028,8.143,8.143,0,0,1,3.583,1.625,3.934,3.934,0,0,1,.89,1.436,5.621,5.621,0,0,1,.289,1.87,5.447,5.447,0,0,1-1.7,4.173,6.461,6.461,0,0,1-4.54,1.569,8,8,0,0,1-3.1-.568,8.951,8.951,0,0,1-2.688-1.825Z" transform="translate(3024.96 181.506)" fill="#2d64ba"/>
    </g>
    <path id="Path_145" data-name="Path 145" d="M-3.071-4.583h1.263V-5.877H-5.862v1.294H-4.6V0h1.528ZM-1.606,0h1.52L.405-3.383H.421L1.769,0h.608L3.788-3.383H3.8L4.233,0H5.76L4.872-5.877H3.352L2.089-2.736.9-5.877h-1.5Z" transform="translate(3158.882 153.434)" fill="#2d64ba"/>
  </g>
</svg>
