<svg xmlns="http://www.w3.org/2000/svg" width="347.969" height="155.959" viewBox="0 0 347.969 155.959">
  <g id="Greencush_Lineage" transform="translate(-202.882 -709.531)">
    <g id="Group_139" data-name="Group 139" transform="translate(-4664.524 -1847.462)">
      <path id="Path_90" data-name="Path 90" d="M5121.089,2556.993H4867.406V2591.4h253.683Z" fill="#fff"/>
      <path id="Path_91" data-name="Path 91" d="M5009.218,2605.127H4867.409v43.043h141.809Z" fill="#fff"/>
      <rect id="Rectangle_65" data-name="Rectangle 65" width="131.656" height="42.333" transform="translate(4975.563 2670.619)" fill="#ea514b"/>
      <line id="Line_28" data-name="Line 28" x2="208.944" transform="translate(4936.921 2661.986)" fill="none" stroke="#fff" stroke-miterlimit="10" stroke-width="2.765"/>
      <line id="Line_29" data-name="Line 29" y2="14.779" transform="translate(4938.314 2590.347)" fill="none" stroke="#fff" stroke-miterlimit="10" stroke-width="2.765"/>
      <line id="Line_30" data-name="Line 30" y2="16.287" transform="translate(4938.314 2645.698)" fill="none" stroke="#fff" stroke-miterlimit="10" stroke-width="2.765"/>
      <line id="Line_31" data-name="Line 31" y2="9.981" transform="translate(5041.391 2661.986)" fill="none" stroke="#fff" stroke-miterlimit="10" stroke-width="2.765"/>
    </g>
    <path id="Path_172" data-name="Path 172" d="M7.6-7.4h5.182v5.712A7.316,7.316,0,0,1,10.308-.189,8.523,8.523,0,0,1,7.338.34,7.136,7.136,0,0,1,4.53-.17a5.326,5.326,0,0,1-2-1.437A6.108,6.108,0,0,1,1.343-3.849a10.008,10.008,0,0,1-.4-2.9A9.306,9.306,0,0,1,1.381-9.7a6.5,6.5,0,0,1,1.239-2.232,5.31,5.31,0,0,1,1.958-1.418,6.5,6.5,0,0,1,2.572-.492,6.928,6.928,0,0,1,2.241.322,4.732,4.732,0,0,1,1.589.889,4.4,4.4,0,0,1,1.04,1.324,6.125,6.125,0,0,1,.558,1.627l-2.8.359a5.432,5.432,0,0,0-.274-.9,1.823,1.823,0,0,0-.463-.662,1.993,1.993,0,0,0-.757-.416,3.861,3.861,0,0,0-1.135-.142A2.748,2.748,0,0,0,4.69-10.213a6.245,6.245,0,0,0-.813,3.461A6.18,6.18,0,0,0,4.7-3.281a2.992,2.992,0,0,0,2.676,1.22,5.848,5.848,0,0,0,1.541-.18A4.741,4.741,0,0,0,10.175-2.8V-5.05H7.6ZM15.017-13.5H19.8a7.884,7.884,0,0,1,2.619.369,4.227,4.227,0,0,1,1.617.965,3.26,3.26,0,0,1,.813,1.324,4.783,4.783,0,0,1,.227,1.428,4.628,4.628,0,0,1-.473,2.194,3.742,3.742,0,0,1-1.589,1.494L25.76,0H22.715l-2.27-5.069H17.8V0h-2.78Zm4.974,6.09a3.593,3.593,0,0,0,1.1-.142,1.7,1.7,0,0,0,.69-.4,1.332,1.332,0,0,0,.35-.615,3.119,3.119,0,0,0,.095-.794,2.114,2.114,0,0,0-.113-.69,1.427,1.427,0,0,0-.388-.586,1.865,1.865,0,0,0-.757-.4,4.406,4.406,0,0,0-1.22-.142H17.8v3.764Zm7.282-6.09h9.211v2.4H30.091v2.95h6.014v2.421H30.091V-2.4h6.79L36.6,0H27.273Zm11.518,0H48v2.4H41.609v2.95h6.014v2.421H41.609V-2.4H48.4L48.115,0H38.791Zm11.518,0h2.534L58.4-4.653V-13.5h2.742V0H58.631L53.051-8.776V0H50.309ZM79.473-4.672a6.232,6.232,0,0,1-.5,2,4.894,4.894,0,0,1-1.116,1.589,5,5,0,0,1-1.74,1.05A6.93,6.93,0,0,1,73.723.34a6.652,6.652,0,0,1-2.7-.511A5.308,5.308,0,0,1,69.08-1.608,6.188,6.188,0,0,1,67.9-3.849a10.008,10.008,0,0,1-.4-2.9,9.306,9.306,0,0,1,.435-2.95,6.41,6.41,0,0,1,1.248-2.232,5.4,5.4,0,0,1,1.967-1.418,6.6,6.6,0,0,1,2.61-.492A7.036,7.036,0,0,1,76-13.523a4.383,4.383,0,0,1,1.608.927,4.635,4.635,0,0,1,1.05,1.456,7.7,7.7,0,0,1,.586,1.91l-2.8.359a3.77,3.77,0,0,0-.8-1.872,2.375,2.375,0,0,0-1.882-.681,2.808,2.808,0,0,0-2.468,1.22,6.031,6.031,0,0,0-.842,3.452,5.73,5.73,0,0,0,.9,3.461,2.851,2.851,0,0,0,2.411,1.21,2.483,2.483,0,0,0,1.92-.671,3.372,3.372,0,0,0,.766-1.92ZM81.062-13.5H83.88v8.038a4.357,4.357,0,0,0,.605,2.553,2.334,2.334,0,0,0,2.024.832,2.308,2.308,0,0,0,2.014-.832,4.411,4.411,0,0,0,.6-2.553V-13.5h2.818v8.038a8.1,8.1,0,0,1-.378,2.629,4.711,4.711,0,0,1-1.078,1.806A4.193,4.193,0,0,1,88.769.009,7.312,7.312,0,0,1,86.49.34a7.189,7.189,0,0,1-2.3-.34A4.279,4.279,0,0,1,82.48-1.05a4.52,4.52,0,0,1-1.059-1.825,8.676,8.676,0,0,1-.359-2.648Zm15.471,9.1a2.439,2.439,0,0,0,.8,1.816,3.291,3.291,0,0,0,2.09.567,3.784,3.784,0,0,0,1.116-.142,2.134,2.134,0,0,0,.738-.378,1.346,1.346,0,0,0,.407-.558,1.944,1.944,0,0,0,.123-.7,1.5,1.5,0,0,0-.4-.993,2.533,2.533,0,0,0-1.456-.671L98.2-5.787a10.4,10.4,0,0,1-1.835-.492,4.238,4.238,0,0,1-1.333-.785,3.148,3.148,0,0,1-.823-1.182,4.42,4.42,0,0,1-.284-1.664,3.605,3.605,0,0,1,.388-1.7,3.479,3.479,0,0,1,1.078-1.229,5.053,5.053,0,0,1,1.655-.747,8.267,8.267,0,0,1,2.118-.255,7.6,7.6,0,0,1,2.459.34,4.466,4.466,0,0,1,1.589.9,3.508,3.508,0,0,1,.9,1.3,6.074,6.074,0,0,1,.388,1.532l-2.667.34a2.631,2.631,0,0,0-.8-1.608,2.8,2.8,0,0,0-1.806-.492,4.72,4.72,0,0,0-1.182.123,2.355,2.355,0,0,0-.747.322,1.1,1.1,0,0,0-.4.463,1.379,1.379,0,0,0-.113.548A1.44,1.44,0,0,0,97.2-8.946a3.166,3.166,0,0,0,1.447.586L100.5-8a6.418,6.418,0,0,1,3.215,1.409,3.7,3.7,0,0,1,1.021,2.809,3.994,3.994,0,0,1-.331,1.636,3.648,3.648,0,0,1-.983,1.305,4.645,4.645,0,0,1-1.636.87A7.652,7.652,0,0,1,99.483.34,6.594,6.594,0,0,1,95.256-.842a4.608,4.608,0,0,1-1.579-3.565Zm10.1-9.1h2.818v5.22H114.8V-13.5h2.818V0H114.8V-5.674H109.45V0h-2.818Z" transform="translate(317.719 853.18)" fill="#c0f3f4"/>
    <path id="Path_171" data-name="Path 171" d="M4.169-10.518H5.937L9.944,0h-1.9L7.056-2.681H2.976L2,0H.162Zm2.4,6.349L5.009-8.5,3.462-4.169Zm4.066-2.165H9.443V-7.66h1.193V-8.1A2.53,2.53,0,0,1,11.3-9.973a2.489,2.489,0,0,1,1.841-.663,4.839,4.839,0,0,1,1.444.206l-.25,1.252a3.062,3.062,0,0,0-.884-.133,1.136,1.136,0,0,0-.84.295,1.179,1.179,0,0,0-.295.869v.486h1.856v1.326H12.315V0H10.636ZM16.322.589a1.266,1.266,0,0,0,.523.862,2.511,2.511,0,0,0,1.274.243,1.99,1.99,0,0,0,1.09-.265,1.488,1.488,0,0,0,.6-.81,4.869,4.869,0,0,0,.184-1.5V-1.4a2.743,2.743,0,0,1-1.031.9,3.087,3.087,0,0,1-1.4.309,2.921,2.921,0,0,1-2.386-1.016,4.293,4.293,0,0,1-.84-2.814,4.162,4.162,0,0,1,.913-2.814A3.064,3.064,0,0,1,17.692-7.9a2.823,2.823,0,0,1,2.342,1.164V-7.66H21.67v6.511a4.813,4.813,0,0,1-.854,3.189,3.4,3.4,0,0,1-2.7.98,4.371,4.371,0,0,1-2.5-.582,2.47,2.47,0,0,1-.98-1.849ZM20-4.11a2.794,2.794,0,0,0-.5-1.8,1.794,1.794,0,0,0-1.473-.611,1.732,1.732,0,0,0-1.429.641,2.889,2.889,0,0,0-.516,1.849,3.022,3.022,0,0,0,.493,1.849,1.626,1.626,0,0,0,1.377.656,1.9,1.9,0,0,0,1.51-.611A2.537,2.537,0,0,0,20-3.874Zm4.552-6.408V-6.6a3.115,3.115,0,0,1,1.127-.98A3.035,3.035,0,0,1,27.046-7.9q2.563,0,2.563,2.828V0H27.93V-4.8a1.951,1.951,0,0,0-.339-1.3,1.28,1.28,0,0,0-1-.376,2.08,2.08,0,0,0-.832.162,2.034,2.034,0,0,0-.641.427,1.919,1.919,0,0,0-.412.611,1.807,1.807,0,0,0-.147.714V0H22.892V-10.518ZM34.265-3.58a6.7,6.7,0,0,0-1.215.162,2.079,2.079,0,0,0-.714.3A.879.879,0,0,0,32-2.688a1.644,1.644,0,0,0-.081.523.987.987,0,0,0,.317.781,1.374,1.374,0,0,0,.935.28,2.155,2.155,0,0,0,1.635-.56,2.116,2.116,0,0,0,.53-1.517v-.442ZM35.37-1a3.566,3.566,0,0,1-1.046.854,3.089,3.089,0,0,1-1.5.339A3.556,3.556,0,0,1,31.8.052a2.346,2.346,0,0,1-.818-.42,1.94,1.94,0,0,1-.545-.714,2.441,2.441,0,0,1-.2-1.024A2.164,2.164,0,0,1,30.6-3.4a2.44,2.44,0,0,1,.921-.773,4.4,4.4,0,0,1,1.274-.39,12.534,12.534,0,0,1,1.414-.14l1.134-.059v-.324a1.455,1.455,0,0,0-.42-1.2,1.719,1.719,0,0,0-1.1-.331,2.022,2.022,0,0,0-1.156.265,1.247,1.247,0,0,0-.493.766l-1.532-.162A2.327,2.327,0,0,1,31.657-7.38,4.12,4.12,0,0,1,33.882-7.9a4.147,4.147,0,0,1,1.51.236,2.368,2.368,0,0,1,.95.648,2.342,2.342,0,0,1,.493.98,5.193,5.193,0,0,1,.14,1.245V0H35.37Zm4.39-6.658v1.12a3.289,3.289,0,0,1,1.156-1.031A3.009,3.009,0,0,1,42.293-7.9q2.563,0,2.563,2.828V0H43.177V-4.8a1.951,1.951,0,0,0-.339-1.3,1.28,1.28,0,0,0-1-.376,2.127,2.127,0,0,0-.818.155,1.937,1.937,0,0,0-.641.42,2.025,2.025,0,0,0-.42.611,1.768,1.768,0,0,0-.155.729V0H38.139V-7.66Zm7.94-2.858v1.665H45.961v-1.665ZM47.67-7.66V0H45.991V-7.66Zm2.3,0h1.974L53.5-5.215,55.183-7.66h1.753l-2.49,3.609L57.172,0H55.227L53.4-2.8,51.544,0H49.718L52.5-3.977ZM68.176-3.55a5,5,0,0,1-.4,1.517,3.754,3.754,0,0,1-.854,1.208,3.821,3.821,0,0,1-1.326.8,5.236,5.236,0,0,1-1.812.287A5.085,5.085,0,0,1,61.76-.118a4.054,4.054,0,0,1-1.5-1.1,4.832,4.832,0,0,1-.928-1.738,7.734,7.734,0,0,1-.317-2.291,7.292,7.292,0,0,1,.346-2.328,4.986,4.986,0,0,1,.98-1.746,4.2,4.2,0,0,1,1.517-1.09,4.921,4.921,0,0,1,1.945-.376,5.224,5.224,0,0,1,1.709.25,3.5,3.5,0,0,1,1.23.714,3.475,3.475,0,0,1,.81,1.112A5.988,5.988,0,0,1,68-7.262l-1.753.25a5.337,5.337,0,0,0-.295-.943,2.2,2.2,0,0,0-.464-.7,1.935,1.935,0,0,0-.7-.442,2.815,2.815,0,0,0-.987-.155,2.7,2.7,0,0,0-1.252.28,2.57,2.57,0,0,0-.921.8,3.758,3.758,0,0,0-.567,1.26,6.562,6.562,0,0,0-.192,1.65,6.394,6.394,0,0,0,.2,1.665,3.774,3.774,0,0,0,.582,1.26,2.583,2.583,0,0,0,.921.8,2.684,2.684,0,0,0,1.23.273,3.025,3.025,0,0,0,1.053-.162,2,2,0,0,0,.729-.457,2.116,2.116,0,0,0,.464-.714,4.011,4.011,0,0,0,.243-.95ZM72.433-1.12a1.743,1.743,0,0,0,1.554-.729,3.52,3.52,0,0,0,.493-2,3.453,3.453,0,0,0-.493-1.974,1.749,1.749,0,0,0-1.554-.722,1.743,1.743,0,0,0-1.554.729,3.46,3.46,0,0,0-.493,1.967,3.612,3.612,0,0,0,.479,1.989A1.73,1.73,0,0,0,72.433-1.12ZM72.418.236A3.616,3.616,0,0,1,69.634-.825a4.247,4.247,0,0,1-.987-3.005,5.1,5.1,0,0,1,.258-1.665,3.6,3.6,0,0,1,.744-1.282A3.332,3.332,0,0,1,70.842-7.6,4.142,4.142,0,0,1,72.448-7.9a4.093,4.093,0,0,1,1.62.3,3.338,3.338,0,0,1,1.186.832,3.492,3.492,0,0,1,.722,1.274,5.216,5.216,0,0,1,.243,1.628,5.074,5.074,0,0,1-.28,1.76,3.6,3.6,0,0,1-.788,1.282,3.3,3.3,0,0,1-1.2.788A4.252,4.252,0,0,1,72.418.236Zm6.452-10.754V0H77.191V-10.518ZM81.684-7.66v4.817A2.01,2.01,0,0,0,82-1.532a1.23,1.23,0,0,0,.965.354,2.062,2.062,0,0,0,.714-.133,1.97,1.97,0,0,0,.641-.383,2,2,0,0,0,.457-.6,1.754,1.754,0,0,0,.177-.8V-7.66h1.679V0H85V-1.12A3.494,3.494,0,0,1,83.85-.088a2.816,2.816,0,0,1-1.326.324A2.383,2.383,0,0,1,80.6-.457a3.246,3.246,0,0,1-.582-2.121V-7.66Zm7.763,0v1.1a2.892,2.892,0,0,1,1.886-1.282,3.777,3.777,0,0,1,.589-.044,2.218,2.218,0,0,1,1.267.39,2.039,2.039,0,0,1,.707.98A3.018,3.018,0,0,1,96.4-7.9a2.228,2.228,0,0,1,1.8.678,3.322,3.322,0,0,1,.575,2.165V0H97.093V-4.6a4.855,4.855,0,0,0-.074-.928,1.661,1.661,0,0,0-.214-.582.724.724,0,0,0-.361-.295,1.448,1.448,0,0,0-.5-.081,1.789,1.789,0,0,0-.781.162,1.712,1.712,0,0,0-.567.427,1.863,1.863,0,0,0-.346.6,2.03,2.03,0,0,0-.118.685V0H92.453V-4.758a2.219,2.219,0,0,0-.3-1.355,1.018,1.018,0,0,0-.832-.368,1.842,1.842,0,0,0-.53.1,1.9,1.9,0,0,0-.6.317,1.9,1.9,0,0,0-.493.589,1.815,1.815,0,0,0-.206.9V0H87.827V-7.66ZM101.571-3.58a3.858,3.858,0,0,0,.184,1.208,2.057,2.057,0,0,0,.442.751,1.419,1.419,0,0,0,.626.383,2.617,2.617,0,0,0,.737.1,1.972,1.972,0,0,0,.766-.147,1.609,1.609,0,0,0,.619-.464,2.239,2.239,0,0,0,.412-.832,4.675,4.675,0,0,0,.147-1.267,4.264,4.264,0,0,0-.155-1.23,2.488,2.488,0,0,0-.405-.825,1.507,1.507,0,0,0-.6-.464,1.807,1.807,0,0,0-.714-.147,2.255,2.255,0,0,0-.935.177,1.66,1.66,0,0,0-.641.5,2.134,2.134,0,0,0-.368.773,3.917,3.917,0,0,0-.118.994v.486Zm.015-6.938v3.86a3.209,3.209,0,0,1,1.053-.921,2.926,2.926,0,0,1,1.392-.317,3.227,3.227,0,0,1,1.429.295,2.729,2.729,0,0,1,1,.825,3.685,3.685,0,0,1,.6,1.274,6.353,6.353,0,0,1,.2,1.643,5.723,5.723,0,0,1-.236,1.7,3.7,3.7,0,0,1-.678,1.289,3.022,3.022,0,0,1-1.061.818A3.249,3.249,0,0,1,103.9.236a3.087,3.087,0,0,1-1.282-.265,2.9,2.9,0,0,1-1.075-.884V0h-1.62V-10.518Zm8.338,0v1.665h-1.738v-1.665Zm-.029,2.858V0h-1.679V-7.66Zm4.743,4.081a6.7,6.7,0,0,0-1.215.162,2.079,2.079,0,0,0-.714.3.879.879,0,0,0-.331.427,1.644,1.644,0,0,0-.081.523.987.987,0,0,0,.317.781,1.374,1.374,0,0,0,.935.28,2.155,2.155,0,0,0,1.635-.56,2.116,2.116,0,0,0,.53-1.517v-.442ZM115.743-1a3.566,3.566,0,0,1-1.046.854,3.089,3.089,0,0,1-1.5.339,3.556,3.556,0,0,1-1.016-.14,2.346,2.346,0,0,1-.818-.42,1.94,1.94,0,0,1-.545-.714,2.441,2.441,0,0,1-.2-1.024A2.164,2.164,0,0,1,110.97-3.4a2.44,2.44,0,0,1,.921-.773,4.4,4.4,0,0,1,1.274-.39,12.534,12.534,0,0,1,1.414-.14l1.134-.059v-.324a1.455,1.455,0,0,0-.42-1.2,1.719,1.719,0,0,0-1.1-.331,2.022,2.022,0,0,0-1.156.265,1.247,1.247,0,0,0-.493.766l-1.532-.162a2.327,2.327,0,0,1,1.016-1.635,4.12,4.12,0,0,1,2.224-.516,4.147,4.147,0,0,1,1.51.236,2.368,2.368,0,0,1,.95.648,2.343,2.343,0,0,1,.493.98,5.193,5.193,0,0,1,.14,1.245V0h-1.606Zm4.39-6.658v1.12a3.289,3.289,0,0,1,1.156-1.031,3.009,3.009,0,0,1,1.377-.324q2.563,0,2.563,2.828V0H123.55V-4.8a1.951,1.951,0,0,0-.339-1.3,1.28,1.28,0,0,0-1-.376,2.127,2.127,0,0,0-.818.155,1.937,1.937,0,0,0-.641.42,2.025,2.025,0,0,0-.42.611,1.768,1.768,0,0,0-.155.729V0h-1.665V-7.66Zm7.321,0h1.974l1.562,2.445,1.679-2.445h1.753l-2.49,3.609L134.658,0h-1.945l-1.827-2.8L129.03,0H127.2l2.784-3.977Zm11.873-1.311H136v-1.547h8.426v1.547H141.11V0h-1.782Zm7.366-1.547V-6.6a3.115,3.115,0,0,1,1.127-.98,3.035,3.035,0,0,1,1.363-.317q2.563,0,2.563,2.828V0h-1.679V-4.8a1.951,1.951,0,0,0-.339-1.3,1.28,1.28,0,0,0-1-.376,2.08,2.08,0,0,0-.832.162,2.034,2.034,0,0,0-.641.427,1.92,1.92,0,0,0-.412.611,1.807,1.807,0,0,0-.147.714V0h-1.665V-10.518ZM156.4-3.58a6.7,6.7,0,0,0-1.215.162,2.079,2.079,0,0,0-.714.3.879.879,0,0,0-.331.427,1.644,1.644,0,0,0-.081.523.988.988,0,0,0,.317.781,1.374,1.374,0,0,0,.935.28,2.155,2.155,0,0,0,1.635-.56,2.116,2.116,0,0,0,.53-1.517v-.442ZM157.506-1a3.566,3.566,0,0,1-1.046.854,3.089,3.089,0,0,1-1.5.339,3.556,3.556,0,0,1-1.016-.14,2.346,2.346,0,0,1-.818-.42,1.94,1.94,0,0,1-.545-.714,2.441,2.441,0,0,1-.2-1.024,2.164,2.164,0,0,1,.354-1.289,2.44,2.44,0,0,1,.921-.773,4.4,4.4,0,0,1,1.274-.39,12.534,12.534,0,0,1,1.414-.14l1.134-.059v-.324a1.455,1.455,0,0,0-.42-1.2,1.719,1.719,0,0,0-1.1-.331,2.022,2.022,0,0,0-1.156.265,1.247,1.247,0,0,0-.493.766l-1.532-.162a2.327,2.327,0,0,1,1.016-1.635,4.12,4.12,0,0,1,2.224-.516,4.147,4.147,0,0,1,1.51.236,2.368,2.368,0,0,1,.95.648,2.342,2.342,0,0,1,.493.98,5.193,5.193,0,0,1,.14,1.245V0h-1.606ZM162-10.518v1.665h-1.738v-1.665Zm-.029,2.858V0H160.29V-7.66Zm4.817-2.858v8.971H172L171.78,0H165V-10.518Zm9.5,6.938a6.7,6.7,0,0,0-1.215.162,2.079,2.079,0,0,0-.714.3.879.879,0,0,0-.331.427,1.644,1.644,0,0,0-.081.523.988.988,0,0,0,.317.781,1.374,1.374,0,0,0,.935.28,2.155,2.155,0,0,0,1.635-.56,2.116,2.116,0,0,0,.53-1.517v-.442ZM177.393-1a3.566,3.566,0,0,1-1.046.854,3.089,3.089,0,0,1-1.5.339,3.557,3.557,0,0,1-1.016-.14,2.346,2.346,0,0,1-.818-.42,1.94,1.94,0,0,1-.545-.714,2.441,2.441,0,0,1-.2-1.024A2.164,2.164,0,0,1,172.62-3.4a2.44,2.44,0,0,1,.921-.773,4.4,4.4,0,0,1,1.274-.39,12.534,12.534,0,0,1,1.414-.14l1.134-.059v-.324a1.455,1.455,0,0,0-.42-1.2,1.719,1.719,0,0,0-1.1-.331,2.022,2.022,0,0,0-1.156.265,1.247,1.247,0,0,0-.493.766l-1.532-.162a2.327,2.327,0,0,1,1.016-1.635,4.12,4.12,0,0,1,2.224-.516,4.147,4.147,0,0,1,1.51.236,2.368,2.368,0,0,1,.95.648,2.342,2.342,0,0,1,.493.98A5.193,5.193,0,0,1,179-4.788V0h-1.606Zm4.39-6.658v1.12a3.289,3.289,0,0,1,1.156-1.031,3.009,3.009,0,0,1,1.377-.324q2.563,0,2.563,2.828V0H185.2V-4.8a1.951,1.951,0,0,0-.339-1.3,1.28,1.28,0,0,0-1-.376,2.126,2.126,0,0,0-.818.155,1.937,1.937,0,0,0-.641.42,2.025,2.025,0,0,0-.42.611,1.768,1.768,0,0,0-.155.729V0h-1.665V-7.66Zm11.623,3.668a4.111,4.111,0,0,0-.155-1.215,1.973,1.973,0,0,0-.427-.781,1.575,1.575,0,0,0-.633-.412,2.3,2.3,0,0,0-.759-.125A1.7,1.7,0,0,0,190-5.863a3.3,3.3,0,0,0-.508,2.018,4.839,4.839,0,0,0,.14,1.252,2.3,2.3,0,0,0,.4.84,1.552,1.552,0,0,0,.6.471,1.827,1.827,0,0,0,.737.147,1.95,1.95,0,0,0,1.48-.6,2.628,2.628,0,0,0,.567-1.863Zm.015,2.932a3.254,3.254,0,0,1-1.068.972,2.872,2.872,0,0,1-1.392.324,3.227,3.227,0,0,1-1.429-.295,2.7,2.7,0,0,1-1-.832,3.766,3.766,0,0,1-.6-1.282,6.353,6.353,0,0,1-.2-1.643,5.743,5.743,0,0,1,.206-1.569,3.886,3.886,0,0,1,.6-1.267,3.054,3.054,0,0,1,.98-.862,2.965,2.965,0,0,1,1.348-.354,1.969,1.969,0,0,1,.295-.007q.147.007.309.022a3.118,3.118,0,0,1,.994.287,2.794,2.794,0,0,1,.921.759v-3.712h1.665V0H193.42Zm4.493-6.6v1.134a2.87,2.87,0,0,1,.958-.928,2.344,2.344,0,0,1,1.193-.324q.25,0,.42.015t.331.044l-.191,1.532a1.9,1.9,0,0,0-.354-.059q-.192-.015-.4-.015a2.044,2.044,0,0,0-.825.155,1.857,1.857,0,0,0-.6.405,1.711,1.711,0,0,0-.368.567,1.73,1.73,0,0,0-.125.641V0h-1.665V-7.66Zm6.5,4.081a6.7,6.7,0,0,0-1.215.162,2.079,2.079,0,0,0-.714.3.879.879,0,0,0-.331.427,1.644,1.644,0,0,0-.081.523.988.988,0,0,0,.317.781,1.374,1.374,0,0,0,.935.28,2.155,2.155,0,0,0,1.635-.56,2.116,2.116,0,0,0,.53-1.517v-.442ZM205.515-1a3.566,3.566,0,0,1-1.046.854,3.089,3.089,0,0,1-1.5.339,3.556,3.556,0,0,1-1.016-.14,2.346,2.346,0,0,1-.818-.42,1.94,1.94,0,0,1-.545-.714,2.441,2.441,0,0,1-.2-1.024,2.164,2.164,0,0,1,.354-1.289,2.44,2.44,0,0,1,.921-.773,4.4,4.4,0,0,1,1.274-.39,12.534,12.534,0,0,1,1.414-.14l1.134-.059v-.324a1.455,1.455,0,0,0-.42-1.2,1.719,1.719,0,0,0-1.1-.331,2.022,2.022,0,0,0-1.156.265,1.247,1.247,0,0,0-.493.766l-1.532-.162A2.327,2.327,0,0,1,201.8-7.38a4.12,4.12,0,0,1,2.224-.516,4.147,4.147,0,0,1,1.51.236,2.368,2.368,0,0,1,.95.648,2.342,2.342,0,0,1,.493.98,5.193,5.193,0,0,1,.14,1.245V0h-1.606Zm9.472-1.679a3.288,3.288,0,0,1-.98,2.143,3.368,3.368,0,0,1-2.379.773,4.152,4.152,0,0,1-1.613-.287,3.023,3.023,0,0,1-1.142-.818,3.413,3.413,0,0,1-.678-1.274,5.81,5.81,0,0,1-.221-1.657,5.31,5.31,0,0,1,.25-1.672,3.635,3.635,0,0,1,.729-1.3,3.247,3.247,0,0,1,1.171-.832A3.992,3.992,0,0,1,211.7-7.9a3.859,3.859,0,0,1,1.37.214,2.66,2.66,0,0,1,.928.575,2.632,2.632,0,0,1,.575.832,4.24,4.24,0,0,1,.295.987l-1.665.25a2.435,2.435,0,0,0-.449-1.075,1.324,1.324,0,0,0-1.112-.427,1.691,1.691,0,0,0-.928.236,1.8,1.8,0,0,0-.589.611,2.724,2.724,0,0,0-.317.862,5.1,5.1,0,0,0-.1.987,5.33,5.33,0,0,0,.1,1.075,2.67,2.67,0,0,0,.324.862,1.652,1.652,0,0,0,.589.575,1.764,1.764,0,0,0,.9.214,1.56,1.56,0,0,0,1.164-.405,1.986,1.986,0,0,0,.5-1.156Zm7.587.412A2.917,2.917,0,0,1,221.557-.42a3.62,3.62,0,0,1-2.328.656,3.548,3.548,0,0,1-2.777-1.053,4.277,4.277,0,0,1-.95-2.968,5.215,5.215,0,0,1,.273-1.753,3.614,3.614,0,0,1,.766-1.289,3.251,3.251,0,0,1,1.178-.8,4.05,4.05,0,0,1,1.51-.273,3.936,3.936,0,0,1,1.532.273,2.866,2.866,0,0,1,1.075.766,3.171,3.171,0,0,1,.633,1.178,5.277,5.277,0,0,1,.206,1.525v.737h-5.495a2.83,2.83,0,0,0,.53,1.694,1.8,1.8,0,0,0,1.517.648,1.925,1.925,0,0,0,1.193-.309,1.5,1.5,0,0,0,.53-.884Zm-1.532-2.313a2.3,2.3,0,0,0-.442-1.488,1.715,1.715,0,0,0-1.414-.545,1.784,1.784,0,0,0-1.414.552,2.47,2.47,0,0,0-.56,1.48Zm3.7,2.239a1.408,1.408,0,0,0,.206.626,1.28,1.28,0,0,0,.405.39,1.554,1.554,0,0,0,.567.2,4.409,4.409,0,0,0,.692.052,2.215,2.215,0,0,0,1.208-.25.834.834,0,0,0,.368-.737.959.959,0,0,0-.228-.648,1.591,1.591,0,0,0-.935-.383q-.913-.162-1.606-.309a4.291,4.291,0,0,1-1.164-.405,1.78,1.78,0,0,1-.707-.663,2.181,2.181,0,0,1-.236-1.1,1.991,1.991,0,0,1,.236-.965,2.182,2.182,0,0,1,.656-.737,3.143,3.143,0,0,1,1-.464,4.739,4.739,0,0,1,1.274-.162,5.209,5.209,0,0,1,1.473.177,2.659,2.659,0,0,1,.958.486,2.125,2.125,0,0,1,.56.707,4.051,4.051,0,0,1,.295.84l-1.5.206a1.66,1.66,0,0,0-.538-.854,1.99,1.99,0,0,0-1.2-.28,2.965,2.965,0,0,0-.8.088,1.6,1.6,0,0,0-.493.221.7.7,0,0,0-.25.295.85.85,0,0,0-.066.324,1.224,1.224,0,0,0,.059.412.534.534,0,0,0,.214.265,1.476,1.476,0,0,0,.42.177q.265.074.663.147l.958.162a6.3,6.3,0,0,1,1.274.339,2.412,2.412,0,0,1,.81.508,1.633,1.633,0,0,1,.42.7,3.1,3.1,0,0,1,.118.884,2.06,2.06,0,0,1-.8,1.687,3.806,3.806,0,0,1-2.416.641A6.337,6.337,0,0,1,225.365.11a3.425,3.425,0,0,1-1.1-.42,2.327,2.327,0,0,1-.788-.788,2.657,2.657,0,0,1-.346-1.245Z" transform="translate(214.932 731.588)" fill="#db504d"/>
    <g id="Group_140" data-name="Group 140" transform="translate(-4664.524 -1847.462)">
      <path id="Path_93" data-name="Path 93" d="M5215.375,2605.127h-141.81v43.043h141.81Z" fill="#fff"/>
      <line id="Line_32" data-name="Line 32" y2="16.287" transform="translate(5144.471 2645.698)" fill="none" stroke="#fff" stroke-miterlimit="10" stroke-width="2.765"/>
    </g>
    <path id="Path_170" data-name="Path 170" d="M4.169-10.518H5.937L9.944,0h-1.9L7.056-2.681H2.976L2,0H.162Zm2.4,6.349L5.009-8.5,3.462-4.169Zm4.036-2.165H9.413V-7.66h1.193V-8.1a2.53,2.53,0,0,1,.663-1.871,2.489,2.489,0,0,1,1.841-.663,4.839,4.839,0,0,1,1.444.206L14.3-9.178a3.062,3.062,0,0,0-.884-.133,1.136,1.136,0,0,0-.84.295,1.179,1.179,0,0,0-.295.869v.486h1.856v1.326H12.286V0H10.606ZM16.248.589a1.266,1.266,0,0,0,.523.862,2.511,2.511,0,0,0,1.274.243,1.99,1.99,0,0,0,1.09-.265,1.488,1.488,0,0,0,.6-.81,4.869,4.869,0,0,0,.184-1.5V-1.4a2.743,2.743,0,0,1-1.031.9,3.087,3.087,0,0,1-1.4.309A2.921,2.921,0,0,1,15.1-1.208a4.293,4.293,0,0,1-.84-2.814,4.162,4.162,0,0,1,.913-2.814A3.064,3.064,0,0,1,17.618-7.9a2.823,2.823,0,0,1,2.342,1.164V-7.66H21.6v6.511a4.813,4.813,0,0,1-.854,3.189,3.4,3.4,0,0,1-2.7.98,4.371,4.371,0,0,1-2.5-.582,2.47,2.47,0,0,1-.98-1.849Zm3.683-4.7a2.794,2.794,0,0,0-.5-1.8,1.794,1.794,0,0,0-1.473-.611,1.732,1.732,0,0,0-1.429.641,2.889,2.889,0,0,0-.516,1.849,3.022,3.022,0,0,0,.493,1.849,1.626,1.626,0,0,0,1.377.656,1.9,1.9,0,0,0,1.51-.611,2.537,2.537,0,0,0,.538-1.731Zm4.6-6.408V-6.6a3.115,3.115,0,0,1,1.127-.98A3.035,3.035,0,0,1,27.017-7.9q2.563,0,2.563,2.828V0H27.9V-4.8a1.951,1.951,0,0,0-.339-1.3,1.28,1.28,0,0,0-1-.376,2.08,2.08,0,0,0-.832.162,2.034,2.034,0,0,0-.641.427,1.919,1.919,0,0,0-.412.611,1.807,1.807,0,0,0-.147.714V0H22.863V-10.518Zm9.8,6.938a6.7,6.7,0,0,0-1.215.162,2.079,2.079,0,0,0-.714.3.879.879,0,0,0-.331.427,1.644,1.644,0,0,0-.081.523.987.987,0,0,0,.317.781,1.374,1.374,0,0,0,.935.28,2.155,2.155,0,0,0,1.635-.56,2.116,2.116,0,0,0,.53-1.517v-.442ZM35.428-1a3.566,3.566,0,0,1-1.046.854,3.089,3.089,0,0,1-1.5.339,3.556,3.556,0,0,1-1.016-.14,2.346,2.346,0,0,1-.818-.42,1.94,1.94,0,0,1-.545-.714,2.441,2.441,0,0,1-.2-1.024A2.164,2.164,0,0,1,30.656-3.4a2.439,2.439,0,0,1,.921-.773,4.4,4.4,0,0,1,1.274-.39,12.534,12.534,0,0,1,1.414-.14L35.4-4.758v-.324a1.455,1.455,0,0,0-.42-1.2,1.719,1.719,0,0,0-1.1-.331,2.022,2.022,0,0,0-1.156.265,1.247,1.247,0,0,0-.493.766L30.7-5.745A2.327,2.327,0,0,1,31.716-7.38,4.12,4.12,0,0,1,33.941-7.9a4.147,4.147,0,0,1,1.51.236,2.368,2.368,0,0,1,.95.648,2.342,2.342,0,0,1,.493.98,5.193,5.193,0,0,1,.14,1.245V0H35.428ZM39.863-7.66v1.12a3.289,3.289,0,0,1,1.156-1.031A3.009,3.009,0,0,1,42.4-7.9q2.563,0,2.563,2.828V0H43.28V-4.8a1.951,1.951,0,0,0-.339-1.3,1.28,1.28,0,0,0-1-.376,2.127,2.127,0,0,0-.818.155,1.937,1.937,0,0,0-.641.42,2.025,2.025,0,0,0-.42.611,1.768,1.768,0,0,0-.155.729V0H38.242V-7.66Zm8.028-2.858v1.665H46.153v-1.665ZM47.862-7.66V0H46.182V-7.66Zm5.892-2.858v8.971h5.215L58.748,0H51.972V-10.518ZM63.3-3.58a6.7,6.7,0,0,0-1.215.162,2.079,2.079,0,0,0-.714.3.879.879,0,0,0-.331.427,1.644,1.644,0,0,0-.081.523.987.987,0,0,0,.317.781,1.374,1.374,0,0,0,.935.28,2.155,2.155,0,0,0,1.635-.56,2.116,2.116,0,0,0,.53-1.517v-.442ZM64.4-1a3.566,3.566,0,0,1-1.046.854,3.089,3.089,0,0,1-1.5.339A3.556,3.556,0,0,1,60.84.052a2.346,2.346,0,0,1-.818-.42,1.94,1.94,0,0,1-.545-.714,2.441,2.441,0,0,1-.2-1.024A2.164,2.164,0,0,1,59.632-3.4a2.439,2.439,0,0,1,.921-.773,4.4,4.4,0,0,1,1.274-.39,12.534,12.534,0,0,1,1.414-.14l1.134-.059v-.324a1.455,1.455,0,0,0-.42-1.2,1.719,1.719,0,0,0-1.1-.331,2.022,2.022,0,0,0-1.156.265,1.247,1.247,0,0,0-.493.766l-1.532-.162A2.327,2.327,0,0,1,60.692-7.38,4.12,4.12,0,0,1,62.917-7.9a4.147,4.147,0,0,1,1.51.236,2.368,2.368,0,0,1,.95.648,2.343,2.343,0,0,1,.493.98,5.193,5.193,0,0,1,.14,1.245V0H64.4ZM68.839-7.66v1.12A3.289,3.289,0,0,1,70-7.572,3.009,3.009,0,0,1,71.373-7.9q2.563,0,2.563,2.828V0H72.256V-4.8a1.951,1.951,0,0,0-.339-1.3,1.28,1.28,0,0,0-1-.376,2.127,2.127,0,0,0-.818.155,1.937,1.937,0,0,0-.641.42,2.025,2.025,0,0,0-.42.611,1.768,1.768,0,0,0-.155.729V0H67.218V-7.66ZM80.55-3.992A4.111,4.111,0,0,0,80.4-5.207a1.973,1.973,0,0,0-.427-.781,1.575,1.575,0,0,0-.633-.412,2.3,2.3,0,0,0-.759-.125,1.7,1.7,0,0,0-1.436.663,3.3,3.3,0,0,0-.508,2.018,4.84,4.84,0,0,0,.14,1.252,2.3,2.3,0,0,0,.4.84,1.552,1.552,0,0,0,.6.471,1.827,1.827,0,0,0,.737.147,1.95,1.95,0,0,0,1.48-.6,2.628,2.628,0,0,0,.567-1.863Zm.015,2.932A3.254,3.254,0,0,1,79.5-.088,2.872,2.872,0,0,1,78.1.236a3.227,3.227,0,0,1-1.429-.295,2.7,2.7,0,0,1-1-.832,3.766,3.766,0,0,1-.6-1.282,6.354,6.354,0,0,1-.2-1.643,5.743,5.743,0,0,1,.206-1.569,3.886,3.886,0,0,1,.6-1.267,3.054,3.054,0,0,1,.98-.862,2.965,2.965,0,0,1,1.348-.354,1.969,1.969,0,0,1,.295-.007q.147.007.309.022a3.118,3.118,0,0,1,.994.287,2.794,2.794,0,0,1,.921.759v-3.712H82.2V0H80.565ZM85.1-7.66v1.134a2.87,2.87,0,0,1,.958-.928,2.343,2.343,0,0,1,1.193-.324q.25,0,.42.015T88-7.719l-.192,1.532a1.9,1.9,0,0,0-.354-.059q-.192-.015-.4-.015a2.044,2.044,0,0,0-.825.155,1.857,1.857,0,0,0-.6.405,1.711,1.711,0,0,0-.368.567,1.73,1.73,0,0,0-.125.641V0H83.482V-7.66ZM91.8-3.58a6.7,6.7,0,0,0-1.215.162,2.079,2.079,0,0,0-.714.3.879.879,0,0,0-.331.427,1.644,1.644,0,0,0-.081.523.987.987,0,0,0,.317.781,1.374,1.374,0,0,0,.935.28,2.155,2.155,0,0,0,1.635-.56,2.116,2.116,0,0,0,.53-1.517v-.442ZM92.91-1a3.566,3.566,0,0,1-1.046.854,3.089,3.089,0,0,1-1.5.339,3.556,3.556,0,0,1-1.016-.14,2.346,2.346,0,0,1-.818-.42,1.94,1.94,0,0,1-.545-.714,2.441,2.441,0,0,1-.2-1.024A2.164,2.164,0,0,1,88.137-3.4a2.44,2.44,0,0,1,.921-.773,4.4,4.4,0,0,1,1.274-.39,12.534,12.534,0,0,1,1.414-.14l1.134-.059v-.324a1.455,1.455,0,0,0-.42-1.2,1.719,1.719,0,0,0-1.1-.331,2.022,2.022,0,0,0-1.156.265,1.247,1.247,0,0,0-.493.766l-1.532-.162A2.327,2.327,0,0,1,89.2-7.38,4.12,4.12,0,0,1,91.422-7.9a4.147,4.147,0,0,1,1.51.236,2.368,2.368,0,0,1,.95.648,2.343,2.343,0,0,1,.493.98,5.193,5.193,0,0,1,.14,1.245V0H92.91Zm9.561-1.679a3.288,3.288,0,0,1-.98,2.143,3.368,3.368,0,0,1-2.379.773A4.152,4.152,0,0,1,97.5-.052a3.023,3.023,0,0,1-1.142-.818,3.413,3.413,0,0,1-.678-1.274A5.81,5.81,0,0,1,95.458-3.8a5.309,5.309,0,0,1,.25-1.672,3.635,3.635,0,0,1,.729-1.3A3.247,3.247,0,0,1,97.609-7.6,3.992,3.992,0,0,1,99.185-7.9a3.859,3.859,0,0,1,1.37.214,2.659,2.659,0,0,1,.928.575,2.632,2.632,0,0,1,.575.832,4.24,4.24,0,0,1,.295.987l-1.665.25a2.435,2.435,0,0,0-.449-1.075,1.323,1.323,0,0,0-1.112-.427A1.691,1.691,0,0,0,98.2-6.3a1.8,1.8,0,0,0-.589.611,2.724,2.724,0,0,0-.317.862,5.1,5.1,0,0,0-.1.987,5.329,5.329,0,0,0,.1,1.075,2.67,2.67,0,0,0,.324.862,1.652,1.652,0,0,0,.589.575,1.764,1.764,0,0,0,.9.214,1.56,1.56,0,0,0,1.164-.405,1.986,1.986,0,0,0,.5-1.156Zm7.513.412A2.917,2.917,0,0,1,108.967-.42a3.62,3.62,0,0,1-2.328.656,3.548,3.548,0,0,1-2.777-1.053,4.277,4.277,0,0,1-.95-2.968,5.215,5.215,0,0,1,.273-1.753,3.614,3.614,0,0,1,.766-1.289,3.251,3.251,0,0,1,1.178-.8,4.05,4.05,0,0,1,1.51-.273,3.936,3.936,0,0,1,1.532.273,2.866,2.866,0,0,1,1.075.766,3.171,3.171,0,0,1,.633,1.178,5.277,5.277,0,0,1,.206,1.525v.737h-5.495a2.83,2.83,0,0,0,.53,1.694,1.8,1.8,0,0,0,1.517.648,1.925,1.925,0,0,0,1.193-.309,1.5,1.5,0,0,0,.53-.884Zm-1.532-2.313a2.3,2.3,0,0,0-.442-1.488,1.715,1.715,0,0,0-1.414-.545,1.784,1.784,0,0,0-1.414.552,2.47,2.47,0,0,0-.56,1.48Z" transform="translate(426.403 783.543)" fill="#db504d"/>
    <path id="Path_92" data-name="Path 92" d="M4891.341,2617.5l-1.446-.561,2.05-4.115,1.094.446Zm2.612,3.755a2.678,2.678,0,0,1,1.5-2.619,2.73,2.73,0,0,1-1.223-2.352,3.03,3.03,0,0,1,.928-2.258,3.206,3.206,0,0,1,2.324-.907,3.146,3.146,0,0,1,2.3.907,3.033,3.033,0,0,1,.921,2.265,2.793,2.793,0,0,1-1.215,2.338,2.59,2.59,0,0,1,1.05,1.05,3.119,3.119,0,0,1,.388,1.554,3.232,3.232,0,0,1-.964,2.417,3.381,3.381,0,0,1-2.467.942,3.538,3.538,0,0,1-2.539-.949,3.145,3.145,0,0,1-1.007-2.388Zm2.187-1.346a1.757,1.757,0,0,0-.54,1.288,1.841,1.841,0,0,0,.532,1.323,1.841,1.841,0,0,0,2.611.008,1.858,1.858,0,0,0,0-2.619,1.841,1.841,0,0,0-2.6,0Zm-.331-3.632a1.658,1.658,0,0,0,1.661,1.683,1.662,1.662,0,1,0-1.172-2.834A1.576,1.576,0,0,0,4895.809,2616.274Zm8.511,8.516-1.23-.913,2.654-3.618c-.144.019-.266.034-.367.043s-.182.014-.244.014a3.121,3.121,0,0,1-2.331-1.028,3.43,3.43,0,0,1-.978-2.46,3.721,3.721,0,0,1,3.7-3.712,3.686,3.686,0,0,1,2.64,1.079,3.389,3.389,0,0,1,1.122,2.532,4.86,4.86,0,0,1-1.093,2.8Zm-.245-9.545a2,2,0,0,0-.618,1.461,2.05,2.05,0,0,0,.611,1.51,2.1,2.1,0,1,0,.007-2.971Zm12.831-2.157a3.322,3.322,0,0,1,3,1.87l-1.359.8a2.327,2.327,0,0,0-.727-.863,1.931,1.931,0,0,0-2.086.166,1.225,1.225,0,0,0-.46.978q0,.813,1.208,1.309l1.108.453a4.729,4.729,0,0,1,1.978,1.334,3.01,3.01,0,0,1,.626,1.932,3.393,3.393,0,0,1-1.021,2.532,3.509,3.509,0,0,1-2.554,1.007,3.418,3.418,0,0,1-2.388-.856,3.938,3.938,0,0,1-1.158-2.41l1.7-.374a2.891,2.891,0,0,0,.4,1.352,1.913,1.913,0,0,0,2.813.194,1.814,1.814,0,0,0,.518-1.33,1.867,1.867,0,0,0-.09-.594,1.521,1.521,0,0,0-.281-.5,2.251,2.251,0,0,0-.492-.424,4.788,4.788,0,0,0-.72-.378l-1.071-.446q-2.281-.963-2.281-2.82a2.676,2.676,0,0,1,.957-2.093,3.461,3.461,0,0,1,2.381-.848Zm5.975,4.315v4.021q0,1.741,1.374,1.741t1.374-1.741V2617.4h1.618v4.057a4.482,4.482,0,0,1-.209,1.453,2.438,2.438,0,0,1-.7.986,3.4,3.4,0,0,1-4.165,0,2.479,2.479,0,0,1-.712-.986,4.019,4.019,0,0,1-.2-1.453V2617.4Zm7.32,10.819h-1.618V2617.4h1.618v.763a2.994,2.994,0,0,1,2.172-.957,3.028,3.028,0,0,1,2.381,1.065,3.842,3.842,0,0,1,.95,2.668,3.789,3.789,0,0,1-.943,2.626,3.069,3.069,0,0,1-4.56.057Zm3.287-5.69a2.3,2.3,0,0,0,.561-1.583,2.42,2.42,0,0,0-.546-1.64,1.772,1.772,0,0,0-1.4-.64,1.848,1.848,0,0,0-1.446.619,2.344,2.344,0,0,0-.554,1.625,2.4,2.4,0,0,0,.554,1.626,1.819,1.819,0,0,0,1.439.626,1.752,1.752,0,0,0,1.388-.633Zm9.6-1.244h-5.021a2.132,2.132,0,0,0,.561,1.373,1.712,1.712,0,0,0,1.274.5,1.65,1.65,0,0,0,1-.288,4.084,4.084,0,0,0,.885-1.064l1.367.762a5.375,5.375,0,0,1-.669.924,3.537,3.537,0,0,1-.755.633,3.033,3.033,0,0,1-.871.364,4.273,4.273,0,0,1-1.014.115,3.3,3.3,0,0,1-2.517-1.007,3.777,3.777,0,0,1-.95-2.691,3.883,3.883,0,0,1,.921-2.69,3.508,3.508,0,0,1,4.905-.028,3.874,3.874,0,0,1,.892,2.711Zm-1.661-1.324a1.552,1.552,0,0,0-1.633-1.3,1.669,1.669,0,0,0-.554.09,1.589,1.589,0,0,0-.471.259,1.626,1.626,0,0,0-.364.407,1.917,1.917,0,0,0-.23.539Zm2.724-2.561h1.619v.626a3.077,3.077,0,0,1,.791-.64,1.815,1.815,0,0,1,.835-.18,2.611,2.611,0,0,1,1.337.417l-.74,1.482a1.551,1.551,0,0,0-.9-.331q-1.323,0-1.323,2v3.632h-1.619Zm11.287-4.315a3.322,3.322,0,0,1,3,1.87l-1.359.8a2.336,2.336,0,0,0-.727-.863,1.931,1.931,0,0,0-2.086.166,1.225,1.225,0,0,0-.46.978q0,.813,1.208,1.309l1.108.453a4.732,4.732,0,0,1,1.978,1.334,3.01,3.01,0,0,1,.626,1.932,3.4,3.4,0,0,1-1.021,2.532,3.509,3.509,0,0,1-2.554,1.007,3.417,3.417,0,0,1-2.388-.856,3.935,3.935,0,0,1-1.158-2.41l1.7-.374a2.883,2.883,0,0,0,.4,1.352,1.913,1.913,0,0,0,2.813.194,1.816,1.816,0,0,0,.518-1.33,1.867,1.867,0,0,0-.09-.594,1.51,1.51,0,0,0-.281-.5,2.227,2.227,0,0,0-.493-.424,4.72,4.72,0,0,0-.719-.378l-1.072-.446q-2.28-.963-2.28-2.82a2.674,2.674,0,0,1,.957-2.093,3.46,3.46,0,0,1,2.381-.848Zm9.534,4.315h1.626v7.006h-1.626v-.733a3.107,3.107,0,0,1-4.553-.116,3.9,3.9,0,0,1-.942-2.675,3.787,3.787,0,0,1,.942-2.626,3.038,3.038,0,0,1,2.359-1.05,2.978,2.978,0,0,1,2.194,1.007Zm-3.287,1.9a2.336,2.336,0,0,0-.554,1.583,2.44,2.44,0,0,0,.54,1.64,1.765,1.765,0,0,0,1.4.64,1.856,1.856,0,0,0,1.453-.619,2.661,2.661,0,0,0,0-3.251,1.833,1.833,0,0,0-1.439-.626,1.788,1.788,0,0,0-1.4.633Zm8.057-.388v5.495h-1.618v-5.495h-.691V2617.4h.691v-2.568h1.618v2.568H4971v1.511Zm1.481-4.424a1.055,1.055,0,0,1,1.05-1.043,1.02,1.02,0,0,1,.748.309,1,1,0,0,1,.309.741,1.018,1.018,0,0,1-.309.748.992.992,0,0,1-.741.31,1.057,1.057,0,0,1-1.057-1.065Zm1.863,2.913v7.006h-1.619V2617.4Zm2.27,0,1.813,3.935,1.805-3.935h1.82l-3.64,7.488-3.61-7.488Zm10.728,0h1.625v7.006h-1.625v-.733a3.108,3.108,0,0,1-4.554-.116,3.9,3.9,0,0,1-.942-2.675,3.785,3.785,0,0,1,.942-2.626,3.039,3.039,0,0,1,2.36-1.05,2.981,2.981,0,0,1,2.194,1.007Zm-3.288,1.9a2.338,2.338,0,0,0-.553,1.583,2.437,2.437,0,0,0,.539,1.64,1.765,1.765,0,0,0,1.4.64,1.853,1.853,0,0,0,1.452-.619,2.661,2.661,0,0,0,0-3.251,1.829,1.829,0,0,0-1.438-.626,1.791,1.791,0,0,0-1.4.633Z" transform="translate(-4664.524 -1847.462)" fill="#db504d"/>
    <path id="Path_169" data-name="Path 169" d="M2.283-3.211a2.073,2.073,0,0,0,.744,1.5,3.075,3.075,0,0,0,1.863.471A3.359,3.359,0,0,0,5.907-1.37a1.841,1.841,0,0,0,.663-.354,1.211,1.211,0,0,0,.354-.523,1.969,1.969,0,0,0,.1-.641,1.693,1.693,0,0,0-.074-.493,1.146,1.146,0,0,0-.265-.449,1.683,1.683,0,0,0-.516-.361,3.246,3.246,0,0,0-.825-.243l-1.341-.25a9.208,9.208,0,0,1-1.414-.368,3.252,3.252,0,0,1-1.039-.582,2.289,2.289,0,0,1-.633-.884A3.373,3.373,0,0,1,.707-7.793a2.721,2.721,0,0,1,.3-1.311,2.712,2.712,0,0,1,.832-.935A3.741,3.741,0,0,1,3.1-10.6a6.457,6.457,0,0,1,1.584-.184,5.735,5.735,0,0,1,1.827.25A3.449,3.449,0,0,1,7.7-9.877a2.717,2.717,0,0,1,.692.935,4.329,4.329,0,0,1,.324,1.1l-1.679.265a2.349,2.349,0,0,0-.714-1.311A2.486,2.486,0,0,0,4.714-9.31a4.222,4.222,0,0,0-1.053.11,1.887,1.887,0,0,0-.678.309,1.152,1.152,0,0,0-.368.457A1.351,1.351,0,0,0,2.5-7.9,1.32,1.32,0,0,0,2.88-6.865a2.865,2.865,0,0,0,1.318.53l1.458.28A4.762,4.762,0,0,1,8.1-5a2.821,2.821,0,0,1,.781,2.143,3.089,3.089,0,0,1-.243,1.23A2.629,2.629,0,0,1,7.9-.641,3.705,3.705,0,0,1,6.651.022,5.58,5.58,0,0,1,4.92.265,5.24,5.24,0,0,1,1.753-.582,3.344,3.344,0,0,1,.486-3.211Zm14.333.943A2.917,2.917,0,0,1,15.6-.42a3.62,3.62,0,0,1-2.328.656A3.548,3.548,0,0,1,10.5-.818a4.277,4.277,0,0,1-.95-2.968,5.215,5.215,0,0,1,.273-1.753,3.614,3.614,0,0,1,.766-1.289,3.251,3.251,0,0,1,1.178-.8,4.05,4.05,0,0,1,1.51-.273,3.936,3.936,0,0,1,1.532.273,2.866,2.866,0,0,1,1.075.766,3.171,3.171,0,0,1,.633,1.178,5.277,5.277,0,0,1,.206,1.525v.737H11.225a2.83,2.83,0,0,0,.53,1.694,1.8,1.8,0,0,0,1.517.648,1.925,1.925,0,0,0,1.193-.309A1.5,1.5,0,0,0,15-2.269ZM15.085-4.581a2.3,2.3,0,0,0-.442-1.488,1.715,1.715,0,0,0-1.414-.545,1.784,1.784,0,0,0-1.414.552,2.47,2.47,0,0,0-.56,1.48Zm9.443,2.313A2.917,2.917,0,0,1,23.511-.42a3.62,3.62,0,0,1-2.328.656A3.548,3.548,0,0,1,18.407-.818a4.277,4.277,0,0,1-.95-2.968,5.215,5.215,0,0,1,.273-1.753,3.614,3.614,0,0,1,.766-1.289,3.251,3.251,0,0,1,1.178-.8,4.05,4.05,0,0,1,1.51-.273,3.936,3.936,0,0,1,1.532.273,2.866,2.866,0,0,1,1.075.766,3.171,3.171,0,0,1,.633,1.178,5.277,5.277,0,0,1,.206,1.525v.737H19.136a2.83,2.83,0,0,0,.53,1.694,1.8,1.8,0,0,0,1.517.648,1.925,1.925,0,0,0,1.193-.309,1.5,1.5,0,0,0,.53-.884ZM23-4.581a2.3,2.3,0,0,0-.442-1.488,1.715,1.715,0,0,0-1.414-.545,1.784,1.784,0,0,0-1.414.552,2.47,2.47,0,0,0-.56,1.48Zm8.043.589a4.111,4.111,0,0,0-.155-1.215,1.973,1.973,0,0,0-.427-.781,1.575,1.575,0,0,0-.633-.412,2.3,2.3,0,0,0-.759-.125,1.7,1.7,0,0,0-1.436.663,3.3,3.3,0,0,0-.508,2.018,4.84,4.84,0,0,0,.14,1.252,2.3,2.3,0,0,0,.4.84,1.552,1.552,0,0,0,.6.471,1.827,1.827,0,0,0,.737.147,1.95,1.95,0,0,0,1.48-.6,2.628,2.628,0,0,0,.567-1.863Zm.015,2.932a3.254,3.254,0,0,1-1.068.972,2.872,2.872,0,0,1-1.392.324,3.227,3.227,0,0,1-1.429-.295,2.7,2.7,0,0,1-1-.832,3.766,3.766,0,0,1-.6-1.282,6.353,6.353,0,0,1-.2-1.643,5.743,5.743,0,0,1,.206-1.569,3.886,3.886,0,0,1,.6-1.267,3.054,3.054,0,0,1,.98-.862A2.965,2.965,0,0,1,28.5-7.866a1.969,1.969,0,0,1,.295-.007q.147.007.309.022a3.118,3.118,0,0,1,.994.287,2.794,2.794,0,0,1,.921.759v-3.712h1.665V0H31.053Zm14.54-2.49a5,5,0,0,1-.4,1.517,3.753,3.753,0,0,1-.854,1.208,3.821,3.821,0,0,1-1.326.8A5.236,5.236,0,0,1,41.2.265a5.085,5.085,0,0,1-2.026-.383,4.054,4.054,0,0,1-1.5-1.1,4.832,4.832,0,0,1-.928-1.738,7.734,7.734,0,0,1-.317-2.291,7.292,7.292,0,0,1,.346-2.328,4.986,4.986,0,0,1,.98-1.746,4.2,4.2,0,0,1,1.517-1.09,4.921,4.921,0,0,1,1.945-.376,5.224,5.224,0,0,1,1.709.25,3.5,3.5,0,0,1,1.23.714,3.475,3.475,0,0,1,.81,1.112,5.988,5.988,0,0,1,.449,1.444l-1.753.25a5.337,5.337,0,0,0-.295-.943,2.2,2.2,0,0,0-.464-.7,1.935,1.935,0,0,0-.7-.442,2.815,2.815,0,0,0-.987-.155,2.7,2.7,0,0,0-1.252.28,2.57,2.57,0,0,0-.921.8,3.758,3.758,0,0,0-.567,1.26,6.562,6.562,0,0,0-.192,1.65,6.394,6.394,0,0,0,.2,1.665,3.774,3.774,0,0,0,.582,1.26,2.582,2.582,0,0,0,.921.8,2.684,2.684,0,0,0,1.23.273,3.025,3.025,0,0,0,1.053-.162A2,2,0,0,0,43-1.886a2.116,2.116,0,0,0,.464-.714,4.011,4.011,0,0,0,.243-.95Zm2.578-6.968V0H46.492V-10.518Zm2.9,2.858v4.817a2.01,2.01,0,0,0,.317,1.311,1.23,1.23,0,0,0,.965.354,2.062,2.062,0,0,0,.714-.133,1.97,1.97,0,0,0,.641-.383,2,2,0,0,0,.457-.6,1.754,1.754,0,0,0,.177-.8V-7.66h1.679V0H54.388V-1.12A3.494,3.494,0,0,1,53.238-.088a2.816,2.816,0,0,1-1.326.324A2.383,2.383,0,0,1,49.99-.457a3.246,3.246,0,0,1-.582-2.121V-7.66ZM58.939-3.58a3.858,3.858,0,0,0,.184,1.208,2.058,2.058,0,0,0,.442.751,1.419,1.419,0,0,0,.626.383,2.617,2.617,0,0,0,.737.1,1.972,1.972,0,0,0,.766-.147,1.609,1.609,0,0,0,.619-.464,2.239,2.239,0,0,0,.412-.832,4.675,4.675,0,0,0,.147-1.267,4.264,4.264,0,0,0-.155-1.23,2.488,2.488,0,0,0-.405-.825,1.507,1.507,0,0,0-.6-.464A1.807,1.807,0,0,0,61-6.511a2.255,2.255,0,0,0-.935.177,1.66,1.66,0,0,0-.641.5,2.134,2.134,0,0,0-.368.773,3.917,3.917,0,0,0-.118.994v.486Zm.015-6.938v3.86a3.209,3.209,0,0,1,1.053-.921A2.926,2.926,0,0,1,61.4-7.9a3.227,3.227,0,0,1,1.429.295,2.729,2.729,0,0,1,1,.825,3.685,3.685,0,0,1,.6,1.274,6.354,6.354,0,0,1,.2,1.643,5.723,5.723,0,0,1-.236,1.7,3.7,3.7,0,0,1-.678,1.289,3.022,3.022,0,0,1-1.061.818,3.249,3.249,0,0,1-1.385.287,3.087,3.087,0,0,1-1.282-.265A2.9,2.9,0,0,1,58.91-.913V0H57.29V-10.518ZM69.62-3.211a2.073,2.073,0,0,0,.744,1.5,3.075,3.075,0,0,0,1.863.471,3.359,3.359,0,0,0,1.016-.133,1.841,1.841,0,0,0,.663-.354,1.211,1.211,0,0,0,.354-.523,1.969,1.969,0,0,0,.1-.641,1.693,1.693,0,0,0-.074-.493,1.146,1.146,0,0,0-.265-.449,1.683,1.683,0,0,0-.516-.361,3.246,3.246,0,0,0-.825-.243l-1.341-.25a9.208,9.208,0,0,1-1.414-.368,3.252,3.252,0,0,1-1.039-.582,2.289,2.289,0,0,1-.633-.884,3.373,3.373,0,0,1-.214-1.274,2.721,2.721,0,0,1,.3-1.311,2.712,2.712,0,0,1,.832-.935,3.741,3.741,0,0,1,1.26-.56,6.457,6.457,0,0,1,1.584-.184,5.735,5.735,0,0,1,1.827.25,3.449,3.449,0,0,1,1.193.656,2.717,2.717,0,0,1,.692.935,4.329,4.329,0,0,1,.324,1.1l-1.679.265a2.349,2.349,0,0,0-.714-1.311A2.486,2.486,0,0,0,72.05-9.31,4.222,4.222,0,0,0,71-9.2a1.887,1.887,0,0,0-.678.309,1.152,1.152,0,0,0-.368.457,1.351,1.351,0,0,0-.11.538,1.32,1.32,0,0,0,.376,1.031,2.865,2.865,0,0,0,1.318.53l1.458.28A4.762,4.762,0,0,1,75.438-5a2.821,2.821,0,0,1,.781,2.143,3.09,3.09,0,0,1-.243,1.23,2.629,2.629,0,0,1-.744.987,3.705,3.705,0,0,1-1.245.663,5.58,5.58,0,0,1-1.731.243,5.24,5.24,0,0,1-3.167-.847,3.344,3.344,0,0,1-1.267-2.63Zm9.163-7.307V-4.7l3.27-2.961h1.959L81.242-5.053,84.262,0H82.421L80.035-4.1l-1.252,1.12V0H77.147V-10.518ZM86.074-7.66v4.817a2.01,2.01,0,0,0,.317,1.311,1.23,1.23,0,0,0,.965.354,2.062,2.062,0,0,0,.714-.133,1.97,1.97,0,0,0,.641-.383,2,2,0,0,0,.457-.6,1.754,1.754,0,0,0,.177-.8V-7.66h1.679V0H89.389V-1.12A3.494,3.494,0,0,1,88.24-.088a2.816,2.816,0,0,1-1.326.324,2.383,2.383,0,0,1-1.922-.692,3.246,3.246,0,0,1-.582-2.121V-7.66Zm7.837,0v1.12a3.289,3.289,0,0,1,1.156-1.031A3.009,3.009,0,0,1,96.445-7.9q2.563,0,2.563,2.828V0H97.329V-4.8a1.951,1.951,0,0,0-.339-1.3,1.28,1.28,0,0,0-1-.376,2.127,2.127,0,0,0-.818.155,1.937,1.937,0,0,0-.641.42,2.025,2.025,0,0,0-.42.611,1.768,1.768,0,0,0-.155.729V0H92.291V-7.66Zm7.94-2.858V-4.7l3.27-2.961h1.959l-2.769,2.607L107.331,0H105.49L103.1-4.1l-1.252,1.12V0h-1.635V-10.518Zm13.14,4.228h-1.959L112.59-3.7h1.959Zm-5.333,3.83V-3.7h1.488l.427-2.593h-1.429V-7.528h1.635l.4-2.46h1.458l-.412,2.46h1.959l.4-2.46h1.444l-.4,2.46h1.164V-6.29h-1.355L116.008-3.7h1.267V-2.46h-1.488l-.4,2.46h-1.444l.4-2.46h-1.959l-.4,2.46h-1.444l.4-2.46Zm9.84-4.508-.737-1.237,3.152-1.974h1.473V0H121.68V-8.279Z" transform="translate(214.329 791.777)" fill="#db504d"/>
  </g>
</svg>
