<svg xmlns="http://www.w3.org/2000/svg" width="312.415" height="79.192" viewBox="0 0 312.415 79.192">
  <g id="Greencush_Strain_Activities" transform="translate(-217.524 -1167.342)">
    <g id="Group_70" data-name="Group 70" transform="translate(-3785.6 -1847.462)">
      <g id="Group_65" data-name="Group 65">
        <path id="Path_167" data-name="Path 167" d="M-25.568-4.281a6.031,6.031,0,0,1-.48,1.829,4.526,4.526,0,0,1-1.03,1.456,4.608,4.608,0,0,1-1.6.968A6.313,6.313,0,0,1-30.861.32,6.132,6.132,0,0,1-33.3-.142a4.888,4.888,0,0,1-1.812-1.323,5.826,5.826,0,0,1-1.119-2.1,9.326,9.326,0,0,1-.382-2.762A8.792,8.792,0,0,1-36.2-9.13a6.011,6.011,0,0,1,1.181-2.1,5.059,5.059,0,0,1,1.829-1.314A5.934,5.934,0,0,1-30.843-13a6.3,6.3,0,0,1,2.06.3,4.219,4.219,0,0,1,1.483.861,4.19,4.19,0,0,1,.977,1.341,7.22,7.22,0,0,1,.542,1.741l-2.114.3a6.435,6.435,0,0,0-.355-1.137,2.658,2.658,0,0,0-.559-.844,2.333,2.333,0,0,0-.844-.533,3.394,3.394,0,0,0-1.19-.186,3.259,3.259,0,0,0-1.51.337,3.1,3.1,0,0,0-1.11.968,4.53,4.53,0,0,0-.684,1.519,7.912,7.912,0,0,0-.231,1.989,7.71,7.71,0,0,0,.24,2.007,4.551,4.551,0,0,0,.7,1.519,3.114,3.114,0,0,0,1.11.959,3.236,3.236,0,0,0,1.483.329,3.647,3.647,0,0,0,1.27-.2,2.417,2.417,0,0,0,.879-.551,2.551,2.551,0,0,0,.559-.861,4.836,4.836,0,0,0,.293-1.146Zm3.837-8.4v4.725a3.755,3.755,0,0,1,1.359-1.181A3.659,3.659,0,0,1-18.73-9.52q3.091,0,3.091,3.41V0h-2.025V-5.79a2.352,2.352,0,0,0-.409-1.572,1.544,1.544,0,0,0-1.208-.453,2.508,2.508,0,0,0-1,.2,2.452,2.452,0,0,0-.773.515,2.314,2.314,0,0,0-.5.737,2.179,2.179,0,0,0-.178.861V0h-2.007V-12.682ZM-9.156-4.316a8.081,8.081,0,0,0-1.465.2,2.507,2.507,0,0,0-.861.364,1.06,1.06,0,0,0-.4.515,1.982,1.982,0,0,0-.1.631,1.191,1.191,0,0,0,.382.941,1.656,1.656,0,0,0,1.128.337A2.6,2.6,0,0,0-8.5-2.007,2.551,2.551,0,0,0-7.86-3.837v-.533Zm1.332,3.108A4.3,4.3,0,0,1-9.085-.178,3.724,3.724,0,0,1-10.9.231,4.288,4.288,0,0,1-12.122.062a2.828,2.828,0,0,1-.986-.506,2.339,2.339,0,0,1-.657-.861,2.944,2.944,0,0,1-.24-1.234,2.609,2.609,0,0,1,.426-1.554,2.941,2.941,0,0,1,1.11-.932A5.3,5.3,0,0,1-10.932-5.5a15.113,15.113,0,0,1,1.705-.169l1.368-.071v-.391a1.754,1.754,0,0,0-.506-1.448,2.073,2.073,0,0,0-1.323-.4,2.438,2.438,0,0,0-1.394.32,1.5,1.5,0,0,0-.6.924l-1.847-.2A2.806,2.806,0,0,1-12.3-8.9,4.967,4.967,0,0,1-9.618-9.52,5,5,0,0,1-7.8-9.236a2.855,2.855,0,0,1,1.146.782,2.824,2.824,0,0,1,.6,1.181,6.261,6.261,0,0,1,.169,1.5V0H-7.824Zm3.25-6.43v-1.6h1.456v-2.487H-1.11v2.487H1.181v1.6H-1.11v4.831a1.5,1.5,0,0,0,.293,1.03,1.111,1.111,0,0,0,.861.32,4.511,4.511,0,0,0,.577-.036,2.871,2.871,0,0,0,.542-.124l.3,1.51A5.808,5.808,0,0,1-.382.178a2.528,2.528,0,0,1-2.131-.79,3.876,3.876,0,0,1-.6-2.371V-7.638Zm6.448,0v-1.6H3.33v-2.487H5.337v2.487H7.629v1.6H5.337v4.831a1.5,1.5,0,0,0,.293,1.03,1.111,1.111,0,0,0,.861.32,4.511,4.511,0,0,0,.577-.036,2.871,2.871,0,0,0,.542-.124l.3,1.51A5.808,5.808,0,0,1,6.066.178a2.528,2.528,0,0,1-2.131-.79,3.876,3.876,0,0,1-.6-2.371V-7.638Zm9.432-5.044v2.007h-2.1v-2.007ZM11.27-9.236V0H9.245V-9.236Zm4.281,0v1.35A3.965,3.965,0,0,1,16.945-9.13a3.628,3.628,0,0,1,1.661-.391q3.091,0,3.091,3.41V0H19.671V-5.79a2.352,2.352,0,0,0-.409-1.572,1.544,1.544,0,0,0-1.208-.453,2.564,2.564,0,0,0-.986.186,2.335,2.335,0,0,0-.773.506,2.442,2.442,0,0,0-.506.737,2.131,2.131,0,0,0-.186.879V0H13.6V-9.236ZM25.994.71a1.526,1.526,0,0,0,.631,1.039,3.028,3.028,0,0,0,1.536.293,2.4,2.4,0,0,0,1.314-.32A1.794,1.794,0,0,0,30.2.746a5.87,5.87,0,0,0,.222-1.812v-.622A3.307,3.307,0,0,1,29.174-.6a3.722,3.722,0,0,1-1.687.373,3.522,3.522,0,0,1-2.877-1.226A5.176,5.176,0,0,1,23.6-4.849a5.018,5.018,0,0,1,1.1-3.393A3.694,3.694,0,0,1,27.646-9.52a3.4,3.4,0,0,1,2.824,1.4V-9.236h1.972v7.851a5.8,5.8,0,0,1-1.03,3.845,4.1,4.1,0,0,1-3.25,1.181,5.271,5.271,0,0,1-3.011-.7A2.978,2.978,0,0,1,23.97.71Zm4.44-5.666a3.369,3.369,0,0,0-.6-2.176,2.163,2.163,0,0,0-1.776-.737,2.089,2.089,0,0,0-1.723.773,3.483,3.483,0,0,0-.622,2.229,3.643,3.643,0,0,0,.6,2.229,1.96,1.96,0,0,0,1.661.79,2.3,2.3,0,0,0,1.821-.737,3.059,3.059,0,0,0,.648-2.087Z" transform="translate(4039.74 3078.454)" fill="#ea514b"/>
        <g id="Group_64" data-name="Group 64">
          <path id="Path_45" data-name="Path 45" d="M4030.842,3038.059l.9-.276a18.955,18.955,0,0,0,2.149.123c7.564,0,13.8-4.422,14.7-10.131" fill="#ea514b"/>
          <path id="Path_46" data-name="Path 46" d="M4048.588,3027.775a9.157,9.157,0,0,0,.115-1.42c0-6.379-6.632-11.551-14.812-11.551s-14.812,5.172-14.812,11.551a10.067,10.067,0,0,0,3.276,7.242l-.932,7.347,9.419-2.885" fill="#ea514b"/>
          <path id="Path_47" data-name="Path 47" d="M4030.842,3038.059a9.208,9.208,0,0,0-.062,1.03c0,6.379,6.632,11.551,14.812,11.551a19.012,19.012,0,0,0,2.15-.123l10.318,3.161-.932-7.347a10.068,10.068,0,0,0,3.277-7.242c0-5.579-5.073-10.234-11.817-11.314" fill="#ea514b"/>
        </g>
      </g>
      <g id="Group_66" data-name="Group 66">
        <path id="Path_166" data-name="Path 166" d="M-20.677-12.181-17.333-2.8l3.395-9.383h2.2L-16.361,0H-18.34l-4.64-12.181Zm12.079,0v1.928h-2.013v-1.928Zm-.034,3.31V0h-1.945V-8.871Zm8.5,4.248A4.761,4.761,0,0,0-.316-6.031a2.285,2.285,0,0,0-.495-.9,1.824,1.824,0,0,0-.734-.478,2.661,2.661,0,0,0-.879-.145,1.974,1.974,0,0,0-1.663.768,3.823,3.823,0,0,0-.589,2.337A5.605,5.605,0,0,0-4.512-3a2.668,2.668,0,0,0,.461.972,1.8,1.8,0,0,0,.691.546,2.116,2.116,0,0,0,.853.171A2.258,2.258,0,0,0-.793-2,3.044,3.044,0,0,0-.136-4.163Zm.017,3.395A3.769,3.769,0,0,1-1.356-.1,3.326,3.326,0,0,1-2.968.273,3.737,3.737,0,0,1-4.623-.068a3.127,3.127,0,0,1-1.16-.964,4.362,4.362,0,0,1-.691-1.484,7.358,7.358,0,0,1-.23-1.9,6.651,6.651,0,0,1,.239-1.817,4.5,4.5,0,0,1,.7-1.467,3.536,3.536,0,0,1,1.135-1A3.433,3.433,0,0,1-3.071-9.11a2.28,2.28,0,0,1,.341-.009q.171.009.358.026A3.611,3.611,0,0,1-1.22-8.76a3.236,3.236,0,0,1,1.066.879v-4.3H1.774V0H-.119Zm11.993-1.4A3.378,3.378,0,0,1,10.7-.486,4.193,4.193,0,0,1,8,.273,4.109,4.109,0,0,1,4.785-.947a4.954,4.954,0,0,1-1.1-3.438A6.039,6.039,0,0,1,4-6.415a4.186,4.186,0,0,1,.887-1.493,3.765,3.765,0,0,1,1.365-.921A4.69,4.69,0,0,1,8-9.144a4.558,4.558,0,0,1,1.774.316,3.319,3.319,0,0,1,1.245.887,3.672,3.672,0,0,1,.734,1.365,6.112,6.112,0,0,1,.239,1.766v.853H5.63A3.277,3.277,0,0,0,6.244-2,2.082,2.082,0,0,0,8-1.245,2.229,2.229,0,0,0,9.383-1.6,1.741,1.741,0,0,0,10-2.627ZM10.1-5.306a2.659,2.659,0,0,0-.512-1.723A1.987,1.987,0,0,0,7.95-7.66a2.066,2.066,0,0,0-1.638.64,2.861,2.861,0,0,0-.648,1.715ZM17.964-1.3a2.019,2.019,0,0,0,1.8-.844,4.077,4.077,0,0,0,.572-2.312,4,4,0,0,0-.572-2.286,2.026,2.026,0,0,0-1.8-.836,2.019,2.019,0,0,0-1.8.844,4.007,4.007,0,0,0-.572,2.278,4.183,4.183,0,0,0,.554,2.3A2,2,0,0,0,17.964-1.3ZM17.947.273A4.187,4.187,0,0,1,14.723-.955a4.919,4.919,0,0,1-1.143-3.48,5.91,5.91,0,0,1,.3-1.928,4.165,4.165,0,0,1,.862-1.484A3.859,3.859,0,0,1,16.122-8.8a4.8,4.8,0,0,1,1.86-.341,4.74,4.74,0,0,1,1.877.35,3.866,3.866,0,0,1,1.373.964,4.044,4.044,0,0,1,.836,1.476,6.04,6.04,0,0,1,.281,1.885,5.876,5.876,0,0,1-.324,2.039,4.166,4.166,0,0,1-.913,1.484,3.819,3.819,0,0,1-1.39.913A4.924,4.924,0,0,1,17.947.273Zm-34.274,8.5v5.016A6.209,6.209,0,0,1-18.544,15.1a7.818,7.818,0,0,1-2.576.444,6.319,6.319,0,0,1-2.482-.452,4.794,4.794,0,0,1-1.783-1.28,5.433,5.433,0,0,1-1.075-2,9.069,9.069,0,0,1-.358-2.644,8.474,8.474,0,0,1,.392-2.67,5.927,5.927,0,0,1,1.109-2.022,4.746,4.746,0,0,1,1.74-1.28,5.692,5.692,0,0,1,2.286-.444,6.018,6.018,0,0,1,1.936.281,4.153,4.153,0,0,1,1.4.776,4,4,0,0,1,.921,1.152,5.191,5.191,0,0,1,.5,1.407l-2.03.29a5.018,5.018,0,0,0-.333-.913,2.1,2.1,0,0,0-.512-.674,2.162,2.162,0,0,0-.776-.418A3.72,3.72,0,0,0-21.291,4.5a3.192,3.192,0,0,0-1.493.333,2.931,2.931,0,0,0-1.066.947,4.309,4.309,0,0,0-.631,1.467,8.122,8.122,0,0,0-.2,1.894,8.285,8.285,0,0,0,.2,1.928,4.03,4.03,0,0,0,.648,1.459,2.951,2.951,0,0,0,1.117.93,3.732,3.732,0,0,0,1.629.324,6.054,6.054,0,0,0,1.535-.179,4.081,4.081,0,0,0,1.314-.623V10.51h-2.7V8.77Zm6.125,2.32a7.762,7.762,0,0,0-1.407.188,2.408,2.408,0,0,0-.827.35,1.018,1.018,0,0,0-.384.495,1.9,1.9,0,0,0-.094.606,1.144,1.144,0,0,0,.367.9,1.591,1.591,0,0,0,1.083.324,2.5,2.5,0,0,0,1.894-.648,2.451,2.451,0,0,0,.614-1.757v-.512Zm1.28,2.986a4.129,4.129,0,0,1-1.211.989,3.577,3.577,0,0,1-1.74.392,4.119,4.119,0,0,1-1.177-.162A2.717,2.717,0,0,1-14,14.809a2.247,2.247,0,0,1-.631-.827,2.827,2.827,0,0,1-.23-1.186A2.506,2.506,0,0,1-14.45,11.3a2.825,2.825,0,0,1,1.066-.9,5.091,5.091,0,0,1,1.476-.452,14.516,14.516,0,0,1,1.638-.162l1.314-.068V9.35a1.685,1.685,0,0,0-.486-1.39,1.991,1.991,0,0,0-1.271-.384,2.341,2.341,0,0,0-1.339.307,1.445,1.445,0,0,0-.572.887L-14.4,8.582a2.7,2.7,0,0,1,1.177-1.894,4.771,4.771,0,0,1,2.576-.6A4.8,4.8,0,0,1-8.9,6.364a2.743,2.743,0,0,1,1.1.751A2.713,2.713,0,0,1-7.225,8.25a6.014,6.014,0,0,1,.162,1.442v5.545h-1.86Zm5.869-7.711v1.28A3.35,3.35,0,0,1-.87,6.16a4.374,4.374,0,0,1,.682-.051,2.569,2.569,0,0,1,1.467.452A2.362,2.362,0,0,1,2.1,7.7,3.5,3.5,0,0,1,5,6.091a2.58,2.58,0,0,1,2.081.785,3.847,3.847,0,0,1,.665,2.508v5.852H5.8V9.913a5.623,5.623,0,0,0-.085-1.075,1.924,1.924,0,0,0-.247-.674.838.838,0,0,0-.418-.341,1.677,1.677,0,0,0-.58-.094,2.072,2.072,0,0,0-.9.188,1.982,1.982,0,0,0-.657.495,2.157,2.157,0,0,0-.4.691,2.351,2.351,0,0,0-.136.793v5.34H.427V9.725a2.57,2.57,0,0,0-.35-1.57,1.179,1.179,0,0,0-.964-.427A2.133,2.133,0,0,0-1.5,7.84a2.2,2.2,0,0,0-.691.367,2.2,2.2,0,0,0-.572.682A2.1,2.1,0,0,0-3,9.93v5.306H-4.93V6.364ZM17.76,12.608a3.378,3.378,0,0,1-1.177,2.141,4.193,4.193,0,0,1-2.7.759,4.109,4.109,0,0,1-3.216-1.22,4.954,4.954,0,0,1-1.1-3.438,6.039,6.039,0,0,1,.316-2.03,4.186,4.186,0,0,1,.887-1.493,3.765,3.765,0,0,1,1.365-.921,4.69,4.69,0,0,1,1.749-.316,4.558,4.558,0,0,1,1.774.316,3.319,3.319,0,0,1,1.245.887,3.673,3.673,0,0,1,.734,1.365,6.112,6.112,0,0,1,.239,1.766v.853H11.516a3.277,3.277,0,0,0,.614,1.962,2.082,2.082,0,0,0,1.757.751,2.229,2.229,0,0,0,1.382-.358,1.741,1.741,0,0,0,.614-1.024ZM15.985,9.93a2.659,2.659,0,0,0-.512-1.723,1.987,1.987,0,0,0-1.638-.631,2.066,2.066,0,0,0-1.638.64A2.861,2.861,0,0,0,11.55,9.93ZM21.1,12.523a1.63,1.63,0,0,0,.239.725,1.482,1.482,0,0,0,.469.452,1.8,1.8,0,0,0,.657.23,5.106,5.106,0,0,0,.8.06,2.565,2.565,0,0,0,1.4-.29.965.965,0,0,0,.427-.853,1.111,1.111,0,0,0-.264-.751,1.843,1.843,0,0,0-1.083-.444q-1.058-.188-1.86-.358a4.969,4.969,0,0,1-1.348-.469,2.061,2.061,0,0,1-.819-.768,2.526,2.526,0,0,1-.273-1.271,2.305,2.305,0,0,1,.273-1.117,2.527,2.527,0,0,1,.759-.853,3.64,3.64,0,0,1,1.16-.537,5.488,5.488,0,0,1,1.476-.188,6.032,6.032,0,0,1,1.706.2,3.079,3.079,0,0,1,1.109.563,2.461,2.461,0,0,1,.648.819,4.691,4.691,0,0,1,.341.972l-1.74.239a1.922,1.922,0,0,0-.623-.989,2.3,2.3,0,0,0-1.39-.324,3.434,3.434,0,0,0-.921.1,1.849,1.849,0,0,0-.572.256.807.807,0,0,0-.29.341.985.985,0,0,0-.077.375,1.417,1.417,0,0,0,.068.478.618.618,0,0,0,.247.307,1.709,1.709,0,0,0,.486.2q.307.085.768.171L23.987,10a7.29,7.29,0,0,1,1.476.392,2.794,2.794,0,0,1,.938.589,1.891,1.891,0,0,1,.486.81,3.6,3.6,0,0,1,.136,1.024,2.386,2.386,0,0,1-.921,1.953,4.408,4.408,0,0,1-2.8.742,7.339,7.339,0,0,1-1.476-.145,3.966,3.966,0,0,1-1.271-.486,2.7,2.7,0,0,1-.913-.913,3.077,3.077,0,0,1-.4-1.442Z" transform="translate(4163.063 3078.454)" fill="#ea514b"/>
      </g>
      <g id="Group_67" data-name="Group 67">
        <path id="Path_165" data-name="Path 165" d="M-23.509-4.112a5.792,5.792,0,0,1-.461,1.757,4.347,4.347,0,0,1-.989,1.4,4.426,4.426,0,0,1-1.535.93,6.064,6.064,0,0,1-2.1.333,5.889,5.889,0,0,1-2.346-.444,4.7,4.7,0,0,1-1.74-1.271,5.6,5.6,0,0,1-1.075-2.013,8.957,8.957,0,0,1-.367-2.653,8.445,8.445,0,0,1,.4-2.7,5.774,5.774,0,0,1,1.135-2.022,4.859,4.859,0,0,1,1.757-1.262,5.7,5.7,0,0,1,2.252-.435,6.05,6.05,0,0,1,1.979.29,4.052,4.052,0,0,1,1.425.827,4.025,4.025,0,0,1,.938,1.288,6.935,6.935,0,0,1,.52,1.672l-2.03.29a6.181,6.181,0,0,0-.341-1.092,2.553,2.553,0,0,0-.537-.81,2.241,2.241,0,0,0-.81-.512,3.26,3.26,0,0,0-1.143-.179,3.13,3.13,0,0,0-1.45.324,2.976,2.976,0,0,0-1.066.93A4.352,4.352,0,0,0-31.749-8a7.6,7.6,0,0,0-.222,1.911,7.4,7.4,0,0,0,.23,1.928A4.371,4.371,0,0,0-31.067-2.7,2.991,2.991,0,0,0-30-1.783a3.108,3.108,0,0,0,1.425.316,3.5,3.5,0,0,0,1.22-.188,2.322,2.322,0,0,0,.844-.529,2.45,2.45,0,0,0,.537-.827,4.645,4.645,0,0,0,.281-1.1Zm3.719-8.069V0h-1.945V-12.181ZM-9.673-2.627A3.378,3.378,0,0,1-10.85-.486a4.193,4.193,0,0,1-2.7.759,4.109,4.109,0,0,1-3.216-1.22,4.954,4.954,0,0,1-1.1-3.438,6.039,6.039,0,0,1,.316-2.03,4.186,4.186,0,0,1,.887-1.493,3.765,3.765,0,0,1,1.365-.921,4.69,4.69,0,0,1,1.749-.316,4.558,4.558,0,0,1,1.774.316,3.319,3.319,0,0,1,1.245.887,3.672,3.672,0,0,1,.734,1.365,6.112,6.112,0,0,1,.239,1.766v.853h-6.363A3.277,3.277,0,0,0-15.3-2a2.082,2.082,0,0,0,1.757.751A2.229,2.229,0,0,0-12.164-1.6a1.741,1.741,0,0,0,.614-1.024Zm-1.774-2.678a2.659,2.659,0,0,0-.512-1.723A1.987,1.987,0,0,0-13.6-7.66a2.066,2.066,0,0,0-1.638.64,2.861,2.861,0,0,0-.648,1.715Zm7.882,1.16a7.762,7.762,0,0,0-1.407.188,2.408,2.408,0,0,0-.827.35,1.018,1.018,0,0,0-.384.495,1.9,1.9,0,0,0-.094.606,1.144,1.144,0,0,0,.367.9,1.591,1.591,0,0,0,1.083.324,2.5,2.5,0,0,0,1.894-.648A2.451,2.451,0,0,0-2.32-3.685V-4.2Zm1.28,2.986A4.129,4.129,0,0,1-3.5-.171a3.577,3.577,0,0,1-1.74.392A4.119,4.119,0,0,1-6.415.06a2.717,2.717,0,0,1-.947-.486,2.247,2.247,0,0,1-.631-.827,2.827,2.827,0,0,1-.23-1.186,2.506,2.506,0,0,1,.409-1.493,2.825,2.825,0,0,1,1.066-.9A5.091,5.091,0,0,1-5.272-5.28a14.516,14.516,0,0,1,1.638-.162L-2.32-5.51v-.375a1.685,1.685,0,0,0-.486-1.39A1.991,1.991,0,0,0-4.077-7.66a2.341,2.341,0,0,0-1.339.307,1.445,1.445,0,0,0-.572.887l-1.774-.188A2.7,2.7,0,0,1-6.585-8.547a4.771,4.771,0,0,1,2.576-.6,4.8,4.8,0,0,1,1.749.273,2.743,2.743,0,0,1,1.1.751A2.713,2.713,0,0,1-.589-6.986,6.014,6.014,0,0,1-.427-5.545V0h-1.86ZM3.583-8.871v1.3A3.809,3.809,0,0,1,4.922-8.769a3.485,3.485,0,0,1,1.6-.375q2.968,0,2.968,3.276V0H7.541V-5.562a2.259,2.259,0,0,0-.392-1.51,1.483,1.483,0,0,0-1.16-.435,2.463,2.463,0,0,0-.947.179,2.243,2.243,0,0,0-.742.486,2.345,2.345,0,0,0-.486.708,2.047,2.047,0,0,0-.179.844V0H1.706V-8.871Zm10.031-3.31v1.928H11.6v-1.928Zm-.034,3.31V0H11.635V-8.871Zm4.112,0v1.3a3.809,3.809,0,0,1,1.339-1.194,3.485,3.485,0,0,1,1.6-.375q2.968,0,2.968,3.276V0H21.649V-5.562a2.259,2.259,0,0,0-.392-1.51,1.483,1.483,0,0,0-1.16-.435,2.463,2.463,0,0,0-.947.179,2.243,2.243,0,0,0-.742.486,2.345,2.345,0,0,0-.486.708,2.047,2.047,0,0,0-.179.844V0H15.815V-8.871ZM27.723.682a1.466,1.466,0,0,0,.606,1,2.908,2.908,0,0,0,1.476.281,2.305,2.305,0,0,0,1.262-.307,1.723,1.723,0,0,0,.691-.938,5.638,5.638,0,0,0,.213-1.74v-.6A3.176,3.176,0,0,1,30.777-.58a3.575,3.575,0,0,1-1.621.358A3.383,3.383,0,0,1,26.392-1.4a4.972,4.972,0,0,1-.972-3.259,4.82,4.82,0,0,1,1.058-3.259,3.548,3.548,0,0,1,2.832-1.228A3.269,3.269,0,0,1,32.022-7.8V-8.871h1.894v7.541a5.574,5.574,0,0,1-.989,3.694A3.933,3.933,0,0,1,29.8,3.5a5.062,5.062,0,0,1-2.892-.674A2.86,2.86,0,0,1,25.778.682ZM31.988-4.76a3.236,3.236,0,0,0-.58-2.09A2.077,2.077,0,0,0,29.7-7.558a2.006,2.006,0,0,0-1.655.742,3.346,3.346,0,0,0-.6,2.141,3.5,3.5,0,0,0,.572,2.141,1.883,1.883,0,0,0,1.6.759,2.206,2.206,0,0,0,1.749-.708,2.938,2.938,0,0,0,.623-2ZM-24.277,3.055h2.064v4.93h5.476V3.055h2.064V15.236h-2.064V9.9h-5.476v5.34h-2.064ZM-8.189,13.939a2.019,2.019,0,0,0,1.8-.844,4.077,4.077,0,0,0,.572-2.312A4,4,0,0,0-6.389,8.5a2.026,2.026,0,0,0-1.8-.836,2.019,2.019,0,0,0-1.8.844,4.007,4.007,0,0,0-.572,2.278,4.183,4.183,0,0,0,.554,2.3A2,2,0,0,0-8.189,13.939Zm-.017,1.57A4.187,4.187,0,0,1-11.43,14.28a4.919,4.919,0,0,1-1.143-3.48,5.91,5.91,0,0,1,.3-1.928,4.165,4.165,0,0,1,.862-1.484,3.859,3.859,0,0,1,1.382-.955,4.8,4.8,0,0,1,1.86-.341,4.74,4.74,0,0,1,1.877.35,3.866,3.866,0,0,1,1.373.964,4.044,4.044,0,0,1,.836,1.476A6.04,6.04,0,0,1-3.8,10.766,5.876,5.876,0,0,1-4.129,12.8a4.165,4.165,0,0,1-.913,1.484,3.819,3.819,0,0,1-1.39.913A4.924,4.924,0,0,1-8.206,15.509ZM-.017,6.364v5.579A2.328,2.328,0,0,0,.35,13.461a1.425,1.425,0,0,0,1.117.409,2.388,2.388,0,0,0,.827-.154,2.282,2.282,0,0,0,.742-.444,2.319,2.319,0,0,0,.529-.7,2.031,2.031,0,0,0,.2-.921V6.364H5.715v8.871H3.821v-1.3a4.046,4.046,0,0,1-1.331,1.194,3.261,3.261,0,0,1-1.535.375,2.76,2.76,0,0,1-2.226-.8,3.76,3.76,0,0,1-.674-2.457V6.364Zm9.264,6.159a1.63,1.63,0,0,0,.239.725,1.482,1.482,0,0,0,.469.452,1.8,1.8,0,0,0,.657.23,5.106,5.106,0,0,0,.8.06,2.565,2.565,0,0,0,1.4-.29.965.965,0,0,0,.427-.853,1.111,1.111,0,0,0-.264-.751,1.843,1.843,0,0,0-1.083-.444q-1.058-.188-1.86-.358a4.97,4.97,0,0,1-1.348-.469,2.061,2.061,0,0,1-.819-.768,2.526,2.526,0,0,1-.273-1.271,2.305,2.305,0,0,1,.273-1.117,2.527,2.527,0,0,1,.759-.853,3.64,3.64,0,0,1,1.16-.537,5.488,5.488,0,0,1,1.476-.188,6.032,6.032,0,0,1,1.706.2,3.079,3.079,0,0,1,1.109.563,2.461,2.461,0,0,1,.648.819,4.691,4.691,0,0,1,.341.972l-1.74.239A1.922,1.922,0,0,0,12.7,7.9a2.3,2.3,0,0,0-1.39-.324,3.434,3.434,0,0,0-.921.1,1.849,1.849,0,0,0-.572.256.807.807,0,0,0-.29.341.985.985,0,0,0-.077.375,1.417,1.417,0,0,0,.068.478.618.618,0,0,0,.247.307,1.709,1.709,0,0,0,.486.2q.307.085.768.171L12.13,10a7.29,7.29,0,0,1,1.476.392,2.794,2.794,0,0,1,.938.589,1.891,1.891,0,0,1,.486.81,3.6,3.6,0,0,1,.136,1.024,2.386,2.386,0,0,1-.921,1.953,4.408,4.408,0,0,1-2.8.742,7.339,7.339,0,0,1-1.476-.145A3.966,3.966,0,0,1,8.7,14.877a2.7,2.7,0,0,1-.913-.913,3.077,3.077,0,0,1-.4-1.442Zm15.422.085a3.378,3.378,0,0,1-1.177,2.141,4.193,4.193,0,0,1-2.7.759,4.109,4.109,0,0,1-3.216-1.22,4.954,4.954,0,0,1-1.1-3.438,6.039,6.039,0,0,1,.316-2.03,4.186,4.186,0,0,1,.887-1.493,3.765,3.765,0,0,1,1.365-.921A4.69,4.69,0,0,1,20.8,6.091a4.558,4.558,0,0,1,1.774.316,3.319,3.319,0,0,1,1.245.887,3.672,3.672,0,0,1,.734,1.365,6.112,6.112,0,0,1,.239,1.766v.853H18.425a3.277,3.277,0,0,0,.614,1.962,2.082,2.082,0,0,0,1.757.751,2.229,2.229,0,0,0,1.382-.358,1.741,1.741,0,0,0,.614-1.024ZM22.895,9.93a2.659,2.659,0,0,0-.512-1.723,1.987,1.987,0,0,0-1.638-.631,2.066,2.066,0,0,0-1.638.64,2.861,2.861,0,0,0-.648,1.715Z" transform="translate(4281.623 3078.453)" fill="#ea514b"/>
      </g>
      <g id="Group_68" data-name="Group 68">
        <path id="Path_48" data-name="Path 48" d="M4278.131,3045.925q0-5.123,0-10.245a5.826,5.826,0,0,1,6.075-5.9,5.8,5.8,0,0,1,5.455,4.648,5.516,5.516,0,0,1,.116,1.085q.009,10.555,0,21.11a1.69,1.69,0,0,1-1.3,1.691,1.992,1.992,0,0,1-.443.044c-2.719,0-5.438,0-8.156,0a1.711,1.711,0,0,1-1.7-1.324,2.685,2.685,0,0,1-.041-.543Q4278.128,3051.209,4278.131,3045.925Z" fill="#ea514b"/>
        <path id="Path_49" data-name="Path 49" d="M4285.346,3023.272c-.006.093-.013.159-.013.224,0,.364,0,.728,0,1.109.079.009.141.021.2.022.34,0,.68,0,1.019,0,.058,0,.117,0,.174,0a.657.657,0,0,1,.691.712c0,.7,0,1.392,0,2.088v1.85a6.913,6.913,0,0,0-6.922-.006c-.007-.074-.015-.128-.015-.181q0-1.866,0-3.73a.666.666,0,0,1,.738-.739c.356,0,.712,0,1.069,0h.26v-1.35h-.276c-.92,0-1.84-.009-2.76,0a1.163,1.163,0,0,1-1.085-.569c-.044-.07-.1-.133-.158-.217-.053.065-.1.118-.142.174-.219.3-.431.609-.658.9a1.588,1.588,0,0,1-2.072.412.5.5,0,0,1-.18-.824c.46-.639.924-1.275,1.385-1.913.053-.073.1-.147.16-.232a3.909,3.909,0,0,0-1.4-.519,6.4,6.4,0,0,0-.692-.064.606.606,0,0,1-.646-.659q-.006-1.081,0-2.163a.6.6,0,0,1,.653-.646c3.2,0,6.4-.029,9.6.008a5.586,5.586,0,0,1,5.356,4.377,9.135,9.135,0,0,1,.147,1.206.68.68,0,0,1-.726.726c-1.135-.015-2.271-.005-3.406-.005Z" fill="#ea514b"/>
        <path id="Path_50" data-name="Path 50" d="M4267.171,3015.6a.7.7,0,0,1,.082.183c.02.18.021.363.041.544a5.276,5.276,0,0,0,4.519,4.645c.2.027.4.032.594.049.092.008.225-.03.224.12,0,.134-.124.106-.21.11a5.949,5.949,0,0,0-1.418.228,5.283,5.283,0,0,0-3.708,4.453c-.019.181-.028.363-.038.544,0,.081-.02.159-.115.159s-.115-.076-.123-.157c-.034-.337-.044-.679-.11-1.01a5.25,5.25,0,0,0-4.332-4.144c-.221-.035-.445-.046-.667-.067a.745.745,0,0,1-.172-.018c-.039-.014-.1-.071-.09-.093a.21.21,0,0,1,.1-.115.386.386,0,0,1,.146-.011,5.273,5.273,0,0,0,5.028-4.273c.057-.282.065-.574.1-.862a.588.588,0,0,1,.022-.17C4267.056,3015.68,4267.107,3015.657,4267.171,3015.6Z" fill="#ea514b"/>
        <path id="Path_51" data-name="Path 51" d="M4270.109,3029.014c.051-.115.157-.069.24-.074a3.41,3.41,0,0,0,3.207-3.211c0-.072.014-.144.02-.215.131-.032.128.047.137.123a6.486,6.486,0,0,0,.1.711,3.378,3.378,0,0,0,3.091,2.589l.236.014c.031.145-.057.133-.129.142-.221.028-.447.038-.663.088a3.366,3.366,0,0,0-2.629,3.132c0,.077.021.168-.066.218-.107-.015-.083-.1-.087-.156a3.418,3.418,0,0,0-.268-1.205,3.35,3.35,0,0,0-2.971-2.076C4270.246,3029.088,4270.151,3029.124,4270.109,3029.014Z" fill="#ea514b"/>
      </g>
      <g id="Group_69" data-name="Group 69">
        <path id="Path_52" data-name="Path 52" d="M4161.967,3020.468c2.117,0,4.234-.016,6.351,0a12.693,12.693,0,0,1,12.652,12.436c.026,1.311.03,2.624,0,3.936a8.727,8.727,0,0,1-8.719,8.505c-1.855,0-3.71-.019-5.564,0a2.51,2.51,0,0,1-2.519-2.133,3.158,3.158,0,0,1-.024-.379,2.2,2.2,0,0,0-4.392.008,2.5,2.5,0,0,1-1.806,2.4,2.47,2.47,0,0,1-.64.092c-1.955.006-3.911.063-5.862-.01a8.517,8.517,0,0,1-7.553-4.724,8.072,8.072,0,0,1-.974-3.855c-.012-1.284-.029-2.57.006-3.854a12.765,12.765,0,0,1,10.5-12.242,11.834,11.834,0,0,1,2.159-.192Q4158.778,3020.471,4161.967,3020.468Zm-8.084,14.137c.109-.006.172-.011.234-.011.688,0,1.375,0,2.063,0a1.2,1.2,0,0,0,.67-.181,1.116,1.116,0,0,0,.474-1.229,1.083,1.083,0,0,0-1.05-.824c-.7-.007-1.393,0-2.089,0-.1,0-.191-.008-.3-.012v-.329c0-.66,0-1.321,0-1.981a1.117,1.117,0,1,0-2.233-.092c-.014.7,0,1.411,0,2.117,0,.095-.01.189-.016.3h-.331c-.688,0-1.375-.007-2.062,0a1.115,1.115,0,0,0,.054,2.23c.678.007,1.357,0,2.035,0h.321v.324c0,.7-.008,1.393,0,2.09a1.091,1.091,0,0,0,.946,1.059,1.109,1.109,0,0,0,1.24-.818,1.8,1.8,0,0,0,.046-.429c.005-.633,0-1.266,0-1.9Zm17.1-2.247c-1.167,0-2.334,0-3.5,0a1.092,1.092,0,0,0-1.107.984,1.11,1.11,0,0,0,.882,1.222,1.812,1.812,0,0,0,.377.026q3.339,0,6.677,0c.082,0,.163,0,.244-.006a1.109,1.109,0,0,0,1.005-.948,1.1,1.1,0,0,0-1.1-1.279C4173.3,3032.354,4172.138,3032.358,4170.98,3032.358Z" fill="#ea514b"/>
      </g>
    </g>
  </g>
</svg>
