<svg xmlns="http://www.w3.org/2000/svg" xmlns:xlink="http://www.w3.org/1999/xlink" width="314" height="95" viewBox="0 0 314 95">
  <defs>
    <clipPath id="clip-Artboard_4">
      <rect width="314" height="95"/>
    </clipPath>
  </defs>
  <g id="Artboard_4" data-name="Artboard – 4" clip-path="url(#clip-Artboard_4)">
    <g id="Group_195" data-name="Group 195" transform="translate(-5746.646 -1121)">
      <path id="Path_144" data-name="Path 144" d="M3.054-4.295a2.772,2.772,0,0,0,.995,2.01,4.113,4.113,0,0,0,2.492.63A4.492,4.492,0,0,0,7.9-1.832a2.462,2.462,0,0,0,.887-.473A1.619,1.619,0,0,0,9.26-3,2.634,2.634,0,0,0,9.4-3.861a2.264,2.264,0,0,0-.1-.66,1.533,1.533,0,0,0-.355-.6,2.251,2.251,0,0,0-.69-.483,4.341,4.341,0,0,0-1.1-.325L5.359-6.265a12.315,12.315,0,0,1-1.891-.493,4.35,4.35,0,0,1-1.389-.778,3.061,3.061,0,0,1-.847-1.182,4.511,4.511,0,0,1-.286-1.7,3.639,3.639,0,0,1,.4-1.753,3.627,3.627,0,0,1,1.113-1.251,5,5,0,0,1,1.684-.749,8.635,8.635,0,0,1,2.118-.246,7.67,7.67,0,0,1,2.443.335,4.612,4.612,0,0,1,1.6.877,3.634,3.634,0,0,1,.926,1.251,5.79,5.79,0,0,1,.433,1.478l-2.246.355a3.141,3.141,0,0,0-.956-1.753A3.325,3.325,0,0,0,6.3-12.451,5.646,5.646,0,0,0,4.9-12.3a2.523,2.523,0,0,0-.906.414,1.541,1.541,0,0,0-.493.611,1.807,1.807,0,0,0-.148.719,1.765,1.765,0,0,0,.5,1.379,3.832,3.832,0,0,0,1.763.709l1.95.374a6.369,6.369,0,0,1,3.27,1.409A3.773,3.773,0,0,1,11.88-3.822a4.132,4.132,0,0,1-.325,1.645,3.517,3.517,0,0,1-.995,1.32A4.956,4.956,0,0,1,8.9.03,7.463,7.463,0,0,1,6.58.355,7.008,7.008,0,0,1,2.344-.778,4.473,4.473,0,0,1,.65-4.295Zm13.1-9.772v7.782l4.374-3.96h2.62l-3.7,3.487L23.484,0H21.021L17.83-5.477l-1.675,1.5V0H13.968V-14.067Zm10.6,3.822V-3.8a2.688,2.688,0,0,0,.424,1.753,1.646,1.646,0,0,0,1.29.473,2.757,2.757,0,0,0,.956-.177,2.635,2.635,0,0,0,.857-.512,2.678,2.678,0,0,0,.611-.808,2.346,2.346,0,0,0,.236-1.064v-6.107h2.246V0H31.187V-1.5A4.673,4.673,0,0,1,29.651-.118a3.766,3.766,0,0,1-1.773.433,3.187,3.187,0,0,1-2.571-.926,4.342,4.342,0,0,1-.778-2.837v-6.8Zm11.328,0v1.5a4.4,4.4,0,0,1,1.547-1.379,4.024,4.024,0,0,1,1.842-.433q3.428,0,3.428,3.783V0H42.654V-6.423A2.609,2.609,0,0,0,42.2-8.166a1.712,1.712,0,0,0-1.34-.5,2.844,2.844,0,0,0-1.093.207,2.59,2.59,0,0,0-.857.561,2.709,2.709,0,0,0-.561.818,2.364,2.364,0,0,0-.207.975V0H35.916V-10.245Zm11.466-3.822v7.782l4.374-3.96h2.62l-3.7,3.487L56.878,0H54.416L51.224-5.477l-1.675,1.5V0H47.362V-14.067Z" transform="translate(5875.646 1203.555)" fill="#ea514b"/>
      <g id="Group_164" data-name="Group 164" transform="translate(16.321 -1855.441)">
        <path id="Path_104" data-name="Path 104" d="M5877.873,3028.954a.472.472,0,0,0,.278.434,9.3,9.3,0,0,0,1.059.586,12.841,12.841,0,0,0,3.505.937,19.6,19.6,0,0,0,19.866-11.192,13.978,13.978,0,0,0,1.27-5.6,12.285,12.285,0,0,0-2.356-7.39,17.352,17.352,0,0,0-4.573-4.315,34.7,34.7,0,0,0-4.15-2.372,23.092,23.092,0,0,1-4.2-2.56,12.674,12.674,0,0,1-2.845-3.035,7.757,7.757,0,0,1-1.315-3.84,7.251,7.251,0,0,1,1.642-4.974,10.7,10.7,0,0,1,4.772-3.391,14.221,14.221,0,0,1,5.426-.88,18.33,18.33,0,0,1,8.744,2.563,24.851,24.851,0,0,1,4.794,3.583,5.135,5.135,0,0,1,1.15,1.491,3.16,3.16,0,0,1,.273.878.928.928,0,0,1-.5.986,2.581,2.581,0,0,1-1.088.312,4.457,4.457,0,0,1-2.065-.3,15.149,15.149,0,0,0-2.807-.81,7.5,7.5,0,0,0-3.773.185,6.61,6.61,0,0,0-3.111,2.248,4.038,4.038,0,0,0-.743,1.911,7.012,7.012,0,0,0,1.379,5.452,9.72,9.72,0,0,0,1.741,1.786,16.258,16.258,0,0,1,4.131,4.872,14.072,14.072,0,0,1,1.626,8.107,18.657,18.657,0,0,1-1.966,6.747,23.477,23.477,0,0,1-5.4,7.269,18.383,18.383,0,0,1-9.521,4.494,18.921,18.921,0,0,1-15.054-3.931c-.085-.065-.17-.131-.249-.2a.985.985,0,0,1-.256-1.14.97.97,0,0,1,.96-.607c.166,0,.333.019.5.029a4.59,4.59,0,0,0,4.741-3.584,4.49,4.49,0,0,0-1.215-4.305c-.575-.618-1.148-1.244-1.669-1.908a21.751,21.751,0,0,1-4.45-10.234,22.033,22.033,0,0,1,1.475-12.142c.042-.1.087-.2.132-.292a.784.784,0,0,1,.078-.086c.053.148.1.276.146.405.454,1.353.881,2.716,1.369,4.057a11.8,11.8,0,0,0,1.727,3.152,9.757,9.757,0,0,0,5.31,3.476,18.819,18.819,0,0,0,5.373.6,33.314,33.314,0,0,0,4.831-.435,4.454,4.454,0,0,1,2.353.234,6.857,6.857,0,0,1,4.538,5.512,9.373,9.373,0,0,1-.671,5.105,19.034,19.034,0,0,1-2.758,4.7,22.932,22.932,0,0,1-4.358,4.405,14.9,14.9,0,0,1-7.072,2.846,32.222,32.222,0,0,1-5.7.161c-.333-.015-.666-.032-1-.037A1.843,1.843,0,0,0,5877.873,3028.954Z" fill="#ea514b"/>
      </g>
    </g>
    <g id="Group_199" data-name="Group 199" transform="translate(-5748 -1121)">
      <path id="Path_143" data-name="Path 143" d="M6.186-2.029A5.648,5.648,0,0,0,8.3-2.384,3.6,3.6,0,0,0,9.742-3.408,4.183,4.183,0,0,0,10.56-5a7.839,7.839,0,0,0,.256-2.088,5.932,5.932,0,0,0-.985-3.635A3.782,3.782,0,0,0,6.6-12.038H3.881V-2.029ZM6.58-14.067a8.632,8.632,0,0,1,2.8.424,5.4,5.4,0,0,1,2.108,1.29,5.718,5.718,0,0,1,1.33,2.177,9.193,9.193,0,0,1,.463,3.064,8.855,8.855,0,0,1-.493,3.083A5.893,5.893,0,0,1,11.368-1.8,5.949,5.949,0,0,1,9.112-.453a9.286,9.286,0,0,1-3,.453H1.5V-14.067Zm11.309,0v2.226H15.564v-2.226Zm-.039,3.822V0H15.6V-10.245ZM29.533-3.034A3.9,3.9,0,0,1,28.173-.561,4.842,4.842,0,0,1,25.06.315a4.745,4.745,0,0,1-3.714-1.409,5.721,5.721,0,0,1-1.271-3.97,6.974,6.974,0,0,1,.364-2.344,4.834,4.834,0,0,1,1.024-1.724A4.348,4.348,0,0,1,23.041-10.2a5.416,5.416,0,0,1,2.019-.364,5.264,5.264,0,0,1,2.049.364,3.833,3.833,0,0,1,1.438,1.024,4.241,4.241,0,0,1,.847,1.576,7.058,7.058,0,0,1,.276,2.039v.985H22.322a3.784,3.784,0,0,0,.709,2.266,2.4,2.4,0,0,0,2.029.867,2.574,2.574,0,0,0,1.6-.414,2.01,2.01,0,0,0,.709-1.182ZM27.484-6.127a3.071,3.071,0,0,0-.591-1.99A2.294,2.294,0,0,0,25-8.846a2.385,2.385,0,0,0-1.891.739,3.3,3.3,0,0,0-.749,1.98Zm5.91,2.995a1.882,1.882,0,0,0,.276.837,1.712,1.712,0,0,0,.542.522,2.078,2.078,0,0,0,.759.266,5.9,5.9,0,0,0,.926.069,2.963,2.963,0,0,0,1.616-.335A1.115,1.115,0,0,0,38-2.758a1.283,1.283,0,0,0-.305-.867,2.128,2.128,0,0,0-1.251-.512q-1.221-.217-2.147-.414a5.739,5.739,0,0,1-1.556-.542,2.38,2.38,0,0,1-.946-.887,2.917,2.917,0,0,1-.315-1.468,2.662,2.662,0,0,1,.315-1.29,2.918,2.918,0,0,1,.877-.985,4.2,4.2,0,0,1,1.34-.621,6.338,6.338,0,0,1,1.7-.217,6.966,6.966,0,0,1,1.97.236,3.556,3.556,0,0,1,1.281.65,2.842,2.842,0,0,1,.749.946A5.418,5.418,0,0,1,40.112-7.6l-2.01.276a2.22,2.22,0,0,0-.719-1.143,2.661,2.661,0,0,0-1.606-.374,3.965,3.965,0,0,0-1.064.118,2.135,2.135,0,0,0-.66.3.932.932,0,0,0-.335.394,1.137,1.137,0,0,0-.089.433,1.636,1.636,0,0,0,.079.552.713.713,0,0,0,.286.355,1.974,1.974,0,0,0,.561.236q.355.1.887.2l1.281.217a8.418,8.418,0,0,1,1.7.453,3.226,3.226,0,0,1,1.084.68,2.184,2.184,0,0,1,.561.936A4.153,4.153,0,0,1,40.23-2.8,2.755,2.755,0,0,1,39.167-.542a5.09,5.09,0,0,1-3.231.857,8.475,8.475,0,0,1-1.7-.167,4.58,4.58,0,0,1-1.468-.561A3.112,3.112,0,0,1,31.71-1.468a3.553,3.553,0,0,1-.463-1.665Zm17.81.1A3.9,3.9,0,0,1,49.845-.561a4.842,4.842,0,0,1-3.113.877,4.745,4.745,0,0,1-3.714-1.409,5.721,5.721,0,0,1-1.271-3.97,6.974,6.974,0,0,1,.364-2.344,4.834,4.834,0,0,1,1.024-1.724A4.348,4.348,0,0,1,44.713-10.2a5.417,5.417,0,0,1,2.019-.364,5.264,5.264,0,0,1,2.049.364,3.833,3.833,0,0,1,1.438,1.024,4.241,4.241,0,0,1,.847,1.576,7.058,7.058,0,0,1,.276,2.039v.985H43.993A3.784,3.784,0,0,0,44.7-2.305a2.4,2.4,0,0,0,2.029.867,2.574,2.574,0,0,0,1.6-.414,2.01,2.01,0,0,0,.709-1.182ZM49.155-6.127a3.071,3.071,0,0,0-.591-1.99,2.294,2.294,0,0,0-1.891-.729,2.385,2.385,0,0,0-1.891.739,3.3,3.3,0,0,0-.749,1.98Zm6.639-7.94V0H53.549V-14.067Z" transform="translate(5751.335 1202.64)" fill="#ea514b"/>
      <g id="Group_161" data-name="Group 161" transform="translate(15.685 -1859.356)">
        <path id="Path_101" data-name="Path 101" d="M5788.226,3022.132l-3.333-11.992a2.075,2.075,0,0,0,.433-1.409l-.375-5.4a2.081,2.081,0,0,0-.717-1.433l-6.25-5.443a2.1,2.1,0,1,0-2.734,3.176l5.651,4.842.316,4.542a2.084,2.084,0,0,0,1.317,1.791l3.334,11.985a4.316,4.316,0,0,1-4.167,5.658,4.517,4.517,0,0,1-4.517-4.517v-15.059a3.75,3.75,0,0,0-3.751-3.75V2992.13a4.167,4.167,0,0,0-4.166-4.167h-16.7a4.168,4.168,0,0,0-4.167,4.167v43.336h-.833a1.25,1.25,0,0,0,0,2.5h26.669a1.25,1.25,0,0,0,0-2.5h-.834v-27.843a1.25,1.25,0,0,1,1.25,1.25v15.068a7.017,7.017,0,0,0,10,6.342A6.909,6.909,0,0,0,5788.226,3022.132Zm-37.327,13.334V2992.13a1.667,1.667,0,0,1,1.666-1.667h16.668a1.667,1.667,0,0,1,1.667,1.667v43.336Z" fill="#ea514b"/>
        <path id="Path_102" data-name="Path 102" d="M5767.5,2992.58h-13.2a1.25,1.25,0,0,0-1.317,1.167v8.834h15.835v-8.826A1.251,1.251,0,0,0,5767.5,2992.58Z" fill="#ea514b"/>
      </g>
    </g>
    <g id="Group_205" data-name="Group 205" transform="translate(-5748 -1121)">
      <path id="Path_142" data-name="Path 142" d="M3.054-4.295a2.772,2.772,0,0,0,.995,2.01,4.113,4.113,0,0,0,2.492.63A4.492,4.492,0,0,0,7.9-1.832a2.462,2.462,0,0,0,.887-.473A1.619,1.619,0,0,0,9.26-3,2.634,2.634,0,0,0,9.4-3.861a2.264,2.264,0,0,0-.1-.66,1.533,1.533,0,0,0-.355-.6,2.251,2.251,0,0,0-.69-.483,4.341,4.341,0,0,0-1.1-.325L5.359-6.265a12.315,12.315,0,0,1-1.891-.493,4.35,4.35,0,0,1-1.389-.778,3.061,3.061,0,0,1-.847-1.182,4.511,4.511,0,0,1-.286-1.7,3.639,3.639,0,0,1,.4-1.753,3.627,3.627,0,0,1,1.113-1.251,5,5,0,0,1,1.684-.749,8.635,8.635,0,0,1,2.118-.246,7.67,7.67,0,0,1,2.443.335,4.612,4.612,0,0,1,1.6.877,3.634,3.634,0,0,1,.926,1.251,5.79,5.79,0,0,1,.433,1.478l-2.246.355a3.141,3.141,0,0,0-.956-1.753A3.325,3.325,0,0,0,6.3-12.451,5.646,5.646,0,0,0,4.9-12.3a2.523,2.523,0,0,0-.906.414,1.541,1.541,0,0,0-.493.611,1.807,1.807,0,0,0-.148.719,1.765,1.765,0,0,0,.5,1.379,3.832,3.832,0,0,0,1.763.709l1.95.374a6.369,6.369,0,0,1,3.27,1.409A3.773,3.773,0,0,1,11.88-3.822a4.132,4.132,0,0,1-.325,1.645,3.517,3.517,0,0,1-.995,1.32A4.956,4.956,0,0,1,8.9.03,7.463,7.463,0,0,1,6.58.355,7.008,7.008,0,0,1,2.344-.778,4.473,4.473,0,0,1,.65-4.295Zm12.51-5.95L17.3-2.758l2.167-7.408h2.049L23.6-2.758l1.734-7.487h2.344L24.686,0H22.46L20.391-7.447,18.3,0H16.1L13.121-10.245ZM38-3.034A3.9,3.9,0,0,1,36.645-.561a4.842,4.842,0,0,1-3.113.877,4.745,4.745,0,0,1-3.714-1.409,5.721,5.721,0,0,1-1.271-3.97,6.974,6.974,0,0,1,.364-2.344,4.834,4.834,0,0,1,1.024-1.724A4.348,4.348,0,0,1,31.513-10.2a5.416,5.416,0,0,1,2.019-.364,5.264,5.264,0,0,1,2.049.364,3.833,3.833,0,0,1,1.438,1.024,4.241,4.241,0,0,1,.847,1.576,7.058,7.058,0,0,1,.276,2.039v.985H30.793A3.784,3.784,0,0,0,31.5-2.305a2.4,2.4,0,0,0,2.029.867,2.574,2.574,0,0,0,1.6-.414,2.01,2.01,0,0,0,.709-1.182ZM35.955-6.127a3.071,3.071,0,0,0-.591-1.99,2.294,2.294,0,0,0-1.891-.729,2.385,2.385,0,0,0-1.891.739,3.3,3.3,0,0,0-.749,1.98ZM49.431-3.034A3.9,3.9,0,0,1,48.072-.561a4.842,4.842,0,0,1-3.113.877,4.745,4.745,0,0,1-3.714-1.409,5.721,5.721,0,0,1-1.271-3.97,6.974,6.974,0,0,1,.364-2.344,4.834,4.834,0,0,1,1.024-1.724A4.348,4.348,0,0,1,42.939-10.2a5.417,5.417,0,0,1,2.019-.364,5.264,5.264,0,0,1,2.049.364,3.833,3.833,0,0,1,1.438,1.024,4.241,4.241,0,0,1,.847,1.576,7.058,7.058,0,0,1,.276,2.039v.985H42.22a3.784,3.784,0,0,0,.709,2.266,2.4,2.4,0,0,0,2.029.867,2.574,2.574,0,0,0,1.6-.414,2.01,2.01,0,0,0,.709-1.182ZM47.382-6.127a3.071,3.071,0,0,0-.591-1.99A2.294,2.294,0,0,0,44.9-8.846a2.385,2.385,0,0,0-1.891.739,3.3,3.3,0,0,0-.749,1.98Zm3.369-2.344v-1.773h1.616V-13h2.226v2.758h2.541v1.773H54.593v5.359a1.661,1.661,0,0,0,.325,1.143,1.232,1.232,0,0,0,.956.355,5,5,0,0,0,.64-.039,3.185,3.185,0,0,0,.6-.138L57.45-.118A6.442,6.442,0,0,1,55.4.2,2.8,2.8,0,0,1,53.036-.68a4.3,4.3,0,0,1-.67-2.63V-8.472Z" transform="translate(5995 1203.14)" fill="#ea514b"/>
      <g id="Group_163" data-name="Group 163" transform="translate(11.239 -1864.356)">
        <path id="Path_103" data-name="Path 103" d="M6030.572,3025c-2.429,6.905-7.056,11.3-14.255,12.847-7.259,1.2-13.185-1.17-17.973-6.7-.1.078-.207.165-.314.257q-5.626,4.854-11.252,9.711a2.4,2.4,0,0,1-1.335.633,2.119,2.119,0,0,1-2.234-1.517,1.47,1.47,0,0,1-.02-.509,34.716,34.716,0,0,0,.008-5.858,76.182,76.182,0,0,0-2.006-12.7,42.969,42.969,0,0,0-2.3-7.2,14.346,14.346,0,0,0-.9-1.76,1.555,1.555,0,0,1-.161-1.288,2.1,2.1,0,0,1,2.745-1.448c1.076.36,2.144.746,3.216,1.12l10.992,3.832c.134.047.272.083.438.133a18.281,18.281,0,0,1,8-10.433,17.907,17.907,0,0,1,12.854-2.455,18.307,18.307,0,0,1,11.294,6.758c.1-.074.192-.139.279-.213l11.013-9.5c.19-.163.375-.334.575-.485a2.121,2.121,0,0,1,3.191.784,1.576,1.576,0,0,1,.147.767c-.093,1.9-.2,3.8-.255,5.7a50.682,50.682,0,0,0,.164,5.821,36.046,36.046,0,0,0,4.589,14.868,12.484,12.484,0,0,0,.661,1.127,1.54,1.54,0,0,1,.147,1.473,2.124,2.124,0,0,1-2.724,1.311c-1.267-.455-2.542-.887-3.814-1.33l-10.432-3.634Zm-17.694-20.206c-.606.044-1.212.079-1.816.135a9.041,9.041,0,0,0-.938.147,1.632,1.632,0,1,0,.6,3.206,12.072,12.072,0,0,1,4.058-.04,11.692,11.692,0,0,1,9.211,7.939c.16.5.26,1.022.4,1.531a1.634,1.634,0,0,0,3.132.072,1.9,1.9,0,0,0,.019-.979A15,15,0,0,0,6012.878,3004.8Z" fill="#ea514b"/>
      </g>
    </g>
  </g>
</svg>
