<?xml version="1.0" encoding="utf-8"?>
<!-- Generator: Adobe Illustrator 25.3.1, SVG Export Plug-In . SVG Version: 6.00 Build 0)  -->
<svg version="1.1" id="Layer_1" xmlns="http://www.w3.org/2000/svg" xmlns:xlink="http://www.w3.org/1999/xlink" x="0px" y="0px"
	 viewBox="0 0 400 46.59" style="enable-background:new 0 0 400 46.59;" xml:space="preserve">
<style type="text/css">
	.st0{fill:#FFFFFF;}
</style>
<g>
	<path class="st0" d="M45.77,20.74c-0.12,6.37-0.58,11.82-4.46,17.27c-4.29,5.97-10.72,8.57-18.02,8.57C9.56,46.58,0,37.25,0,23.52
		C0,9.33,9.62,0,23.7,0c8.98,0,15.93,4.05,19.7,12.22l-10.78,4.52c-1.56-4.17-4.87-6.95-9.44-6.95c-7.47,0-11.36,7.13-11.36,13.79
		c0,6.78,4.06,13.67,11.53,13.67c4.93,0,8.69-2.55,9.15-7.59h-9.27v-8.92H45.77z"/>
	<path class="st0" d="M86.94,45.13H72.8l-10.72-16.8h-0.12v16.8H50.61V1.45h16.98c8.63,0,15.18,4.11,15.18,13.44
		c0,6.03-3.36,11.24-9.56,12.34L86.94,45.13z M61.97,21.03h1.1c3.71,0,7.88-0.7,7.88-5.45s-4.17-5.45-7.88-5.45h-1.1
		C61.97,10.13,61.97,21.03,61.97,21.03z"/>
	<path class="st0" d="M101.04,11.07v7.3h12.8v9.62h-12.8v7.53h13.5v9.62H89.68V1.45h24.86v9.62H101.04z"/>
	<path class="st0" d="M132.61,11.07v7.3h12.8v9.62h-12.8v7.53h13.5v9.62h-24.86V1.45h24.86v9.62H132.61z"/>
	<path class="st0" d="M152.84,1.45h11.36L185,28.16h0.12V1.45h11.36v43.69h-11.36l-20.8-26.77h-0.12v26.77h-11.36V1.45z"/>
	<path class="st0" d="M254.99,16.11c-2.32-3.13-6.08-4.81-9.97-4.81c-6.95,0-11.65,5.33-11.65,12.11c0,6.89,4.75,11.88,11.82,11.88
		c3.71,0,7.42-1.8,9.79-4.64v13.61c-3.77,1.16-6.49,2.03-10.02,2.03c-6.08,0-11.88-2.32-16.4-6.43c-4.81-4.35-7.01-10.02-7.01-16.51
		c0-5.97,2.26-11.7,6.43-15.99c4.29-4.4,10.49-7.07,16.63-7.07c3.65,0,7.01,0.81,10.37,2.2v13.62H254.99z"/>
	<path class="st0" d="M299.42,1.45v24.57c0,5.62-0.23,11.18-4.58,15.41c-3.65,3.59-9.39,4.87-14.48,4.87
		c-5.1,0-10.83-1.27-14.48-4.87c-4.34-4.23-4.58-9.79-4.58-15.41V1.45h11.36v23c0,5.68,0.41,11.88,7.71,11.88s7.71-6.2,7.71-11.88
		v-23C288.08,1.45,299.42,1.45,299.42,1.45z"/>
	<path class="st0" d="M329.51,12.69c-2.09-1.74-4.75-2.9-7.53-2.9c-2.08,0-4.87,1.22-4.87,3.65c0,2.55,3.07,3.53,5.04,4.17l2.9,0.87
		c6.08,1.8,10.78,4.87,10.78,11.94c0,4.34-1.04,8.81-4.52,11.76c-3.42,2.9-8,4.11-12.4,4.11c-5.51,0-10.89-1.85-15.35-4.98
		l4.87-9.15c2.84,2.49,6.2,4.52,10.08,4.52c2.66,0,5.5-1.33,5.5-4.4c0-3.19-4.46-4.29-6.89-4.98c-7.12-2.03-11.82-3.88-11.82-12.34
		c0-8.86,6.32-14.66,15.06-14.66c4.4,0,9.79,1.39,13.67,3.59L329.51,12.69z"/>
	<path class="st0" d="M368.48,18.31V1.45h11.36v43.69h-11.36v-17.9h-16.4v17.9h-11.36V1.45h11.36v16.86
		C352.08,18.31,368.48,18.31,368.48,18.31z"/>
	<path class="st0" d="M400,39.51c0,3.71-3.01,6.78-6.78,6.78s-6.78-3.07-6.78-6.78c0-3.77,3.01-6.78,6.78-6.78S400,35.75,400,39.51z
		"/>
</g>
</svg>
