<svg xmlns="http://www.w3.org/2000/svg" width="115.326" height="109.503" viewBox="0 0 115.326 109.503">
  <g id="Greencush_No" transform="translate(-383.771 -1042.796)">
    <path id="Path_75" data-name="Path 75" d="M6906.018,2967.822a16.308,16.308,0,0,0-5.492-3.431,61.92,61.92,0,0,0-11.021-3.319c-.686-.152-.615-.358-.244-.788,1.469-1.7,2.919-3.418,4.272-5.216,4.471-5.944,8.316-12.215,10.251-19.488a17.25,17.25,0,0,0,.4-8.666,7.783,7.783,0,0,0-4.258-5.488c-2.921-1.4-5.979-1.27-9.032-.677a38.221,38.221,0,0,0-9.7,3.46,76.83,76.83,0,0,0-13.347,8.69c-.163.129-.3.408-.56.255-.214-.125-.2-.39-.2-.615-.011-2.025-.175-4.043-.333-6.06-.213-2.715-.564-5.413-.992-8.1-.358-2.24-.825-4.462-1.361-6.67a57.222,57.222,0,0,0-3.768-11.115c-1.62-3.408-3.484-6.656-6.681-8.867a7.009,7.009,0,0,0-7.434-.72,14.643,14.643,0,0,0-5.867,5.74,41.5,41.5,0,0,0-4.331,9.6,79.017,79.017,0,0,0-2.6,10.6c-.408,2.286-.751,4.578-1.006,6.883-.323,2.929-.569,5.867-.628,8.816,0,.2.034.439-.174.54s-.354-.113-.507-.231c-1.128-.869-2.233-1.769-3.389-2.6a65.528,65.528,0,0,0-12.527-7.3,30.258,30.258,0,0,0-11.558-2.731,8.806,8.806,0,0,0-2.684.385,8.309,8.309,0,0,0-3.763,1.922c-2.386,2.25-2.988,5.141-2.839,8.221a29.244,29.244,0,0,0,2.533,9.96,65.555,65.555,0,0,0,8.079,13.715c1.482,1.982,3.023,3.914,4.692,5.742.356.391.416.658-.238.794-1,.208-1.988.487-2.982.732a41.59,41.59,0,0,0-10.918,4.026,11.1,11.1,0,0,0-2.727,2.082,3.429,3.429,0,0,0-.347,4.754,6.57,6.57,0,0,0,1.578,1.588c3.769,2.715,8.158,3.909,12.553,5.069,2.487.657,5.018,1.117,7.55,1.571,2.114.379,4.233.712,6.361.983,2.5.318,5,.593,7.51.848.678.069.631.271.354.775a44.909,44.909,0,0,0-3.308,7.2,14.354,14.354,0,0,0-.882,4.834c.032,2.256,1.007,3.613,2.856,4.043a8.308,8.308,0,0,0,3.646-.039,35.416,35.416,0,0,0,9.465-3.848,97.8,97.8,0,0,0,8.984-5.693.953.953,0,0,1,1.276.019c.849.612,1.733,1.177,2.61,1.751a57.448,57.448,0,0,0,13.276,6.83,12.259,12.259,0,0,0,5.593.731,3.655,3.655,0,0,0,3.176-3.352,15.116,15.116,0,0,0-1.386-6.966,49.353,49.353,0,0,0-2.754-5.657c-.279-.515-.138-.664.376-.7.821-.063,1.645-.11,2.461-.221,3.832-.517,7.671-.975,11.48-1.669a77.177,77.177,0,0,0,14.092-3.709,16.919,16.919,0,0,0,6.433-3.855A3.544,3.544,0,0,0,6906.018,2967.822Z" transform="translate(-6408.158 -1847.462)" fill="#fd4042"/>
    <text id="No" transform="translate(441.435 1115.577)" fill="#c0f3f4" font-size="21.109" font-family="AktivGrotesk-XBold, Aktiv Grotesk XBold" font-weight="700"><tspan x="-14.386" y="0">No</tspan></text>
  </g>
</svg>
