<svg xmlns="http://www.w3.org/2000/svg" width="340.806" height="113.752" viewBox="0 0 340.806 113.752">
  <g id="Greencush_1Quickie" transform="translate(-187.506 -980.837)">
    <path id="Path_161" data-name="Path 161" d="M-138.654,0V-31.233l-7.2,4.82-5.4-8.419,14.588-9.576h9.833V0Zm76.027,6.491L-68.411-.578a26.226,26.226,0,0,1-9.64,1.735A23.973,23.973,0,0,1-90.165-1.735a18.863,18.863,0,0,1-7.68-8.258A28.663,28.663,0,0,1-100.48-22.75q0-11.439,6.041-17.866t16.709-6.427a23.973,23.973,0,0,1,12.114,2.892,18.863,18.863,0,0,1,7.68,8.258A28.663,28.663,0,0,1-55.3-23.136q0,10.99-5.848,17.545L-55.815.964Zm-18.059-22.3,6.812-5.527,4.756,5.912a22.878,22.878,0,0,0,1.028-7.519q0-13.5-9.768-13.5a8.509,8.509,0,0,0-7.358,3.406q-2.474,3.406-2.474,10.09t2.474,10.09a8.509,8.509,0,0,0,7.358,3.406,11.4,11.4,0,0,0,2.185-.129ZM-28.373,0V-3.984a11.811,11.811,0,0,1-10.09,5.013q-5.206,0-7.969-3.149T-49.2-11.182V-33.74h11.632v20.694A5.433,5.433,0,0,0-36.7-9.608a3.408,3.408,0,0,0,2.8,1.06,5.192,5.192,0,0,0,3.727-1.478A5.785,5.785,0,0,0-28.695-14.2V-33.74h11.632V0Zm18.38,0V-33.74H1.639V0Zm-.064-37.467v-8.419H1.7v8.419ZM40.456-12.982Q39.813-6.17,35.764-2.571t-11.118,3.6q-8.1,0-12.5-4.6t-4.4-13.014q0-8.612,4.563-13.4t12.66-4.788q6.555,0,10.475,3.278a13.661,13.661,0,0,1,4.627,9.319L28.952-21.079a6.68,6.68,0,0,0-1.478-3.438,3.756,3.756,0,0,0-2.828-1.06q-5.141,0-5.141,8.74,0,8.676,5.141,8.676a4.178,4.178,0,0,0,3.181-1.253,5.7,5.7,0,0,0,1.382-3.567ZM69.5,0,61.021-15.424l-3.856,3.535V0H45.79V-45.886H57.165v22.429l10.6-10.283H80.815L68.925-22.365,81.779,0Zm16,0V-33.74H97.138V0Zm-.064-37.467v-8.419H97.2v8.419ZM136.4-10.861a13.37,13.37,0,0,1-5.077,8.9q-4.049,2.988-10.99,2.988-8.355,0-12.725-4.434t-4.37-12.917q0-8.676,4.563-13.56t12.66-4.884q7.648,0,11.921,4.466t4.274,12.5v3.663H114.426a9.117,9.117,0,0,0,1.607,5.206,5.151,5.151,0,0,0,4.177,1.607q4.37,0,5.334-3.535Zm-10.475-9.9a6.647,6.647,0,0,0-1.446-4.4,5.309,5.309,0,0,0-4.017-1.382q-5.4,0-6.041,5.784ZM141.032,0V-12.275h11.182V0Z" transform="translate(373.816 1027.88)" fill="#ea514b"/>
    <path id="Path_162" data-name="Path 162" d="M-331.911-3.457a4.706,4.706,0,0,0,2.761-.78,5.612,5.612,0,0,0,1.813-2.213,12.291,12.291,0,0,0,1.012-3.5,30.838,30.838,0,0,0,.316-4.637,30.521,30.521,0,0,0-.316-4.6,12.585,12.585,0,0,0-1.012-3.52,5.585,5.585,0,0,0-1.813-2.234,4.706,4.706,0,0,0-2.761-.78,4.616,4.616,0,0,0-2.761.8,5.594,5.594,0,0,0-1.792,2.255,12.612,12.612,0,0,0-.97,3.5,32.21,32.21,0,0,0-.3,4.574A20.29,20.29,0,0,0-336.4-6.324,4.6,4.6,0,0,0-331.911-3.457Zm-.042,4.216a11.1,11.1,0,0,1-4.532-.885,8.434,8.434,0,0,1-3.394-2.761,13.558,13.558,0,0,1-2.129-4.785,28.4,28.4,0,0,1-.738-6.914q0-7.715,2.846-11.53a9.519,9.519,0,0,1,8.115-3.815,9.424,9.424,0,0,1,7.947,3.731q2.846,3.731,2.846,11.615a28.137,28.137,0,0,1-.738,6.893,13.327,13.327,0,0,1-2.15,4.764,8.691,8.691,0,0,1-3.457,2.782A11.276,11.276,0,0,1-331.953.759ZM-311.97-5.86V0h-5.1V-5.86Zm8.98-2.782a6.321,6.321,0,0,0,1.581,4.068,5.888,5.888,0,0,0,4.11,1.2,5.988,5.988,0,0,0,3.921-1.18,4.586,4.586,0,0,0,1.433-3.752,4.394,4.394,0,0,0-1.328-3.583,6,6,0,0,0-3.9-1.1h-3.162v-4.258h3.373q3.626,0,4.132-3.2a5.031,5.031,0,0,0,.169-2.108,3.338,3.338,0,0,0-1.476-2.466,5.792,5.792,0,0,0-3.162-.78,5.827,5.827,0,0,0-3.815,1.075,6.581,6.581,0,0,0-1.918,3.478l-4.553-.632a13.386,13.386,0,0,1,1.033-3.1,8.324,8.324,0,0,1,1.918-2.572,8.692,8.692,0,0,1,3.014-1.75,13.19,13.19,0,0,1,4.363-.632A12.938,12.938,0,0,1-293-29.3a8.772,8.772,0,0,1,2.993,1.686,6.6,6.6,0,0,1,1.75,2.445,7.718,7.718,0,0,1,.569,2.951,7.08,7.08,0,0,1-4.047,6.745,7.3,7.3,0,0,1,3.626,2.888,7.857,7.857,0,0,1,1.1,4.11,8.973,8.973,0,0,1-2.551,6.766Q-292.114.759-297.215.759a13.212,13.212,0,0,1-5.059-.843A8.723,8.723,0,0,1-305.5-2.277a8.2,8.2,0,0,1-1.728-3.035,13.451,13.451,0,0,1-.611-3.33Zm25.548.675a8.476,8.476,0,0,0,.527,2,4.038,4.038,0,0,0,.97,1.433,3.789,3.789,0,0,0,1.56.843,8.366,8.366,0,0,0,2.3.274,5.012,5.012,0,0,0,3.773-1.412q1.37-1.412,1.37-4.574a6.057,6.057,0,0,0-1.286-4.174,5.032,5.032,0,0,0-3.942-1.433,7.36,7.36,0,0,0-3.035.569,6.991,6.991,0,0,0-2.277,1.665h-4.089l1.391-16.357h16.315v4.216H-276.22l-.675,7.631a9.236,9.236,0,0,1,2.635-1.223,10.773,10.773,0,0,1,3.014-.422,9.763,9.763,0,0,1,4.216.822,7.9,7.9,0,0,1,2.8,2.15,8.425,8.425,0,0,1,1.56,3.035,12.524,12.524,0,0,1,.485,3.436,12.741,12.741,0,0,1-.738,4.574,8.7,8.7,0,0,1-2.045,3.183,8.2,8.2,0,0,1-3.1,1.876,11.869,11.869,0,0,1-3.857.611q-4.806,0-7.378-2.129t-2.909-6.6Zm25.379,9.654a3.622,3.622,0,0,0,1.5,2.466,7.187,7.187,0,0,0,3.647.7,5.7,5.7,0,0,0,3.12-.759,4.258,4.258,0,0,0,1.707-2.319,13.933,13.933,0,0,0,.527-4.3V-4.005a7.849,7.849,0,0,1-2.951,2.572,8.833,8.833,0,0,1-4.005.885,8.359,8.359,0,0,1-6.83-2.909q-2.4-2.909-2.4-8.052a11.911,11.911,0,0,1,2.614-8.052,8.769,8.769,0,0,1,7-3.035,8.078,8.078,0,0,1,6.7,3.33v-2.656h4.68V-3.288q0,6.324-2.445,9.127t-7.715,2.8q-4.764,0-7.146-1.665a7.067,7.067,0,0,1-2.8-5.291Zm10.54-13.448a8,8,0,0,0-1.433-5.164,5.133,5.133,0,0,0-4.216-1.75,4.958,4.958,0,0,0-4.089,1.834,8.268,8.268,0,0,0-1.476,5.291,8.648,8.648,0,0,0,1.412,5.291,4.652,4.652,0,0,0,3.942,1.876,5.451,5.451,0,0,0,4.321-1.75,7.261,7.261,0,0,0,1.539-4.954Zm19.561-10.16h4.68v3.035a9.552,9.552,0,0,1,3.1-2.761,8.314,8.314,0,0,1,4.026-.949,9.331,9.331,0,0,1,4.047.822,7.8,7.8,0,0,1,2.888,2.34,10.326,10.326,0,0,1,1.728,3.647,18.361,18.361,0,0,1,.569,4.743,16.224,16.224,0,0,1-.675,4.827,11.042,11.042,0,0,1-1.918,3.71,8.355,8.355,0,0,1-3.014,2.361,9.4,9.4,0,0,1-4.005.822A9.23,9.23,0,0,1-213.995,0a7.989,7.989,0,0,1-3.162-2.487V8.179h-4.806Zm4.764,11.341a11.594,11.594,0,0,0,.464,3.562,6.055,6.055,0,0,0,1.244,2.255,4.233,4.233,0,0,0,1.813,1.18,6.95,6.95,0,0,0,2.171.337,5.643,5.643,0,0,0,2.192-.422,4.525,4.525,0,0,0,1.771-1.349,6.625,6.625,0,0,0,1.18-2.4A13.192,13.192,0,0,0-205.943-11a12.55,12.55,0,0,0-.443-3.6,6.876,6.876,0,0,0-1.18-2.361,4.142,4.142,0,0,0-1.707-1.286,5.5,5.5,0,0,0-2.024-.379,5.7,5.7,0,0,0-4.237,1.686q-1.665,1.686-1.665,5.312Zm40.05,4.089A8.348,8.348,0,0,1-180.057-1.2Q-182.376.675-186.718.675q-5.228,0-7.947-3.014t-2.719-8.495a14.924,14.924,0,0,1,.78-5.017,10.343,10.343,0,0,1,2.192-3.689,9.3,9.3,0,0,1,3.373-2.277,11.591,11.591,0,0,1,4.321-.78,11.264,11.264,0,0,1,4.384.78,8.2,8.2,0,0,1,3.078,2.192,9.075,9.075,0,0,1,1.813,3.373,15.1,15.1,0,0,1,.59,4.363v2.108h-15.725a8.1,8.1,0,0,0,1.518,4.848,5.144,5.144,0,0,0,4.342,1.855,5.508,5.508,0,0,0,3.415-.885,4.3,4.3,0,0,0,1.518-2.529Zm-4.384-6.619a6.572,6.572,0,0,0-1.265-4.258,4.909,4.909,0,0,0-4.047-1.56,5.1,5.1,0,0,0-4.047,1.581,7.069,7.069,0,0,0-1.6,4.237Zm14-8.811v3.246a8.215,8.215,0,0,1,2.74-2.656,6.707,6.707,0,0,1,3.415-.927q.717,0,1.2.042t.949.126l-.548,4.384a5.428,5.428,0,0,0-1.012-.169q-.548-.042-1.138-.042a5.849,5.849,0,0,0-2.361.443A5.314,5.314,0,0,0-166-16.315a4.9,4.9,0,0,0-1.054,1.623,4.951,4.951,0,0,0-.358,1.834V0h-4.764V-21.922Zm38.28,10.371,3.541,4.342q1.855-2.825,1.855-7.841a18.779,18.779,0,0,0-.548-4.722,10.508,10.508,0,0,0-1.644-3.6,7.334,7.334,0,0,0-2.74-2.3,8.663,8.663,0,0,0-3.836-.8,8.9,8.9,0,0,0-3.9.8,7.291,7.291,0,0,0-2.761,2.3,10.508,10.508,0,0,0-1.644,3.6,18.779,18.779,0,0,0-.548,4.722q0,5.649,2.277,8.579t7.083,2.93a7.051,7.051,0,0,0,1.834-.232,7.547,7.547,0,0,0,1.581-.611l-3.71-4.511ZM-125.8-.8A15.681,15.681,0,0,1-129.046.358a15.47,15.47,0,0,1-3.583.4,15.29,15.29,0,0,1-5.923-1.1A12.022,12.022,0,0,1-143-3.478a14.04,14.04,0,0,1-2.782-4.975,20.794,20.794,0,0,1-.97-6.556,20.724,20.724,0,0,1,.991-6.619,13.915,13.915,0,0,1,2.846-5,12.5,12.5,0,0,1,4.448-3.141,14.862,14.862,0,0,1,5.839-1.1,15.133,15.133,0,0,1,5.9,1.1,11.868,11.868,0,0,1,4.406,3.141,14.223,14.223,0,0,1,2.761,4.975,20.794,20.794,0,0,1,.97,6.556A20.852,20.852,0,0,1-119.6-8.284a13.335,13.335,0,0,1-2.951,4.954l3.668,4.469-3.12,2.7Zm16.779-21.121V-8.137q0,2.74.906,3.752a3.521,3.521,0,0,0,2.761,1.012,5.9,5.9,0,0,0,2.045-.379,5.638,5.638,0,0,0,1.834-1.1,5.73,5.73,0,0,0,1.307-1.728,5.02,5.02,0,0,0,.506-2.277V-21.922h4.806V0h-4.68V-3.2a10,10,0,0,1-3.288,2.951,8.058,8.058,0,0,1-3.794.927q-3.836,0-5.5-1.981t-1.665-6.071V-21.922ZM-84.485-30.1v4.764H-89.46V-30.1Zm-.084,8.179V0h-4.806V-21.922ZM-59.738-7.673a9.41,9.41,0,0,1-2.8,6.134Q-64.924.675-69.35.675a11.882,11.882,0,0,1-4.616-.822,8.652,8.652,0,0,1-3.267-2.34,9.768,9.768,0,0,1-1.939-3.647,16.626,16.626,0,0,1-.632-4.743,15.2,15.2,0,0,1,.717-4.785A10.4,10.4,0,0,1-77-19.372a9.291,9.291,0,0,1,3.352-2.382,11.425,11.425,0,0,1,4.511-.843,11.045,11.045,0,0,1,3.921.611,7.611,7.611,0,0,1,2.656,1.644,7.533,7.533,0,0,1,1.644,2.382,12.135,12.135,0,0,1,.843,2.825l-4.764.717A6.968,6.968,0,0,0-66.125-17.5a3.788,3.788,0,0,0-3.183-1.223,4.839,4.839,0,0,0-2.656.675,5.15,5.15,0,0,0-1.686,1.75,7.8,7.8,0,0,0-.906,2.466A14.581,14.581,0,0,0-74.831-11a15.252,15.252,0,0,0,.3,3.078,7.641,7.641,0,0,0,.927,2.466,4.727,4.727,0,0,0,1.686,1.644A5.048,5.048,0,0,0-69.35-3.2a4.464,4.464,0,0,0,3.33-1.159,5.683,5.683,0,0,0,1.433-3.309ZM-50.59-30.1v16.652l9.359-8.474h5.607l-7.926,7.462L-34.907,0h-5.27l-6.83-11.72-3.583,3.2V0h-4.68V-30.1Zm23.44,0v4.764h-4.975V-30.1Zm-.084,8.179V0H-32.04V-21.922Zm25,15.43A8.348,8.348,0,0,1-5.143-1.2Q-7.462.675-11.8.675q-5.228,0-7.947-3.014t-2.719-8.495a14.924,14.924,0,0,1,.78-5.017A10.343,10.343,0,0,1-19.5-19.54a9.3,9.3,0,0,1,3.373-2.277A11.591,11.591,0,0,1-11.8-22.6a11.264,11.264,0,0,1,4.384.78,8.2,8.2,0,0,1,3.078,2.192,9.075,9.075,0,0,1,1.813,3.373,15.1,15.1,0,0,1,.59,4.363v2.108H-17.664a8.1,8.1,0,0,0,1.518,4.848A5.144,5.144,0,0,0-11.8-3.078a5.508,5.508,0,0,0,3.415-.885A4.3,4.3,0,0,0-6.872-6.492Zm-4.384-6.619a6.572,6.572,0,0,0-1.265-4.258,4.909,4.909,0,0,0-4.047-1.56,5.1,5.1,0,0,0-4.047,1.581,7.069,7.069,0,0,0-1.6,4.237Z" transform="translate(530.251 1085.947)" fill="#ea514b"/>
  </g>
</svg>
