<svg xmlns="http://www.w3.org/2000/svg" width="206.774" height="139.845" viewBox="0 0 206.774 139.845"><g id="Group_245" data-name="Group 245" transform="translate(-649.378 -145.614)"><g id="Group_244" data-name="Group 244"><path id="Path_132" data-name="Path 132" d="M663.975,199.813c8.185-1.446,17.755-7.786,19.6-15.9a.424.424,0,0,0-.119-.4.431.431,0,0,0-.405-.108c-3.391.933-6.066,1.574-8.651,2.194-1.338.323-2.671.643-4.1,1a.424.424,0,0,0-.32.434c.177,3.83-3.433,6.773-7.026,7.408a5.6,5.6,0,0,1-4.448-.824c-1.757-1.417-2.138-4.211-.971-7.116,1.732-4.164,5.981-7.508,11.97-9.421a54.873,54.873,0,0,1,7.284-1.768,117.459,117.459,0,0,1,19.495-1.484c6.234-.051,12.722.162,19,.37,6.047.2,11.755.386,17.081.343a101.491,101.491,0,0,0,11.7-.658.392.392,0,0,0,.219-.089,136.043,136.043,0,0,0,12.486-12.009.442.442,0,0,0,.051-.524.423.423,0,0,0-.486-.185,80.251,80.251,0,0,1-9.638,2.254c-10.613,1.874-23.009,2.519-36.133,3.2-3.265.17-6.643.345-9.983.543a180.051,180.051,0,0,0-20.4,2.045c-7.7,1.361-13.972,3.5-19.169,6.538-5.018,2.94-10.769,8.684-11.542,14.352a8,8,0,0,0,2.241,6.96c2.051,2.062,5.248,3.18,9,3.152a19.464,19.464,0,0,0,2.933-.253Z" fill="#fff"></path><path id="Path_133" data-name="Path 133" d="M699.247,177.025a.422.422,0,0,0-.341-.17.446.446,0,0,0-.081.008l-9.567,2.595a.422.422,0,0,0-.349.413.434.434,0,0,0,.328.43.247.247,0,0,1,.164.132,4.184,4.184,0,0,0,.262.373c.334.439.555.728.044,2.311l-.019.1c-2.737,5.91-4.811,10.038-7.212,14.818l-.027.053c-1.47,2.929-3.3,6.571-5.483,11.052-1.731,3.491-2.664,5.171-5.431,10.16l-.554,1a150.95,150.95,0,0,0-7.1,14.115.145.145,0,0,0,.049.173.143.143,0,0,0,.178-.013,30.388,30.388,0,0,1,18.143-8.334.141.141,0,0,0,.115-.084.135.135,0,0,0-.015-.14c-2.707-3.689-.545-11.086,2.394-16.8.716-1.4,1.335-2.6,1.712-3.442l12.833-28.306a.43.43,0,0,0-.047-.441" fill="#fff"></path><path id="Path_134" data-name="Path 134" d="M740.644,200.636a26.509,26.509,0,0,1,3.708-6.976c2.051-2.813,4.177-4.621,5.97-5.084a3.664,3.664,0,0,1,.582-.074.8.8,0,0,1,.1,0,.92.92,0,0,1,.7.315,1.184,1.184,0,0,1,.243.844c-.183,4.489-7.983,9.98-11.3,10.973m25.327-7.472c1.1-3.836,4.178-8.157,8.029-9.15a3.986,3.986,0,0,1,.588-.074c.03,0,.058,0,.09,0a.975.975,0,0,1,.8.407.828.828,0,0,1,.162.651c-1.31,4.675-6.79,7.557-9.665,8.162m40.02-9.235-.113.3c-1.614,3.457-3.237,7.025-4.754,10.367a.76.76,0,0,0-.089.187,9.935,9.935,0,0,1-5.214,3.519,2.76,2.76,0,0,1-2.775-.852c-1.17-1.415-1.206-4.2-.094-7.448,1.787-5.315,6.134-10,9.895-10.661a4.335,4.335,0,0,1,.723-.072,2.226,2.226,0,0,1,1.652.594c.75.744,1.014,2.16.769,4.062m27.239-32.585c-.507,3.623-5.188,8.23-9.38,10.585,1.917-4.066,6.352-11.307,8.467-11.929l.074-.017a1.17,1.17,0,0,1,.175-.015.572.572,0,0,1,.432.164,1.466,1.466,0,0,1,.232,1.212m5.24-4.247a4.853,4.853,0,0,0-3.825-1.483,9.482,9.482,0,0,0-1.749.194c-8.266,1.706-13.25,9.421-17.4,17.525l-.581-.013c-.7-.017-1.427-.03-2.175-.077-2.279-.091-4.488-.127-6.556-.112a84.37,84.37,0,0,0-13.97,1.152,47.693,47.693,0,0,0-19.369,8.568.431.431,0,0,0-.111.548.411.411,0,0,0,.52.2,15.772,15.772,0,0,1,3.1-.82c2.132-.339,7.2.409,8.26,3.369a.43.43,0,0,0,.315.279.418.418,0,0,0,.4-.13c2.9-3.216,8.633-7.022,13.214-7.831a60.008,60.008,0,0,1,10.809-.865c1.027.013,2.015.009,3.023,0l.99-.006c-1.427,3.231-2.65,5.961-3.832,8.556a7.1,7.1,0,0,0-6.313-3.413,9.962,9.962,0,0,0-1.633.154c-6.922,1.224-14.285,9.342-16.413,18.1-.149.6-.273,1.229-.371,1.858-1.846,3.525-8.087,9.437-13.32,10.362a6.759,6.759,0,0,1-4.492-.552,5.378,5.378,0,0,1-1.753-3.131,26.76,26.76,0,0,0,16.177-11.4,7.553,7.553,0,0,0,1.2-6.58c-.56-2.683-2.571-4.147-5.659-4.123a12.416,12.416,0,0,0-1.764.155c-3.736.541-7.606,2.771-10.894,6.283A25.981,25.981,0,0,0,758.035,195a16.093,16.093,0,0,0-.356,6.75c-2.494,2.613-6.882,5.9-11.129,6.649a6.711,6.711,0,0,1-4.49-.549,3.632,3.632,0,0,1-1.71-2.354,26.778,26.778,0,0,0,16.175-11.407c1.784-2.846,2.56-5.628,2.119-7.628-.56-2.681-2.571-4.144-5.657-4.119a12.241,12.241,0,0,0-1.764.151l-.347.058a19.5,19.5,0,0,0-9.559,5.32c-2,1.453-4.151,2.878-6.568,4.352-.035-3.027-1.006-4.541-1.828-5.282a3.845,3.845,0,0,0-3.308-.9,6.2,6.2,0,0,0-4.521,4.034c-.529,1.431-1.025,4.351,1.559,7.87-4.388,8.106-11.958,14.89-14.379,16.355a1.2,1.2,0,0,1-.335.111,1.075,1.075,0,0,1-1.069-.443,1.457,1.457,0,0,1-.049-1.527l.871-2.075c2.931-7,5.962-14.232,9.261-22.027a.437.437,0,0,0-.055-.437.4.4,0,0,0-.413-.157l-9.28,2a.145.145,0,0,0-.1.081.13.13,0,0,0,0,.124,6.425,6.425,0,0,1,.055,3.169q-1.431,3.4-2.894,6.835c-1.692,3.983-3.44,8.1-5.1,12.121a74.5,74.5,0,0,1-6.518,4.109,1.481,1.481,0,0,1-.464.176.733.733,0,0,1-.134.013.313.313,0,0,1-.271-.1c-.113-.153-.121-.549.2-1.208l.935-2.232c3.08-7.354,5.992-14.3,9.193-21.867a.432.432,0,0,0-.462-.6l-10.226,1.806a.426.426,0,0,0-.349.409.437.437,0,0,0,.317.433,1.454,1.454,0,0,1,.978.732,2.566,2.566,0,0,1-.047,2q-1.591,3.789-3.191,7.548l-.264.627c-1.576,3.706-3.2,7.541-4.794,11.388-1.046,2.848-.914,5.387.362,6.963a4.239,4.239,0,0,0,4.136,1.4,7.207,7.207,0,0,0,2.707-1.131c2.643-1.766,5.263-3.674,7.4-5.391a4.563,4.563,0,0,0,1.64,2.452,5.779,5.779,0,0,0,4.534.916,9.444,9.444,0,0,0,2.339-.756c4.119-1.472,14.4-9.89,22.217-21.253.243-.161.492-.332.745-.506a19.5,19.5,0,0,0-1.011,2.979c-1.146,4.716-.588,8.49,1.616,10.918a8.857,8.857,0,0,0,6.871,2.637,15.787,15.787,0,0,0,2.582-.245,20.726,20.726,0,0,0,2.319-.558,28.433,28.433,0,0,0,12.69-8.351,5.863,5.863,0,0,0,.43.549,10.738,10.738,0,0,0,7.945,3.41,11,11,0,0,0,1.785-.164,21.258,21.258,0,0,0,2.317-.558c5.144-1.563,10.445-6.249,13.152-10.183a9.2,9.2,0,0,0,2.111,4.458,7.115,7.115,0,0,0,5.493,2.305,9.869,9.869,0,0,0,1.608-.152,16.37,16.37,0,0,0,7.158-3.548,4.278,4.278,0,0,0,3.547,1.614,6.335,6.335,0,0,0,1-.093,8.236,8.236,0,0,0,2.873-1.144c.65-.413,1.2-.756,1.67-1.05a21.049,21.049,0,0,0,3.9-2.814,1.737,1.737,0,0,1,2.29.277,3.714,3.714,0,0,1,.213,3.527c-1.747,6.49-9.112,8.963-22.093,11.255-.818.142-1.626.276-2.394.394-9.2,1.461-18.91,2.415-28.3,3.339l-.055.007c-4.963.485-10.094.988-15.08,1.563-11.1,1.259-22.581,2.558-32.219,4.26-8.96,1.582-15.6,2.977-21,5.054a.14.14,0,0,0,0,.264,30.3,30.3,0,0,1,14.342,10.992.122.122,0,0,0,.1.058h.012a.136.136,0,0,0,.1-.04c6.537-6.757,37.942-12.9,51.141-15.231,3.442-.612,6.854-1.2,10.637-1.845l.366-.062c3.21-.549,6.345-1.088,9.353-1.618,8.361-1.476,13.7-2.546,17.829-3.572,5.222-1.295,10.656-2.9,15.035-5.885.1-.068,10.059-7.308,6.328-14.977a5.158,5.158,0,0,0-3.138-2.237,6.6,6.6,0,0,0-2.892-.062,8.473,8.473,0,0,0-4.562,2c-.418.223-.869.259-.989.093-.1-.142-.1-.539.237-1.182q2.239-4.889,4.5-9.765l.43-.929c2.371-5.129,5.059-10.941,7.642-16.658,6.8-2.594,15.77-9.844,17.2-15.344a4.857,4.857,0,0,0-.773-4.585" fill="#fff"></path><text id="QUICKIES" transform="translate(660.874 277.459)" fill="#fff" font-size="31.64" font-family="Futura-Bold, Futura" font-weight="700"><tspan x="0" y="0">QUICKIES</tspan></text></g><text id="TM" transform="translate(847.152 238.492)" fill="#fff" font-size="10.821" font-family="FuturaStd-Bold, Futura Std" font-weight="700"><tspan x="-8.202" y="0">TM</tspan></text></g></svg>