<svg xmlns="http://www.w3.org/2000/svg" width="87.189" height="57.094" viewBox="0 0 87.189 57.094">
  <g id="Tweed_Logo_Yellow" transform="translate(-2193.213 -1236.542)">
    <g id="Group_211" data-name="Group 211">
      <path id="Path_132" data-name="Path 132" d="M2199.408,1259.549c3.475-.614,7.537-3.306,8.32-6.748a.183.183,0,0,0-.223-.217c-1.439.4-2.574.668-3.672.931-.568.137-1.134.273-1.739.425a.178.178,0,0,0-.136.184c.075,1.626-1.457,2.875-2.983,3.145a2.377,2.377,0,0,1-1.887-.35,2.579,2.579,0,0,1-.413-3.021c.735-1.767,2.539-3.187,5.081-4a23.305,23.305,0,0,1,3.092-.75,49.855,49.855,0,0,1,8.275-.63c2.647-.022,5.4.069,8.064.157,2.567.084,4.99.164,7.251.146a43.222,43.222,0,0,0,4.965-.28.159.159,0,0,0,.093-.038,57.591,57.591,0,0,0,5.3-5.1.188.188,0,0,0,.022-.222.18.18,0,0,0-.207-.079,33.9,33.9,0,0,1-4.091.957,131.931,131.931,0,0,1-15.337,1.358c-1.386.073-2.82.147-4.238.231a76.376,76.376,0,0,0-8.659.868,24.286,24.286,0,0,0-8.137,2.775c-2.13,1.248-4.571,3.686-4.9,6.092a3.4,3.4,0,0,0,.951,2.955,5.255,5.255,0,0,0,3.821,1.338,8.33,8.33,0,0,0,1.245-.108Z" fill="#f4e74f"/>
      <path id="Path_133" data-name="Path 133" d="M2214.381,1249.876a.181.181,0,0,0-.145-.073.154.154,0,0,0-.034,0l-4.062,1.1a.18.18,0,0,0-.148.176.185.185,0,0,0,.139.182.106.106,0,0,1,.07.056,1.77,1.77,0,0,0,.111.158c.142.187.236.31.019.981l-.008.044c-1.162,2.509-2.042,4.261-3.061,6.289l-.012.023c-.624,1.243-1.4,2.789-2.327,4.691-.735,1.482-1.131,2.2-2.305,4.313l-.236.423a64.033,64.033,0,0,0-3.012,5.991.062.062,0,0,0,.021.074.063.063,0,0,0,.076-.006,12.9,12.9,0,0,1,7.7-3.538.058.058,0,0,0,.049-.035.055.055,0,0,0-.007-.059c-1.149-1.566-.231-4.706,1.016-7.132.3-.592.567-1.1.727-1.461l5.447-12.015a.183.183,0,0,0-.019-.187" fill="#f4e74f"/>
      <path id="Path_134" data-name="Path 134" d="M2231.953,1259.9a11.227,11.227,0,0,1,1.574-2.961,5.349,5.349,0,0,1,2.534-2.158,1.479,1.479,0,0,1,.247-.032.265.265,0,0,1,.04,0,.391.391,0,0,1,.3.134.5.5,0,0,1,.1.358c-.078,1.906-3.389,4.236-4.8,4.658m10.75-3.172c.468-1.628,1.774-3.462,3.408-3.884a1.786,1.786,0,0,1,.25-.031h.038a.415.415,0,0,1,.338.173.356.356,0,0,1,.069.277c-.556,1.984-2.882,3.207-4.1,3.464m16.988-3.92-.048.129c-.685,1.468-1.374,2.982-2.018,4.4a.305.305,0,0,0-.038.079,4.215,4.215,0,0,1-2.213,1.494,1.173,1.173,0,0,1-1.178-.362c-.5-.6-.512-1.782-.04-3.162.759-2.255,2.6-4.243,4.2-4.525a1.926,1.926,0,0,1,.307-.03.94.94,0,0,1,.7.252,2.064,2.064,0,0,1,.327,1.724m11.562-13.832c-.215,1.538-2.2,3.494-3.981,4.494.813-1.726,2.7-4.8,3.593-5.064l.032-.007a.473.473,0,0,1,.074-.007.244.244,0,0,1,.184.07.623.623,0,0,1,.1.514m2.224-1.8a2.058,2.058,0,0,0-1.623-.63,3.972,3.972,0,0,0-.743.083c-3.508.724-5.624,4-7.384,7.439l-.247-.006c-.3-.007-.606-.013-.923-.032-.968-.039-1.9-.055-2.783-.048a35.852,35.852,0,0,0-5.93.489,20.225,20.225,0,0,0-8.222,3.637.183.183,0,0,0-.047.232.174.174,0,0,0,.221.084,6.745,6.745,0,0,1,1.317-.348c.905-.143,3.058.174,3.506,1.431a.186.186,0,0,0,.134.118.177.177,0,0,0,.168-.055,11.631,11.631,0,0,1,5.609-3.324,25.441,25.441,0,0,1,4.588-.368c.436.006.856,0,1.283,0l.421,0c-.606,1.371-1.125,2.53-1.627,3.631a3.013,3.013,0,0,0-2.679-1.448,4.271,4.271,0,0,0-.694.065c-2.938.52-6.064,3.965-6.967,7.682-.063.257-.115.522-.157.788-.784,1.5-3.433,4.006-5.654,4.4a2.873,2.873,0,0,1-1.907-.234,2.288,2.288,0,0,1-.744-1.329,11.359,11.359,0,0,0,6.867-4.842,3.207,3.207,0,0,0,.509-2.792,2.177,2.177,0,0,0-2.4-1.751,5.443,5.443,0,0,0-.748.066,8.2,8.2,0,0,0-4.625,2.667,11.039,11.039,0,0,0-2.659,4.731,6.845,6.845,0,0,0-.151,2.865,9.7,9.7,0,0,1-4.723,2.822,2.846,2.846,0,0,1-1.906-.233,1.54,1.54,0,0,1-.726-1,11.365,11.365,0,0,0,6.865-4.842,4.7,4.7,0,0,0,.9-3.238,2.174,2.174,0,0,0-2.4-1.748,5,5,0,0,0-.749.064l-.147.024a8.272,8.272,0,0,0-4.058,2.259c-.849.616-1.762,1.221-2.788,1.847a2.905,2.905,0,0,0-.776-2.243,1.633,1.633,0,0,0-1.4-.382,2.63,2.63,0,0,0-1.919,1.712,3.466,3.466,0,0,0,.662,3.341,22.247,22.247,0,0,1-6.1,6.942.483.483,0,0,1-.142.047.455.455,0,0,1-.454-.188.618.618,0,0,1-.02-.648l.369-.88c1.244-2.97,2.531-6.042,3.931-9.35a.184.184,0,0,0-.023-.186.174.174,0,0,0-.175-.067l-3.94.848a.062.062,0,0,0-.041.035.056.056,0,0,0,0,.052,2.73,2.73,0,0,1,.023,1.345q-.608,1.442-1.228,2.9c-.718,1.69-1.461,3.438-2.165,5.145a31.686,31.686,0,0,1-2.766,1.744.632.632,0,0,1-.2.075.336.336,0,0,1-.057.005.132.132,0,0,1-.115-.043c-.048-.065-.052-.233.084-.513l.4-.947c1.307-3.122,2.543-6.071,3.9-9.283a.184.184,0,0,0-.2-.254l-4.341.767a.183.183,0,0,0-.013.357.621.621,0,0,1,.415.311,1.089,1.089,0,0,1-.02.847q-.676,1.609-1.355,3.2l-.112.266c-.669,1.573-1.359,3.2-2.035,4.834a3.035,3.035,0,0,0,.154,2.956,1.8,1.8,0,0,0,1.756.594,3.072,3.072,0,0,0,1.149-.48c1.122-.75,2.234-1.56,3.142-2.289a1.941,1.941,0,0,0,.7,1.041,2.453,2.453,0,0,0,1.925.389,3.986,3.986,0,0,0,.993-.321c1.748-.625,6.111-4.2,9.43-9.021l.317-.215a8.267,8.267,0,0,0-.43,1.265c-.486,2-.249,3.6.687,4.634a3.758,3.758,0,0,0,2.916,1.119,6.711,6.711,0,0,0,1.1-.1,8.558,8.558,0,0,0,.984-.237,12.058,12.058,0,0,0,5.387-3.545,2.41,2.41,0,0,0,.183.234,4.56,4.56,0,0,0,3.372,1.447,4.635,4.635,0,0,0,.758-.07,8.812,8.812,0,0,0,.983-.236,11.891,11.891,0,0,0,5.583-4.323,3.908,3.908,0,0,0,.9,1.892,3.019,3.019,0,0,0,2.331.979,4.144,4.144,0,0,0,.683-.065,6.944,6.944,0,0,0,3.039-1.506,1.814,1.814,0,0,0,1.5.686,2.741,2.741,0,0,0,.426-.04,3.489,3.489,0,0,0,1.219-.486c.276-.175.509-.321.709-.445a8.906,8.906,0,0,0,1.654-1.195.737.737,0,0,1,.972.118,1.579,1.579,0,0,1,.09,1.5c-.741,2.755-3.868,3.8-9.378,4.777-.347.061-.69.118-1.016.167-3.905.621-8.027,1.026-12.012,1.418l-.023,0c-2.107.206-4.285.419-6.4.663-4.712.535-9.585,1.086-13.676,1.809a49.538,49.538,0,0,0-8.914,2.145.062.062,0,0,0-.039.056.063.063,0,0,0,.04.056,12.855,12.855,0,0,1,6.088,4.666.053.053,0,0,0,.044.024h0a.059.059,0,0,0,.043-.017c2.774-2.868,16.1-5.478,21.708-6.465,1.461-.259,2.909-.507,4.515-.783l.155-.026c1.363-.233,2.693-.462,3.97-.687,3.549-.627,5.813-1.081,7.568-1.516a19.812,19.812,0,0,0,6.382-2.5c.043-.029,4.27-3.1,2.686-6.358a2.191,2.191,0,0,0-1.332-.949,2.78,2.78,0,0,0-1.227-.026,3.592,3.592,0,0,0-1.937.85c-.177.094-.369.11-.42.039s-.043-.228.1-.5q.951-2.076,1.908-4.146l.183-.394c1.006-2.177,2.147-4.644,3.244-7.071,2.885-1.1,6.694-4.178,7.3-6.513a2.059,2.059,0,0,0-.328-1.946" fill="#f4e74f"/>
      <path id="Path_199" data-name="Path 199" d="M7.332-3.83l.5.662A2.077,2.077,0,0,0,8.151-3.9a3.29,3.29,0,0,0,.111-.82,3.084,3.084,0,0,0-.7-2.079,2.31,2.31,0,0,0-1.81-.82,2.289,2.289,0,0,0-1.79.82A2.893,2.893,0,0,0,3.24-4.781a2.978,2.978,0,0,0,.708,2.039,2.346,2.346,0,0,0,1.817.807,1.632,1.632,0,0,0,.321-.039,1.254,1.254,0,0,0,.334-.1L5.063-3.83Zm3.751,4.958H8.853L7.83-.216a3.681,3.681,0,0,1-.925.334A5.355,5.355,0,0,1,5.791.23,5.414,5.414,0,0,1,4.217.013,5.238,5.238,0,0,1,2.822-.63a4.9,4.9,0,0,1-1.61-1.8A5.007,5.007,0,0,1,.623-4.794a4.9,4.9,0,0,1,.393-1.931A4.943,4.943,0,0,1,2.13-8.355,5.048,5.048,0,0,1,3.775-9.443a5.26,5.26,0,0,1,1.979-.374,5.243,5.243,0,0,1,1.973.374A5.219,5.219,0,0,1,9.379-8.355a4.961,4.961,0,0,1,1.108,1.626,4.924,4.924,0,0,1,.393,1.935,5.18,5.18,0,0,1-.393,2,4.647,4.647,0,0,1-1.154,1.6ZM12.185-9.6H14.8v4.669a13.844,13.844,0,0,0,.052,1.482,2.931,2.931,0,0,0,.177.748.957.957,0,0,0,.518.551,1.924,1.924,0,0,0,.918.2,1.909,1.909,0,0,0,.912-.2A1.112,1.112,0,0,0,17.9-2.7a3.292,3.292,0,0,0,.171-.748,12.018,12.018,0,0,0,.059-1.482V-9.6h2.6v5.076a10.378,10.378,0,0,1-.19,2.321A2.977,2.977,0,0,1,19.9-.912a2.939,2.939,0,0,1-1.357.872,6.323,6.323,0,0,1-2.078.3,6.239,6.239,0,0,1-2.085-.3,3.023,3.023,0,0,1-1.354-.872A3.078,3.078,0,0,1,12.387-2.2a9.853,9.853,0,0,1-.2-2.321V-9.6ZM22.52,0V-9.6h2.643V0ZM33.964-9.227v2.859A4.435,4.435,0,0,0,32.9-7.253a2.627,2.627,0,0,0-1.154-.269,2.377,2.377,0,0,0-1.83.767,2.738,2.738,0,0,0-.393.574,2.638,2.638,0,0,0-.226.675,3.886,3.886,0,0,0-.075.764,2.724,2.724,0,0,0,.708,1.921,2.394,2.394,0,0,0,1.817.754A2.554,2.554,0,0,0,32.9-2.348a3.929,3.929,0,0,0,1.062-.879V-.361a6.1,6.1,0,0,1-1.239.452,5.387,5.387,0,0,1-1.246.151A5.486,5.486,0,0,1,30.023.056,3.857,3.857,0,0,1,28.8-.512a4.974,4.974,0,0,1-1.635-1.81,5.409,5.409,0,0,1-.563-2.472,5.308,5.308,0,0,1,.367-2,4.268,4.268,0,0,1,.416-.83,5.6,5.6,0,0,1,.652-.81,4.419,4.419,0,0,1,1.546-1.049A4.969,4.969,0,0,1,31.48-9.83a5.734,5.734,0,0,1,1.245.144A6.9,6.9,0,0,1,33.964-9.227ZM35.17,0V-9.6h2.59V-5.24L40.8-9.6h3.049L40.3-4.918,44.155,0H40.889L37.761-4.308V0Zm9.535,0V-9.6h2.643V0Zm4.486,0V-9.6h5.882v2.112H51.743V-5.83h3.141v2.066H51.743v1.613h3.331V0Zm7.77-3.1a5.022,5.022,0,0,0,1.153.99,2.271,2.271,0,0,0,1.126.328,1.3,1.3,0,0,0,.858-.282.888.888,0,0,0,.341-.715.976.976,0,0,0-.282-.741,3.877,3.877,0,0,0-1.329-.531,4.336,4.336,0,0,1-1.984-.984,2.329,2.329,0,0,1-.589-1.679,2.934,2.934,0,0,1,.924-2.243,3.3,3.3,0,0,1,2.385-.872,4.919,4.919,0,0,1,1.507.216,5.083,5.083,0,0,1,1.348.643L61.6-7.089a3.428,3.428,0,0,0-.917-.577,2.459,2.459,0,0,0-.924-.19,1.246,1.246,0,0,0-.766.23.681.681,0,0,0-.295.577.743.743,0,0,0,.256.577,2.932,2.932,0,0,0,1.01.413l.046.01a.432.432,0,0,1,.059.016,4.8,4.8,0,0,1,2.112.957,2.318,2.318,0,0,1,.525.846,3.312,3.312,0,0,1,.171,1.1,3.21,3.21,0,0,1-1,2.459,3.808,3.808,0,0,1-2.676.925,4.715,4.715,0,0,1-1.826-.334,5.275,5.275,0,0,1-1.584-1.075Z" transform="translate(2198.091 1292.508)" fill="#f4e74f"/>
    </g>
    <path id="Path_198" data-name="Path 198" d="M-1.81-2.7h.744v-.762H-3.454V-2.7h.744V0h.9ZM-.946,0h.9L.239-1.993H.248L1.043,0H1.4l.831-1.993h.009L2.494,0h.9L2.871-3.463h-.9L1.231-1.612l-.7-1.851H-.358Z" transform="translate(2277.008 1275.966)" fill="#f4e74f"/>
  </g>
</svg>
