<svg xmlns="http://www.w3.org/2000/svg" width="102" height="136.848" viewBox="0 0 102 136.848"><g id="Group_298" data-name="Group 298" transform="translate(-910.371 -305.024)"><path id="Path_137" data-name="Path 137" d="M1010.76,372.915a14.263,14.263,0,0,0-4.807-3,54.17,54.17,0,0,0-9.647-2.906c-.6-.133-.538-.313-.213-.69,1.286-1.489,2.555-2.991,3.739-4.565,3.914-5.2,7.279-10.692,8.973-17.058a15.1,15.1,0,0,0,.348-7.585,6.816,6.816,0,0,0-3.728-4.8,12.279,12.279,0,0,0-7.9-.592,33.426,33.426,0,0,0-8.494,3.028,67.349,67.349,0,0,0-11.682,7.607c-.142.112-.263.356-.491.223-.187-.109-.177-.342-.178-.538-.01-1.774-.154-3.539-.292-5.3-.186-2.376-.494-4.738-.869-7.088-.312-1.961-.722-3.906-1.191-5.838a49.969,49.969,0,0,0-3.3-9.729c-1.417-2.984-3.05-5.826-5.848-7.762a6.132,6.132,0,0,0-6.506-.63,12.822,12.822,0,0,0-5.137,5.024,36.378,36.378,0,0,0-3.79,8.4,69.183,69.183,0,0,0-2.277,9.28c-.357,2-.657,4.007-.88,6.025-.283,2.564-.5,5.135-.55,7.716,0,.172.03.385-.152.473s-.31-.1-.444-.2c-.987-.76-1.955-1.548-2.966-2.275a57.426,57.426,0,0,0-10.966-6.392,26.482,26.482,0,0,0-10.116-2.39,7.715,7.715,0,0,0-2.35.337,7.282,7.282,0,0,0-3.293,1.682c-2.089,1.97-2.616,4.5-2.485,7.2a25.6,25.6,0,0,0,2.217,8.718,57.406,57.406,0,0,0,7.072,12.005c1.3,1.734,2.646,3.426,4.106,5.026.313.342.365.576-.208.695-.876.182-1.74.426-2.61.64a36.467,36.467,0,0,0-9.557,3.524,9.707,9.707,0,0,0-2.386,1.823,3,3,0,0,0-.3,4.162,5.766,5.766,0,0,0,1.381,1.389c3.3,2.377,7.141,3.421,10.988,4.437,2.176.575,4.392.978,6.608,1.375,1.85.332,3.7.623,5.568.86,2.188.279,4.38.52,6.574.743.593.06.552.237.309.678a39.421,39.421,0,0,0-2.9,6.307,12.575,12.575,0,0,0-.773,4.231c.029,1.975.882,3.163,2.5,3.538a7.248,7.248,0,0,0,3.191-.034,30.971,30.971,0,0,0,8.285-3.368,85.4,85.4,0,0,0,7.863-4.982.835.835,0,0,1,1.117.016c.744.536,1.517,1.03,2.285,1.532a50.233,50.233,0,0,0,11.621,5.979,10.743,10.743,0,0,0,4.895.64,3.2,3.2,0,0,0,2.78-2.934,13.236,13.236,0,0,0-1.213-6.1,43.018,43.018,0,0,0-2.411-4.952c-.244-.451-.12-.581.329-.616.719-.054,1.441-.1,2.154-.192,3.355-.453,6.715-.854,10.049-1.462a67.506,67.506,0,0,0,12.335-3.246,14.814,14.814,0,0,0,5.631-3.374A3.1,3.1,0,0,0,1010.76,372.915Z" fill="#fff"></path><g id="Group_287" data-name="Group 287"><g id="Group_285" data-name="Group 285"><path id="Path_147" data-name="Path 147" d="M957.717,358.438a2.58,2.58,0,1,0-2.586,2.575h.006A2.579,2.579,0,0,0,957.717,358.438Z" fill="#00bcbc"></path><path id="Path_148" data-name="Path 148" d="M971.235,358.438a2.581,2.581,0,1,0-2.587,2.575h.006a2.575,2.575,0,0,0,2.581-2.569Z" fill="#00bcbc"></path></g><g id="Group_286" data-name="Group 286"><path id="Path_149" data-name="Path 149" d="M969.391,373.166H954.612a1.152,1.152,0,1,1,0-2.3h14.779a1.152,1.152,0,1,1,0,2.3Z" fill="#00bcbc"></path></g></g><text id="Undecided" transform="translate(961.371 436.872)" fill="#fff" font-size="19.821" font-family="Futura-Medium, Futura" font-weight="500"><tspan x="-50.394" y="0">Undecided</tspan></text></g></svg>