<svg xmlns="http://www.w3.org/2000/svg" version="1.1" xmlns:xlink="http://www.w3.org/1999/xlink" xmlns:svgjs="http://svgjs.com/svgjs" width="1051" height="1051" viewBox="0 0 1051 1051" fill="rgba(0,0,0,0)"><rect width="1051" height="1051" fill="rgba(0,0,0,0)" x="0" y="0" rx="27" ry="27"></rect><rect width="135" height="135" fill="rgba(0,0,0,0)" x="728" y="728" opacity="0.6"></rect><path d="M377 80H404V107H377V80Z " fill="#ffffff" opacity="1"></path><path d="M404 80H431V107H404V80Z " fill="#ffffff" opacity="1"></path><path d="M431 80H458V107H431V80Z " fill="#ffffff" opacity="1"></path><path d="M458 80H485V107H458V80Z " fill="#ffffff" opacity="1"></path><path d="M539 80H566V107H539V80Z " fill="#ffffff" opacity="1"></path><path d="M593 80H620V107H593V80Z " fill="#ffffff" opacity="1"></path><path d="M647 80H674V107H647V80Z " fill="#ffffff" opacity="1"></path><path d="M674 80H701V107H674V80Z " fill="#ffffff" opacity="1"></path><path d="M728 80H755V107H728V80Z " fill="#ffffff" opacity="1"></path><path d="M296 107H323V134H296V107Z " fill="#ffffff" opacity="1"></path><path d="M458 107H485V134H458V107Z " fill="#ffffff" opacity="1"></path><path d="M512 107H539V134H512V107Z " fill="#ffffff" opacity="1"></path><path d="M539 107H566V134H539V107Z " fill="#ffffff" opacity="1"></path><path d="M593 107H620V134H593V107Z " fill="#ffffff" opacity="1"></path><path d="M647 107H674V134H647V107Z " fill="#ffffff" opacity="1"></path><path d="M296 134H323V161H296V134Z " fill="#ffffff" opacity="1"></path><path d="M323 134H350V161H323V134Z " fill="#ffffff" opacity="1"></path><path d="M350 134H377V161H350V134Z " fill="#ffffff" opacity="1"></path><path d="M404 134H431V161H404V134Z " fill="#ffffff" opacity="1"></path><path d="M485 134H512V161H485V134Z " fill="#ffffff" opacity="1"></path><path d="M512 134H539V161H512V134Z " fill="#ffffff" opacity="1"></path><path d="M539 134H566V161H539V134Z " fill="#ffffff" opacity="1"></path><path d="M566 134H593V161H566V134Z " fill="#ffffff" opacity="1"></path><path d="M593 134H620V161H593V134Z " fill="#ffffff" opacity="1"></path><path d="M647 134H674V161H647V134Z " fill="#ffffff" opacity="1"></path><path d="M728 134H755V161H728V134Z " fill="#ffffff" opacity="1"></path><path d="M296 161H323V188H296V161Z " fill="#ffffff" opacity="1"></path><path d="M323 161H350V188H323V161Z " fill="#ffffff" opacity="1"></path><path d="M350 161H377V188H350V161Z " fill="#ffffff" opacity="1"></path><path d="M431 161H458V188H431V161Z " fill="#ffffff" opacity="1"></path><path d="M458 161H485V188H458V161Z " fill="#ffffff" opacity="1"></path><path d="M512 161H539V188H512V161Z " fill="#ffffff" opacity="1"></path><path d="M539 161H566V188H539V161Z " fill="#ffffff" opacity="1"></path><path d="M620 161H647V188H620V161Z " fill="#ffffff" opacity="1"></path><path d="M647 161H674V188H647V161Z " fill="#ffffff" opacity="1"></path><path d="M701 161H728V188H701V161Z " fill="#ffffff" opacity="1"></path><path d="M728 161H755V188H728V161Z " fill="#ffffff" opacity="1"></path><path d="M323 188H350V215H323V188Z " fill="#ffffff" opacity="1"></path><path d="M431 188H458V215H431V188Z " fill="#ffffff" opacity="1"></path><path d="M485 188H512V215H485V188Z " fill="#ffffff" opacity="1"></path><path d="M566 188H593V215H566V188Z " fill="#ffffff" opacity="1"></path><path d="M593 188H620V215H593V188Z " fill="#ffffff" opacity="1"></path><path d="M620 188H647V215H620V188Z " fill="#ffffff" opacity="1"></path><path d="M647 188H674V215H647V188Z " fill="#ffffff" opacity="1"></path><path d="M674 188H701V215H674V188Z " fill="#ffffff" opacity="1"></path><path d="M701 188H728V215H701V188Z " fill="#ffffff" opacity="1"></path><path d="M728 188H755V215H728V188Z " fill="#ffffff" opacity="1"></path><path d="M377 215H404V242H377V215Z " fill="#ffffff" opacity="1"></path><path d="M404 215H431V242H404V215Z " fill="#ffffff" opacity="1"></path><path d="M431 215H458V242H431V215Z " fill="#ffffff" opacity="1"></path><path d="M485 215H512V242H485V215Z " fill="#ffffff" opacity="1"></path><path d="M539 215H566V242H539V215Z " fill="#ffffff" opacity="1"></path><path d="M647 215H674V242H647V215Z " fill="#ffffff" opacity="1"></path><path d="M674 215H701V242H674V215Z " fill="#ffffff" opacity="1"></path><path d="M728 215H755V242H728V215Z " fill="#ffffff" opacity="1"></path><path d="M404 269H431V296H404V269Z " fill="#ffffff" opacity="1"></path><path d="M431 269H458V296H431V269Z " fill="#ffffff" opacity="1"></path><path d="M485 269H512V296H485V269Z " fill="#ffffff" opacity="1"></path><path d="M512 269H539V296H512V269Z " fill="#ffffff" opacity="1"></path><path d="M134 296H161V323H134V296Z " fill="#ffffff" opacity="1"></path><path d="M350 296H377V323H350V296Z " fill="#ffffff" opacity="1"></path><path d="M377 296H404V323H377V296Z " fill="#ffffff" opacity="1"></path><path d="M431 296H458V323H431V296Z " fill="#ffffff" opacity="1"></path><path d="M485 296H512V323H485V296Z " fill="#ffffff" opacity="1"></path><path d="M512 296H539V323H512V296Z " fill="#ffffff" opacity="1"></path><path d="M539 296H566V323H539V296Z " fill="#ffffff" opacity="1"></path><path d="M593 296H620V323H593V296Z " fill="#ffffff" opacity="1"></path><path d="M620 296H647V323H620V296Z " fill="#ffffff" opacity="1"></path><path d="M674 296H701V323H674V296Z " fill="#ffffff" opacity="1"></path><path d="M701 296H728V323H701V296Z " fill="#ffffff" opacity="1"></path><path d="M755 296H782V323H755V296Z " fill="#ffffff" opacity="1"></path><path d="M809 296H836V323H809V296Z " fill="#ffffff" opacity="1"></path><path d="M836 296H863V323H836V296Z " fill="#ffffff" opacity="1"></path><path d="M863 296H890V323H863V296Z " fill="#ffffff" opacity="1"></path><path d="M890 296H917V323H890V296Z " fill="#ffffff" opacity="1"></path><path d="M917 296H944V323H917V296Z " fill="#ffffff" opacity="1"></path><path d="M80 323H107V350H80V323Z " fill="#ffffff" opacity="1"></path><path d="M134 323H161V350H134V323Z " fill="#ffffff" opacity="1"></path><path d="M188 323H215V350H188V323Z " fill="#ffffff" opacity="1"></path><path d="M215 323H242V350H215V323Z " fill="#ffffff" opacity="1"></path><path d="M323 323H350V350H323V323Z " fill="#ffffff" opacity="1"></path><path d="M350 323H377V350H350V323Z " fill="#ffffff" opacity="1"></path><path d="M377 323H404V350H377V323Z " fill="#ffffff" opacity="1"></path><path d="M431 323H458V350H431V323Z " fill="#ffffff" opacity="1"></path><path d="M485 323H512V350H485V323Z " fill="#ffffff" opacity="1"></path><path d="M566 323H593V350H566V323Z " fill="#ffffff" opacity="1"></path><path d="M647 323H674V350H647V323Z " fill="#ffffff" opacity="1"></path><path d="M674 323H701V350H674V323Z " fill="#ffffff" opacity="1"></path><path d="M701 323H728V350H701V323Z " fill="#ffffff" opacity="1"></path><path d="M755 323H782V350H755V323Z " fill="#ffffff" opacity="1"></path><path d="M782 323H809V350H782V323Z " fill="#ffffff" opacity="1"></path><path d="M809 323H836V350H809V323Z " fill="#ffffff" opacity="1"></path><path d="M917 323H944V350H917V323Z " fill="#ffffff" opacity="1"></path><path d="M944 323H971V350H944V323Z " fill="#ffffff" opacity="1"></path><path d="M134 350H161V377H134V350Z " fill="#ffffff" opacity="1"></path><path d="M161 350H188V377H161V350Z " fill="#ffffff" opacity="1"></path><path d="M188 350H215V377H188V350Z " fill="#ffffff" opacity="1"></path><path d="M323 350H350V377H323V350Z " fill="#ffffff" opacity="1"></path><path d="M350 350H377V377H350V350Z " fill="#ffffff" opacity="1"></path><path d="M512 350H539V377H512V350Z " fill="#ffffff" opacity="1"></path><path d="M620 350H647V377H620V350Z " fill="#ffffff" opacity="1"></path><path d="M701 350H728V377H701V350Z " fill="#ffffff" opacity="1"></path><path d="M809 350H836V377H809V350Z " fill="#ffffff" opacity="1"></path><path d="M836 350H863V377H836V350Z " fill="#ffffff" opacity="1"></path><path d="M863 350H890V377H863V350Z " fill="#ffffff" opacity="1"></path><path d="M944 350H971V377H944V350Z " fill="#ffffff" opacity="1"></path><path d="M80 377H107V404H80V377Z " fill="#ffffff" opacity="1"></path><path d="M188 377H215V404H188V377Z " fill="#ffffff" opacity="1"></path><path d="M269 377H296V404H269V377Z " fill="#ffffff" opacity="1"></path><path d="M377 377H404V404H377V377Z " fill="#ffffff" opacity="1"></path><path d="M404 377H431V404H404V377Z " fill="#ffffff" opacity="1"></path><path d="M458 377H485V404H458V377Z " fill="#ffffff" opacity="1"></path><path d="M647 377H674V404H647V377Z " fill="#ffffff" opacity="1"></path><path d="M755 377H782V404H755V377Z " fill="#ffffff" opacity="1"></path><path d="M782 377H809V404H782V377Z " fill="#ffffff" opacity="1"></path><path d="M809 377H836V404H809V377Z " fill="#ffffff" opacity="1"></path><path d="M863 377H890V404H863V377Z " fill="#ffffff" opacity="1"></path><path d="M917 377H944V404H917V377Z " fill="#ffffff" opacity="1"></path><path d="M134 404H161V431H134V404Z " fill="#ffffff" opacity="1"></path><path d="M188 404H215V431H188V404Z " fill="#ffffff" opacity="1"></path><path d="M215 404H242V431H215V404Z " fill="#ffffff" opacity="1"></path><path d="M350 404H377V431H350V404Z " fill="#ffffff" opacity="1"></path><path d="M512 404H539V431H512V404Z " fill="#ffffff" opacity="1"></path><path d="M539 404H566V431H539V404Z " fill="#ffffff" opacity="1"></path><path d="M593 404H620V431H593V404Z " fill="#ffffff" opacity="1"></path><path d="M647 404H674V431H647V404Z " fill="#ffffff" opacity="1"></path><path d="M782 404H809V431H782V404Z " fill="#ffffff" opacity="1"></path><path d="M809 404H836V431H809V404Z " fill="#ffffff" opacity="1"></path><path d="M836 404H863V431H836V404Z " fill="#ffffff" opacity="1"></path><path d="M863 404H890V431H863V404Z " fill="#ffffff" opacity="1"></path><path d="M917 404H944V431H917V404Z " fill="#ffffff" opacity="1"></path><path d="M944 404H971V431H944V404Z " fill="#ffffff" opacity="1"></path><path d="M80 431H107V458H80V431Z " fill="#ffffff" opacity="1"></path><path d="M107 431H134V458H107V431Z " fill="#ffffff" opacity="1"></path><path d="M134 431H161V458H134V431Z " fill="#ffffff" opacity="1"></path><path d="M161 431H188V458H161V431Z " fill="#ffffff" opacity="1"></path><path d="M215 431H242V458H215V431Z " fill="#ffffff" opacity="1"></path><path d="M377 431H404V458H377V431Z " fill="#ffffff" opacity="1"></path><path d="M458 431H485V458H458V431Z " fill="#ffffff" opacity="1"></path><path d="M485 431H512V458H485V431Z " fill="#ffffff" opacity="1"></path><path d="M539 431H566V458H539V431Z " fill="#ffffff" opacity="1"></path><path d="M593 431H620V458H593V431Z " fill="#ffffff" opacity="1"></path><path d="M647 431H674V458H647V431Z " fill="#ffffff" opacity="1"></path><path d="M701 431H728V458H701V431Z " fill="#ffffff" opacity="1"></path><path d="M728 431H755V458H728V431Z " fill="#ffffff" opacity="1"></path><path d="M782 431H809V458H782V431Z " fill="#ffffff" opacity="1"></path><path d="M809 431H836V458H809V431Z " fill="#ffffff" opacity="1"></path><path d="M836 431H863V458H836V431Z " fill="#ffffff" opacity="1"></path><path d="M863 431H890V458H863V431Z " fill="#ffffff" opacity="1"></path><path d="M890 431H917V458H890V431Z " fill="#ffffff" opacity="1"></path><path d="M944 431H971V458H944V431Z " fill="#ffffff" opacity="1"></path><path d="M80 458H107V485H80V458Z " fill="#ffffff" opacity="1"></path><path d="M107 458H134V485H107V458Z " fill="#ffffff" opacity="1"></path><path d="M161 458H188V485H161V458Z " fill="#ffffff" opacity="1"></path><path d="M188 458H215V485H188V458Z " fill="#ffffff" opacity="1"></path><path d="M215 458H242V485H215V458Z " fill="#ffffff" opacity="1"></path><path d="M269 458H296V485H269V458Z " fill="#ffffff" opacity="1"></path><path d="M296 458H323V485H296V458Z " fill="#ffffff" opacity="1"></path><path d="M323 458H350V485H323V458Z " fill="#ffffff" opacity="1"></path><path d="M350 458H377V485H350V458Z " fill="#ffffff" opacity="1"></path><path d="M512 458H539V485H512V458Z " fill="#ffffff" opacity="1"></path><path d="M539 458H566V485H539V458Z " fill="#ffffff" opacity="1"></path><path d="M593 458H620V485H593V458Z " fill="#ffffff" opacity="1"></path><path d="M620 458H647V485H620V458Z " fill="#ffffff" opacity="1"></path><path d="M701 458H728V485H701V458Z " fill="#ffffff" opacity="1"></path><path d="M755 458H782V485H755V458Z " fill="#ffffff" opacity="1"></path><path d="M782 458H809V485H782V458Z " fill="#ffffff" opacity="1"></path><path d="M809 458H836V485H809V458Z " fill="#ffffff" opacity="1"></path><path d="M863 458H890V485H863V458Z " fill="#ffffff" opacity="1"></path><path d="M944 458H971V485H944V458Z " fill="#ffffff" opacity="1"></path><path d="M188 485H215V512H188V485Z " fill="#ffffff" opacity="1"></path><path d="M350 485H377V512H350V485Z " fill="#ffffff" opacity="1"></path><path d="M377 485H404V512H377V485Z " fill="#ffffff" opacity="1"></path><path d="M404 485H431V512H404V485Z " fill="#ffffff" opacity="1"></path><path d="M431 485H458V512H431V485Z " fill="#ffffff" opacity="1"></path><path d="M458 485H485V512H458V485Z " fill="#ffffff" opacity="1"></path><path d="M485 485H512V512H485V485Z " fill="#ffffff" opacity="1"></path><path d="M512 485H539V512H512V485Z " fill="#ffffff" opacity="1"></path><path d="M593 485H620V512H593V485Z " fill="#ffffff" opacity="1"></path><path d="M620 485H647V512H620V485Z " fill="#ffffff" opacity="1"></path><path d="M674 485H701V512H674V485Z " fill="#ffffff" opacity="1"></path><path d="M728 485H755V512H728V485Z " fill="#ffffff" opacity="1"></path><path d="M755 485H782V512H755V485Z " fill="#ffffff" opacity="1"></path><path d="M782 485H809V512H782V485Z " fill="#ffffff" opacity="1"></path><path d="M809 485H836V512H809V485Z " fill="#ffffff" opacity="1"></path><path d="M836 485H863V512H836V485Z " fill="#ffffff" opacity="1"></path><path d="M863 485H890V512H863V485Z " fill="#ffffff" opacity="1"></path><path d="M890 485H917V512H890V485Z " fill="#ffffff" opacity="1"></path><path d="M944 485H971V512H944V485Z " fill="#ffffff" opacity="1"></path><path d="M80 512H107V539H80V512Z " fill="#ffffff" opacity="1"></path><path d="M161 512H188V539H161V512Z " fill="#ffffff" opacity="1"></path><path d="M188 512H215V539H188V512Z " fill="#ffffff" opacity="1"></path><path d="M323 512H350V539H323V512Z " fill="#ffffff" opacity="1"></path><path d="M350 512H377V539H350V512Z " fill="#ffffff" opacity="1"></path><path d="M404 512H431V539H404V512Z " fill="#ffffff" opacity="1"></path><path d="M566 512H593V539H566V512Z " fill="#ffffff" opacity="1"></path><path d="M620 512H647V539H620V512Z " fill="#ffffff" opacity="1"></path><path d="M674 512H701V539H674V512Z " fill="#ffffff" opacity="1"></path><path d="M701 512H728V539H701V512Z " fill="#ffffff" opacity="1"></path><path d="M782 512H809V539H782V512Z " fill="#ffffff" opacity="1"></path><path d="M809 512H836V539H809V512Z " fill="#ffffff" opacity="1"></path><path d="M863 512H890V539H863V512Z " fill="#ffffff" opacity="1"></path><path d="M890 512H917V539H890V512Z " fill="#ffffff" opacity="1"></path><path d="M917 512H944V539H917V512Z " fill="#ffffff" opacity="1"></path><path d="M80 539H107V566H80V539Z " fill="#ffffff" opacity="1"></path><path d="M107 539H134V566H107V539Z " fill="#ffffff" opacity="1"></path><path d="M134 539H161V566H134V539Z " fill="#ffffff" opacity="1"></path><path d="M161 539H188V566H161V539Z " fill="#ffffff" opacity="1"></path><path d="M188 539H215V566H188V539Z " fill="#ffffff" opacity="1"></path><path d="M269 539H296V566H269V539Z " fill="#ffffff" opacity="1"></path><path d="M296 539H323V566H296V539Z " fill="#ffffff" opacity="1"></path><path d="M350 539H377V566H350V539Z " fill="#ffffff" opacity="1"></path><path d="M431 539H458V566H431V539Z " fill="#ffffff" opacity="1"></path><path d="M485 539H512V566H485V539Z " fill="#ffffff" opacity="1"></path><path d="M512 539H539V566H512V539Z " fill="#ffffff" opacity="1"></path><path d="M539 539H566V566H539V539Z " fill="#ffffff" opacity="1"></path><path d="M566 539H593V566H566V539Z " fill="#ffffff" opacity="1"></path><path d="M593 539H620V566H593V539Z " fill="#ffffff" opacity="1"></path><path d="M620 539H647V566H620V539Z " fill="#ffffff" opacity="1"></path><path d="M647 539H674V566H647V539Z " fill="#ffffff" opacity="1"></path><path d="M701 539H728V566H701V539Z " fill="#ffffff" opacity="1"></path><path d="M809 539H836V566H809V539Z " fill="#ffffff" opacity="1"></path><path d="M890 539H917V566H890V539Z " fill="#ffffff" opacity="1"></path><path d="M107 566H134V593H107V566Z " fill="#ffffff" opacity="1"></path><path d="M269 566H296V593H269V566Z " fill="#ffffff" opacity="1"></path><path d="M296 566H323V593H296V566Z " fill="#ffffff" opacity="1"></path><path d="M323 566H350V593H323V566Z " fill="#ffffff" opacity="1"></path><path d="M350 566H377V593H350V566Z " fill="#ffffff" opacity="1"></path><path d="M431 566H458V593H431V566Z " fill="#ffffff" opacity="1"></path><path d="M512 566H539V593H512V566Z " fill="#ffffff" opacity="1"></path><path d="M539 566H566V593H539V566Z " fill="#ffffff" opacity="1"></path><path d="M620 566H647V593H620V566Z " fill="#ffffff" opacity="1"></path><path d="M701 566H728V593H701V566Z " fill="#ffffff" opacity="1"></path><path d="M755 566H782V593H755V566Z " fill="#ffffff" opacity="1"></path><path d="M782 566H809V593H782V566Z " fill="#ffffff" opacity="1"></path><path d="M863 566H890V593H863V566Z " fill="#ffffff" opacity="1"></path><path d="M890 566H917V593H890V566Z " fill="#ffffff" opacity="1"></path><path d="M917 566H944V593H917V566Z " fill="#ffffff" opacity="1"></path><path d="M944 566H971V593H944V566Z " fill="#ffffff" opacity="1"></path><path d="M80 593H107V620H80V593Z " fill="#ffffff" opacity="1"></path><path d="M107 593H134V620H107V593Z " fill="#ffffff" opacity="1"></path><path d="M134 593H161V620H134V593Z " fill="#ffffff" opacity="1"></path><path d="M188 593H215V620H188V593Z " fill="#ffffff" opacity="1"></path><path d="M296 593H323V620H296V593Z " fill="#ffffff" opacity="1"></path><path d="M323 593H350V620H323V593Z " fill="#ffffff" opacity="1"></path><path d="M350 593H377V620H350V593Z " fill="#ffffff" opacity="1"></path><path d="M512 593H539V620H512V593Z " fill="#ffffff" opacity="1"></path><path d="M539 593H566V620H539V593Z " fill="#ffffff" opacity="1"></path><path d="M566 593H593V620H566V593Z " fill="#ffffff" opacity="1"></path><path d="M620 593H647V620H620V593Z " fill="#ffffff" opacity="1"></path><path d="M701 593H728V620H701V593Z " fill="#ffffff" opacity="1"></path><path d="M755 593H782V620H755V593Z " fill="#ffffff" opacity="1"></path><path d="M809 593H836V620H809V593Z " fill="#ffffff" opacity="1"></path><path d="M836 593H863V620H836V593Z " fill="#ffffff" opacity="1"></path><path d="M863 593H890V620H863V593Z " fill="#ffffff" opacity="1"></path><path d="M161 620H188V647H161V620Z " fill="#ffffff" opacity="1"></path><path d="M296 620H323V647H296V620Z " fill="#ffffff" opacity="1"></path><path d="M323 620H350V647H323V620Z " fill="#ffffff" opacity="1"></path><path d="M404 620H431V647H404V620Z " fill="#ffffff" opacity="1"></path><path d="M458 620H485V647H458V620Z " fill="#ffffff" opacity="1"></path><path d="M512 620H539V647H512V620Z " fill="#ffffff" opacity="1"></path><path d="M539 620H566V647H539V620Z " fill="#ffffff" opacity="1"></path><path d="M593 620H620V647H593V620Z " fill="#ffffff" opacity="1"></path><path d="M701 620H728V647H701V620Z " fill="#ffffff" opacity="1"></path><path d="M728 620H755V647H728V620Z " fill="#ffffff" opacity="1"></path><path d="M755 620H782V647H755V620Z " fill="#ffffff" opacity="1"></path><path d="M782 620H809V647H782V620Z " fill="#ffffff" opacity="1"></path><path d="M809 620H836V647H809V620Z " fill="#ffffff" opacity="1"></path><path d="M917 620H944V647H917V620Z " fill="#ffffff" opacity="1"></path><path d="M107 647H134V674H107V647Z " fill="#ffffff" opacity="1"></path><path d="M161 647H188V674H161V647Z " fill="#ffffff" opacity="1"></path><path d="M215 647H242V674H215V647Z " fill="#ffffff" opacity="1"></path><path d="M269 647H296V674H269V647Z " fill="#ffffff" opacity="1"></path><path d="M350 647H377V674H350V647Z " fill="#ffffff" opacity="1"></path><path d="M485 647H512V674H485V647Z " fill="#ffffff" opacity="1"></path><path d="M512 647H539V674H512V647Z " fill="#ffffff" opacity="1"></path><path d="M539 647H566V674H539V647Z " fill="#ffffff" opacity="1"></path><path d="M647 647H674V674H647V647Z " fill="#ffffff" opacity="1"></path><path d="M674 647H701V674H674V647Z " fill="#ffffff" opacity="1"></path><path d="M728 647H755V674H728V647Z " fill="#ffffff" opacity="1"></path><path d="M755 647H782V674H755V647Z " fill="#ffffff" opacity="1"></path><path d="M809 647H836V674H809V647Z " fill="#ffffff" opacity="1"></path><path d="M917 647H944V674H917V647Z " fill="#ffffff" opacity="1"></path><path d="M944 647H971V674H944V647Z " fill="#ffffff" opacity="1"></path><path d="M80 674H107V701H80V674Z " fill="#ffffff" opacity="1"></path><path d="M107 674H134V701H107V674Z " fill="#ffffff" opacity="1"></path><path d="M161 674H188V701H161V674Z " fill="#ffffff" opacity="1"></path><path d="M215 674H242V701H215V674Z " fill="#ffffff" opacity="1"></path><path d="M269 674H296V701H269V674Z " fill="#ffffff" opacity="1"></path><path d="M323 674H350V701H323V674Z " fill="#ffffff" opacity="1"></path><path d="M377 674H404V701H377V674Z " fill="#ffffff" opacity="1"></path><path d="M431 674H458V701H431V674Z " fill="#ffffff" opacity="1"></path><path d="M539 674H566V701H539V674Z " fill="#ffffff" opacity="1"></path><path d="M566 674H593V701H566V674Z " fill="#ffffff" opacity="1"></path><path d="M593 674H620V701H593V674Z " fill="#ffffff" opacity="1"></path><path d="M620 674H647V701H620V674Z " fill="#ffffff" opacity="1"></path><path d="M647 674H674V701H647V674Z " fill="#ffffff" opacity="1"></path><path d="M674 674H701V701H674V674Z " fill="#ffffff" opacity="1"></path><path d="M728 674H755V701H728V674Z " fill="#ffffff" opacity="1"></path><path d="M755 674H782V701H755V674Z " fill="#ffffff" opacity="1"></path><path d="M782 674H809V701H782V674Z " fill="#ffffff" opacity="1"></path><path d="M863 674H890V701H863V674Z " fill="#ffffff" opacity="1"></path><path d="M944 674H971V701H944V674Z " fill="#ffffff" opacity="1"></path><path d="M134 701H161V728H134V701Z " fill="#ffffff" opacity="1"></path><path d="M161 701H188V728H161V701Z " fill="#ffffff" opacity="1"></path><path d="M188 701H215V728H188V701Z " fill="#ffffff" opacity="1"></path><path d="M323 701H350V728H323V701Z " fill="#ffffff" opacity="1"></path><path d="M377 701H404V728H377V701Z " fill="#ffffff" opacity="1"></path><path d="M404 701H431V728H404V701Z " fill="#ffffff" opacity="1"></path><path d="M485 701H512V728H485V701Z " fill="#ffffff" opacity="1"></path><path d="M539 701H566V728H539V701Z " fill="#ffffff" opacity="1"></path><path d="M593 701H620V728H593V701Z " fill="#ffffff" opacity="1"></path><path d="M620 701H647V728H620V701Z " fill="#ffffff" opacity="1"></path><path d="M674 701H701V728H674V701Z " fill="#ffffff" opacity="1"></path><path d="M701 701H728V728H701V701Z " fill="#ffffff" opacity="1"></path><path d="M728 701H755V728H728V701Z " fill="#ffffff" opacity="1"></path><path d="M863 701H890V728H863V701Z " fill="#ffffff" opacity="1"></path><path d="M80 728H107V755H80V728Z " fill="#ffffff" opacity="1"></path><path d="M107 728H134V755H107V728Z " fill="#ffffff" opacity="1"></path><path d="M269 728H296V755H269V728Z " fill="#ffffff" opacity="1"></path><path d="M323 728H350V755H323V728Z " fill="#ffffff" opacity="1"></path><path d="M350 728H377V755H350V728Z " fill="#ffffff" opacity="1"></path><path d="M377 728H404V755H377V728Z " fill="#ffffff" opacity="1"></path><path d="M431 728H458V755H431V728Z " fill="#ffffff" opacity="1"></path><path d="M485 728H512V755H485V728Z " fill="#ffffff" opacity="1"></path><path d="M539 728H566V755H539V728Z " fill="#ffffff" opacity="1"></path><path d="M566 728H593V755H566V728Z " fill="#ffffff" opacity="1"></path><path d="M863 728H890V755H863V728Z " fill="#ffffff" opacity="1"></path><path d="M917 728H944V755H917V728Z " fill="#ffffff" opacity="1"></path><path d="M944 728H971V755H944V728Z " fill="#ffffff" opacity="1"></path><path d="M296 755H323V782H296V755Z " fill="#ffffff" opacity="1"></path><path d="M323 755H350V782H323V755Z " fill="#ffffff" opacity="1"></path><path d="M350 755H377V782H350V755Z " fill="#ffffff" opacity="1"></path><path d="M431 755H458V782H431V755Z " fill="#ffffff" opacity="1"></path><path d="M458 755H485V782H458V755Z " fill="#ffffff" opacity="1"></path><path d="M512 755H539V782H512V755Z " fill="#ffffff" opacity="1"></path><path d="M593 755H620V782H593V755Z " fill="#ffffff" opacity="1"></path><path d="M674 755H701V782H674V755Z " fill="#ffffff" opacity="1"></path><path d="M863 755H890V782H863V755Z " fill="#ffffff" opacity="1"></path><path d="M890 755H917V782H890V755Z " fill="#ffffff" opacity="1"></path><path d="M917 755H944V782H917V755Z " fill="#ffffff" opacity="1"></path><path d="M944 755H971V782H944V755Z " fill="#ffffff" opacity="1"></path><path d="M296 782H323V809H296V782Z " fill="#ffffff" opacity="1"></path><path d="M323 782H350V809H323V782Z " fill="#ffffff" opacity="1"></path><path d="M485 782H512V809H485V782Z " fill="#ffffff" opacity="1"></path><path d="M512 782H539V809H512V782Z " fill="#ffffff" opacity="1"></path><path d="M620 782H647V809H620V782Z " fill="#ffffff" opacity="1"></path><path d="M647 782H674V809H647V782Z " fill="#ffffff" opacity="1"></path><path d="M674 782H701V809H674V782Z " fill="#ffffff" opacity="1"></path><path d="M944 782H971V809H944V782Z " fill="#ffffff" opacity="1"></path><path d="M296 809H323V836H296V809Z " fill="#ffffff" opacity="1"></path><path d="M350 809H377V836H350V809Z " fill="#ffffff" opacity="1"></path><path d="M485 809H512V836H485V809Z " fill="#ffffff" opacity="1"></path><path d="M593 809H620V836H593V809Z " fill="#ffffff" opacity="1"></path><path d="M674 809H701V836H674V809Z " fill="#ffffff" opacity="1"></path><path d="M701 809H728V836H701V809Z " fill="#ffffff" opacity="1"></path><path d="M917 809H944V836H917V809Z " fill="#ffffff" opacity="1"></path><path d="M944 809H971V836H944V809Z " fill="#ffffff" opacity="1"></path><path d="M350 836H377V863H350V836Z " fill="#ffffff" opacity="1"></path><path d="M377 836H404V863H377V836Z " fill="#ffffff" opacity="1"></path><path d="M647 836H674V863H647V836Z " fill="#ffffff" opacity="1"></path><path d="M674 836H701V863H674V836Z " fill="#ffffff" opacity="1"></path><path d="M701 836H728V863H701V836Z " fill="#ffffff" opacity="1"></path><path d="M863 836H890V863H863V836Z " fill="#ffffff" opacity="1"></path><path d="M485 863H512V890H485V863Z " fill="#ffffff" opacity="1"></path><path d="M539 863H566V890H539V863Z " fill="#ffffff" opacity="1"></path><path d="M593 863H620V890H593V863Z " fill="#ffffff" opacity="1"></path><path d="M647 863H674V890H647V863Z " fill="#ffffff" opacity="1"></path><path d="M674 863H701V890H674V863Z " fill="#ffffff" opacity="1"></path><path d="M728 863H755V890H728V863Z " fill="#ffffff" opacity="1"></path><path d="M755 863H782V890H755V863Z " fill="#ffffff" opacity="1"></path><path d="M809 863H836V890H809V863Z " fill="#ffffff" opacity="1"></path><path d="M836 863H863V890H836V863Z " fill="#ffffff" opacity="1"></path><path d="M917 863H944V890H917V863Z " fill="#ffffff" opacity="1"></path><path d="M296 890H323V917H296V890Z " fill="#ffffff" opacity="1"></path><path d="M350 890H377V917H350V890Z " fill="#ffffff" opacity="1"></path><path d="M431 890H458V917H431V890Z " fill="#ffffff" opacity="1"></path><path d="M458 890H485V917H458V890Z " fill="#ffffff" opacity="1"></path><path d="M485 890H512V917H485V890Z " fill="#ffffff" opacity="1"></path><path d="M512 890H539V917H512V890Z " fill="#ffffff" opacity="1"></path><path d="M539 890H566V917H539V890Z " fill="#ffffff" opacity="1"></path><path d="M566 890H593V917H566V890Z " fill="#ffffff" opacity="1"></path><path d="M620 890H647V917H620V890Z " fill="#ffffff" opacity="1"></path><path d="M836 890H863V917H836V890Z " fill="#ffffff" opacity="1"></path><path d="M890 890H917V917H890V890Z " fill="#ffffff" opacity="1"></path><path d="M917 890H944V917H917V890Z " fill="#ffffff" opacity="1"></path><path d="M944 890H971V917H944V890Z " fill="#ffffff" opacity="1"></path><path d="M350 917H377V944H350V917Z " fill="#ffffff" opacity="1"></path><path d="M377 917H404V944H377V917Z " fill="#ffffff" opacity="1"></path><path d="M404 917H431V944H404V917Z " fill="#ffffff" opacity="1"></path><path d="M431 917H458V944H431V917Z " fill="#ffffff" opacity="1"></path><path d="M458 917H485V944H458V917Z " fill="#ffffff" opacity="1"></path><path d="M485 917H512V944H485V917Z " fill="#ffffff" opacity="1"></path><path d="M539 917H566V944H539V917Z " fill="#ffffff" opacity="1"></path><path d="M566 917H593V944H566V917Z " fill="#ffffff" opacity="1"></path><path d="M620 917H647V944H620V917Z " fill="#ffffff" opacity="1"></path><path d="M647 917H674V944H647V917Z " fill="#ffffff" opacity="1"></path><path d="M728 917H755V944H728V917Z " fill="#ffffff" opacity="1"></path><path d="M755 917H782V944H755V917Z " fill="#ffffff" opacity="1"></path><path d="M323 944H350V971H323V944Z " fill="#ffffff" opacity="1"></path><path d="M404 944H431V971H404V944Z " fill="#ffffff" opacity="1"></path><path d="M458 944H485V971H458V944Z " fill="#ffffff" opacity="1"></path><path d="M485 944H512V971H485V944Z " fill="#ffffff" opacity="1"></path><path d="M512 944H539V971H512V944Z " fill="#ffffff" opacity="1"></path><path d="M539 944H566V971H539V944Z " fill="#ffffff" opacity="1"></path><path d="M620 944H647V971H620V944Z " fill="#ffffff" opacity="1"></path><path d="M647 944H674V971H647V944Z " fill="#ffffff" opacity="1"></path><path d="M728 944H755V971H728V944Z " fill="#ffffff" opacity="1"></path><path d="M755 944H782V971H755V944Z " fill="#ffffff" opacity="1"></path><path d="M782 944H809V971H782V944Z " fill="#ffffff" opacity="1"></path><path d="M836 944H863V971H836V944Z " fill="#ffffff" opacity="1"></path><path d="M890 944H917V971H890V944Z " fill="#ffffff" opacity="1"></path><path d="M944 944H971V971H944V944Z " fill="#ffffff" opacity="1"></path><path d="M93.5 93.5H255.5V255.5H93.5V93.5Z " fill="none" stroke-width="27" stroke="#ffffff"></path><path d="M795.5 93.5H957.5V255.5H795.5V93.5Z " fill="none" stroke-width="27" stroke="#ffffff"></path><path d="M93.5 795.5H255.5V957.5H93.5V795.5Z " fill="none" stroke-width="27" stroke="#ffffff"></path><path d="M134 134H215V215H134V134Z " fill="#ffffff" opacity="1"></path><path d="M836 134H917V215H836V134Z " fill="#ffffff" opacity="1"></path><path d="M134 836H215V917H134V836Z " fill="#ffffff" opacity="1"></path><path d="M296 242H323V269H296V242Z " fill="#ffffff" opacity="1"></path><path d="M242 296H269V323H242V296Z " fill="#ffffff" opacity="1"></path><path d="M350 242H377V269H350V242Z " fill="#ffffff" opacity="1"></path><path d="M242 350H269V377H242V350Z " fill="#ffffff" opacity="1"></path><path d="M404 242H431V269H404V242Z " fill="#ffffff" opacity="1"></path><path d="M242 404H269V431H242V404Z " fill="#ffffff" opacity="1"></path><path d="M458 242H485V269H458V242Z " fill="#ffffff" opacity="1"></path><path d="M242 458H269V485H242V458Z " fill="#ffffff" opacity="1"></path><path d="M512 242H539V269H512V242Z " fill="#ffffff" opacity="1"></path><path d="M242 512H269V539H242V512Z " fill="#ffffff" opacity="1"></path><path d="M566 242H593V269H566V242Z " fill="#ffffff" opacity="1"></path><path d="M242 566H269V593H242V566Z " fill="#ffffff" opacity="1"></path><path d="M620 242H647V269H620V242Z " fill="#ffffff" opacity="1"></path><path d="M242 620H269V647H242V620Z " fill="#ffffff" opacity="1"></path><path d="M674 242H701V269H674V242Z " fill="#ffffff" opacity="1"></path><path d="M242 674H269V701H242V674Z " fill="#ffffff" opacity="1"></path><path d="M728 242H755V269H728V242Z " fill="#ffffff" opacity="1"></path><path d="M242 728H269V755H242V728Z " fill="#ffffff" opacity="1"></path><path d="M728 728H755V755H728V728Z " fill="#ffffff" opacity="1"></path><path d="M728 755H755V782H728V755Z " fill="#ffffff" opacity="1"></path><path d="M728 782H755V809H728V782Z " fill="#ffffff" opacity="1"></path><path d="M728 809H755V836H728V809Z " fill="#ffffff" opacity="1"></path><path d="M836 755H863V782H836V755Z " fill="#ffffff" opacity="1"></path><path d="M836 782H863V809H836V782Z " fill="#ffffff" opacity="1"></path><path d="M836 809H863V836H836V809Z " fill="#ffffff" opacity="1"></path><path d="M836 836H863V863H836V836Z " fill="#ffffff" opacity="1"></path><path d="M755 728H782V755H755V728Z " fill="#ffffff" opacity="1"></path><path d="M782 728H809V755H782V728Z " fill="#ffffff" opacity="1"></path><path d="M809 728H836V755H809V728Z " fill="#ffffff" opacity="1"></path><path d="M836 728H863V755H836V728Z " fill="#ffffff" opacity="1"></path><path d="M728 836H755V863H728V836Z " fill="#ffffff" opacity="1"></path><path d="M755 836H782V863H755V836Z " fill="#ffffff" opacity="1"></path><path d="M782 836H809V863H782V836Z " fill="#ffffff" opacity="1"></path><path d="M809 836H836V863H809V836Z " fill="#ffffff" opacity="1"></path><path d="M782 782H809V809H782V782Z " fill="#ffffff" opacity="1"></path></svg>