<svg xmlns="http://www.w3.org/2000/svg" width="100.945" height="95.848" viewBox="0 0 100.945 95.848">
  <g id="Group_299" data-name="Group 299" transform="translate(-424.17 -498.616)">
    <path id="Path_153" data-name="Path 153" d="M524.032,566.507a14.251,14.251,0,0,0-4.807-3,54.155,54.155,0,0,0-9.646-2.906c-.6-.133-.539-.313-.213-.69,1.285-1.489,2.554-2.991,3.738-4.565,3.914-5.2,7.279-10.692,8.973-17.058a15.106,15.106,0,0,0,.348-7.586,6.815,6.815,0,0,0-3.727-4.8,12.283,12.283,0,0,0-7.906-.592,33.419,33.419,0,0,0-8.493,3.028,67.159,67.159,0,0,0-11.682,7.607c-.143.112-.263.356-.491.223-.188-.11-.178-.342-.179-.538-.01-1.774-.153-3.539-.292-5.3-.186-2.376-.494-4.738-.869-7.088-.312-1.961-.721-3.906-1.19-5.839a50.053,50.053,0,0,0-3.3-9.728c-1.417-2.984-3.049-5.827-5.848-7.762a6.131,6.131,0,0,0-6.506-.63,12.826,12.826,0,0,0-5.136,5.024,36.34,36.34,0,0,0-3.791,8.405,69.294,69.294,0,0,0-2.277,9.28c-.356,2-.657,4.007-.88,6.025-.282,2.564-.5,5.135-.55,7.716,0,.172.03.385-.152.473s-.31-.1-.444-.2c-.987-.76-1.954-1.548-2.966-2.275a57.369,57.369,0,0,0-10.965-6.392,26.489,26.489,0,0,0-10.117-2.39,7.689,7.689,0,0,0-2.35.337,7.268,7.268,0,0,0-3.292,1.682c-2.089,1.97-2.617,4.5-2.486,7.2a25.6,25.6,0,0,0,2.217,8.718,57.452,57.452,0,0,0,7.072,12.005c1.3,1.734,2.646,3.425,4.107,5.026.312.342.364.575-.208.695-.877.182-1.741.426-2.611.64a36.425,36.425,0,0,0-9.556,3.524,9.712,9.712,0,0,0-2.387,1.823,3,3,0,0,0-.3,4.161,5.768,5.768,0,0,0,1.381,1.39c3.3,2.376,7.141,3.421,10.988,4.437,2.176.575,4.392.978,6.609,1.375,1.85.332,3.7.623,5.567.86,2.188.279,4.38.519,6.574.743.593.06.552.237.309.678a39.421,39.421,0,0,0-2.9,6.307,12.574,12.574,0,0,0-.772,4.231c.028,1.975.882,3.162,2.5,3.538a7.263,7.263,0,0,0,3.191-.034A30.973,30.973,0,0,0,466.6,590.9a85.559,85.559,0,0,0,7.864-4.982.834.834,0,0,1,1.116.016c.744.536,1.518,1.03,2.285,1.532a50.253,50.253,0,0,0,11.621,5.979,10.745,10.745,0,0,0,4.9.64,3.2,3.2,0,0,0,2.78-2.935,13.222,13.222,0,0,0-1.213-6.1,43.18,43.18,0,0,0-2.41-4.952c-.245-.451-.121-.581.329-.616.718-.055,1.44-.1,2.154-.193,3.354-.452,6.714-.853,10.048-1.461a67.589,67.589,0,0,0,12.335-3.246,14.826,14.826,0,0,0,5.631-3.374A3.1,3.1,0,0,0,524.032,566.507Z" fill="#fff"/>
    <text id="Yes" transform="translate(476.828 562.321)" fill="#00bcbc" font-size="18.477" font-family="FuturaStd-Bold, Futura Std" font-weight="700"><tspan x="-16.121" y="0">Yes</tspan></text>
  </g>
</svg>
