<svg xmlns="http://www.w3.org/2000/svg" width="115.327" height="109.503" viewBox="0 0 115.327 109.503">
  <g id="Afghan_No_Icon" data-name="Afghan No Icon" transform="translate(-383.771 -1042.796)">
    <path id="Path_111" data-name="Path 111" d="M6903.092,1121.441a16.3,16.3,0,0,0-5.492-3.431,61.931,61.931,0,0,0-11.021-3.319c-.686-.152-.615-.358-.244-.788,1.469-1.7,2.919-3.417,4.272-5.216,4.471-5.943,8.316-12.215,10.251-19.488a17.238,17.238,0,0,0,.4-8.666,7.783,7.783,0,0,0-4.258-5.488c-2.922-1.4-5.979-1.27-9.032-.677a38.215,38.215,0,0,0-9.7,3.46,76.823,76.823,0,0,0-13.347,8.69c-.163.129-.3.408-.56.256-.214-.126-.2-.391-.205-.615-.011-2.026-.175-4.043-.333-6.061-.213-2.714-.564-5.413-.992-8.1-.358-2.24-.825-4.462-1.361-6.67a57.122,57.122,0,0,0-3.769-11.115c-1.619-3.408-3.483-6.656-6.68-8.867a7.008,7.008,0,0,0-7.434-.72,14.652,14.652,0,0,0-5.868,5.74,41.579,41.579,0,0,0-4.33,9.6,78.944,78.944,0,0,0-2.6,10.6c-.408,2.286-.751,4.578-1.006,6.883-.323,2.93-.569,5.867-.628,8.816,0,.2.034.44-.174.54s-.354-.113-.507-.231c-1.128-.869-2.233-1.769-3.389-2.6a65.517,65.517,0,0,0-12.527-7.3,30.25,30.25,0,0,0-11.558-2.731,8.8,8.8,0,0,0-2.685.385,8.309,8.309,0,0,0-3.762,1.922c-2.386,2.25-2.988,5.141-2.839,8.221a29.246,29.246,0,0,0,2.533,9.96,65.582,65.582,0,0,0,8.079,13.715c1.482,1.982,3.023,3.914,4.692,5.742.356.391.416.658-.238.794-1,.208-1.988.487-2.982.732a41.591,41.591,0,0,0-10.918,4.026,11.084,11.084,0,0,0-2.727,2.082,3.429,3.429,0,0,0-.347,4.754,6.583,6.583,0,0,0,1.578,1.588c3.768,2.715,8.158,3.909,12.553,5.069,2.487.657,5.018,1.117,7.55,1.571,2.114.379,4.233.712,6.361.983,2.5.318,5,.593,7.51.848.678.069.631.271.353.775a45.035,45.035,0,0,0-3.307,7.2,14.389,14.389,0,0,0-.883,4.834c.033,2.256,1.008,3.613,2.857,4.043a8.305,8.305,0,0,0,3.646-.039,35.4,35.4,0,0,0,9.465-3.848,97.483,97.483,0,0,0,8.984-5.693.955.955,0,0,1,1.276.019c.849.612,1.733,1.177,2.61,1.751a57.45,57.45,0,0,0,13.276,6.83,12.265,12.265,0,0,0,5.593.731,3.653,3.653,0,0,0,3.176-3.352,15.123,15.123,0,0,0-1.386-6.966,49.506,49.506,0,0,0-2.754-5.657c-.279-.515-.138-.664.376-.7.821-.063,1.645-.11,2.461-.22,3.832-.518,7.671-.976,11.48-1.67a77.185,77.185,0,0,0,14.092-3.708,16.92,16.92,0,0,0,6.433-3.856A3.543,3.543,0,0,0,6903.092,1121.441Z" transform="translate(-6405.232 -1.081)" fill="#2d64ba"/>
    <path id="Path_160" data-name="Path 160" d="M-3.726,0-9.151-8.634V0h-3.842V-15.072h3.546l5.425,8.634v-8.634H-.179V0ZM7.758.338a5.611,5.611,0,0,1-4.2-1.53,5.88,5.88,0,0,1-1.5-4.3,5.979,5.979,0,0,1,1.53-4.37A5.682,5.682,0,0,1,7.842-11.42a5.589,5.589,0,0,1,4.2,1.541,5.917,5.917,0,0,1,1.5,4.306,5.973,5.973,0,0,1-1.52,4.349A5.675,5.675,0,0,1,7.758.338ZM7.8-2.681q1.879,0,1.879-2.871Q9.679-8.4,7.8-8.4T5.921-5.531Q5.921-2.681,7.8-2.681Z" transform="translate(441.434 1115.577)" fill="#00bcbc"/>
  </g>
</svg>
