<svg xmlns="http://www.w3.org/2000/svg" width="260.512" height="74.405" viewBox="0 0 260.512 74.405">
  <path id="Path_146" data-name="Path 146" d="M-243.5,0l-1.462-4.884h-8.591L-254.983,0h-6.88l8.84-25.452h7.771L-236.41,0Zm-5.739-19.107-2.638,8.769h5.24Zm22.458,9.839V0h-6.737V-25.452h17.431v5.7h-10.694v4.777H-216.7v5.7Zm30.371.25h-4.064v-5.525h10.373V-2.959a15.713,15.713,0,0,1-5.008,2.674,18.858,18.858,0,0,1-5.9.927q-5.989,0-9.233-3.44t-3.244-9.785a16.472,16.472,0,0,1,1.5-7.325,10.413,10.413,0,0,1,4.278-4.616,13.209,13.209,0,0,1,6.595-1.568,11.543,11.543,0,0,1,7.29,2.174,9.284,9.284,0,0,1,3.44,6.1l-6.844.677a4.258,4.258,0,0,0-1.337-2.406,4.049,4.049,0,0,0-2.62-.766,4.429,4.429,0,0,0-3.921,1.871,10.138,10.138,0,0,0-1.283,5.686q0,3.992,1.426,5.81a5.444,5.444,0,0,0,4.563,1.818,8.388,8.388,0,0,0,3.992-.927ZM-170.856,0V-10.052h-8.27V0h-6.844V-25.452h6.844v9.233h8.27v-9.233h6.844V0Zm28.09,0-1.462-4.884h-8.591L-154.244,0h-6.88l8.84-25.452h7.771L-135.672,0Zm-5.739-19.107-2.638,8.769h5.24ZM-117.136,0-126.3-14.58V0h-6.488V-25.452h5.989l9.161,14.58v-14.58h6.488V0Zm33.829,0-6.1-11.015L-91.933-8.2V0h-6.844V-25.452h6.844v9.233l7.735-9.233h7.45l-8.092,9.625L-75.821,0Zm23.883-25.452h6.844v14.9Q-52.579.642-63.416.642-74.11.642-74.11-10.551v-14.9h6.844V-10.3a6.372,6.372,0,0,0,.927,3.85A3.531,3.531,0,0,0-63.345-5.24,3.531,3.531,0,0,0-60.35-6.452a6.372,6.372,0,0,0,.927-3.85ZM-40.78-10.338q-4.349-.82-6.327-2.674a6.646,6.646,0,0,1-1.978-5.1,7.056,7.056,0,0,1,2.656-5.917q2.656-2.068,7.575-2.068a12.56,12.56,0,0,1,7.522,2A7.757,7.757,0,0,1-28.2-18.323l-6.63.677a3.809,3.809,0,0,0-1.3-2.317,4.535,4.535,0,0,0-2.763-.713,4.82,4.82,0,0,0-2.531.553,1.791,1.791,0,0,0-.891,1.622,1.725,1.725,0,0,0,.677,1.426,5.123,5.123,0,0,0,2.174.82l3.458.677a12.413,12.413,0,0,1,6.256,2.727A6.756,6.756,0,0,1-27.733-7.7a7.362,7.362,0,0,1-2.78,6.185Q-33.294.642-38.463.642q-5.2,0-8.021-2.264a8.924,8.924,0,0,1-3.1-6.755h6.809A3.729,3.729,0,0,0-41.44-5.7a5.242,5.242,0,0,0,3.226.856A4.859,4.859,0,0,0-35.5-5.472a2.071,2.071,0,0,0,.927-1.836,1.919,1.919,0,0,0-.7-1.568,4.6,4.6,0,0,0-2.121-.82ZM-9.2,0V-10.052h-8.27V0h-6.844V-25.452h6.844v9.233H-9.2v-9.233h6.844V0ZM-198.99,42.776V35.162h-6.264v7.614h-5.184V23.5h5.184v6.993h6.264V23.5h5.184V42.776Zm8.451,0V28.6h4.887V42.776Zm-.027-15.741V23.5h4.941v3.537Zm17.145,13.473a4.986,4.986,0,0,1-4,1.7,5.145,5.145,0,0,1-4.185-1.782,7.631,7.631,0,0,1-1.485-5.022,8.106,8.106,0,0,1,1.593-5.292,5.32,5.32,0,0,1,4.347-1.944,4.51,4.51,0,0,1,3.861,1.782V28.574h4.752V41.021q0,3.7-1.782,5.495t-5.481,1.8q-6.264,0-6.723-4.995h4.779q.189,1.458,2,1.458a1.98,1.98,0,0,0,1.823-.8,5.838,5.838,0,0,0,.5-2.875Zm0-5.481a3.528,3.528,0,0,0-.567-2.187,2.141,2.141,0,0,0-1.782-.783,2.082,2.082,0,0,0-1.755.81,3.7,3.7,0,0,0-.621,2.3,3.7,3.7,0,0,0,.607,2.281,2.059,2.059,0,0,0,1.742.8,2.253,2.253,0,0,0,1.809-.837,3.156,3.156,0,0,0,.567-2.025Zm16.605,7.749V34.082a2.222,2.222,0,0,0-.378-1.444,1.51,1.51,0,0,0-1.215-.445,2.249,2.249,0,0,0-1.62.621,2.371,2.371,0,0,0-.648,1.755v8.208h-4.887V23.5h4.887v6.615a5.12,5.12,0,0,1,4.158-1.944,4.327,4.327,0,0,1,3.415,1.323,5.556,5.556,0,0,1,1.174,3.807v9.477Zm18.225,0V27.9h-5.562V23.5h16.308v4.4h-5.562V42.776Zm24.6,0V35.162h-6.264v7.614h-5.184V23.5h5.184v6.993h6.264V23.5h5.184V42.776Zm25.947-7.047a7.653,7.653,0,0,1-2.484,5.535,8.859,8.859,0,0,1-6.075,2,8.755,8.755,0,0,1-6.79-2.632q-2.417-2.633-2.417-7.384,0-4.806,2.471-7.52a8.823,8.823,0,0,1,6.871-2.714,8.317,8.317,0,0,1,5.508,1.715,8.1,8.1,0,0,1,2.619,5.089l-5.157.594a4.162,4.162,0,0,0-1.066-2.254,2.922,2.922,0,0,0-2.065-.689q-3.7,0-3.7,5.643,0,5.7,3.753,5.7a3.051,3.051,0,0,0,2.214-.783,3.842,3.842,0,0,0,1.026-2.3Zm8.262,7.047V23.5H-74.6V42.776Zm17.2,0V34.082a2.222,2.222,0,0,0-.378-1.444,1.51,1.51,0,0,0-1.215-.445,2.249,2.249,0,0,0-1.62.621,2.371,2.371,0,0,0-.648,1.755v8.208h-4.887V28.6h4.752v1.674a5.1,5.1,0,0,1,4.293-2.106,4.327,4.327,0,0,1,3.416,1.323A5.556,5.556,0,0,1-57.7,33.3v9.477Zm17.118,0V41.183A4.833,4.833,0,0,1-49.6,43.208a4.988,4.988,0,0,1-4.185-1.917,8.642,8.642,0,0,1-1.485-5.4,10.777,10.777,0,0,1,.729-4.171,5.783,5.783,0,0,1,2.066-2.646,5.477,5.477,0,0,1,3.146-.9A4.524,4.524,0,0,1-45.6,29.843V23.5h4.887V42.776Zm-.135-7.263a4.733,4.733,0,0,0-.567-2.646,2,2,0,0,0-1.755-.81q-2.4,0-2.4,3.618,0,3.591,2.376,3.591a2,2,0,0,0,1.782-.891,4.308,4.308,0,0,0,.567-2.457Zm7.857,7.263V28.6h4.887V42.776Zm-.027-15.741V23.5h4.941v3.537Zm21.222,10.287A6.4,6.4,0,0,1-18.522,41.7a6.782,6.782,0,0,1-4.671,1.512,6.93,6.93,0,0,1-5.251-1.931,7.588,7.588,0,0,1-1.85-5.467,7.832,7.832,0,0,1,1.917-5.63,7,7,0,0,1,5.319-2.011,6.64,6.64,0,0,1,4.4,1.377,5.739,5.739,0,0,1,1.944,3.915l-4.671.459A2.807,2.807,0,0,0-22,32.476a1.578,1.578,0,0,0-1.188-.446q-2.16,0-2.16,3.672,0,3.645,2.16,3.645a1.755,1.755,0,0,0,1.337-.527,2.4,2.4,0,0,0,.58-1.5Zm10.638,5.454V41.237A6.275,6.275,0,0,1-7.884,42.7a5.628,5.628,0,0,1-2.322.459,5.053,5.053,0,0,1-3.5-1.147,3.973,3.973,0,0,1-1.282-3.118,3.911,3.911,0,0,1,1.674-3.416,9.829,9.829,0,0,1,5.13-1.336l2.133-.108v-.567A1.623,1.623,0,0,0-7.857,31.6q-1.674,0-1.917,1.4l-4.4-.351q.729-4.482,6.534-4.482A6.789,6.789,0,0,1-2.889,29.6,5.7,5.7,0,0,1-1.35,33.974v8.8Zm-.162-5.994-1.566.081a4.472,4.472,0,0,0-2.012.473,1.29,1.29,0,0,0-.634,1.174q0,1.3,1.593,1.3a2.619,2.619,0,0,0,1.917-.688,2.473,2.473,0,0,0,.7-1.849Z" transform="translate(261.862 26.094)" fill="#2d64ba"/>
</svg>
