<svg xmlns="http://www.w3.org/2000/svg" width="497.222" height="111.062" viewBox="0 0 497.222 111.062">
  <g id="Afghan_Kush_Indica_2" data-name="Afghan Kush Indica 2" transform="translate(-6529.326 -262.916)">
    <path id="Path_155" data-name="Path 155" d="M-215.826,0l-2.694-9h-15.834l-2.628,9h-12.68l16.294-46.91h14.323L-202.752,0ZM-226.4-35.215l-4.862,16.162h9.658Zm41.391,18.133V0H-197.43V-46.91H-165.3V-36.4h-19.71v8.8h18.593v10.512Zm55.977.46h-7.49V-26.806h19.119V-5.453a28.961,28.961,0,0,1-9.231,4.928,34.757,34.757,0,0,1-10.873,1.708q-11.038,0-17.016-6.34t-5.979-18.035a30.36,30.36,0,0,1,2.759-13.5,19.193,19.193,0,0,1,7.884-8.508,24.345,24.345,0,0,1,12.155-2.891q8.278,0,13.436,4.008a17.111,17.111,0,0,1,6.34,11.235L-130.547-31.6a7.847,7.847,0,0,0-2.464-4.435,7.462,7.462,0,0,0-4.829-1.413q-4.862,0-7.227,3.449t-2.365,10.479q0,7.358,2.628,10.709t8.41,3.351a15.459,15.459,0,0,0,7.358-1.708ZM-81.929,0V-18.528H-97.171V0h-12.615V-46.91h12.615v17.016h15.243V-46.91h12.615V0Zm51.772,0L-32.85-9H-48.684l-2.628,9h-12.68L-47.7-46.91h14.323L-17.082,0ZM-40.734-35.215-45.6-19.053h9.658ZM17.082,0,.2-26.872V0H-11.76V-46.91H-.723L16.162-20.039V-46.91H28.12V0Zm62.35,0L68.2-20.3l-4.665,5.19V0H50.918V-46.91H63.532v17.016L77.789-46.91H91.521L76.607-29.171,93.229,0Zm44.019-46.91h12.615v27.463q0,20.63-19.973,20.63-19.71,0-19.71-20.63V-46.91H109v27.923q0,4.862,1.708,7.1t5.519,2.234q3.811,0,5.519-2.234t1.708-7.1Zm34.361,27.857q-8.015-1.511-11.662-4.928t-3.646-9.4q0-7.1,4.895-10.906t13.961-3.811q8.8,0,13.863,3.679a14.3,14.3,0,0,1,5.782,10.643l-12.22,1.248a7.02,7.02,0,0,0-2.4-4.271,8.359,8.359,0,0,0-5.092-1.314,8.883,8.883,0,0,0-4.665,1.018,3.3,3.3,0,0,0-1.643,2.989,3.179,3.179,0,0,0,1.248,2.628,9.443,9.443,0,0,0,4.008,1.511l6.373,1.248q7.818,1.511,11.53,5.026a12.453,12.453,0,0,1,3.712,9.494q0,7.424-5.125,11.4T162.083,1.183q-9.592,0-14.783-4.172t-5.716-12.45h12.549a6.873,6.873,0,0,0,2.464,4.928,9.662,9.662,0,0,0,5.946,1.577,8.956,8.956,0,0,0,4.993-1.15,3.817,3.817,0,0,0,1.708-3.384,3.537,3.537,0,0,0-1.281-2.891,8.471,8.471,0,0,0-3.909-1.511ZM216.023,0V-18.528H200.781V0H188.166V-46.91h12.615v17.016h15.243V-46.91h12.615V0Zm20.1,0V-12.549H247.56V0Z" transform="translate(6778.988 311.009)" fill="#2d64ba"/>
    <path id="Path_154" data-name="Path 154" d="M-128.581,0V-10.541h-8.672V0h-7.177V-26.688h7.177v9.681h8.672v-9.681h7.177V0Zm11.7,0V-19.624h6.765V0Zm-.037-21.792v-4.9h6.84v4.9ZM-93.184-3.14A6.9,6.9,0,0,1-98.716-.785a7.123,7.123,0,0,1-5.794-2.467q-2.056-2.467-2.056-6.952a11.222,11.222,0,0,1,2.205-7.326,7.365,7.365,0,0,1,6.018-2.691A6.243,6.243,0,0,1-93-17.755v-1.906h6.579V-2.43q0,5.121-2.467,7.606t-7.588,2.486q-8.672,0-9.307-6.915h6.616Q-98.9,2.766-96.4,2.766a2.741,2.741,0,0,0,2.523-1.1,8.081,8.081,0,0,0,.691-3.981Zm0-7.588a4.884,4.884,0,0,0-.785-3.028,2.964,2.964,0,0,0-2.467-1.084,2.883,2.883,0,0,0-2.43,1.121,5.127,5.127,0,0,0-.86,3.177,5.126,5.126,0,0,0,.841,3.158,2.851,2.851,0,0,0,2.411,1.1,3.119,3.119,0,0,0,2.5-1.159,4.369,4.369,0,0,0,.785-2.8ZM-70.2,0V-12.036a3.076,3.076,0,0,0-.523-2,2.09,2.09,0,0,0-1.682-.617,3.113,3.113,0,0,0-2.243.86,3.283,3.283,0,0,0-.9,2.43V0h-6.765V-26.688h6.765v9.158a7.088,7.088,0,0,1,5.756-2.691,5.99,5.99,0,0,1,4.728,1.832,7.691,7.691,0,0,1,1.626,5.27V0Zm25.23,0V-20.6h-7.7v-6.093H-30.09V-20.6h-7.7V0Zm34.052,0V-10.541h-8.672V0h-7.177V-26.688h7.177v9.681h8.672v-9.681h7.177V0ZM25.006-9.756a10.6,10.6,0,0,1-3.439,7.663A12.264,12.264,0,0,1,13.157.673q-6.055,0-9.4-3.644T.411-13.195q0-6.653,3.42-10.41t9.513-3.757a11.514,11.514,0,0,1,7.625,2.374,11.212,11.212,0,0,1,3.626,7.046l-7.139.822a5.761,5.761,0,0,0-1.476-3.121,4.045,4.045,0,0,0-2.859-.953Q8-21.193,8-13.381q0,7.887,5.2,7.887A4.224,4.224,0,0,0,16.26-6.579a5.319,5.319,0,0,0,1.42-3.177ZM36.444,0V-26.688H43.62V0Zm23.81,0V-12.036a3.076,3.076,0,0,0-.523-2,2.09,2.09,0,0,0-1.682-.617,3.113,3.113,0,0,0-2.243.86,3.283,3.283,0,0,0-.9,2.43V0H48.143V-19.624h6.579v2.317a7.066,7.066,0,0,1,5.943-2.916,5.991,5.991,0,0,1,4.728,1.832,7.691,7.691,0,0,1,1.626,5.27V0Zm23.7,0V-2.205A6.691,6.691,0,0,1,78.233.6a6.9,6.9,0,0,1-5.794-2.654Q70.383-4.71,70.383-9.531a14.919,14.919,0,0,1,1.009-5.775,8.005,8.005,0,0,1,2.859-3.663,7.582,7.582,0,0,1,4.355-1.252A6.263,6.263,0,0,1,83.765-17.9v-8.784H90.53V0Zm-.187-10.055a6.552,6.552,0,0,0-.785-3.663,2.762,2.762,0,0,0-2.43-1.121q-3.327,0-3.327,5.009,0,4.971,3.289,4.971A2.767,2.767,0,0,0,82.98-6.093a5.964,5.964,0,0,0,.785-3.4ZM94.642,0V-19.624h6.765V0ZM94.6-21.792v-4.9h6.84v4.9ZM123.984-7.55A8.855,8.855,0,0,1,121.255-1.5,9.389,9.389,0,0,1,114.789.6q-4.71,0-7.27-2.673t-2.56-7.569q0-5.009,2.654-7.793a9.687,9.687,0,0,1,7.364-2.785,9.193,9.193,0,0,1,6.093,1.906,7.945,7.945,0,0,1,2.691,5.42l-6.466.635a3.885,3.885,0,0,0-.86-2,2.184,2.184,0,0,0-1.645-.617q-2.99,0-2.99,5.083,0,5.046,2.99,5.046a2.43,2.43,0,0,0,1.85-.729,3.318,3.318,0,0,0,.8-2.074ZM138.711,0V-2.131a8.687,8.687,0,0,1-2.729,2.018,7.792,7.792,0,0,1-3.215.635,7,7,0,0,1-4.84-1.589,5.5,5.5,0,0,1-1.775-4.317,5.415,5.415,0,0,1,2.317-4.728q2.317-1.626,7.1-1.85l2.953-.15V-12.9q0-2.579-2.5-2.579-2.317,0-2.654,1.944l-6.093-.486q1.009-6.2,9.046-6.2,4.448,0,6.579,1.981t2.131,6.055V0Zm-.224-8.3-2.168.112a6.19,6.19,0,0,0-2.785.654,1.786,1.786,0,0,0-.878,1.626q0,1.794,2.205,1.794a3.626,3.626,0,0,0,2.654-.953,3.423,3.423,0,0,0,.972-2.56Z" transform="translate(6778.726 366.315)" fill="#2d64ba"/>
  </g>
</svg>
