<svg xmlns="http://www.w3.org/2000/svg" xmlns:xlink="http://www.w3.org/1999/xlink" width="314" height="95" viewBox="0 0 314 95">
  <defs>
    <clipPath id="clip-Artboard_5">
      <rect width="314" height="95"/>
    </clipPath>
  </defs>
  <g id="Artboard_5" data-name="Artboard – 5" clip-path="url(#clip-Artboard_5)">
    <g id="Group_199" data-name="Group 199" transform="translate(-5748 -1121)">
      <path id="Path_143" data-name="Path 143" d="M6.186-2.029A5.648,5.648,0,0,0,8.3-2.384,3.6,3.6,0,0,0,9.742-3.408,4.183,4.183,0,0,0,10.56-5a7.839,7.839,0,0,0,.256-2.088,5.932,5.932,0,0,0-.985-3.635A3.782,3.782,0,0,0,6.6-12.038H3.881V-2.029ZM6.58-14.067a8.632,8.632,0,0,1,2.8.424,5.4,5.4,0,0,1,2.108,1.29,5.718,5.718,0,0,1,1.33,2.177,9.193,9.193,0,0,1,.463,3.064,8.855,8.855,0,0,1-.493,3.083A5.893,5.893,0,0,1,11.368-1.8,5.949,5.949,0,0,1,9.112-.453a9.286,9.286,0,0,1-3,.453H1.5V-14.067Zm11.309,0v2.226H15.564v-2.226Zm-.039,3.822V0H15.6V-10.245ZM29.533-3.034A3.9,3.9,0,0,1,28.173-.561,4.842,4.842,0,0,1,25.06.315a4.745,4.745,0,0,1-3.714-1.409,5.721,5.721,0,0,1-1.271-3.97,6.974,6.974,0,0,1,.364-2.344,4.834,4.834,0,0,1,1.024-1.724A4.348,4.348,0,0,1,23.041-10.2a5.416,5.416,0,0,1,2.019-.364,5.264,5.264,0,0,1,2.049.364,3.833,3.833,0,0,1,1.438,1.024,4.241,4.241,0,0,1,.847,1.576,7.058,7.058,0,0,1,.276,2.039v.985H22.322a3.784,3.784,0,0,0,.709,2.266,2.4,2.4,0,0,0,2.029.867,2.574,2.574,0,0,0,1.6-.414,2.01,2.01,0,0,0,.709-1.182ZM27.484-6.127a3.071,3.071,0,0,0-.591-1.99A2.294,2.294,0,0,0,25-8.846a2.385,2.385,0,0,0-1.891.739,3.3,3.3,0,0,0-.749,1.98Zm5.91,2.995a1.882,1.882,0,0,0,.276.837,1.712,1.712,0,0,0,.542.522,2.078,2.078,0,0,0,.759.266,5.9,5.9,0,0,0,.926.069,2.963,2.963,0,0,0,1.616-.335A1.115,1.115,0,0,0,38-2.758a1.283,1.283,0,0,0-.305-.867,2.128,2.128,0,0,0-1.251-.512q-1.221-.217-2.147-.414a5.739,5.739,0,0,1-1.556-.542,2.38,2.38,0,0,1-.946-.887,2.917,2.917,0,0,1-.315-1.468,2.662,2.662,0,0,1,.315-1.29,2.918,2.918,0,0,1,.877-.985,4.2,4.2,0,0,1,1.34-.621,6.338,6.338,0,0,1,1.7-.217,6.966,6.966,0,0,1,1.97.236,3.556,3.556,0,0,1,1.281.65,2.842,2.842,0,0,1,.749.946A5.418,5.418,0,0,1,40.112-7.6l-2.01.276a2.22,2.22,0,0,0-.719-1.143,2.661,2.661,0,0,0-1.606-.374,3.965,3.965,0,0,0-1.064.118,2.135,2.135,0,0,0-.66.3.932.932,0,0,0-.335.394,1.137,1.137,0,0,0-.089.433,1.636,1.636,0,0,0,.079.552.713.713,0,0,0,.286.355,1.974,1.974,0,0,0,.561.236q.355.1.887.2l1.281.217a8.418,8.418,0,0,1,1.7.453,3.226,3.226,0,0,1,1.084.68,2.184,2.184,0,0,1,.561.936A4.153,4.153,0,0,1,40.23-2.8,2.755,2.755,0,0,1,39.167-.542a5.09,5.09,0,0,1-3.231.857,8.475,8.475,0,0,1-1.7-.167,4.58,4.58,0,0,1-1.468-.561A3.112,3.112,0,0,1,31.71-1.468a3.553,3.553,0,0,1-.463-1.665Zm17.81.1A3.9,3.9,0,0,1,49.845-.561a4.842,4.842,0,0,1-3.113.877,4.745,4.745,0,0,1-3.714-1.409,5.721,5.721,0,0,1-1.271-3.97,6.974,6.974,0,0,1,.364-2.344,4.834,4.834,0,0,1,1.024-1.724A4.348,4.348,0,0,1,44.713-10.2a5.417,5.417,0,0,1,2.019-.364,5.264,5.264,0,0,1,2.049.364,3.833,3.833,0,0,1,1.438,1.024,4.241,4.241,0,0,1,.847,1.576,7.058,7.058,0,0,1,.276,2.039v.985H43.993A3.784,3.784,0,0,0,44.7-2.305a2.4,2.4,0,0,0,2.029.867,2.574,2.574,0,0,0,1.6-.414,2.01,2.01,0,0,0,.709-1.182ZM49.155-6.127a3.071,3.071,0,0,0-.591-1.99,2.294,2.294,0,0,0-1.891-.729,2.385,2.385,0,0,0-1.891.739,3.3,3.3,0,0,0-.749,1.98Zm6.639-7.94V0H53.549V-14.067Z" transform="translate(5751.335 1202.64)" fill="#ea514b"/>
      <g id="Group_161" data-name="Group 161" transform="translate(15.685 -1859.356)">
        <path id="Path_101" data-name="Path 101" d="M5788.226,3022.132l-3.333-11.992a2.075,2.075,0,0,0,.433-1.409l-.375-5.4a2.081,2.081,0,0,0-.717-1.433l-6.25-5.443a2.1,2.1,0,1,0-2.734,3.176l5.651,4.842.316,4.542a2.084,2.084,0,0,0,1.317,1.791l3.334,11.985a4.316,4.316,0,0,1-4.167,5.658,4.517,4.517,0,0,1-4.517-4.517v-15.059a3.75,3.75,0,0,0-3.751-3.75V2992.13a4.167,4.167,0,0,0-4.166-4.167h-16.7a4.168,4.168,0,0,0-4.167,4.167v43.336h-.833a1.25,1.25,0,0,0,0,2.5h26.669a1.25,1.25,0,0,0,0-2.5h-.834v-27.843a1.25,1.25,0,0,1,1.25,1.25v15.068a7.017,7.017,0,0,0,10,6.342A6.909,6.909,0,0,0,5788.226,3022.132Zm-37.327,13.334V2992.13a1.667,1.667,0,0,1,1.666-1.667h16.668a1.667,1.667,0,0,1,1.667,1.667v43.336Z" fill="#ea514b"/>
        <path id="Path_102" data-name="Path 102" d="M5767.5,2992.58h-13.2a1.25,1.25,0,0,0-1.317,1.167v8.834h15.835v-8.826A1.251,1.251,0,0,0,5767.5,2992.58Z" fill="#ea514b"/>
      </g>
    </g>
    <g id="Mushroom" transform="translate(-5624.335 -1121)">
      <text id="Earthy" transform="translate(5751.335 1202.64)" fill="#ea514b" font-size="19.701" font-family="AktivGrotesk-Medium, Aktiv Grotesk" font-weight="500"><tspan x="0" y="0">Earthy</tspan></text>
      <g id="Group_206" data-name="Group 206">
        <path id="Path_127" data-name="Path 127" d="M5785.54,1152.463c.086.633.166,1.231.25,1.828q.469,3.346.941,6.693c.285,2.017.581,4.033.853,6.051a16.792,16.792,0,0,1,.2,2.173,7.465,7.465,0,0,1-6.321,7.317,1.237,1.237,0,0,1-.16.026,26.143,26.143,0,0,1-5.893-.126,7.431,7.431,0,0,1-5.793-6.2,8.9,8.9,0,0,1,.042-2.58q.441-3.106.876-6.212.424-3.006.853-6.011.174-1.222.342-2.445c.018-.13.02-.263.032-.437-.561.061-1.093.11-1.624.177a74.84,74.84,0,0,0-9.491,1.811,2.992,2.992,0,0,1-1.481-.094,5.258,5.258,0,0,1-4.016-5.271,22.517,22.517,0,0,1,3.951-12.723,22.744,22.744,0,0,1,14.743-9.732,21.831,21.831,0,0,1,4.306-.407c1.107,0,2.215,0,3.32.051a21.648,21.648,0,0,1,9.329,2.552,22.765,22.765,0,0,1,11.856,15.46,20.775,20.775,0,0,1,.531,4.981,5.251,5.251,0,0,1-4.5,5.188,2.962,2.962,0,0,1-1.2-.052,65.789,65.789,0,0,0-6.932-1.425c-1.574-.231-3.158-.4-4.738-.594A2.621,2.621,0,0,0,5785.54,1152.463Zm-5.653-20.966c-.513,0-1.026,0-1.539,0a2.772,2.772,0,0,0-.483.036,1.558,1.558,0,0,0-1.265,1.067,1.605,1.605,0,0,0,.28,1.636,1.672,1.672,0,0,0,1.355.61c.675,0,1.351-.025,2.024.008a16.478,16.478,0,0,1,2.374.208,14.037,14.037,0,0,1,10.53,8.288,13.608,13.608,0,0,1,1.1,4,1.663,1.663,0,0,0,1.571,1.435,1.684,1.684,0,0,0,1.69-1.242,2.315,2.315,0,0,0,0-1,17.567,17.567,0,0,0-17.63-15.051Z" fill="#ea514b"/>
      </g>
    </g>
    <g id="Spicy" transform="translate(-5748 -1121)">
      <g id="icon">
        <path id="Path_125" data-name="Path 125" d="M6056.189,1128.435A11.278,11.278,0,0,1,6054,1132.8c-.839,1.007-1.726,1.977-2.638,2.919a.917.917,0,0,0-.181,1.182c.369.8.724,1.609,1.031,2.434a3.35,3.35,0,0,1-.146,2.495,13.861,13.861,0,0,1-.638,1.32,2.007,2.007,0,0,1-.372.389,3.456,3.456,0,0,1-.359-.394c-.617-.933-1.172-1.911-1.846-2.8a10.369,10.369,0,0,0-6.249-3.737,2.481,2.481,0,0,1-.319-.088c-.382-.14-.41-.275-.129-.567a4,4,0,0,1,2.74-1.238c1.119-.065,2.242-.056,3.361-.122a1.161,1.161,0,0,0,.782-.315,13.608,13.608,0,0,0,2.943-5.71,15.856,15.856,0,0,1,.449-1.977,1.333,1.333,0,0,1,1.534-.991,2.307,2.307,0,0,1,2.223,1.8Z" fill="#ea514b"/>
        <path id="Path_126" data-name="Path 126" d="M6036.689,1137.4a16.826,16.826,0,0,1,7.374,1.568,11.8,11.8,0,0,1,6.254,11.792,8.078,8.078,0,0,1-3.152,5.379,85.692,85.692,0,0,1-10.234,6.593c-5.505,3.167-11.117,6.129-16.9,8.753a13.836,13.836,0,0,1-6.612,1.37,10.156,10.156,0,0,1-4.915-1.546,1.526,1.526,0,0,1-.492-2.484,31.779,31.779,0,0,1,2.15-2.463c2.881-3.088,5.869-6.082,8.641-9.264a61.063,61.063,0,0,0,9.272-13.93,18.8,18.8,0,0,0,.728-1.8,5.181,5.181,0,0,1,3.015-3.034A12.612,12.612,0,0,1,6036.689,1137.4Zm-19.729,26.942.061.076c.313-.2.623-.4.941-.589a61.492,61.492,0,0,0,11.784-9.125,30.175,30.175,0,0,0,5.022-6.038,7.489,7.489,0,0,0,1.122-5.7,1.8,1.8,0,0,0-2.3-1.38,2.943,2.943,0,0,0-1.892,1.848c-.661,1.416-1.251,2.873-2.027,4.223a79.59,79.59,0,0,1-11.907,15.847C6017.49,1163.782,6017.226,1164.065,6016.96,1164.345Z" fill="#ea514b"/>
      </g>
      <text id="Spicy-2" data-name="Spicy" transform="translate(6006.286 1203.14)" fill="#ea514b" font-size="19.701" font-family="AktivGrotesk-Medium, Aktiv Grotesk" font-weight="500"><tspan x="0" y="0">Spicy</tspan></text>
    </g>
  </g>
</svg>
