<svg xmlns="http://www.w3.org/2000/svg" width="259.395" height="67.955" viewBox="0 0 259.395 67.955">
  <g id="Chemdawg_Title_Yellow" transform="translate(-2107.111 -1313.933)">
    <path id="Path_192" data-name="Path 192" d="M-94.135,0V-7.614H-100.4V0h-5.184V-19.278h5.184v6.993h6.264v-6.993h5.184V0Zm8.451,0V-14.175H-80.8V0Zm-.027-15.741v-3.537h4.941v3.537ZM-68.566-2.268a4.986,4.986,0,0,1-4,1.7,5.145,5.145,0,0,1-4.185-1.782,7.632,7.632,0,0,1-1.485-5.022,8.106,8.106,0,0,1,1.593-5.292,5.32,5.32,0,0,1,4.347-1.944,4.51,4.51,0,0,1,3.861,1.782V-14.2h4.752V-1.755q0,3.7-1.782,5.495t-5.481,1.8q-6.264,0-6.723-5h4.779Q-72.7,2-70.888,2a1.98,1.98,0,0,0,1.822-.8,5.837,5.837,0,0,0,.5-2.876Zm0-5.481a3.528,3.528,0,0,0-.567-2.187,2.141,2.141,0,0,0-1.782-.783,2.082,2.082,0,0,0-1.755.81,3.7,3.7,0,0,0-.621,2.3,3.7,3.7,0,0,0,.607,2.282,2.059,2.059,0,0,0,1.742.8,2.253,2.253,0,0,0,1.809-.837A3.156,3.156,0,0,0-68.566-7.4ZM-51.961,0V-8.694a2.222,2.222,0,0,0-.378-1.444,1.51,1.51,0,0,0-1.215-.446,2.249,2.249,0,0,0-1.62.621,2.371,2.371,0,0,0-.648,1.755V0h-4.887V-19.278h4.887v6.615a5.12,5.12,0,0,1,4.158-1.944,4.327,4.327,0,0,1,3.415,1.323,5.556,5.556,0,0,1,1.174,3.807V0Zm18.225,0V-14.877H-39.3v-4.4H-22.99v4.4h-5.562V0Zm24.6,0V-7.614H-15.4V0h-5.184V-19.278H-15.4v6.993h6.264v-6.993h5.184V0ZM16.808-7.047a7.653,7.653,0,0,1-2.484,5.535,8.859,8.859,0,0,1-6.075,2,8.755,8.755,0,0,1-6.79-2.633Q-.958-4.779-.958-9.531q0-4.806,2.471-7.52a8.823,8.823,0,0,1,6.872-2.714,8.317,8.317,0,0,1,5.508,1.715,8.1,8.1,0,0,1,2.619,5.089l-5.157.594a4.162,4.162,0,0,0-1.067-2.254,2.922,2.922,0,0,0-2.066-.689q-3.7,0-3.7,5.643,0,5.7,3.753,5.7a3.051,3.051,0,0,0,2.214-.783,3.842,3.842,0,0,0,1.026-2.3ZM30.686-7.83a9.554,9.554,0,0,1-4.793-2.025,5.034,5.034,0,0,1-1.5-3.861A5.344,5.344,0,0,1,26.406-18.2a9.166,9.166,0,0,1,5.737-1.566,9.513,9.513,0,0,1,5.7,1.512,5.876,5.876,0,0,1,2.376,4.374l-5.022.513a2.885,2.885,0,0,0-.986-1.755,3.435,3.435,0,0,0-2.092-.54,3.651,3.651,0,0,0-1.917.418,1.357,1.357,0,0,0-.675,1.228,1.306,1.306,0,0,0,.513,1.08,3.881,3.881,0,0,0,1.647.621L34.3-11.8a9.4,9.4,0,0,1,4.739,2.065,5.118,5.118,0,0,1,1.525,3.9,5.576,5.576,0,0,1-2.106,4.685A9.648,9.648,0,0,1,32.441.486a9.482,9.482,0,0,1-6.075-1.715,6.759,6.759,0,0,1-2.349-5.117h5.157A2.824,2.824,0,0,0,30.186-4.32a3.97,3.97,0,0,0,2.443.648,3.68,3.68,0,0,0,2.052-.473,1.569,1.569,0,0,0,.7-1.391,1.453,1.453,0,0,0-.527-1.188,3.481,3.481,0,0,0-1.606-.621ZM51.26,0V-1.539A6.275,6.275,0,0,1,49.289-.081a5.628,5.628,0,0,1-2.322.459A5.053,5.053,0,0,1,43.47-.77a3.973,3.973,0,0,1-1.282-3.119A3.911,3.911,0,0,1,43.862-7.3a9.829,9.829,0,0,1,5.13-1.337l2.133-.108v-.567a1.623,1.623,0,0,0-1.809-1.863q-1.674,0-1.917,1.4L43-10.125q.729-4.482,6.534-4.482a6.789,6.789,0,0,1,4.752,1.431A5.7,5.7,0,0,1,55.823-8.8V0ZM51.1-5.994l-1.566.081a4.472,4.472,0,0,0-2.011.472,1.29,1.29,0,0,0-.635,1.174q0,1.3,1.593,1.3A2.619,2.619,0,0,0,50.4-3.659a2.473,2.473,0,0,0,.7-1.849ZM68.3-.27a11.2,11.2,0,0,1-3.348.513,5.257,5.257,0,0,1-3.915-1.256A5.743,5.743,0,0,1,59.819-5.1v-5.265H57.55v-3.807h2.268V-17.9h4.887v3.726h3.078v3.807H64.705v5.049a1.76,1.76,0,0,0,.378,1.255,1.671,1.671,0,0,0,1.242.392,5.767,5.767,0,0,0,1.35-.162ZM70.079,0V-14.175h4.887V0Zm-.027-15.741v-3.537h4.941v3.537ZM81.851,0,76.72-14.175h5.292L84.5-5.157l2.484-9.018h5.1L86.953,0Zm19.6,0V-1.539A6.275,6.275,0,0,1,99.481-.081,5.628,5.628,0,0,1,97.16.378a5.053,5.053,0,0,1-3.5-1.148A3.973,3.973,0,0,1,92.38-3.888,3.911,3.911,0,0,1,94.054-7.3a9.829,9.829,0,0,1,5.13-1.337l2.133-.108v-.567a1.623,1.623,0,0,0-1.809-1.863q-1.674,0-1.917,1.4l-4.4-.351q.729-4.482,6.534-4.482a6.789,6.789,0,0,1,4.752,1.431A5.7,5.7,0,0,1,106.015-8.8V0Zm-.162-5.994-1.566.081a4.471,4.471,0,0,0-2.011.472,1.29,1.29,0,0,0-.634,1.174q0,1.3,1.593,1.3a2.619,2.619,0,0,0,1.917-.689,2.473,2.473,0,0,0,.7-1.849Z" transform="translate(2236.593 1376.354)" fill="#f5e84e"/>
    <path id="Path_193" data-name="Path 193" d="M-102.426-10.834a11.766,11.766,0,0,1-3.819,8.51q-3.487,3.072-9.34,3.072-6.725,0-10.44-4.047t-3.715-11.353q0-7.389,3.8-11.56t10.564-4.172a12.786,12.786,0,0,1,8.468,2.636,12.451,12.451,0,0,1,4.026,7.825l-7.928.913a6.4,6.4,0,0,0-1.64-3.466,4.492,4.492,0,0,0-3.175-1.059q-5.687,0-5.687,8.676,0,8.759,5.77,8.759a4.691,4.691,0,0,0,3.4-1.2,5.907,5.907,0,0,0,1.577-3.528ZM-81.048,0V-11.706h-9.63V0h-7.97V-29.638h7.97v10.751h9.63V-29.638h7.97V0ZM-67.6,0V-29.638h21.212v6.559H-59.836v4.732h12.619v6.559H-59.836v5.23h14.321L-46.18,0Zm49.563,0V-16.313L-23.308,0h-5.811l-5.272-16.4V0h-7.347V-29.638h9.257L-26.13-9.8l6.393-19.842h9.215V0ZM-5.043,0V-29.638H6.621q7.347,0,11.166,3.694t3.819,10.793q0,7.306-4.006,11.228T6.164,0ZM6.289-6.725q7.057,0,7.057-8.177,0-4.068-1.64-6.04a6.134,6.134,0,0,0-5-1.972H2.926V-6.725ZM43.648,0l-1.7-5.687h-10L30.281,0H22.27L32.564-29.638h9.049L51.908,0ZM36.965-22.249,33.893-12.038h6.1ZM74.2,0,69.923-18.97,65.731,0H57.844L49.916-29.638h8.468L62.2-10.294,66.354-29.43H73.7l4.234,19.136,3.694-19.344h8.219L82.169,0Zm36.819-10.5h-4.732v-6.434h12.079V-3.445a18.3,18.3,0,0,1-5.832,3.113,21.959,21.959,0,0,1-6.87,1.079q-6.974,0-10.751-4.006T91.135-14.653a19.182,19.182,0,0,1,1.743-8.53,12.126,12.126,0,0,1,4.981-5.376,15.381,15.381,0,0,1,7.679-1.826,13.442,13.442,0,0,1,8.489,2.532,10.811,10.811,0,0,1,4.006,7.1l-7.97.789a4.958,4.958,0,0,0-1.557-2.8,4.715,4.715,0,0,0-3.051-.892,5.158,5.158,0,0,0-4.566,2.179Q99.4-19.3,99.4-14.861q0,4.649,1.66,6.766t5.313,2.117a9.767,9.767,0,0,0,4.649-1.079ZM122.433,0V-7.928h7.223V0Z" transform="translate(2236.85 1344.319)" fill="#f4e74f"/>
  </g>
</svg>
