<svg xmlns="http://www.w3.org/2000/svg" width="215.369" height="75.006" viewBox="0 0 215.369 75.006">
  <g id="Chemdawg_Title" transform="translate(-4237.852 -4103.893)">
    <path id="Path_180" data-name="Path 180" d="M-193.059-9.385a10.192,10.192,0,0,1-3.308,7.371A11.8,11.8,0,0,1-204.457.647q-5.825,0-9.043-3.506t-3.218-9.835q0-6.4,3.29-10.014t9.151-3.614a11.076,11.076,0,0,1,7.335,2.283,10.786,10.786,0,0,1,3.488,6.778l-6.868.791a5.543,5.543,0,0,0-1.42-3,3.891,3.891,0,0,0-2.751-.917q-4.926,0-4.926,7.515,0,7.587,5,7.587a4.064,4.064,0,0,0,2.949-1.043,5.117,5.117,0,0,0,1.366-3.056ZM-174.54,0V-10.14h-8.342V0h-6.9V-25.674h6.9v9.313h8.342v-9.313h6.9V0Zm11.65,0V-25.674h18.375v5.681h-11.65v4.1h10.931v5.681h-10.931v4.531h12.406L-144.335,0Zm42.934,0V-14.132L-124.523,0h-5.034l-4.567-14.2V0h-6.365V-25.674h8.019l5.5,17.188,5.538-17.188h7.983V0ZM-108.7,0V-25.674h10.1q6.365,0,9.673,3.2t3.308,9.349q0,6.329-3.47,9.727T-98.992,0Zm9.817-5.825q6.113,0,6.113-7.084a8.068,8.068,0,0,0-1.42-5.232,5.314,5.314,0,0,0-4.333-1.708H-101.8V-5.825ZM-66.522,0-68-4.926h-8.666L-78.1,0h-6.94l8.918-25.674h7.839L-59.367,0Zm-5.789-19.273-2.661,8.846h5.286ZM-40.057,0l-3.7-16.433L-47.393,0h-6.832l-6.868-25.674h7.335l3.308,16.756,3.6-16.577h6.365l3.668,16.577,3.2-16.756h7.12L-33.153,0ZM-8.162-9.1h-4.1v-5.573H-1.8V-2.985A15.85,15.85,0,0,1-6.85-.288,19.022,19.022,0,0,1-12.8.647q-6.041,0-9.313-3.47t-3.272-9.87a16.616,16.616,0,0,1,1.51-7.389,10.5,10.5,0,0,1,4.315-4.657,13.324,13.324,0,0,1,6.652-1.582,11.644,11.644,0,0,1,7.353,2.193,9.365,9.365,0,0,1,3.47,6.149l-6.9.683a4.3,4.3,0,0,0-1.348-2.427,4.084,4.084,0,0,0-2.643-.773,4.468,4.468,0,0,0-3.955,1.888,10.227,10.227,0,0,0-1.294,5.735q0,4.027,1.438,5.861a5.492,5.492,0,0,0,4.6,1.834,8.461,8.461,0,0,0,4.027-.935ZM-201.5,43.15V35.536h-6.264V43.15h-5.184V23.872h5.184v6.993h6.264V23.872h5.184V43.15Zm8.451,0V28.975h4.887V43.15Zm-.027-15.741V23.872h4.941v3.537Zm17.145,13.473a4.986,4.986,0,0,1-4,1.7,5.145,5.145,0,0,1-4.185-1.782,7.631,7.631,0,0,1-1.485-5.022A8.106,8.106,0,0,1-184,30.487a5.32,5.32,0,0,1,4.347-1.944,4.51,4.51,0,0,1,3.861,1.782V28.948h4.752V41.395q0,3.7-1.782,5.494t-5.481,1.8q-6.264,0-6.723-4.995h4.779q.189,1.458,2,1.458a1.98,1.98,0,0,0,1.823-.8,5.838,5.838,0,0,0,.5-2.875Zm0-5.481a3.528,3.528,0,0,0-.567-2.187,2.141,2.141,0,0,0-1.782-.783,2.082,2.082,0,0,0-1.755.81,3.7,3.7,0,0,0-.621,2.295,3.7,3.7,0,0,0,.607,2.282,2.059,2.059,0,0,0,1.742.8,2.253,2.253,0,0,0,1.809-.837,3.156,3.156,0,0,0,.567-2.025Zm16.6,7.749V34.456a2.222,2.222,0,0,0-.378-1.444,1.51,1.51,0,0,0-1.215-.445,2.249,2.249,0,0,0-1.62.621,2.371,2.371,0,0,0-.648,1.755V43.15h-4.887V23.872h4.887v6.615a5.12,5.12,0,0,1,4.158-1.944,4.327,4.327,0,0,1,3.415,1.323,5.556,5.556,0,0,1,1.174,3.807V43.15Zm18.225,0V28.273h-5.562v-4.4h16.308v4.4h-5.562V43.15Zm24.6,0V35.536h-6.264V43.15h-5.184V23.872h5.184v6.993h6.264V23.872h5.184V43.15ZM-90.558,36.1a7.653,7.653,0,0,1-2.484,5.535,8.859,8.859,0,0,1-6.075,2A8.755,8.755,0,0,1-105.907,41q-2.417-2.633-2.417-7.385,0-4.806,2.471-7.519a8.823,8.823,0,0,1,6.871-2.714A8.317,8.317,0,0,1-93.474,25.1a8.1,8.1,0,0,1,2.619,5.089l-5.157.594a4.162,4.162,0,0,0-1.066-2.254,2.922,2.922,0,0,0-2.065-.689q-3.7,0-3.7,5.643,0,5.7,3.753,5.7a3.051,3.051,0,0,0,2.214-.783,3.842,3.842,0,0,0,1.026-2.3Zm13.878-.783a9.554,9.554,0,0,1-4.793-2.025,5.034,5.034,0,0,1-1.5-3.861,5.344,5.344,0,0,1,2.011-4.482,9.166,9.166,0,0,1,5.738-1.566,9.513,9.513,0,0,1,5.7,1.512,5.876,5.876,0,0,1,2.376,4.374l-5.022.513a2.885,2.885,0,0,0-.985-1.755,3.435,3.435,0,0,0-2.092-.54,3.651,3.651,0,0,0-1.917.418,1.357,1.357,0,0,0-.675,1.229,1.306,1.306,0,0,0,.513,1.08,3.881,3.881,0,0,0,1.647.621l2.619.513a9.4,9.4,0,0,1,4.739,2.065,5.118,5.118,0,0,1,1.525,3.9A5.576,5.576,0,0,1-68.9,42a9.648,9.648,0,0,1-6.021,1.633A9.482,9.482,0,0,1-81,41.921,6.759,6.759,0,0,1-83.349,36.8h5.157a2.825,2.825,0,0,0,1.012,2.025,3.97,3.97,0,0,0,2.444.648,3.68,3.68,0,0,0,2.052-.472,1.569,1.569,0,0,0,.7-1.39,1.453,1.453,0,0,0-.526-1.188,3.481,3.481,0,0,0-1.607-.621Zm20.574,7.83V41.611a6.275,6.275,0,0,1-1.971,1.458,5.628,5.628,0,0,1-2.322.459,5.053,5.053,0,0,1-3.5-1.147,3.973,3.973,0,0,1-1.283-3.118A3.911,3.911,0,0,1-63.5,35.846a9.829,9.829,0,0,1,5.13-1.336l2.133-.108v-.567a1.623,1.623,0,0,0-1.809-1.863q-1.674,0-1.917,1.4l-4.4-.351q.729-4.482,6.534-4.482a6.789,6.789,0,0,1,4.752,1.431,5.7,5.7,0,0,1,1.539,4.374v8.8Zm-.162-5.994-1.566.081a4.472,4.472,0,0,0-2.011.472,1.29,1.29,0,0,0-.635,1.175q0,1.3,1.593,1.3a2.619,2.619,0,0,0,1.917-.688,2.473,2.473,0,0,0,.7-1.849Zm17.2,5.724a11.2,11.2,0,0,1-3.348.513,5.257,5.257,0,0,1-3.915-1.256,5.743,5.743,0,0,1-1.215-4.09V32.782h-2.268V28.975h2.268V25.249h4.887v3.726h3.078v3.807H-42.66v5.049a1.76,1.76,0,0,0,.378,1.256,1.671,1.671,0,0,0,1.242.391,5.767,5.767,0,0,0,1.35-.162Zm1.782.27V28.975H-32.4V43.15Zm-.027-15.741V23.872h4.941v3.537Zm11.8,15.741-5.13-14.175h5.292l2.484,9.018,2.484-9.018h5.1l-5.13,14.175Zm19.6,0V41.611a6.275,6.275,0,0,1-1.971,1.458,5.628,5.628,0,0,1-2.322.459,5.053,5.053,0,0,1-3.5-1.147,3.973,3.973,0,0,1-1.282-3.118,3.911,3.911,0,0,1,1.674-3.416,9.829,9.829,0,0,1,5.13-1.336l2.133-.108v-.567a1.623,1.623,0,0,0-1.809-1.863q-1.674,0-1.917,1.4l-4.4-.351q.729-4.482,6.534-4.482a6.789,6.789,0,0,1,4.752,1.431A5.7,5.7,0,0,1-1.35,34.348v8.8Zm-.162-5.994-1.566.081a4.472,4.472,0,0,0-2.012.472,1.29,1.29,0,0,0-.634,1.175q0,1.3,1.593,1.3a2.619,2.619,0,0,0,1.917-.688,2.473,2.473,0,0,0,.7-1.849Z" transform="translate(4454.571 4130.214)" fill="#ea514b"/>
  </g>
</svg>
