<?xml version="1.0" encoding="utf-8"?>
<!-- Generator: Adobe Illustrator 25.3.1, SVG Export Plug-In . SVG Version: 6.00 Build 0)  -->
<svg version="1.1" id="Layer_1" xmlns="http://www.w3.org/2000/svg" xmlns:xlink="http://www.w3.org/1999/xlink" x="0px" y="0px"
	 viewBox="0 0 400 400" style="enable-background:new 0 0 400 400;" xml:space="preserve">
<style type="text/css">
	.st0{fill:#FFFFFF;}
</style>
<g>
	<g>
		<path class="st0" d="M200.07,20.8c2.99,0,6.02,1.09,9.26,3.33c8.76,6.06,14.26,15.1,19.83,26.82
			c4.88,10.28,8.82,21.91,12.39,36.62c1.96,8.07,3.45,15.38,4.56,22.35c1.6,10.03,2.69,18.96,3.35,27.29l0.06,0.76
			c0.53,6.75,1.03,13.12,1.07,19.53l0,0.09c0.02,6.04,3.09,9.11,5.66,10.61c1.7,0.99,3.62,1.52,5.55,1.52c3.01,0,5.71-1.18,8.03-3.5
			c15.86-12.5,29.9-21.63,44.15-28.72c11.3-5.62,21.48-9.27,31.11-11.14c4.46-0.87,8.29-1.29,11.7-1.29c5.04,0,9.42,0.93,13.39,2.83
			c4.9,2.36,7.89,6.3,9.39,12.41c1.75,7.13,1.33,15.1-1.33,25.1c-5.44,20.45-15.89,40.24-33.88,64.15
			c-4.6,6.12-9.64,12.06-14.39,17.57c-3.2,3.7-4.16,7.57-2.85,11.5c0.9,2.72,3.21,6.23,9.11,7.53c11.09,2.45,24.1,5.67,36.46,10.95
			c5.68,2.42,11.52,5.27,15.81,9.68c1.84,1.89,2.06,2.56-0.05,4.77c-4.65,4.88-10.83,7.91-18.68,10.94
			c-16.24,6.28-32.91,9.77-47.06,12.35c-10.32,1.88-21,3.29-31.33,4.65c-2.68,0.35-5.36,0.71-8.03,1.07
			c-1.97,0.27-4.05,0.42-6.26,0.58c-0.57,0.04-1.13,0.08-1.7,0.13c-5.95,0.45-8.64,3.84-9.72,5.81c-1.08,1.98-2.47,6.1,0.39,11.36
			c3.06,5.65,6.54,12.06,9.02,18.46c2.56,6.61,4.8,13.08,4.18,19.6c-0.1,1.08-0.61,2.42-2.43,2.68c-0.96,0.13-1.96,0.2-2.97,0.2
			c-3.39,0-7.07-0.72-11.92-2.32c-16.46-5.45-31.34-14.47-43.72-22.56l-1.48-0.97c-2.53-1.65-4.92-3.21-7.2-4.85
			c-2.55-1.84-5.27-2.77-8.1-2.77c-2.75,0-5.41,0.88-7.89,2.62c-8.13,5.68-18.92,12.99-30.23,19.17
			c-8.74,4.78-19.15,9.98-30.14,12.34c-1.7,0.37-3.31,0.55-4.79,0.55c-1.22,0-2.4-0.13-3.49-0.38c-1.18-0.27-2.11-0.49-2.17-4.42
			c-0.06-3.89,0.75-8.15,2.53-13.41c2.99-8.82,7.32-17.13,10.76-23.38c0.85-1.54,3.43-6.24,0.68-11.48
			c-1.26-2.41-3.96-5.4-9.65-5.97c-9.94-1.01-18.14-1.94-25.8-2.91c-6.93-0.88-13.98-1.97-21.56-3.33
			c-7.92-1.42-16.9-3.03-25.4-5.27c-13.97-3.69-28.41-7.5-40.25-16.03c-1.27-0.91-2.31-1.95-3.1-3.09c-1.3-1.87-1.44-2.07,0.37-4.05
			c1.64-1.79,3.88-3.47,7.05-5.29c11.42-6.55,24.24-10.21,35.28-12.93c1.16-0.29,2.31-0.58,3.47-0.88c2.27-0.58,4.41-1.14,6.52-1.58
			c6.25-1.3,8.43-5.36,9.18-7.66c0.74-2.3,1.34-6.86-3.01-11.63c-4.99-5.47-9.97-11.56-15.65-19.16
			C42.35,212,33.58,197.12,27.3,182.27c-5.01-11.87-7.56-21.76-8.01-31.14c-0.46-9.54,1.61-15.94,6.72-20.76
			c2.05-1.93,4.72-3.24,8.67-4.26c3.17-0.81,5.05-1.06,5.74-1.08l0.32,0.04l0.54,0.01c14.86,0.32,26.74,4.57,36.39,8.68
			c13.04,5.55,26.23,13.25,41.53,24.25c2.59,1.86,5.11,3.84,7.78,5.93c1.14,0.89,2.28,1.79,3.42,2.67c2.29,2.12,4.9,3.19,7.74,3.19
			c1.64,0,3.24-0.37,4.74-1.09c1.91-0.92,6.34-3.8,6.27-10.69l0-0.05c0.18-8.69,0.85-18.1,2.12-29.62
			c0.82-7.39,1.93-14.99,3.39-23.22c2.31-12.98,5.15-24.57,8.69-35.44c4.14-12.74,8.57-22.59,13.94-31.02
			c5.46-8.57,10.32-13.43,16.24-16.26C195.83,21.33,197.96,20.8,200.07,20.8L200.07,20.8 M200.07,10.8c-3.53,0-7.15,0.84-10.84,2.6
			c-9.03,4.32-15.14,11.73-20.35,19.91c-6.6,10.36-11.23,21.65-15.02,33.3c-3.91,12.04-6.8,24.31-9.02,36.77
			c-1.41,7.93-2.61,15.88-3.49,23.87c-1.12,10.16-1.98,20.35-2.18,30.58c-0.01,0.68,0.12,1.52-0.6,1.87c-0.14,0.07-0.27,0.1-0.4,0.1
			c-0.54,0-0.93-0.57-1.36-0.9c-3.91-3.01-7.74-6.13-11.75-9.01c-13.67-9.83-27.91-18.71-43.45-25.33
			c-12.26-5.22-24.85-9.14-40.09-9.47c-0.3-0.04-0.64-0.06-1.01-0.06c-2.11,0-5.23,0.6-8.3,1.39c-4.82,1.24-9.32,3.16-13.05,6.67
			c-8.28,7.8-10.37,17.83-9.85,28.52c0.58,12.05,4.11,23.47,8.79,34.54c7.22,17.1,16.93,32.74,28.02,47.57
			c5.14,6.87,10.49,13.57,16.27,19.92c1.24,1.36,1.44,2.28-0.82,2.75c-3.47,0.72-6.9,1.69-10.34,2.54
			c-13.15,3.24-26.04,7.18-37.87,13.96c-3.44,1.97-6.73,4.24-9.46,7.22c-4.84,5.3-5.26,10.64-1.2,16.49
			c1.5,2.16,3.36,3.98,5.47,5.51c13.07,9.42,28.3,13.56,43.54,17.58c8.62,2.28,17.4,3.87,26.19,5.45
			c7.33,1.31,14.68,2.47,22.06,3.41c8.67,1.1,17.36,2.06,26.05,2.94c2.35,0.24,2.19,0.94,1.22,2.69
			c-4.43,8.05-8.51,16.26-11.47,24.99c-1.85,5.44-3.14,11-3.06,16.77c0.11,7.82,3.49,12.53,9.91,14.02
			c1.91,0.44,3.84,0.64,5.75,0.64c2.31,0,4.62-0.29,6.89-0.78c11.71-2.52,22.41-7.65,32.83-13.35c10.81-5.91,21.07-12.7,31.16-19.74
			c0.79-0.55,1.48-0.82,2.17-0.82c0.73,0,1.45,0.3,2.25,0.88c2.95,2.12,6.01,4.08,9.05,6.07c14.52,9.5,29.47,18.2,46.05,23.69
			c4.91,1.63,9.9,2.83,15.06,2.83c1.43,0,2.87-0.09,4.34-0.29c6.09-0.84,10.43-5.54,11.02-11.63c0.82-8.58-1.8-16.4-4.81-24.16
			c-2.63-6.8-6.08-13.22-9.55-19.62c-0.97-1.79-0.48-2.3,1.3-2.44c2.85-0.22,5.71-0.38,8.53-0.76c13.29-1.79,26.61-3.38,39.82-5.79
			c16.64-3.03,33.08-6.75,48.88-12.86c8.17-3.16,16.1-6.85,22.31-13.37c5.68-5.96,5.7-12.76-0.03-18.64
			c-5.38-5.52-12.1-8.93-19.05-11.9c-12.31-5.25-25.2-8.63-38.23-11.51c-2.38-0.53-2.13-1.24-0.84-2.73
			c5.09-5.9,10.12-11.85,14.82-18.09c15.51-20.62,28.84-42.37,35.55-67.59c2.63-9.9,3.87-19.93,1.38-30.06
			c-2.09-8.49-6.68-15.15-14.77-19.04c-5.78-2.78-11.72-3.82-17.72-3.82c-4.51,0-9.06,0.59-13.61,1.47
			c-11.79,2.29-22.92,6.66-33.66,12c-16.59,8.25-31.78,18.68-46.29,30.14c-0.45,0.36-0.84,1.04-1.44,1.04
			c-0.15,0-0.32-0.05-0.51-0.15c-0.74-0.43-0.7-1.36-0.71-2.13c-0.04-7.03-0.61-14.02-1.16-21.02c-0.74-9.41-1.96-18.77-3.44-28.09
			c-1.24-7.77-2.86-15.48-4.72-23.13c-3.21-13.24-7.21-26.22-13.07-38.55c-5.62-11.82-12.08-23.09-23.17-30.76
			C210.23,12.59,205.24,10.8,200.07,10.8L200.07,10.8z"/>
	</g>
</g>
<path class="st0" d="M228.59,261.98c-2.38-1.38-5.43-0.56-6.81,1.83c-6.98,12.06-22.42,16.17-34.47,9.19
	c-3.81-2.21-6.98-5.38-9.19-9.19c-1.48-2.32-4.56-3.01-6.88-1.53c-2.18,1.39-2.94,4.22-1.74,6.51
	c9.74,16.82,31.26,22.57,48.09,12.83c5.32-3.08,9.75-7.51,12.83-12.83C231.79,266.41,230.97,263.36,228.59,261.98z"/>
<path class="st0" d="M173.15,230.58c5.64,0,10.21-4.56,10.23-10.2c0.01-5.65-4.56-10.24-10.2-10.25s-10.24,4.56-10.25,10.2
	c-0.01,5.65,4.56,10.24,10.2,10.25C173.13,230.58,173.14,230.58,173.15,230.58z"/>
<path class="st0" d="M226.73,210.13c-5.65-0.01-10.24,4.56-10.25,10.2c-0.01,5.65,4.56,10.24,10.2,10.25c0.01,0,0.02,0,0.02,0
	c5.64,0.01,10.21-4.55,10.23-10.18c0-0.01,0-0.02,0-0.02C236.95,214.73,232.38,210.14,226.73,210.13z"/>
</svg>
