<svg xmlns="http://www.w3.org/2000/svg" width="100.945" height="136.848" viewBox="0 0 100.945 136.848"><g id="Group_297" data-name="Group 297" transform="translate(-615.794 -305.024)"><path id="Path_152" data-name="Path 152" d="M715.656,372.915a14.273,14.273,0,0,0-4.807-3,54.194,54.194,0,0,0-9.647-2.906c-.6-.133-.539-.313-.213-.69,1.286-1.489,2.555-2.991,3.739-4.565,3.913-5.2,7.279-10.692,8.972-17.058a15.09,15.09,0,0,0,.348-7.585,6.814,6.814,0,0,0-3.727-4.8,12.28,12.28,0,0,0-7.9-.592,33.426,33.426,0,0,0-8.494,3.028,67.275,67.275,0,0,0-11.682,7.607c-.143.112-.263.356-.491.223-.187-.109-.178-.342-.179-.538-.01-1.774-.153-3.539-.292-5.3-.186-2.376-.493-4.738-.868-7.088-.313-1.961-.722-3.906-1.191-5.838a49.9,49.9,0,0,0-3.3-9.729c-1.417-2.984-3.049-5.826-5.847-7.762a6.133,6.133,0,0,0-6.507-.63,12.826,12.826,0,0,0-5.136,5.024,36.425,36.425,0,0,0-3.791,8.4,69.18,69.18,0,0,0-2.276,9.28c-.357,2-.658,4.007-.88,6.025-.283,2.564-.5,5.135-.55,7.716,0,.172.03.385-.153.473s-.31-.1-.444-.2c-.987-.76-1.954-1.548-2.965-2.275a57.459,57.459,0,0,0-10.966-6.392,26.488,26.488,0,0,0-10.117-2.39,7.709,7.709,0,0,0-2.349.337,7.277,7.277,0,0,0-3.293,1.682c-2.089,1.97-2.616,4.5-2.486,7.2a25.6,25.6,0,0,0,2.218,8.718,57.4,57.4,0,0,0,7.071,12.005c1.3,1.734,2.646,3.426,4.107,5.026.312.342.364.576-.208.695-.877.182-1.741.426-2.611.64a36.459,36.459,0,0,0-9.556,3.524,9.729,9.729,0,0,0-2.387,1.823,3,3,0,0,0-.3,4.162,5.746,5.746,0,0,0,1.381,1.389c3.3,2.377,7.141,3.421,10.987,4.437,2.177.575,4.392.978,6.609,1.375,1.85.332,3.7.623,5.568.86,2.187.279,4.38.52,6.573.743.593.06.552.237.31.678a39.34,39.34,0,0,0-2.9,6.307,12.6,12.6,0,0,0-.772,4.231c.029,1.975.882,3.163,2.5,3.538a7.252,7.252,0,0,0,3.192-.034,30.98,30.98,0,0,0,8.284-3.368,85.554,85.554,0,0,0,7.864-4.982.835.835,0,0,1,1.117.016c.743.536,1.517,1.03,2.284,1.532a50.273,50.273,0,0,0,11.621,5.979,10.745,10.745,0,0,0,4.9.64,3.2,3.2,0,0,0,2.78-2.934,13.224,13.224,0,0,0-1.213-6.1,43.182,43.182,0,0,0-2.41-4.952c-.245-.451-.121-.581.329-.616.719-.054,1.44-.1,2.154-.192,3.354-.453,6.714-.854,10.049-1.462a67.476,67.476,0,0,0,12.334-3.246,14.813,14.813,0,0,0,5.631-3.374A3.1,3.1,0,0,0,715.656,372.915Z" fill="#fff"></path><g id="Group_290" data-name="Group 290"><path id="Path_154" data-name="Path 154" d="M673.96,370.131a1.258,1.258,0,1,0-2.179-1.257h0a6.368,6.368,0,0,1-11.019,0,1.257,1.257,0,0,0-2.175,1.257,8.881,8.881,0,0,0,15.373,0Z" fill="#c1dc89"></path><path id="Path_155" data-name="Path 155" d="M662.088,357.914a2.581,2.581,0,1,0-2.586,2.575h.005A2.581,2.581,0,0,0,662.088,357.914Z" fill="#c1dc89"></path><path id="Path_156" data-name="Path 156" d="M675.6,357.914a2.581,2.581,0,1,0-2.586,2.575h.006a2.575,2.575,0,0,0,2.58-2.57Z" fill="#c1dc89"></path></g><text id="Good" transform="translate(666.276 436.872)" fill="#fff" font-size="19.821" font-family="Futura-Medium, Futura" font-weight="500"><tspan x="-26.799" y="0">Good</tspan></text></g></svg>