<svg xmlns="http://www.w3.org/2000/svg" width="289.158" height="69.906" viewBox="0 0 289.158 69.906">
  <g id="Greencush_Title_Teal" transform="translate(-2091.691 -2321.317)">
    <path id="Path_197" data-name="Path 197" d="M-94.135,0V-7.614H-100.4V0h-5.184V-19.278h5.184v6.993h6.264v-6.993h5.184V0Zm8.451,0V-14.175H-80.8V0Zm-.027-15.741v-3.537h4.941v3.537ZM-68.566-2.268a4.986,4.986,0,0,1-4,1.7,5.145,5.145,0,0,1-4.185-1.782,7.632,7.632,0,0,1-1.485-5.022,8.106,8.106,0,0,1,1.593-5.292,5.32,5.32,0,0,1,4.347-1.944,4.51,4.51,0,0,1,3.861,1.782V-14.2h4.752V-1.755q0,3.7-1.782,5.495t-5.481,1.8q-6.264,0-6.723-5h4.779Q-72.7,2-70.888,2a1.98,1.98,0,0,0,1.822-.8,5.837,5.837,0,0,0,.5-2.876Zm0-5.481a3.528,3.528,0,0,0-.567-2.187,2.141,2.141,0,0,0-1.782-.783,2.082,2.082,0,0,0-1.755.81,3.7,3.7,0,0,0-.621,2.3,3.7,3.7,0,0,0,.607,2.282,2.059,2.059,0,0,0,1.742.8,2.253,2.253,0,0,0,1.809-.837A3.156,3.156,0,0,0-68.566-7.4ZM-51.961,0V-8.694a2.222,2.222,0,0,0-.378-1.444,1.51,1.51,0,0,0-1.215-.446,2.249,2.249,0,0,0-1.62.621,2.371,2.371,0,0,0-.648,1.755V0h-4.887V-19.278h4.887v6.615a5.12,5.12,0,0,1,4.158-1.944,4.327,4.327,0,0,1,3.415,1.323,5.556,5.556,0,0,1,1.174,3.807V0Zm18.225,0V-14.877H-39.3v-4.4H-22.99v4.4h-5.562V0Zm24.6,0V-7.614H-15.4V0h-5.184V-19.278H-15.4v6.993h6.264v-6.993h5.184V0ZM16.808-7.047a7.653,7.653,0,0,1-2.484,5.535,8.859,8.859,0,0,1-6.075,2,8.755,8.755,0,0,1-6.79-2.633Q-.958-4.779-.958-9.531q0-4.806,2.471-7.52a8.823,8.823,0,0,1,6.872-2.714,8.317,8.317,0,0,1,5.508,1.715,8.1,8.1,0,0,1,2.619,5.089l-5.157.594a4.162,4.162,0,0,0-1.067-2.254,2.922,2.922,0,0,0-2.066-.689q-3.7,0-3.7,5.643,0,5.7,3.753,5.7a3.051,3.051,0,0,0,2.214-.783,3.842,3.842,0,0,0,1.026-2.3ZM30.686-7.83a9.554,9.554,0,0,1-4.793-2.025,5.034,5.034,0,0,1-1.5-3.861A5.344,5.344,0,0,1,26.406-18.2a9.166,9.166,0,0,1,5.737-1.566,9.513,9.513,0,0,1,5.7,1.512,5.876,5.876,0,0,1,2.376,4.374l-5.022.513a2.885,2.885,0,0,0-.986-1.755,3.435,3.435,0,0,0-2.092-.54,3.651,3.651,0,0,0-1.917.418,1.357,1.357,0,0,0-.675,1.228,1.306,1.306,0,0,0,.513,1.08,3.881,3.881,0,0,0,1.647.621L34.3-11.8a9.4,9.4,0,0,1,4.739,2.065,5.118,5.118,0,0,1,1.525,3.9,5.576,5.576,0,0,1-2.106,4.685A9.648,9.648,0,0,1,32.441.486a9.482,9.482,0,0,1-6.075-1.715,6.759,6.759,0,0,1-2.349-5.117h5.157A2.824,2.824,0,0,0,30.186-4.32a3.97,3.97,0,0,0,2.443.648,3.68,3.68,0,0,0,2.052-.473,1.569,1.569,0,0,0,.7-1.391,1.453,1.453,0,0,0-.527-1.188,3.481,3.481,0,0,0-1.606-.621ZM51.26,0V-1.539A6.275,6.275,0,0,1,49.289-.081a5.628,5.628,0,0,1-2.322.459A5.053,5.053,0,0,1,43.47-.77a3.973,3.973,0,0,1-1.282-3.119A3.911,3.911,0,0,1,43.862-7.3a9.829,9.829,0,0,1,5.13-1.337l2.133-.108v-.567a1.623,1.623,0,0,0-1.809-1.863q-1.674,0-1.917,1.4L43-10.125q.729-4.482,6.534-4.482a6.789,6.789,0,0,1,4.752,1.431A5.7,5.7,0,0,1,55.823-8.8V0ZM51.1-5.994l-1.566.081a4.472,4.472,0,0,0-2.011.472,1.29,1.29,0,0,0-.635,1.174q0,1.3,1.593,1.3A2.619,2.619,0,0,0,50.4-3.659a2.473,2.473,0,0,0,.7-1.849ZM68.3-.27a11.2,11.2,0,0,1-3.348.513,5.257,5.257,0,0,1-3.915-1.256A5.743,5.743,0,0,1,59.819-5.1v-5.265H57.55v-3.807h2.268V-17.9h4.887v3.726h3.078v3.807H64.705v5.049a1.76,1.76,0,0,0,.378,1.255,1.671,1.671,0,0,0,1.242.392,5.767,5.767,0,0,0,1.35-.162ZM70.079,0V-14.175h4.887V0Zm-.027-15.741v-3.537h4.941v3.537ZM81.851,0,76.72-14.175h5.292L84.5-5.157l2.484-9.018h5.1L86.953,0Zm19.6,0V-1.539A6.275,6.275,0,0,1,99.481-.081,5.628,5.628,0,0,1,97.16.378a5.053,5.053,0,0,1-3.5-1.148A3.973,3.973,0,0,1,92.38-3.888,3.911,3.911,0,0,1,94.054-7.3a9.829,9.829,0,0,1,5.13-1.337l2.133-.108v-.567a1.623,1.623,0,0,0-1.809-1.863q-1.674,0-1.917,1.4l-4.4-.351q.729-4.482,6.534-4.482a6.789,6.789,0,0,1,4.752,1.431A5.7,5.7,0,0,1,106.015-8.8V0Zm-.162-5.994-1.566.081a4.471,4.471,0,0,0-2.011.472,1.29,1.29,0,0,0-.634,1.174q0,1.3,1.593,1.3a2.619,2.619,0,0,0,1.917-.689,2.473,2.473,0,0,0,.7-1.849Z" transform="translate(2236.593 2385.688)" fill="#b2f5f5"/>
    <path id="Path_196" data-name="Path 196" d="M-128.515-17.476v6.393h6.642c-.332,3.611-3.03,5.438-6.559,5.438-5.355,0-8.26-4.94-8.26-9.8,0-4.774,2.781-9.879,8.136-9.879a7.074,7.074,0,0,1,6.766,4.981l7.721-3.238c-2.7-5.853-7.679-8.759-14.113-8.759-10.087,0-16.978,6.683-16.978,16.853,0,9.838,6.849,16.521,16.687,16.521,5.23,0,9.838-1.868,12.91-6.143,2.781-3.9,3.113-7.8,3.2-12.37Zm36.072,4.649c4.442-.789,6.849-4.525,6.849-8.842,0-6.683-4.691-9.63-10.876-9.63h-12.162V0h8.136V-12.038h.083L-92.733,0H-82.6ZM-100.5-25.072h.789c2.657,0,5.645.5,5.645,3.9s-2.989,3.9-5.645,3.9h-.789Zm37.9.664V-31.3H-80.4V0H-62.6V-6.891h-9.672v-5.4h9.174v-6.891h-9.174v-5.23Zm22.83,0V-31.3H-57.574V0h17.808V-6.891h-9.672v-5.4h9.174v-6.891h-9.174v-5.23ZM-34.744,0h8.136V-19.178h.083L-11.623,0h8.136V-31.3h-8.136v19.136h-.083L-26.608-31.3h-8.136ZM38.438-30.551a19.09,19.09,0,0,0-7.43-1.577,16.96,16.96,0,0,0-11.913,5.064,16.38,16.38,0,0,0-4.608,11.457A15.306,15.306,0,0,0,19.51-3.777,17.425,17.425,0,0,0,31.257.83,23.038,23.038,0,0,0,38.438-.623v-9.755a9.358,9.358,0,0,1-7.015,3.321,8.117,8.117,0,0,1-8.468-8.51c0-4.857,3.362-8.676,8.343-8.676a8.83,8.83,0,0,1,7.14,3.445ZM62.472-31.3v16.479c0,4.068-.291,8.51-5.521,8.51s-5.521-4.442-5.521-8.51V-31.3H43.295v17.6c0,4.026.166,8.011,3.279,11.042C49.189-.083,53.3.83,56.952.83s7.762-.913,10.377-3.487c3.113-3.03,3.279-7.015,3.279-11.042V-31.3Zm33.706,1.743a21.406,21.406,0,0,0-9.8-2.574c-6.268,0-10.793,4.151-10.793,10.5,0,6.06,3.362,7.389,8.468,8.842C85.8-12.287,89-11.5,89-9.215c0,2.2-2.034,3.155-3.943,3.155-2.781,0-5.189-1.453-7.223-3.238L74.344-2.74a19.312,19.312,0,0,0,11,3.57,13.731,13.731,0,0,0,8.883-2.947c2.491-2.117,3.238-5.313,3.238-8.427,0-5.064-3.362-7.264-7.721-8.551l-2.075-.623c-1.411-.457-3.611-1.162-3.611-2.989,0-1.743,1.992-2.615,3.487-2.615a8.56,8.56,0,0,1,5.4,2.075Zm13.283,10.336V-31.3h-8.136V0h8.136V-12.827h11.747V0h8.136V-31.3h-8.136v12.079Zm29.68,10.336a4.836,4.836,0,0,0-4.857,4.857A4.863,4.863,0,0,0,139.141.83,4.863,4.863,0,0,0,144-4.026,4.836,4.836,0,0,0,139.141-8.883Z" transform="translate(2236.851 2353.653)" fill="#b2f5f5"/>
  </g>
</svg>
