<svg xmlns="http://www.w3.org/2000/svg" width="228.608" height="74.405" viewBox="0 0 228.608 74.405">
  <g id="Greencush_Title" transform="translate(-4247.497 -2195.664)">
    <path id="Path_168" data-name="Path 168" d="M-212.883-9.019h-4.064v-5.525h10.373V-2.959a15.713,15.713,0,0,1-5.008,2.674,18.858,18.858,0,0,1-5.9.927q-5.989,0-9.233-3.44t-3.244-9.785a16.472,16.472,0,0,1,1.5-7.325,10.413,10.413,0,0,1,4.278-4.616,13.209,13.209,0,0,1,6.595-1.568,11.543,11.543,0,0,1,7.29,2.174,9.284,9.284,0,0,1,3.44,6.1l-6.844.677a4.258,4.258,0,0,0-1.337-2.406,4.049,4.049,0,0,0-2.62-.766,4.429,4.429,0,0,0-3.921,1.871,10.138,10.138,0,0,0-1.283,5.686q0,3.992,1.426,5.81a5.444,5.444,0,0,0,4.563,1.818,8.388,8.388,0,0,0,3.992-.927ZM-188.038,0l-4.171-8.769h-3.707V0h-6.523V-25.452h10.052q4.991,0,7.575,2.05a7.207,7.207,0,0,1,2.584,6.007,9.232,9.232,0,0,1-.962,4.313,7.094,7.094,0,0,1-2.816,2.923L-180.8,0Zm-4.527-14.081a4.406,4.406,0,0,0,2.852-.749,2.9,2.9,0,0,0,.891-2.353,2.639,2.639,0,0,0-.98-2.264,4.971,4.971,0,0,0-2.977-.731h-3.137v6.1ZM-178.163,0V-25.452h18.216v5.632H-171.5v4.064h10.837v5.632H-171.5v4.492h12.3L-159.77,0Zm22.208,0V-25.452h18.216v5.632h-11.55v4.064h10.837v5.632h-10.837v4.492h12.3L-137.562,0ZM-118.1,0l-9.161-14.58V0h-6.488V-25.452h5.989l9.161,14.58v-14.58h6.488V0Zm41.065-9.3A10.1,10.1,0,0,1-80.313-2,11.7,11.7,0,0,1-88.333.642q-5.775,0-8.965-3.476t-3.19-9.749q0-6.345,3.262-9.928t9.072-3.583a10.98,10.98,0,0,1,7.272,2.264,10.693,10.693,0,0,1,3.458,6.719l-6.809.784A5.5,5.5,0,0,0-85.642-19.3a3.858,3.858,0,0,0-2.727-.909q-4.884,0-4.884,7.45,0,7.522,4.955,7.522a4.028,4.028,0,0,0,2.923-1.034A5.073,5.073,0,0,0-84.02-9.3Zm17.61-16.148h6.844v14.9Q-52.579.642-63.416.642-74.11.642-74.11-10.551v-14.9h6.844V-10.3a6.372,6.372,0,0,0,.927,3.85A3.531,3.531,0,0,0-63.345-5.24,3.531,3.531,0,0,0-60.35-6.452a6.372,6.372,0,0,0,.927-3.85ZM-40.78-10.338q-4.349-.82-6.327-2.674a6.646,6.646,0,0,1-1.978-5.1,7.056,7.056,0,0,1,2.656-5.917q2.656-2.068,7.575-2.068a12.56,12.56,0,0,1,7.522,2A7.757,7.757,0,0,1-28.2-18.323l-6.63.677a3.809,3.809,0,0,0-1.3-2.317,4.535,4.535,0,0,0-2.763-.713,4.82,4.82,0,0,0-2.531.553,1.791,1.791,0,0,0-.891,1.622,1.725,1.725,0,0,0,.677,1.426,5.123,5.123,0,0,0,2.174.82l3.458.677a12.413,12.413,0,0,1,6.256,2.727A6.756,6.756,0,0,1-27.733-7.7a7.362,7.362,0,0,1-2.78,6.185Q-33.294.642-38.463.642q-5.2,0-8.021-2.264a8.924,8.924,0,0,1-3.1-6.755h6.809A3.729,3.729,0,0,0-41.44-5.7a5.242,5.242,0,0,0,3.226.856A4.859,4.859,0,0,0-35.5-5.472a2.071,2.071,0,0,0,.927-1.836,1.919,1.919,0,0,0-.7-1.568,4.6,4.6,0,0,0-2.121-.82ZM-9.2,0V-10.052h-8.27V0h-6.844V-25.452h6.844v9.233H-9.2v-9.233h6.844V0ZM-201.5,42.776V35.162h-6.264v7.614h-5.184V23.5h5.184v6.993h6.264V23.5h5.184V42.776Zm8.451,0V28.6h4.887V42.776Zm-.027-15.741V23.5h4.941v3.537Zm17.145,13.473a4.986,4.986,0,0,1-4,1.7,5.145,5.145,0,0,1-4.185-1.782,7.631,7.631,0,0,1-1.485-5.022,8.106,8.106,0,0,1,1.593-5.292,5.32,5.32,0,0,1,4.347-1.944,4.51,4.51,0,0,1,3.861,1.782V28.574h4.752V41.021q0,3.7-1.782,5.495t-5.481,1.8q-6.264,0-6.723-4.995h4.779q.189,1.458,2,1.458a1.98,1.98,0,0,0,1.823-.8,5.838,5.838,0,0,0,.5-2.875Zm0-5.481a3.528,3.528,0,0,0-.567-2.187,2.141,2.141,0,0,0-1.782-.783,2.082,2.082,0,0,0-1.755.81,3.7,3.7,0,0,0-.621,2.3,3.7,3.7,0,0,0,.607,2.281,2.059,2.059,0,0,0,1.742.8A2.253,2.253,0,0,0-176.5,37.4a3.156,3.156,0,0,0,.567-2.025Zm16.605,7.749V34.082a2.222,2.222,0,0,0-.378-1.444,1.51,1.51,0,0,0-1.215-.445,2.249,2.249,0,0,0-1.62.621,2.371,2.371,0,0,0-.648,1.755v8.208h-4.887V23.5h4.887v6.615a5.12,5.12,0,0,1,4.158-1.944,4.327,4.327,0,0,1,3.415,1.323A5.556,5.556,0,0,1-154.44,33.3v9.477Zm18.225,0V27.9h-5.562V23.5h16.308v4.4h-5.562V42.776Zm24.6,0V35.162h-6.264v7.614h-5.184V23.5h5.184v6.993h6.264V23.5h5.184V42.776Zm25.947-7.047a7.653,7.653,0,0,1-2.484,5.535,8.859,8.859,0,0,1-6.075,2,8.755,8.755,0,0,1-6.79-2.632q-2.417-2.633-2.417-7.384,0-4.806,2.471-7.52a8.823,8.823,0,0,1,6.871-2.714,8.317,8.317,0,0,1,5.508,1.715,8.1,8.1,0,0,1,2.619,5.089l-5.157.594a4.162,4.162,0,0,0-1.066-2.254,2.922,2.922,0,0,0-2.066-.689q-3.7,0-3.7,5.643,0,5.7,3.753,5.7a3.051,3.051,0,0,0,2.214-.783,3.842,3.842,0,0,0,1.026-2.3Zm13.878-.783a9.554,9.554,0,0,1-4.793-2.025,5.034,5.034,0,0,1-1.5-3.861,5.344,5.344,0,0,1,2.011-4.482,9.166,9.166,0,0,1,5.738-1.566,9.513,9.513,0,0,1,5.7,1.512A5.876,5.876,0,0,1-67.149,28.9l-5.022.513a2.885,2.885,0,0,0-.985-1.755,3.435,3.435,0,0,0-2.092-.54,3.651,3.651,0,0,0-1.917.418,1.357,1.357,0,0,0-.675,1.229,1.306,1.306,0,0,0,.513,1.08,3.881,3.881,0,0,0,1.647.621l2.619.513a9.4,9.4,0,0,1,4.739,2.065,5.118,5.118,0,0,1,1.525,3.9A5.576,5.576,0,0,1-68.9,41.629a9.648,9.648,0,0,1-6.021,1.633A9.482,9.482,0,0,1-81,41.548a6.759,6.759,0,0,1-2.349-5.117h5.157a2.825,2.825,0,0,0,1.012,2.025,3.97,3.97,0,0,0,2.444.648,3.68,3.68,0,0,0,2.052-.472,1.569,1.569,0,0,0,.7-1.39,1.453,1.453,0,0,0-.526-1.188,3.481,3.481,0,0,0-1.607-.621Zm20.574,7.83V41.237A6.275,6.275,0,0,1-58.077,42.7a5.628,5.628,0,0,1-2.322.459,5.053,5.053,0,0,1-3.5-1.147,3.973,3.973,0,0,1-1.283-3.118A3.911,3.911,0,0,1-63.5,35.473a9.829,9.829,0,0,1,5.13-1.336l2.133-.108v-.567A1.623,1.623,0,0,0-58.05,31.6q-1.674,0-1.917,1.4l-4.4-.351q.729-4.482,6.534-4.482A6.789,6.789,0,0,1-53.082,29.6a5.7,5.7,0,0,1,1.539,4.374v8.8Zm-.162-5.994-1.566.081a4.471,4.471,0,0,0-2.011.473,1.29,1.29,0,0,0-.635,1.174q0,1.3,1.593,1.3a2.619,2.619,0,0,0,1.917-.688,2.473,2.473,0,0,0,.7-1.849Zm17.2,5.724a11.2,11.2,0,0,1-3.348.513,5.257,5.257,0,0,1-3.915-1.256,5.743,5.743,0,0,1-1.215-4.09V32.408h-2.268V28.6h2.268V24.875h4.887V28.6h3.078v3.807H-42.66v5.049a1.76,1.76,0,0,0,.378,1.256,1.671,1.671,0,0,0,1.242.391,5.767,5.767,0,0,0,1.35-.162Zm1.782.27V28.6H-32.4V42.776Zm-.027-15.741V23.5h4.941v3.537Zm11.8,15.741L-30.645,28.6h5.292l2.484,9.018,2.484-9.018h5.1l-5.13,14.175Zm19.6,0V41.237A6.275,6.275,0,0,1-7.884,42.7a5.628,5.628,0,0,1-2.322.459,5.053,5.053,0,0,1-3.5-1.147,3.973,3.973,0,0,1-1.282-3.118,3.911,3.911,0,0,1,1.674-3.416,9.829,9.829,0,0,1,5.13-1.336l2.133-.108v-.567A1.623,1.623,0,0,0-7.857,31.6q-1.674,0-1.917,1.4l-4.4-.351q.729-4.482,6.534-4.482A6.789,6.789,0,0,1-2.889,29.6,5.7,5.7,0,0,1-1.35,33.974v8.8Zm-.162-5.994-1.566.081a4.472,4.472,0,0,0-2.012.473,1.29,1.29,0,0,0-.634,1.174q0,1.3,1.593,1.3a2.619,2.619,0,0,0,1.917-.688,2.473,2.473,0,0,0,.7-1.849Z" transform="translate(4477.456 2221.757)" fill="#ea514b"/>
  </g>
</svg>
