<svg xmlns="http://www.w3.org/2000/svg" width="115.327" height="142.318" viewBox="0 0 115.327 142.318">
  <g id="Greencush_Undecided" transform="translate(-310.139 -801.665)">
    <path id="Path_77" data-name="Path 77" d="M6832.386,2726.691a16.324,16.324,0,0,0-5.492-3.431,61.94,61.94,0,0,0-11.021-3.319c-.686-.152-.615-.357-.244-.788,1.469-1.7,2.919-3.417,4.272-5.216,4.471-5.943,8.316-12.215,10.251-19.488a17.238,17.238,0,0,0,.4-8.666,7.782,7.782,0,0,0-4.258-5.488c-2.921-1.4-5.979-1.27-9.032-.677a38.186,38.186,0,0,0-9.7,3.461,76.74,76.74,0,0,0-13.347,8.689c-.163.129-.3.408-.56.256-.214-.125-.2-.391-.205-.615-.011-2.026-.175-4.043-.333-6.061-.213-2.714-.564-5.413-.992-8.1-.358-2.24-.825-4.462-1.361-6.67a57.146,57.146,0,0,0-3.768-11.114c-1.62-3.409-3.484-6.657-6.681-8.868a7.009,7.009,0,0,0-7.434-.72,14.663,14.663,0,0,0-5.868,5.74,41.6,41.6,0,0,0-4.33,9.6,78.981,78.981,0,0,0-2.6,10.6c-.408,2.287-.751,4.579-1.006,6.883-.323,2.93-.569,5.867-.628,8.816,0,.2.034.44-.174.54s-.354-.113-.507-.231c-1.128-.869-2.233-1.769-3.389-2.6a65.58,65.58,0,0,0-12.527-7.3,30.239,30.239,0,0,0-11.558-2.73,8.77,8.77,0,0,0-2.685.384,8.319,8.319,0,0,0-3.762,1.922c-2.386,2.25-2.988,5.142-2.839,8.221a29.246,29.246,0,0,0,2.533,9.96,65.578,65.578,0,0,0,8.079,13.715c1.482,1.982,3.023,3.914,4.692,5.742.356.391.416.658-.238.794-1,.208-1.988.487-2.982.732a41.626,41.626,0,0,0-10.918,4.026,11.058,11.058,0,0,0-2.727,2.083,3.429,3.429,0,0,0-.347,4.754,6.592,6.592,0,0,0,1.578,1.587c3.769,2.715,8.158,3.909,12.553,5.069,2.487.657,5.018,1.117,7.55,1.571,2.114.379,4.233.712,6.361.983,2.5.318,5,.593,7.51.849.678.069.631.27.354.774a44.956,44.956,0,0,0-3.308,7.205,14.364,14.364,0,0,0-.882,4.835c.032,2.255,1.007,3.612,2.856,4.042a8.3,8.3,0,0,0,3.646-.039,35.414,35.414,0,0,0,9.465-3.848,97.709,97.709,0,0,0,8.984-5.692.955.955,0,0,1,1.276.018c.849.612,1.733,1.177,2.61,1.751a57.455,57.455,0,0,0,13.276,6.83,12.266,12.266,0,0,0,5.593.731,3.652,3.652,0,0,0,3.176-3.352,15.112,15.112,0,0,0-1.386-6.965,49.358,49.358,0,0,0-2.754-5.657c-.279-.516-.138-.665.376-.7.821-.063,1.645-.11,2.461-.22,3.832-.518,7.671-.976,11.48-1.67a77.165,77.165,0,0,0,14.092-3.708,16.928,16.928,0,0,0,6.433-3.855A3.545,3.545,0,0,0,6832.386,2726.691Z" transform="translate(-6408.158 -1847.462)" fill="#fd4042"/>
    <g id="Group_131" data-name="Group 131" transform="translate(-6408.158 -1847.462)">
      <g id="Group_129" data-name="Group 129">
        <path id="Path_86" data-name="Path 86" d="M6771.786,2710.152a2.948,2.948,0,1,0-2.955,2.941h.007A2.947,2.947,0,0,0,6771.786,2710.152Z" fill="#c0f3f4"/>
        <path id="Path_87" data-name="Path 87" d="M6787.229,2710.152a2.948,2.948,0,1,0-2.955,2.941h.007a2.941,2.941,0,0,0,2.948-2.935Z" fill="#c0f3f4"/>
      </g>
      <g id="Group_130" data-name="Group 130">
        <path id="Path_88" data-name="Path 88" d="M6785.123,2726.978h-16.885a1.317,1.317,0,0,1,0-2.634h16.885a1.317,1.317,0,0,1,0,2.634Z" fill="#c0f3f4"/>
      </g>
    </g>
    <text id="Undecided" transform="translate(365.758 938.983)" fill="#ea514b" font-size="17.403" font-family="AktivGrotesk-Medium, Aktiv Grotesk" font-weight="500" letter-spacing="0.02em"><tspan x="-45.474" y="0">Undecided</tspan></text>
  </g>
</svg>
