<svg xmlns="http://www.w3.org/2000/svg" width="148.2" height="100.973" viewBox="0 0 148.2 100.973">
  <g id="Group_58" data-name="Group 58" transform="translate(-3016.683 -3843.241)">
    <g id="Group_57" data-name="Group 57">
      <path id="Path_42" data-name="Path 42" d="M3027.2,3882.283c5.9-1.042,12.789-5.61,14.118-11.45a.3.3,0,0,0-.086-.292.312.312,0,0,0-.292-.078c-2.442.672-4.369,1.134-6.232,1.58-.963.233-1.924.463-2.951.721a.307.307,0,0,0-.231.313c.128,2.759-2.473,4.879-5.061,5.336a4.026,4.026,0,0,1-3.2-.594c-1.266-1.02-1.541-3.033-.7-5.125,1.247-3,4.308-5.409,8.622-6.786a39.523,39.523,0,0,1,5.247-1.274,84.64,84.64,0,0,1,14.043-1.069c4.491-.037,9.164.117,13.684.267,4.356.143,8.467.278,12.3.247a73.405,73.405,0,0,0,8.426-.474.283.283,0,0,0,.158-.065,97.944,97.944,0,0,0,8.994-8.65.317.317,0,0,0,.037-.377.3.3,0,0,0-.35-.133,57.8,57.8,0,0,1-6.942,1.623c-7.645,1.35-16.575,1.815-26.029,2.306-2.352.122-4.785.248-7.19.391a129.743,129.743,0,0,0-14.7,1.473,41.172,41.172,0,0,0-13.808,4.71c-3.615,2.117-7.757,6.255-8.314,10.337a5.763,5.763,0,0,0,1.614,5.014,8.917,8.917,0,0,0,6.485,2.271,14.065,14.065,0,0,0,2.113-.183Z" fill="#ea514b"/>
      <path id="Path_43" data-name="Path 43" d="M3052.6,3865.868a.3.3,0,0,0-.246-.123.27.27,0,0,0-.058.006l-6.892,1.869a.3.3,0,0,0-.252.3.314.314,0,0,0,.237.31.178.178,0,0,1,.118.095,2.75,2.75,0,0,0,.189.269c.24.316.4.524.032,1.664l-.014.074c-1.972,4.258-3.466,7.231-5.2,10.674l-.02.038c-1.058,2.11-2.376,4.733-3.949,7.961-1.247,2.515-1.919,3.725-3.912,7.318l-.4.718a108.622,108.622,0,0,0-5.112,10.168.1.1,0,0,0,.035.124.107.107,0,0,0,.058.018.1.1,0,0,0,.071-.027,21.9,21.9,0,0,1,13.069-6,.1.1,0,0,0,.082-.059.1.1,0,0,0-.01-.1c-1.95-2.657-.393-7.985,1.724-12.1.516-1,.962-1.871,1.234-2.479l9.243-20.39a.308.308,0,0,0-.033-.317" fill="#ea514b"/>
      <path id="Path_44" data-name="Path 44" d="M3082.424,3882.875a19.1,19.1,0,0,1,2.671-5.025c1.478-2.026,3.009-3.329,4.3-3.662a2.7,2.7,0,0,1,.418-.054.566.566,0,0,1,.069,0,.662.662,0,0,1,.5.227.857.857,0,0,1,.175.608c-.132,3.234-5.751,7.189-8.138,7.9m18.244-5.382c.794-2.763,3.01-5.876,5.784-6.591a2.878,2.878,0,0,1,.423-.054c.022,0,.041,0,.064,0a.7.7,0,0,1,.574.293.6.6,0,0,1,.117.47c-.944,3.367-4.891,5.443-6.962,5.879m28.828-6.653-.082.22c-1.163,2.49-2.332,5.06-3.424,7.467a.514.514,0,0,0-.064.135,7.153,7.153,0,0,1-3.756,2.534,1.988,1.988,0,0,1-2-.613c-.843-1.019-.869-3.024-.068-5.365,1.287-3.828,4.419-7.2,7.128-7.679a2.964,2.964,0,0,1,.52-.052,1.6,1.6,0,0,1,1.191.428,3.507,3.507,0,0,1,.554,2.925m19.621-23.472c-.365,2.61-3.738,5.929-6.757,7.625,1.381-2.928,4.575-8.145,6.1-8.593l.053-.012a.941.941,0,0,1,.126-.011.415.415,0,0,1,.312.118,1.055,1.055,0,0,1,.167.873m3.774-3.059a3.5,3.5,0,0,0-2.755-1.068,6.8,6.8,0,0,0-1.26.14c-5.954,1.229-9.544,6.786-12.532,12.623l-.418-.009c-.505-.012-1.028-.021-1.567-.055-1.641-.066-3.232-.092-4.722-.081a60.71,60.71,0,0,0-10.063.83,34.332,34.332,0,0,0-13.952,6.172.308.308,0,0,0-.08.394.3.3,0,0,0,.374.143,11.417,11.417,0,0,1,2.236-.591c1.535-.244,5.188.3,5.949,2.427a.31.31,0,0,0,.227.2.3.3,0,0,0,.286-.093c2.088-2.317,6.218-5.059,9.518-5.642a43.279,43.279,0,0,1,7.786-.623c.74.01,1.452.007,2.177,0l.714-.005c-1.028,2.328-1.909,4.295-2.76,6.163a5.117,5.117,0,0,0-4.548-2.457,7.089,7.089,0,0,0-1.177.11c-4.986.882-10.29,6.729-11.822,13.036-.108.436-.2.886-.267,1.338-1.33,2.539-5.826,6.8-9.6,7.464a4.869,4.869,0,0,1-3.236-.4,3.875,3.875,0,0,1-1.263-2.255,19.281,19.281,0,0,0,11.653-8.216,5.442,5.442,0,0,0,.864-4.739c-.4-1.934-1.852-2.988-4.077-2.971a9.09,9.09,0,0,0-1.27.112,13.9,13.9,0,0,0-7.848,4.526,18.716,18.716,0,0,0-4.512,8.027,11.592,11.592,0,0,0-.256,4.862c-1.8,1.883-4.957,4.252-8.017,4.79a4.833,4.833,0,0,1-3.234-.4,2.616,2.616,0,0,1-1.232-1.7,19.288,19.288,0,0,0,11.651-8.217c1.286-2.05,1.844-4.054,1.527-5.494-.4-1.932-1.852-2.986-4.075-2.968a8.753,8.753,0,0,0-1.27.109l-.25.042a14.04,14.04,0,0,0-6.886,3.832c-1.441,1.047-2.99,2.073-4.732,3.135-.024-2.18-.724-3.271-1.316-3.8a2.771,2.771,0,0,0-2.383-.649,4.466,4.466,0,0,0-3.257,2.906,5.883,5.883,0,0,0,1.123,5.669,37.759,37.759,0,0,1-10.357,11.781.914.914,0,0,1-.241.08.774.774,0,0,1-.77-.319,1.047,1.047,0,0,1-.036-1.1l.628-1.495c2.111-5.04,4.294-10.251,6.671-15.867a.316.316,0,0,0-.04-.314.292.292,0,0,0-.3-.114l-6.685,1.439a.1.1,0,0,0-.07.059.1.1,0,0,0,0,.089,4.606,4.606,0,0,1,.04,2.283q-1.031,2.445-2.085,4.923c-1.218,2.869-2.477,5.835-3.673,8.731a53.7,53.7,0,0,1-4.694,2.96,1.1,1.1,0,0,1-.335.127.517.517,0,0,1-.1.009.226.226,0,0,1-.2-.073c-.082-.111-.088-.4.142-.87l.674-1.608c2.218-5.3,4.316-10.3,6.622-15.752a.311.311,0,0,0-.333-.431l-7.366,1.3a.307.307,0,0,0-.252.294.317.317,0,0,0,.229.312,1.046,1.046,0,0,1,.7.528,1.844,1.844,0,0,1-.034,1.437q-1.146,2.73-2.3,5.437l-.19.452c-1.136,2.669-2.306,5.432-3.454,8.2-.753,2.051-.658,3.88.261,5.015a3.052,3.052,0,0,0,2.98,1.008,5.191,5.191,0,0,0,1.95-.814c1.9-1.272,3.791-2.647,5.333-3.883a3.279,3.279,0,0,0,1.181,1.765,4.157,4.157,0,0,0,3.266.66,6.8,6.8,0,0,0,1.685-.544c2.967-1.061,10.37-7.124,16-15.309.175-.117.355-.239.537-.365a14.04,14.04,0,0,0-.728,2.146c-.826,3.4-.424,6.116,1.164,7.865a6.381,6.381,0,0,0,4.949,1.9,11.431,11.431,0,0,0,1.86-.176,14.962,14.962,0,0,0,1.671-.4,20.494,20.494,0,0,0,9.141-6.016,4.134,4.134,0,0,0,.31.4,7.732,7.732,0,0,0,5.722,2.456,7.872,7.872,0,0,0,1.286-.118,15.355,15.355,0,0,0,1.669-.4c3.705-1.126,7.524-4.5,9.474-7.335a6.638,6.638,0,0,0,1.52,3.211,5.127,5.127,0,0,0,3.957,1.66,7.018,7.018,0,0,0,1.158-.109,11.794,11.794,0,0,0,5.157-2.556,3.079,3.079,0,0,0,2.554,1.163,4.508,4.508,0,0,0,.723-.067,5.934,5.934,0,0,0,2.07-.824c.468-.3.862-.545,1.2-.757a15.161,15.161,0,0,0,2.806-2.026,1.251,1.251,0,0,1,1.649.2,2.677,2.677,0,0,1,.153,2.541c-1.258,4.674-6.563,6.456-15.914,8.107-.589.1-1.171.2-1.725.283-6.626,1.053-13.62,1.74-20.383,2.406l-.04.005c-3.575.349-7.271.712-10.863,1.126-8,.906-16.265,1.842-23.208,3.068-6.454,1.14-11.238,2.145-15.126,3.641a.1.1,0,0,0-.066.095.1.1,0,0,0,.068.095,21.819,21.819,0,0,1,10.331,7.918.09.09,0,0,0,.074.042h.009a.1.1,0,0,0,.072-.029c4.709-4.867,27.331-9.3,36.839-10.972,2.479-.44,4.937-.86,7.662-1.328l.263-.045c2.312-.4,4.571-.784,6.737-1.166,6.024-1.063,9.865-1.833,12.843-2.573,3.762-.933,7.676-2.092,10.83-4.239.074-.049,7.246-5.264,4.558-10.788a3.708,3.708,0,0,0-2.259-1.611,4.749,4.749,0,0,0-2.084-.045,6.1,6.1,0,0,0-3.286,1.442c-.3.161-.626.187-.712.068-.072-.1-.074-.388.17-.852q1.614-3.52,3.239-7.034l.31-.669c1.707-3.694,3.644-7.881,5.505-12,4.9-1.869,11.359-7.091,12.387-11.053a3.5,3.5,0,0,0-.557-3.3" fill="#ea514b"/>
      <text id="QUICKIES" transform="translate(3024.96 3938.214)" fill="#ea514b" font-size="22.791" font-family="SegoeUI, Segoe UI" letter-spacing="-0.02em"><tspan x="0" y="0">QUICKIES</tspan></text>
    </g>
    <text id="TM" transform="translate(3158.882 3910.142)" fill="#ea514b" font-size="7.795" font-family="SegoeUI, Segoe UI"><tspan x="-5.542" y="0">TM</tspan></text>
  </g>
</svg>
