<svg xmlns="http://www.w3.org/2000/svg" width="102" height="136.848" viewBox="0 0 102 136.848"><g id="Group_307" data-name="Group 307" transform="translate(-488.068 -305.024)"><path id="Path_151" data-name="Path 151" d="M588.468,372.915a14.263,14.263,0,0,0-4.807-3,54.193,54.193,0,0,0-9.647-2.906c-.6-.133-.538-.313-.213-.69,1.286-1.489,2.555-2.991,3.739-4.565,3.913-5.2,7.279-10.692,8.972-17.058a15.091,15.091,0,0,0,.348-7.585,6.814,6.814,0,0,0-3.727-4.8,12.279,12.279,0,0,0-7.9-.592,33.426,33.426,0,0,0-8.494,3.028,67.275,67.275,0,0,0-11.682,7.607c-.143.112-.263.356-.491.223-.187-.109-.177-.342-.179-.538-.009-1.774-.153-3.539-.291-5.3-.187-2.376-.494-4.738-.869-7.088-.313-1.961-.722-3.906-1.191-5.838a49.907,49.907,0,0,0-3.3-9.729c-1.417-2.984-3.049-5.826-5.847-7.762a6.133,6.133,0,0,0-6.507-.63,12.826,12.826,0,0,0-5.136,5.024,36.378,36.378,0,0,0-3.79,8.4,69.183,69.183,0,0,0-2.277,9.28c-.357,2-.658,4.007-.88,6.025-.283,2.564-.5,5.135-.55,7.716,0,.172.03.385-.153.473s-.31-.1-.444-.2c-.987-.76-1.954-1.548-2.965-2.275a57.458,57.458,0,0,0-10.966-6.392,26.488,26.488,0,0,0-10.117-2.39,7.709,7.709,0,0,0-2.349.337,7.277,7.277,0,0,0-3.293,1.682c-2.089,1.97-2.616,4.5-2.486,7.2a25.6,25.6,0,0,0,2.218,8.718,57.4,57.4,0,0,0,7.071,12.005c1.3,1.734,2.647,3.426,4.107,5.026.312.342.364.576-.208.695-.877.182-1.741.426-2.611.64a36.46,36.46,0,0,0-9.556,3.524,9.73,9.73,0,0,0-2.387,1.823,3,3,0,0,0-.3,4.162,5.746,5.746,0,0,0,1.381,1.389c3.3,2.377,7.141,3.421,10.987,4.437,2.177.575,4.393.978,6.609,1.375,1.85.332,3.7.623,5.568.86,2.187.279,4.38.52,6.574.743.592.06.551.237.309.678a39.24,39.24,0,0,0-2.9,6.307,12.575,12.575,0,0,0-.773,4.231c.029,1.975.882,3.163,2.5,3.538a7.252,7.252,0,0,0,3.192-.034,31,31,0,0,0,8.285-3.368,85.671,85.671,0,0,0,7.863-4.982.835.835,0,0,1,1.117.016c.744.536,1.517,1.03,2.285,1.532a50.245,50.245,0,0,0,11.62,5.979,10.745,10.745,0,0,0,4.9.64,3.2,3.2,0,0,0,2.78-2.934,13.235,13.235,0,0,0-1.212-6.1,43.351,43.351,0,0,0-2.411-4.952c-.244-.451-.121-.581.329-.616.719-.054,1.44-.1,2.154-.192,3.354-.453,6.714-.854,10.049-1.462a67.475,67.475,0,0,0,12.334-3.246,14.806,14.806,0,0,0,5.631-3.374A3.1,3.1,0,0,0,588.468,372.915Z" fill="#fff"></path><g id="Group_295" data-name="Group 295"><g id="Group_293" data-name="Group 293"><path id="Path_161" data-name="Path 161" d="M535.425,358.438a2.581,2.581,0,1,0-2.586,2.575h.005A2.58,2.58,0,0,0,535.425,358.438Z" fill="#c1dc89"></path><path id="Path_162" data-name="Path 162" d="M548.942,358.438a2.581,2.581,0,1,0-2.586,2.575h.006a2.574,2.574,0,0,0,2.58-2.569Z" fill="#c1dc89"></path></g><g id="Group_294" data-name="Group 294"><path id="Path_163" data-name="Path 163" d="M547.1,373.166H532.32a1.152,1.152,0,1,1,0-2.3H547.1a1.152,1.152,0,1,1,0,2.3Z" fill="#c1dc89"></path></g></g><text id="Undecided" transform="translate(539.068 436.872)" fill="#fff" font-size="19.821" font-family="Futura-Medium, Futura" font-weight="500"><tspan x="-50.394" y="0">Undecided</tspan></text></g></svg>