<?xml version="1.0" encoding="utf-8"?>
<!-- Generator: Adobe Illustrator 25.3.1, SVG Export Plug-In . SVG Version: 6.00 Build 0)  -->
<svg version="1.1" id="Layer_1" xmlns="http://www.w3.org/2000/svg" xmlns:xlink="http://www.w3.org/1999/xlink" x="0px" y="0px"
	 viewBox="0 0 400 400" style="enable-background:new 0 0 400 400;" xml:space="preserve">
<style type="text/css">
	.st0{fill:#FFFFFF;}
</style>
<g>
	<path class="st0" d="M395.64,279.82c-5.38-5.52-12.1-8.93-19.05-11.9c-12.31-5.25-25.2-8.63-38.23-11.51
		c-2.38-0.53-2.13-1.24-0.84-2.73c5.09-5.9,10.12-11.85,14.82-18.09c15.51-20.62,28.84-42.37,35.55-67.59
		c2.63-9.9,3.87-19.93,1.38-30.06c-2.09-8.49-6.68-15.15-14.77-19.04c-10.13-4.87-20.74-4.4-31.33-2.35
		c-11.79,2.29-22.92,6.66-33.66,12c-16.59,8.25-31.78,18.68-46.29,30.14c-0.57,0.45-1.04,1.41-1.95,0.89
		c-0.74-0.43-0.7-1.36-0.71-2.13c-0.04-7.03-0.61-14.02-1.16-21.02c-0.74-9.41-1.96-18.77-3.44-28.09
		c-1.24-7.77-2.86-15.48-4.72-23.13c-3.21-13.24-7.21-26.22-13.07-38.55c-5.62-11.82-12.08-23.09-23.17-30.76
		c-8.06-5.57-16.7-6.84-25.78-2.5c-9.03,4.32-15.14,11.73-20.35,19.91c-6.6,10.36-11.23,21.65-15.02,33.3
		c-3.91,12.04-6.8,24.31-9.02,36.77c-1.41,7.93-2.61,15.88-3.49,23.87c-1.12,10.16-1.98,20.35-2.18,30.58
		c-0.01,0.68,0.12,1.52-0.6,1.87c-0.76,0.37-1.23-0.39-1.76-0.8c-3.91-3.01-7.74-6.13-11.75-9.01
		c-13.67-9.83-27.91-18.71-43.45-25.33c-12.26-5.22-24.85-9.14-40.09-9.47c-2.02-0.26-5.71,0.41-9.31,1.33
		c-4.82,1.24-9.32,3.16-13.05,6.67c-8.28,7.8-10.37,17.83-9.85,28.52c0.58,12.05,4.11,23.47,8.79,34.54
		c7.22,17.1,16.93,32.74,28.02,47.57c5.14,6.87,10.49,13.57,16.27,19.92c1.24,1.36,1.44,2.28-0.82,2.75
		c-3.47,0.72-6.9,1.69-10.34,2.54c-13.15,3.24-26.04,7.18-37.87,13.96c-3.44,1.97-6.73,4.24-9.46,7.22
		c-4.84,5.3-5.26,10.64-1.2,16.49c1.5,2.16,3.36,3.98,5.47,5.51c13.07,9.42,28.3,13.56,43.54,17.58c8.62,2.28,17.4,3.87,26.19,5.45
		c7.33,1.31,14.68,2.47,22.06,3.41c8.67,1.1,17.36,2.06,26.05,2.94c2.35,0.24,2.19,0.94,1.22,2.69
		c-4.43,8.05-8.51,16.26-11.47,24.99c-1.85,5.44-3.14,11-3.06,16.77c0.11,7.82,3.49,12.53,9.91,14.02
		c4.22,0.98,8.49,0.76,12.65-0.13c11.71-2.52,22.41-7.65,32.83-13.35c10.81-5.91,21.07-12.7,31.16-19.74
		c1.62-1.13,2.86-1.06,4.43,0.06c2.95,2.12,6.01,4.08,9.05,6.07c14.52,9.5,29.47,18.2,46.05,23.69c6.28,2.08,12.67,3.46,19.4,2.54
		c6.09-0.84,10.43-5.54,11.02-11.63c0.82-8.58-1.8-16.4-4.81-24.16c-2.63-6.8-6.08-13.22-9.55-19.62c-0.97-1.79-0.48-2.3,1.3-2.44
		c2.85-0.22,5.71-0.38,8.53-0.76c13.29-1.79,26.61-3.38,39.82-5.79c16.64-3.03,33.08-6.75,48.88-12.86
		c8.17-3.16,16.1-6.85,22.31-13.37C401.34,292.5,401.36,285.71,395.64,279.82z M162.92,220.33c0.01-5.65,4.6-10.22,10.25-10.2
		s10.22,4.6,10.2,10.25c-0.01,5.64-4.59,10.2-10.23,10.2c-0.01,0-0.02,0-0.02,0C167.48,230.57,162.91,225.98,162.92,220.33z
		 M230.42,268.79c-3.08,5.32-7.51,9.75-12.83,12.83c-16.82,9.74-38.35,3.99-48.09-12.83c-1.2-2.29-0.44-5.13,1.74-6.51
		c2.32-1.48,5.4-0.79,6.88,1.53c2.21,3.81,5.38,6.98,9.19,9.19c12.06,6.98,27.49,2.87,34.47-9.19c1.38-2.38,4.42-3.2,6.81-1.83
		C230.97,263.36,231.79,266.41,230.42,268.79z M236.94,220.4c-0.01,5.64-4.59,10.19-10.23,10.18c-0.01,0-0.02,0-0.02,0
		c-5.65-0.01-10.22-4.6-10.2-10.25c0.01-5.65,4.6-10.22,10.25-10.2s10.22,4.6,10.2,10.25C236.94,220.39,236.94,220.39,236.94,220.4z
		"/>
</g>
</svg>
